<svg width="10" height="12" viewBox="0 0 10 12" fill="none" xmlns="http://www.w3.org/2000/svg">
<path fill-rule="evenodd" clip-rule="evenodd" d="M0 5.85186C0.0510482 5.998 0.713674 6.60491 0.87149 6.75838L2.66852 8.52672C2.95879 8.81299 3.27142 9.14864 3.56103 9.40655C3.6738 9.37319 4.25035 8.75293 4.37947 8.62448L6.41739 6.58288C6.53884 6.4631 6.74203 6.27893 6.82812 6.16015C6.77206 6.04538 6.07073 5.36407 5.96063 5.26664C5.74843 5.37608 3.73119 7.51843 3.56136 7.59718C3.33415 7.35094 2.96947 7.01029 2.67953 6.73236L2.01924 6.09075C1.93683 6.01101 1.84908 5.95296 1.80837 5.85186C2.33554 5.26664 3.67914 4.01312 4.32876 3.36251L5.25697 2.43964C5.29834 2.39526 5.37074 2.3252 5.41111 2.28549C5.996 1.70761 5.95062 1.95852 5.95062 1.25785C5.95062 0.851137 5.96864 0.401045 5.94662 0C5.86687 0.0140132 5.83518 0.0667297 5.76545 0.13713C5.70305 0.202191 5.63866 0.267252 5.57693 0.326308C5.44681 0.454096 5.32603 0.569204 5.19591 0.698994L0 5.85186Z" fill="#0158BF"/>
<path fill-rule="evenodd" clip-rule="evenodd" d="M2.69556 5.85194L3.34584 6.5129C3.37019 6.53759 3.42191 6.59264 3.44593 6.61666C3.52367 6.6914 3.50699 6.68706 3.59407 6.71676L5.95931 4.38355L7.71496 6.1272L6.08976 7.76208C5.72275 8.12642 5.21694 8.66526 5.01575 8.84877L3.74188 10.112C3.66647 10.1837 3.62677 10.2291 3.62677 10.3755L3.6241 12.0001C3.79159 11.9223 8.14837 7.5332 8.77497 6.91928C8.93145 6.7658 9.42725 6.33273 9.49998 6.16023C9.48563 6.1385 9.46968 6.11787 9.45227 6.09851C9.43893 6.08316 9.43392 6.07715 9.42758 6.07081L9.40189 6.04446L9.31881 5.96071L8.37993 5.01148C8.19609 4.81896 7.93417 4.55705 7.71029 4.33451C7.52812 4.15334 7.37131 3.99819 7.30291 3.92879C7.08037 3.70258 6.85982 3.48204 6.63795 3.25716L5.96064 2.58252C5.86388 2.63023 5.82718 2.68261 5.74944 2.76336C5.3157 3.20744 2.75828 5.71047 2.69589 5.85394" fill="#010066"/>
</svg>
