<svg width="96" height="85" viewBox="0 0 96 85" fill="none" xmlns="http://www.w3.org/2000/svg">
<g clip-path="url(#clip0_22_1301)">
<path d="M54.9576 61.2058L47.7481 65.3701L38.4954 70.709L31.2803 66.5447V11.229L9.51811 23.7942L0.270996 29.1387V18.4553L9.51811 13.1163L31.2803 0.551153L32.2379 0L40.533 4.78779V61.2058L47.7481 65.3701L54.9576 61.2058Z" fill="#413834"/>
<path d="M95.2196 18.4553V29.1387L85.9725 23.7942L64.2047 11.229V66.5447L56.9952 70.709L48.1155 75.8364L47.7481 76.0479L32.2379 85L0.270996 66.5447V29.1387L9.51811 23.7942V61.2058L32.2379 74.3221L38.4954 70.709L47.7481 65.3701L54.9576 61.2058V4.78779L63.2527 0L95.2196 18.4553Z" fill="#F37644"/>
<path d="M95.2196 29.1387V66.5447L63.2527 85L47.748 76.048L48.1155 75.8364L56.9952 70.709L64.2047 66.5447L56.9952 70.709L63.2527 74.3221L85.9724 61.2058V23.7942L95.2196 29.1387Z" fill="#413834"/>
</g>
<defs>
<clipPath id="clip0_22_1301">
<rect width="94.9486" height="85" fill="white" transform="translate(0.270996)"/>
</clipPath>
</defs>
</svg>
