<svg width="42" height="30" viewBox="0 0 42 30" fill="none" xmlns="http://www.w3.org/2000/svg">
<path d="M2.77707 0H39.2231C40.6601 0 41.8263 1.16621 41.8263 2.60453V27.3357C41.8263 28.7728 40.6601 29.939 39.2231 29.939H2.77707C1.33876 29.9391 0.173828 28.7728 0.173828 27.3359V2.60453C0.173828 1.16621 1.34004 0 2.77707 0Z" fill="#26A6D1"/>
<path d="M6.89057 10.4131L2.77734 19.5155H7.70146L8.3119 18.0642H9.70725L10.3177 19.5155H15.7378V18.4078L16.2207 19.5155H19.0244L19.5074 18.3844V19.5155H30.7796L32.1503 18.1019L33.4337 19.5155L39.2234 19.5272L35.0971 14.9897L39.2234 10.4131H33.5235L32.1892 11.8006L30.9462 10.4131H18.6835L17.6305 12.7625L16.5528 10.4131H11.6389V11.4831L11.0923 10.4131H6.89057ZM7.84336 11.7056H10.2436L12.9719 17.8781V11.7056H15.6013L17.7086 16.1312L19.6507 11.7056H22.2669V18.2372H20.675L20.662 13.1191L18.3411 18.2372H16.9171L14.5832 13.1191V18.2372H11.3083L10.6874 16.7729H7.33313L6.71355 18.236H4.95887L7.84336 11.7056ZM23.7234 11.7056H30.1964L32.1763 13.8442L34.2199 11.7056H36.1997L33.1916 14.9884L36.1997 18.2334H34.1301L32.1503 16.07L30.0962 18.2334H23.7234V11.7056ZM9.011 12.8108L7.90589 15.4193H10.1148L9.011 12.8108ZM25.3219 13.058V14.2504H28.8532V15.5793H25.3219V16.881H29.2828L31.1233 14.9637L29.3609 13.0569H25.3219V13.058Z" fill="white"/>
</svg>
