<svg width="32" height="32" viewBox="0 0 32 32" fill="none" xmlns="http://www.w3.org/2000/svg">
<rect x="0.708333" y="0.708333" width="30.5833" height="30.5833" rx="4.95833" fill="#E1DFDF"/>
<path d="M9.3335 16L8.5822 15.2487L7.83089 16L8.5822 16.7513L9.3335 16ZM25.3335 17.0625C25.9203 17.0625 26.396 16.5868 26.396 16C26.396 15.4132 25.9203 14.9375 25.3335 14.9375V17.0625ZM13.9155 9.91533L8.5822 15.2487L10.0848 16.7513L15.4181 11.4179L13.9155 9.91533ZM8.5822 16.7513L13.9155 22.0846L15.4181 20.582L10.0848 15.2487L8.5822 16.7513ZM9.3335 17.0625H25.3335V14.9375H9.3335V17.0625Z" fill="#4C4441"/>
<rect x="0.708333" y="0.708333" width="30.5833" height="30.5833" rx="4.95833" stroke="#C5C2C1" stroke-width="1.41667"/>
</svg>
