<svg width="32" height="32" viewBox="0 0 32 32" fill="none" xmlns="http://www.w3.org/2000/svg">
<path d="M10.6641 10.6665L10.6641 9.33317C10.6641 6.38765 13.0519 3.99984 15.9974 3.99984V3.99984C18.9429 3.99984 21.3307 6.38765 21.3307 9.33317L21.3307 10.6665" stroke="#22A06B" stroke-width="2" stroke-linecap="round"/>
<path fill-rule="evenodd" clip-rule="evenodd" d="M4.58579 9.91928C4 10.5051 4 11.4479 4 13.3335V21.3335C4 25.1047 4 26.9904 5.17157 28.1619C6.34315 29.3335 8.22876 29.3335 12 29.3335H20C23.7712 29.3335 25.6569 29.3335 26.8284 28.1619C28 26.9904 28 25.1047 28 21.3335V13.3335C28 11.4479 28 10.5051 27.4142 9.91928C26.8284 9.3335 25.8856 9.3335 24 9.3335H8C6.11438 9.3335 5.17157 9.3335 4.58579 9.91928ZM13 16.0002C13 15.4479 12.5523 15.0002 12 15.0002C11.4477 15.0002 11 15.4479 11 16.0002V18.6668C11 19.2191 11.4477 19.6668 12 19.6668C12.5523 19.6668 13 19.2191 13 18.6668V16.0002ZM21 16.0002C21 15.4479 20.5523 15.0002 20 15.0002C19.4477 15.0002 19 15.4479 19 16.0002V18.6668C19 19.2191 19.4477 19.6668 20 19.6668C20.5523 19.6668 21 19.2191 21 18.6668V16.0002Z" fill="#22A06B"/>
</svg>
