<svg width="32" height="32" viewBox="0 0 32 32" fill="none" xmlns="http://www.w3.org/2000/svg">
<path d="M10.666 10.667L10.666 9.33366C10.666 6.38814 13.0538 4.00033 15.9993 4.00033V4.00033C18.9449 4.00033 21.3327 6.38814 21.3327 9.33366L21.3327 10.667" stroke="#0065FF" stroke-width="2" stroke-linecap="round"/>
<path d="M20 18.6667V16" stroke="#0065FF" stroke-width="2" stroke-linecap="round"/>
<path d="M12 18.6667V16" stroke="#0065FF" stroke-width="2" stroke-linecap="round"/>
<path d="M5.33398 14.667C5.33398 12.7814 5.33398 11.8386 5.91977 11.2528C6.50556 10.667 7.44837 10.667 9.33398 10.667H22.6673C24.5529 10.667 25.4957 10.667 26.0815 11.2528C26.6673 11.8386 26.6673 12.7814 26.6673 14.667V20.0003C26.6673 23.7716 26.6673 25.6572 25.4957 26.8288C24.3242 28.0003 22.4386 28.0003 18.6673 28.0003H13.334C9.56275 28.0003 7.67713 28.0003 6.50556 26.8288C5.33398 25.6572 5.33398 23.7716 5.33398 20.0003V14.667Z" stroke="#0065FF" stroke-width="2"/>
</svg>
