<svg width="46" height="46" viewBox="0 0 46 46" fill="none" xmlns="http://www.w3.org/2000/svg">
<rect width="46" height="46" rx="23" fill="#E1DFDF"/>
<path d="M8.73926 30.532C8.73926 31.0834 9.10686 31.4618 9.66909 31.4618H36.3314C36.8936 31.4618 37.2612 31.0834 37.2612 30.532V14.3465C37.2612 13.7843 36.8936 13.4167 36.3314 13.4167H9.66909C9.10686 13.4167 8.73926 13.7843 8.73926 14.3465V30.532ZM11.0206 28.5858V16.2926C11.0206 15.8926 11.226 15.698 11.6044 15.698H34.4069C34.7745 15.698 34.9907 15.8926 34.9907 16.2926V28.5858C34.9907 28.9751 34.7745 29.1805 34.4069 29.1805H11.6044C11.226 29.1805 11.0206 28.9751 11.0206 28.5858ZM12.2099 27.7425C12.2099 27.9047 12.2964 27.9804 12.4478 27.9804H20.5027C19.4539 26.8559 18.8376 24.899 18.8376 22.423C18.8376 19.9687 19.4539 18.0226 20.4919 16.8873H12.4478C12.2964 16.8873 12.2099 16.9738 12.2099 17.1252V27.7425ZM25.4762 27.9804H33.5635C33.7041 27.9804 33.7906 27.9047 33.7906 27.7425V17.1252C33.7906 16.9738 33.7041 16.8873 33.5635 16.8873H25.487C26.5574 18.0226 27.1845 19.9687 27.1845 22.423C27.1845 24.899 26.5466 26.8559 25.4762 27.9804ZM20.1999 22.423C20.1999 25.6558 21.3244 27.7425 22.957 27.7425C24.6545 27.7425 25.8114 25.6558 25.8114 22.423C25.8114 19.2011 24.6545 17.1252 22.957 17.1252C21.3244 17.1252 20.1999 19.2011 20.1999 22.423Z" fill="#4C4441"/>
</svg>
