<svg width="1440" height="838" viewBox="0 0 1440 838" fill="none" xmlns="http://www.w3.org/2000/svg">
<circle cx="1252.5" cy="375.5" r="462.5" fill="url(#paint0_linear_380_7769)"/>
<circle cx="-67" cy="-19" r="197" fill="url(#paint1_linear_380_7769)"/>
<path fill-rule="evenodd" clip-rule="evenodd" d="M878 299.754C880.842 307.889 917.728 341.673 926.513 350.217L1026.55 448.654C1042.71 464.59 1060.11 483.274 1076.23 497.631C1082.51 495.774 1114.6 461.247 1121.79 454.096L1235.23 340.447C1242 333.779 1253.31 323.527 1258.1 316.915C1254.98 310.526 1215.94 272.6 1209.81 267.176C1198 273.268 1085.7 392.526 1076.25 396.909C1063.6 383.202 1043.3 364.239 1027.16 348.768L990.404 313.052C985.817 308.613 980.932 305.381 978.666 299.754C1008.01 267.176 1082.81 197.397 1118.97 161.18L1170.64 109.806C1172.94 107.336 1176.97 103.436 1179.22 101.226C1211.78 69.0571 1209.25 83.0241 1209.25 44.0206C1209.25 21.38 1210.25 -3.67514 1209.03 -26C1204.59 -25.2199 1202.82 -22.2854 1198.94 -18.3665C1195.47 -14.7447 1191.89 -11.1229 1188.45 -7.83551C1181.21 -0.722014 1174.48 5.68571 1167.24 12.9106L878 299.754Z" fill="#106FFF"/>
<path fill-rule="evenodd" clip-rule="evenodd" d="M1028.05 299.754L1064.25 336.547C1065.61 337.921 1068.49 340.986 1069.83 342.323C1074.15 346.484 1073.22 346.242 1078.07 347.895L1209.74 218.013L1307.47 315.076L1217 406.085C1196.57 426.366 1168.41 456.362 1157.21 466.577L1086.3 536.895C1082.1 540.888 1079.89 543.414 1079.89 551.568L1079.74 642C1089.07 637.673 1331.59 393.343 1366.47 359.169C1375.19 350.625 1402.79 326.517 1406.83 316.915C1406.04 315.706 1405.15 314.557 1404.18 313.479C1403.44 312.625 1403.16 312.29 1402.8 311.938L1401.37 310.47L1396.75 305.808L1344.48 252.968C1334.25 242.251 1319.67 227.671 1307.21 215.283C1297.07 205.198 1288.34 196.562 1284.53 192.698C1272.14 180.106 1259.87 167.829 1247.51 155.311L1209.81 117.756C1204.42 120.412 1202.38 123.328 1198.05 127.822C1173.91 152.543 1031.55 291.879 1028.07 299.865" fill="#0862EB"/>
<defs>
<linearGradient id="paint0_linear_380_7769" x1="1252.5" y1="-87" x2="1252.5" y2="838" gradientUnits="userSpaceOnUse">
<stop stop-color="#0065FF" stop-opacity="0.8"/>
<stop offset="1" stop-color="#0065FF"/>
</linearGradient>
<linearGradient id="paint1_linear_380_7769" x1="-67" y1="-216" x2="-67" y2="178" gradientUnits="userSpaceOnUse">
<stop stop-color="#0065FF"/>
<stop offset="1" stop-color="#0065FF" stop-opacity="0.75"/>
</linearGradient>
</defs>
</svg>
