<svg width="1158" height="591" viewBox="0 0 1158 591" fill="none" xmlns="http://www.w3.org/2000/svg">
<path fill-rule="evenodd" clip-rule="evenodd" d="M1156.62 531.435C1152.05 531.013 1152.87 531.333 1150.98 526.905C1149.24 522.837 1149.75 522.639 1148.77 519.227C1148.17 517.051 1147.19 516.761 1144.86 516.177C1142.39 526.198 1149.94 524.688 1142.05 535.37C1138.31 540.455 1139.13 540.907 1140.19 546.749C1141.18 552.047 1143.71 548.448 1147.23 545.478C1150.42 542.778 1158.31 535.818 1157.99 531.908L1156.62 531.435ZM701.962 244.164C706.538 251.333 713.285 253.626 715.69 263.038C717.582 270.375 700.066 268.122 701.169 259.911C702.776 247.835 697.335 252.503 693.822 244.302C691.788 239.497 691.168 234.245 698.357 232.445C705.933 230.558 700.167 240.448 701.916 244.139L701.962 244.164ZM654.86 308.838C651.189 306.835 647.742 304.471 650.365 300.449C652.292 297.51 654.158 302.147 655.628 304.008C661.892 311.803 663.763 312.281 668.379 321.57C669.162 323.166 673.499 326.242 675.498 328.688C678.269 332.12 678.513 332.247 681.787 335.247C683.851 337.128 683.775 341.257 684.395 343.957C684.939 346.351 680.582 343.413 678.803 342.685C673.479 340.545 676.331 339.66 672.701 338.109C671.115 337.448 672.701 337.499 671.456 335.491C668.603 330.915 669.732 333.406 666.096 329.822C661.734 325.505 665.695 321.992 658.978 316.76C653.858 312.733 661.21 313.089 654.819 308.828L654.86 308.838ZM576.01 243.142C579.987 247.718 578.781 246.401 585.193 247.235C587.964 247.591 590.333 248.984 590.786 251.415C591.238 253.845 593.328 252.213 594.055 254.521C594.762 256.697 596.008 254.318 596.567 257.257C597.075 259.753 600.243 261.833 598.214 261.604C594.742 261.553 595.301 264.594 597.197 264.914C601.656 265.661 599.465 265.712 603.421 267.192C608.968 269.281 606.695 269.52 610.33 265.966C611.576 264.833 615.354 264.695 614.19 262.59C612.923 260.328 607.117 264.167 608.363 258.523C608.424 258.289 609.807 258.304 610.651 257.897C615.028 255.757 619.045 250.489 617.423 260.394C616.757 264.461 616.915 265.387 621.277 267.288C623.123 268.087 621.74 272.373 634.39 272.246C639.434 272.246 643.069 273.318 647.726 272.063C658.531 269.154 651.825 273.522 654.057 276.445C655.073 277.803 652.969 277.803 653.253 279.771C653.452 281.25 651.784 279.588 651.464 282.521C651.382 283.355 649.013 288.007 648.413 288.246C646.842 288.907 641.844 286.975 638.61 287.229L637.141 287.433C628.889 289.05 626.641 287.179 619.106 286.33C613.264 286.111 618.089 288.587 608.744 284.138C594.182 277.172 600.609 294.307 594.645 291.46C594.406 288.251 587.578 288.918 583.52 285.821C579.341 282.628 574.582 282.425 569.096 281.169C567.291 280.757 566.365 282.999 564.982 280.945C563.376 278.515 569.899 276.222 567.23 269.871C565.196 264.944 556.807 268.376 551.783 268.681C538.63 269.261 543.368 267.07 529.651 271.519C527.683 272.098 513.645 275.835 512.262 273.252C511.458 271.727 521.099 270.995 523.829 269.653C525.669 268.748 526.88 267.563 528.329 266.277L528.446 266.16C533.194 261.101 526.269 260.358 533.891 255.772C538.772 252.838 538.35 253.194 541.121 248.471C543.663 244.022 545.819 251.598 555.118 244.495C561.042 239.98 559.598 244.312 562.649 245.939C565.623 247.52 560.34 248.588 571.912 253.296C574.963 254.552 572.573 253.921 575.527 254.176C575.888 254.211 575.085 254.603 576.31 255.284C578.344 256.403 577.475 255.757 577.434 258.63C577.332 265.778 570.926 260.394 570.316 266.099C569.899 269.937 575.7 268.463 578.253 268.259C582.005 267.97 586.042 267.644 585.371 263.683C585.132 262.295 587.318 259.575 586.556 256.723C587.203 256.554 587.86 256.429 588.523 256.347C591.64 255.686 583.22 252.391 583.063 252.325C578.324 249.879 576.153 246.534 572.385 243.341C568.069 239.685 569.574 235.882 576.041 243.102L576.01 243.142ZM614.073 178.123C609.497 178.534 603.395 176.241 600.995 179.856C598.962 182.932 598.306 180.98 597.243 186.466C596.475 190.29 593.486 194.281 594.528 197.199C594.609 197.438 596.018 198.562 593.247 198.765C588.162 199.137 588.727 196.167 580.19 199.97C576.122 201.735 571.038 203.926 566.853 201.602C565.47 200.443 568.78 198.15 570.046 197.779C572.355 197.118 578.141 194.688 579.427 193.244C582.763 189.507 578.441 186.873 582.702 182.765C591.818 173.999 577.195 176.496 582.076 164.969C582.681 163.576 587.903 156.559 589.245 156.458C589.53 156.966 591.055 157.103 591.376 154.81C593.003 143.116 600.797 147.611 598.204 153.336C596.74 156.544 590.415 158.242 590.954 166.647C591.274 171.625 595.733 178.677 602.485 176.928C604.651 176.348 617.327 170.521 616.544 176.109C616.34 177.518 615.496 177.67 614.073 178.143V178.123ZM624.638 248.766C623.952 245.995 626.743 245.959 626.021 241.561C625.863 240.544 627.831 238.129 628.894 237.433C631.202 235.77 634.72 232.17 637.934 234.819C638.696 235.45 637.008 234.6 638.951 235.734C640.476 236.634 636.881 239.898 643.308 239.492C647.325 239.232 644.833 240.29 648.87 238.983C653.009 237.656 656.904 240.814 660.661 242.568C676.591 250.022 669.305 253.708 655.577 250.261C642.922 247.083 645.733 247.017 633.424 251.567C628.945 253.23 626.092 252.894 624.608 248.75L624.638 248.766ZM647.874 233.594C649.638 233.375 657.997 227.752 656.517 231.59C654.87 235.872 645.454 238.063 645.957 234.641C646.074 233.762 647.02 233.675 647.864 233.624L647.874 233.594ZM657.173 230.233C656.833 230.741 656.629 230.014 657.173 230.233V230.233ZM635.631 126.409C629.758 124.09 618.16 125.565 614.032 121.299C609.903 117.033 615.557 116.072 603.405 116.657C601.697 116.738 593.999 115.508 592.881 117.277C591.864 118.863 592.616 118.548 590.608 119.311C585.198 121.426 581.232 122.839 576.346 126.429C572.889 128.971 568.846 128.437 569.538 133.507C570.367 139.608 568.424 137.656 566.04 142.064C564.977 144.021 564.037 145.547 563.106 147.499C561.54 150.809 559.328 152.65 556.557 155.431C550.965 161.024 540.658 163.978 542.651 171.864C543.668 175.901 543.114 179.795 544.401 182.47C546.943 187.778 552.246 186.131 556.059 183.329C562.511 178.585 560.635 185.103 561.988 187.183C563.823 190.056 563.798 187.28 565.181 190.508C565.836 192.034 567.418 194.423 561.982 193.94C558.83 193.661 563.981 190.89 560.03 186.756C557.849 184.468 549.8 188.022 551.32 193.528C551.829 195.44 549.795 195.938 551.153 198.069C550.548 201.816 540.841 201.816 536.098 206.606C534.979 207.734 531.522 213.154 528.349 210.485C525.568 208.151 532.691 206.478 525.298 202.945C522.502 201.602 524.347 200.143 522.248 197.438C519.98 194.5 517.011 190.884 515.882 186.324C515.318 184.041 512.623 177.96 508.225 178.621C505.062 179.094 501.9 180.655 501.645 183.705C501.229 188.82 504.101 189.705 497.217 192.928C495.803 193.594 493.988 195.374 492.255 196.691C488.35 199.645 491.192 200.758 490.043 204.907C487.684 213.398 500.212 210.577 503.262 207.358C505.881 204.623 504.183 204.643 506.46 201.867C508.057 199.92 509.882 194.032 513.624 198.481C514.545 199.579 512.608 198.267 512.201 199.716C511.652 201.714 508.011 201.475 508.845 204.506C509.633 207.383 504.777 208.065 508.499 209.204C512.394 210.383 505.606 214.746 505.505 214.985C504.61 217.09 508.596 216.678 509.572 216.449C512.262 215.819 513.721 216.027 516.629 215.569C518.8 215.229 515.18 216.48 515.053 216.52C511.367 217.654 509.013 219.062 508.687 222.352C508.179 227.726 516.36 225.967 519.766 231.794C519.865 231.963 519.931 232.149 519.96 232.343C520.524 236.08 519.583 239.995 514.712 240.753C514.482 240.793 514.246 240.793 514.016 240.753C506.318 239.136 494.527 236.848 494.09 245.222C493.856 249.686 494.924 249.991 494.146 253.718C493.795 255.421 494.604 256.875 493.129 257.786C492.826 257.948 492.583 258.204 492.436 258.515C492.29 258.827 492.247 259.177 492.316 259.514C492.666 260.862 493.724 262.646 493.882 263.516C495.478 268.89 498.259 265.966 502.378 268.6C505.688 270.725 505.276 275.21 501.996 277.279C495.834 281.118 494.476 283.081 492.549 288.918C489.712 297.495 483.316 296.397 481.643 301.385C479.64 307.354 478.023 306.378 474.84 311.33C472.471 315.016 464.59 318.748 469.054 324.437C470.071 325.709 468.134 337.693 467.529 339.045C465.139 344.409 466.822 343.733 466.568 347.607C466.415 349.956 467.687 349.677 467.814 351.034C467.956 352.498 477.327 352.936 480.281 356.251C481.298 357.415 481.399 360.034 482.904 361.254C483.178 361.841 483.505 362.403 483.88 362.932C486.423 365.174 489.473 366.023 492.016 368.606C493.032 369.623 497.863 372.435 499.022 372.811C503.089 374.143 505.764 372.384 509.14 372.302C514.28 372.201 516.69 372.506 521.302 370.924L521.505 370.868C529.183 369.216 538.142 366.801 546.043 368.362C552.017 373.446 545.987 375.353 557.34 373.853C560.101 373.487 562.71 375.155 564.326 377.026C567.199 380.346 563.462 380.946 565.765 383.758C569.899 388.791 569.37 393.982 573.58 399.774C574.78 401.426 577.017 403.226 577.8 406.078C578.446 408.422 580.581 411.437 581.675 414.686C582.269 416.461 584.898 422.77 584.41 424.728C583.027 430.285 579.437 431.414 578.817 437.292C577.8 447.318 586.128 451.742 588.905 461.971C590.135 466.486 589.413 479.259 597.091 481.455C600.65 482.472 598.896 483.423 600.248 486.341C601.485 488.908 602.587 491.539 603.548 494.222C605.582 500.013 610.158 498.854 616.198 497.496C627.297 495.01 631.68 496.988 641.239 489.656C646.404 485.711 653.757 478.196 655.079 472.212C656.685 464.931 655.48 467 661.948 462.475C665.466 460.014 667.688 455.194 663.809 451.899C660.315 448.935 665.69 444.496 668.217 443.256C672.371 441.222 672.178 439.661 676.484 437.785C683.241 434.836 682.763 428.734 682.301 423.426C681.792 417.696 678.492 416.527 677.725 411.397C677.552 410.268 677.47 408.885 677.216 407.624C675.126 400.557 677.958 398.116 682.301 393.072C687.69 386.788 690.893 384.241 697.935 379.792C701.714 377.359 705.215 374.523 708.379 371.331C711.216 368.52 711.592 370.167 713.499 365.398C714.79 362.174 722.686 354.11 718.853 350.622C711.948 344.333 693.12 360.695 690.263 350.49C691.687 346.178 701.377 346.529 705.237 345.253C709.487 343.85 710.829 342.477 715.212 342.202C723.118 340.006 726.49 334.154 735.143 330.839C740.817 328.663 745.038 325.586 747.712 320.116C751.322 312.733 741.422 315.54 737.426 312.997C732.667 309.947 736.114 304.817 729.413 310.125C726.51 312.428 725.046 314.319 720.48 313.252C717.429 312.54 715.533 310.974 715.965 308.127C716.473 306.271 716.036 305.472 714.119 306.83C711.353 308.793 710.011 302.015 707.652 300.729C705.292 299.442 704.601 299.356 704.067 296.732C702.394 288.384 709.548 294.236 712.202 296.458C721.812 304.527 724.293 303.301 735.428 307.135C741.316 309.169 747.188 308.971 752.237 311.711C760.057 315.967 762.736 311.055 770.714 317.472C775.397 321.239 774.949 317.273 778.219 324.493C782.734 334.459 783.135 328.078 789.857 331.413C792.16 332.557 790.696 337.637 791.672 340.703C793.797 347.378 803.798 370.192 809.976 373.421C817.43 377.346 818.818 368.886 821.67 366.435C825.27 354.578 822.204 351.329 832.693 340.926C836.817 336.859 841.693 328.444 847.947 325.637C851.236 324.158 854.556 324.498 858.115 323.405C861.98 322.216 863.378 325.983 865.274 328.23C871.126 333.315 868.894 331.876 872.703 338.526C876.836 345.751 880.329 335.75 886.344 344.063C888.032 346.387 889.105 348.599 890.569 350.927C892.568 354.105 892.339 356.983 891.947 360.471C891.042 368.606 896.086 365.835 900.296 371.987C902.884 375.77 898.466 375.648 903.464 379.105C905.497 380.524 910.073 386.9 913.856 384.698C915.188 383.93 913.698 380.28 912.331 378.876C907.912 374.407 914.873 374.834 904.404 369.384C898.994 366.608 901.109 365.454 897.723 360.893C893.961 355.808 895.995 356.052 897.469 350.943C898.064 348.909 898.684 350.943 900.52 351.492C906.768 353.327 909.102 353.419 913.231 358.401C914.939 361.772 911.817 363.074 917.974 360.862C921.213 359.184 921.534 356.708 924.584 354.507C927.462 352.437 932.16 350.007 930.914 346.285C930.345 344.572 928.754 344.572 929.048 343.168C925.383 338.765 924.655 337.398 919.317 333.137C914.898 329.613 914.741 326.527 918.646 321.443C918.961 321.031 920.171 321.214 921.452 320.975C926.613 320.029 927.879 324.244 932.302 321.656C946.03 312.255 952.361 317.741 962.336 301.725C966.139 295.624 968.682 291.134 965.804 283.823C964.95 281.642 964.212 280.432 964.05 277.935C963.973 276.725 960.394 272.851 959.88 272.225C957.46 269.332 956.769 269.47 953.779 267.609C950.551 265.575 956.271 260.973 958.986 259.56C964.07 256.911 960.165 254.953 956.876 254.521C952.772 253.987 950.81 255.482 947.683 255.228C944.556 254.974 943.183 253.454 944.79 250.952C946.397 248.451 948.013 242.547 952.523 246.808C958.548 252.508 961.487 242.115 965.921 249.045C967.705 251.827 967.955 254.313 972.739 252.991C976.532 251.949 975.119 257.47 975.474 259.885C975.764 261.873 976.842 266.134 980.716 264.741C982.664 264.039 982.308 263.028 984.56 261.802C989.421 259.163 987.021 260.063 987.784 257.572C988.069 256.662 985.313 253.977 985.181 253.169C984.962 251.827 981.723 251.45 980.503 248.552C979.755 246.788 976.115 244.612 977.132 242.669C978.149 240.727 979.384 240.783 979.451 238.221C979.451 238.185 980.661 233.279 980.696 233.177C982.527 227.716 986.797 229.475 989.996 225.26C994.414 219.474 995.233 219.205 997.215 211.471C998.604 206.046 1001.44 194.815 996.478 189.329C994.144 186.746 992.411 185.48 994.068 182.322C997.744 186.39 999.031 185.088 1001.47 191.449C1001.92 192.782 1002.06 194.2 1001.89 195.598C1001.51 199.665 1002.97 206.499 1008.09 207.8C1010.07 208.309 1008.17 205.807 1011.65 206.621C1016.94 207.846 1011.96 203.301 1010.01 202.106C1006.37 199.874 1005.84 197.021 1005.78 193.244C1010.58 190.503 1008.14 190.325 1004.63 186.39C1001.13 182.454 998.324 178.824 996.234 173.786C995.599 172.26 993.977 170.516 992.675 168.747C991.546 167.222 989.289 167.013 991.007 170.104C992.136 172.138 989.355 173.114 985.811 170.928C978.342 166.316 979.71 171.131 973.456 171.67C972.322 171.767 969.821 169.637 973.019 168.457C974.366 167.949 972.917 166.861 970.563 168.233C968.631 169.362 969.287 165.62 969.622 164.837C971.656 160.068 973.181 155.41 975.215 150.743C978.266 143.818 980.02 145.541 987.601 141.886C989.482 140.976 986.879 140.36 993.794 139.796C996.59 139.557 999.529 134.762 1007.41 138.403C1008.5 138.911 1008.55 141.276 1012.87 138.093C1015.61 136.059 1015.05 140.447 1017.5 137.045C1019.19 134.707 1012.69 136.374 1014.28 131.691C1015.28 129.031 1016 126.271 1016.41 123.46C1016.65 121.523 1019.67 118.792 1022.11 118.462C1028.53 117.587 1029.96 123.15 1034.18 121.904C1034.2 121.904 1036.46 119.296 1036.72 118.853C1037.19 117.923 1038.07 114.699 1039.77 116.011C1039.95 116.148 1039.91 119.341 1039.77 119.84C1038.6 124.726 1039.14 130.68 1037.92 135.093C1037.2 137.696 1033.39 141.408 1034.55 143.137C1038.31 148.729 1034.22 148.551 1036.82 155.253C1039.95 163.281 1047.74 171.294 1053.19 179.734C1055.39 183.151 1058.44 177.619 1056.85 173.765C1055.08 169.469 1059.32 170.298 1058.18 167.11C1057.48 165.157 1057.36 162.295 1059.58 160.642C1064.32 157.119 1058.74 156.066 1057.88 151.76C1057.15 148.028 1062.62 150.356 1060.72 147.484C1060.6 147.291 1060.44 147.136 1060.24 147.039C1060.04 146.943 1059.81 146.91 1059.59 146.945C1058.07 144.235 1056.46 144.362 1056.1 140.904C1055.64 136.486 1050.83 142.43 1049.93 134.579C1049.61 131.732 1051.11 133.13 1051.16 131.183C1051.2 129.658 1049.64 130.314 1049.18 129.19C1048.19 126.785 1048.47 125.9 1050.56 124.034C1050.99 123.653 1052.29 124.004 1052.6 122.407C1052.72 121.746 1054.58 119.977 1055.21 122.692C1055.43 123.607 1056.89 122.453 1056.81 121.629C1058.84 117.562 1061.83 117.709 1066.08 119.26C1069.8 120.618 1070.33 120.872 1071.81 116.55C1073.47 111.71 1071.86 100.402 1080.06 98.1799C1081.96 97.6715 1086.21 98.4138 1084.41 95.0174C1082.51 91.4227 1077.4 89.9737 1075.1 86.3739C1073.65 84.7875 1069.93 83.4554 1071.4 81.386C1069.26 76.4084 1071.34 74.2678 1067.63 69.7834C1066.25 68.1258 1066.61 64.7599 1069.35 67.4191C1074.37 72.2849 1075.12 65.0396 1077.37 65.5277C1081.89 66.5141 1080.84 67.7801 1085.64 66.9666C1085.88 66.9259 1090.41 67.3886 1090.47 65.7311C1090.51 64.5362 1087.97 63.4176 1086.69 61.3178C1084.61 57.9163 1083.05 57.0468 1085.57 53.564C1086.9 51.7184 1084.31 51.7895 1085.42 51.4184C1087.71 50.6455 1084.91 47.5644 1080.73 47.3508C1076.33 47.1424 1078.11 43.5527 1072.2 48.2355C1067.12 52.2573 1066.98 45.9475 1062.16 48.5609C1060.63 49.3999 1057.84 47.6356 1055.83 47.3203C1050.82 46.5322 1045.31 46.1153 1040.1 45.3679C1032.68 44.3052 1028.63 43.8426 1020.66 46.0085C1013.73 47.8745 1007.58 44.6205 1017.71 53.7928C1026.35 61.6432 1012.54 55.9791 1009.42 52.5776C1008.61 51.698 1005.68 49.7303 1005.74 52.6488C1005.18 55.7707 1001.37 57.057 998.548 57.4892C995.588 57.9468 996.834 57.8604 994.17 58.8569C987.194 61.4601 988.663 65.9751 980.193 59.2382C975.327 55.3741 969.566 55.1707 963.465 57.9468C958.803 60.0772 953.891 58.2112 949.473 57.3926C939.304 55.5012 944.897 51.3726 934.672 51.4387C926.791 51.4896 920.644 48.8965 913.038 52.9996C910.261 54.525 914.461 56.1927 914.451 58.923C914.441 61.6533 909.651 61.1856 906.179 61.5262C904.252 61.7144 897.174 62.2228 895.593 62.4109C889.364 63.1482 898.394 70.18 890 70.1342C887.173 70.1342 878.713 64.8565 881.067 62.3448C882.378 60.9415 882.282 61.6381 880.385 59.5484C877.807 56.7062 875.987 51.8455 870.16 52.4302C864.334 53.0149 861.685 50.3201 860.348 56.2333C859.402 60.3924 853.092 60.2653 848.363 60.3873C843.249 60.5246 848.099 55.0893 836.903 59.162C830.802 61.3737 828.504 62.3448 822.25 63.3312C816.576 64.2261 820.216 65.4311 818.955 68.1106C818.477 69.1275 814.415 74.8678 813.627 70.846C812.91 67.17 824.304 56.0198 818.111 51.1235C816.028 49.4014 813.818 47.8378 811.501 46.4458C809.757 45.3628 803.259 42.1749 801.038 42.7697C798.124 43.5578 796.792 46.2221 794.626 44.9001C791.067 42.7087 790.248 45.1543 786.45 43.9188C783.649 43.0036 785.093 38.2548 779.576 40.3953C774.06 42.5359 778.529 49.8371 778.686 53.686C778.763 55.5927 778.63 53.3606 776.942 54.891C776.703 55.1046 774.4 60.7381 771.797 59.6806C768.477 58.3434 769.143 57.4943 765.436 60.306C762.452 62.5685 763.001 63.4126 758.704 66.0361C756.671 67.2666 747.58 72.8442 750.137 76.8406C751.083 78.3201 752.115 77.1863 753.661 78.3659C753.966 78.5998 758.791 79.937 756.6 81.4166C756.513 81.4776 754.195 81.925 753.213 82.2962C750.544 83.3131 746.736 84.5231 744.326 86.1603C743.049 92.5515 752.42 91.5498 753.986 95.9682C754.942 98.6579 747.971 95.9275 747.02 95.9275C743.049 95.9275 742.683 92.2972 740.284 92.943C737.274 93.7463 736.724 96.6902 734.314 95.0174C733.72 94.6056 733.684 97.3359 732.998 98.5765C731.472 101.353 731.421 102.766 733.903 105.318C735.392 106.844 731.986 104.108 731.218 102.776C728.752 98.4952 728.813 92.3278 720.846 93.4413C716.493 94.0514 718.095 99.5833 717.632 101.978C716.808 105.814 717.275 109.814 718.959 113.357C719.809 115.289 726.535 119.036 722.285 119.128C718.034 119.219 711.77 114.613 705.414 114.674C702.364 114.704 701.011 112.182 697.91 111.715C695.632 111.374 696.451 113.55 698.505 114.669C700.274 115.63 704.362 117.313 703.503 120.002C703.091 121.279 699.293 120.811 698.159 121.019C693.12 121.848 691.839 121.69 686.211 121.528C683.668 121.462 678.467 124.009 676.042 125.748C674.466 126.861 668.069 132.474 667.805 132.546C664.109 133.563 667.185 128.987 666.152 127.685C662.288 122.88 657.458 124.746 658.144 131.28C658.363 133.374 660.417 138.398 654.692 137.849C651.341 137.513 652.15 134.732 649.099 132.708C645.769 130.486 640.125 128.107 635.641 126.332L635.631 126.409ZM296.239 331.612C301.832 333.752 302.086 327.91 296.661 329.796C295.477 330.224 295.136 330.884 296.239 331.612ZM561.871 253.347C562.252 253.977 559.059 257.17 561.733 260.109C563.96 262.57 564.784 259.224 564.082 256.748L563.34 254.674C562.323 252.279 564.682 249.274 562.476 248.222C560.95 247.505 557.391 249.884 561.871 253.347ZM693.12 466.71C697.961 469.395 704.408 467.473 706.396 462.597C708.308 457.929 706.701 447.654 713.006 446.515C716.9 445.818 713.326 445.681 714.19 441.69C714.755 439.025 721.359 428.002 714.19 427.453C709.451 427.113 705.938 435.334 701.316 437.622C697.462 439.575 694.305 439.544 694.005 444.623C693.786 447.918 699.089 445.539 693.705 453.216C690.654 457.614 689.185 462.216 693.08 466.685L693.12 466.71ZM257.475 330.295C256.311 332.72 263.023 331.739 259.947 329.918C259.563 329.66 259.095 329.555 258.638 329.625C258.18 329.694 257.765 329.933 257.475 330.295ZM245.69 317.655C247.525 318.489 252.808 320.995 254.918 319.333C255.214 319.093 255.41 318.752 255.468 318.376C255.525 318 255.44 317.615 255.228 317.299C253.113 313.963 246.463 314.345 242.456 314.396C234.423 314.513 232.653 320.37 239.822 316.277C241.892 315.087 243.6 316.618 245.69 317.64V317.655ZM277.061 149.741C272.297 155.71 283.904 155.517 284.779 150.006C285.44 145.755 280.503 146.508 277.061 149.741ZM261.757 319.811C259.123 319.114 257.038 317.604 255.909 320.522C254.425 324.31 266.917 327.234 269.246 323.853C270.771 321.626 263.343 320.065 261.757 319.785V319.811ZM832.983 369.272C828.224 357.481 822.921 366.943 826.775 372.292C828.748 375.012 833.893 374.011 832.983 369.272ZM310.155 118.696C311.681 120.48 316.48 116.896 312.698 116.27C310.913 115.965 309.403 116.947 310.155 118.696ZM290.357 327.554C285.873 325.519 280.974 324.565 276.054 324.768C273.685 324.87 277.884 327.895 276.156 329.217C275.535 329.725 267.319 327.336 269.749 329.949C270.634 330.864 274.447 330.305 276.959 330.884C280.757 331.769 282.842 330.696 286.879 330.376C288.75 330.223 294.17 329.695 290.357 327.554ZM277.468 183.451C272.236 188.073 284.713 187.519 281.927 183.426C280.971 181.966 278.713 182.8 277.468 183.451ZM102.227 183.863C105.563 180.878 102.527 172.708 99.3139 178.412C98.1292 180.553 97.6462 185.531 102.227 183.863ZM476.635 158.542C481.577 156.417 479.686 159.356 481.816 156.046C483.164 153.921 493.51 153.377 490.795 148.079C489.448 145.43 485.635 143.238 481.918 144.123C476.915 145.313 471.749 149.284 466.832 146.802C464.768 145.786 461.916 147.941 463.019 149.726C464.987 152.934 464.544 153.122 465.831 155.975C467.356 159.371 470.813 159.58 474.505 159.188C475.246 159.096 475.967 158.877 476.635 158.542ZM967.049 318.367C970.344 319.15 969.882 314.807 969.943 312.774C970.222 300.764 961.167 309.545 965.906 317.223L967.049 318.367ZM258.248 349.722C257.165 349.443 256.082 348.99 254.964 348.812C254.666 348.769 254.363 348.799 254.079 348.899C250.439 350.149 248.201 352.076 244.083 353.225C242.873 353.566 240.331 354.161 238.943 352.936C238.798 352.799 238.682 352.635 238.602 352.453C234.29 343.138 243.687 337.708 227.726 336.742C227.611 336.734 227.496 336.734 227.381 336.742C225.189 336.935 222.967 337.306 220.771 337.25C220.36 337.261 219.957 337.127 219.635 336.871C219.312 336.616 219.09 336.255 219.007 335.852C218.732 333.818 220.603 330.686 221.223 329.99C223.725 327.168 223.171 325.159 224.879 322.505C226.44 320.08 225.83 318.58 222.337 318.478C216.932 318.326 214.919 319.795 212.143 323.741C211.634 324.432 211.604 325.21 210.516 326.344C209.855 327.036 202.787 328.886 202.004 328.886C191.093 328.378 189.552 324.478 187.402 317.05C186.487 313.882 187.402 312.55 186.893 309.728C186.857 309.487 186.872 309.24 186.939 309.005C187.006 308.77 187.122 308.552 187.28 308.366C187.951 307.349 189.044 306.642 189.364 305.493C189.619 304.567 189.207 303.647 189.227 302.717C189.232 302.622 189.27 302.532 189.334 302.462C192.262 298.903 192.725 297.485 198.252 295.965C203.647 294.48 207.312 294.668 214.268 295.009C222.184 295.395 224.355 290.168 235.745 292.411C244.053 294.038 244.292 296.01 246.376 303.205C247.149 305.869 249.137 310.165 253.316 306.301C257.603 302.346 246.819 292.878 255.62 284.047C255.733 283.935 255.859 283.838 255.996 283.757C258.03 282.542 259.891 282.43 262.026 281.215C264.238 279.949 265.926 278.799 268.478 277.274C272.383 274.93 272.871 275.551 274.412 270.954C275.729 267.009 278.764 266.622 281.835 263.607C286.442 259.092 291.033 254.816 297.358 251.796C297.513 251.722 297.658 251.628 297.79 251.516C302.742 247.245 301.761 244.129 308.63 240.783C315.006 237.677 312.53 238.16 315.926 240.748C319.18 243.224 322.028 238.714 324.641 237.743C327.254 236.772 328.317 236.904 331.337 235.2C331.434 235.145 340.464 232.297 335.542 229.791C332.857 228.418 331.363 233.07 325.795 229.125C320.467 225.352 327.483 223.323 323.477 220.196C322.404 219.362 316.765 217.491 320.34 215.747C321.972 214.954 325.424 215.188 326.268 216.973C326.593 217.664 327.793 219.586 328.475 219.093C331.607 216.81 331.347 216.358 335.293 216.434C335.386 216.439 335.479 216.439 335.573 216.434C339.355 216.088 341.781 214.476 345.263 213.165C347.607 212.28 347.19 215.534 346.743 217.054C345.279 222.067 341.089 217.563 340.067 223.588C339.34 227.894 346.168 226.16 348.426 228.448C351.044 231.072 354.756 230.807 357.995 231.113C362.5 231.54 361.371 226.674 360.893 225.103C358.508 217.242 353.47 220.369 355.331 211.482C355.331 211.431 355.356 211.375 355.371 211.324C357.359 204.862 356.388 203.697 352.9 198.14C352.77 197.936 352.596 197.762 352.392 197.632C351.497 197.072 350.78 195.796 349.997 195.333C344.638 192.171 342.716 191.225 343.535 185.551C343.87 183.222 342.914 181.061 342.66 179.221C342.208 175.977 340.952 174.645 340.225 171.426C340.184 170.944 340.184 170.459 340.225 169.977C340.271 168.167 337.596 167.547 336.666 169.154C336.44 169.563 336.18 169.953 335.888 170.318C333.32 173.369 330.712 177.37 325.866 174.991C319.328 171.777 325.409 167.018 323.761 163.134C322.358 159.829 320.467 161.049 318.809 158.105C318.041 156.748 316.267 154.231 314.299 152.99C314.092 152.864 313.862 152.778 313.623 152.736C311.63 152.365 305.005 152.009 304.944 152.024C298.842 153.26 299.936 157.81 299.005 161.034C298.029 164.41 297.022 165.61 295.09 168.213C295.032 168.288 294.969 168.359 294.902 168.427C291.292 171.986 292.767 172.575 294.394 176.612C294.446 176.742 294.483 176.877 294.505 177.014C295.466 183.441 295.309 186.359 287.092 187.9C281.418 188.968 281.108 193.396 280.828 197.301C280.758 199.096 280.506 200.88 280.076 202.624C279.71 204.15 279.272 205.518 277.803 206.275C277.448 206.461 277.045 206.533 276.648 206.48C276.251 206.427 275.88 206.252 275.586 205.98C274.722 205.131 274.824 204.399 273.985 202.757C272.017 198.918 276.257 201.74 274.707 199.421C272.866 196.65 273.858 197.845 274.224 193.386C274.62 188.561 268.214 186.959 262.657 184.631C259.733 183.405 255.854 179.938 252.966 178.336C246.864 174.98 247.724 174.162 245.171 169.184C245.099 169.046 245.046 168.899 245.014 168.747C243.488 161.629 247.118 159.839 252.472 155.049L252.625 154.897C255.167 151.968 258.111 151.846 260.918 148.551C263.917 144.992 261.726 143.274 268.997 142.399C276.934 141.443 274.081 140.594 279.12 137.711C280.549 136.898 280.701 137.615 279.776 139.023C277.925 141.835 274.834 148.435 283.274 145.592C284.921 145.038 287.453 143.345 290.209 145.343C291.379 146.192 294.724 148.358 296.717 146.807C299.849 144.377 295.441 140.06 293.707 136.186C293.462 135.634 293.426 135.012 293.604 134.435C293.783 133.859 294.164 133.366 294.678 133.049C298.639 130.425 302.178 129.215 303.22 124.436C303.968 120.994 306.093 118.757 307.496 116.199C309.123 113.245 310.272 112.574 312.982 110.937C315.26 109.569 315.657 106.534 316.638 110.601C317.802 115.457 320.929 115.859 315.469 120.49C312.926 122.214 315.382 123.989 317.05 124.019C318.974 124.078 320.899 123.972 322.805 123.704C325.124 123.475 328.266 123.089 326.832 126.638C325.648 129.566 321.453 131.798 319.379 135.215C318.362 136.878 314.426 138.296 311.833 137.884C307.456 137.996 303.779 141.952 309.398 142.913C318.214 144.438 318.641 141.016 323.405 148.582C324.199 149.843 324.422 150.494 326.029 151.831C327.885 153.356 334.556 158.08 337.494 156.519C340.825 154.754 336.157 151.053 341.445 153.565C344.648 155.09 347.429 152.314 347.689 149.497C347.826 147.972 347.14 146.396 346.585 144.921C346.504 144.701 346.376 144.501 346.209 144.336C344.409 142.537 340.077 138.55 343.667 137.218C344.724 136.822 345.584 138.576 346.499 139.532C346.806 139.853 347.216 140.056 347.658 140.106C348.924 140.228 349.407 141.062 350.739 139.949C353.282 137.833 358.102 134.625 358.569 131.503C358.9 129.297 355.387 129.149 354.37 128.259C351.863 126.073 349.753 124.583 347.251 122.667L347.099 122.555C341.176 118.548 344.958 118.101 346.565 113.454C347.582 110.566 346.926 110.444 345.868 107.627C345.472 106.574 343.733 104.83 342.309 103.814C340.423 102.446 339.986 101.983 338.013 99.7866C336.447 98.0427 333.335 97.8393 331.53 94.4327C330.005 91.5092 329.964 89.1754 329.268 85.6163C329.008 84.2842 327.976 83.0741 325.114 82.3572C321.931 81.5843 315.748 80.9488 312.016 81.2539C308.625 81.5335 310.257 80.4709 306.164 79.5302C303.739 78.976 300.907 76.4796 297.521 80.8369C295.995 82.7944 295.029 83.1402 291.785 86.2468C286.843 90.9702 281.083 99.024 289.543 105.369C293.102 108.023 297.078 108.786 292.873 113.326C291.023 115.325 290.184 115.416 287.494 117.999C284.189 121.167 282.369 120.963 284.154 115.584C286.436 108.679 281.647 113.093 279.318 107.622C278.245 105.08 280.03 103.224 279.242 99.9951C278.454 96.7665 278.454 90.3092 280.772 87.2586C284.754 81.9911 290.494 84.8231 293.407 78.371C297.185 69.9867 283.121 74.2221 279.781 78.1981C279.217 78.8743 277.213 82.3063 276.964 79.5455C276.568 75.1322 281.621 70.846 273.715 71.1867C271.371 71.2833 268.122 71.1002 267.349 72.8391C266.378 74.9644 265.824 73.673 265.824 76.205C265.824 82.6927 260.038 74.2068 259.509 81.4064C259.306 84.2384 262.723 86.3129 263.338 89.1703C263.714 90.9092 264.095 92.2617 265.733 93.8429C267.517 95.5716 265.036 100.107 263.597 100.9C260.775 102.425 259.967 102.359 257.669 103.92C256.499 104.713 255.004 104.49 253.927 105.817C252.742 107.271 249.706 105.7 251.191 108.593C252.208 110.596 253.733 112.32 250.24 113.799C248.44 114.567 243.631 113.759 242.217 112.686C241.348 112.005 240.631 111.379 239.96 110.784C238.195 109.213 239.288 106.503 241.754 106.31C242.151 106.279 242.604 106.234 243.127 106.163C251.12 105.1 243.773 101.82 247.403 100.951C253.53 99.4765 253.505 99.3748 250.179 94.1022C249.778 93.4667 244.739 89.0178 247.754 87.4925C248.308 87.223 248.552 87.4925 249.432 86.1502C251.257 83.3995 253.545 79.5404 256.148 76.5202C259.123 73.0781 262.702 70.8053 255.915 68.6851C252.864 67.7343 249.722 70.1698 247.81 71.3799C246.618 72.1073 245.633 73.1278 244.947 74.3441C244.531 74.9557 243.914 75.403 243.203 75.609C242.492 75.815 241.732 75.7668 241.053 75.4729C240.107 75.0966 239.283 75.239 236.878 75.2593C234.845 75.2593 233.579 72.473 232.13 70.907C228.062 66.4683 229.506 66.1378 228.174 60.5399C227.554 57.962 224.661 57.3824 221.157 55.4554C209.85 49.3083 207.633 56.4977 200.85 63.7481C197.942 66.8547 192.837 68.9495 196.63 73.2255C202.497 79.8353 205.355 69.2647 209.661 72.3866C211.385 73.6374 209.112 74.9949 209.321 77.227C209.6 80.2319 204.236 79.7285 205.624 82.2046C207.15 84.9502 212.819 85.6722 207.877 87.4416C204.852 88.5195 202.645 89.4754 204.318 92.6989C204.582 93.2074 205.365 93.0345 206.306 93.604C211.258 96.5936 210.988 95.2615 210.821 100.931C210.744 103.676 215.641 104.027 218.3 103.854C218.844 103.819 219.535 104.093 220.059 104.047L220.644 103.997C223.517 103.758 224.93 107.098 222.637 108.684L221.879 109.193C221.401 109.508 220.024 108.125 219.129 107.047C218.836 106.701 218.469 106.426 218.055 106.242C217.642 106.058 217.192 105.97 216.739 105.985C211.975 106.102 209.28 106.493 208.278 101.342C207.134 95.4496 204.175 97.3868 199.126 94.3463C195.791 92.3125 194.764 87.8687 189.837 87.5941C184.244 87.2891 189.329 86.1908 185.48 85.5197C183.141 85.1079 180.533 90.2279 179.775 85.5197C179.175 81.7623 183.644 80.8369 176.089 81.564C172.626 81.8945 169.154 81.0556 165.178 81.4318C163.652 81.5793 159.885 82.0928 158.059 81.3759C156.763 80.8674 155.609 81.3454 154.358 81.2589C151.775 81.0861 150.092 82.0318 147.352 81.7674C144.982 81.5589 143.401 77.4761 141.728 75.7118C141.504 75.4747 141.222 75.2995 140.91 75.2034C140.062 74.8595 139.19 74.5791 138.301 74.3644C135.617 73.6526 130.237 72.0307 127.187 69.702C125.885 68.6851 122.229 66.1022 121.304 64.7498C119.148 61.6025 118.64 62.3906 115.172 61.3737C114.847 61.2822 114.811 61.1042 114.699 60.8653C113.627 56.935 110.078 54.3775 108.339 50.6964C107.546 49.4659 106.259 49.7964 104.917 49.9998C99.4562 50.8286 94.0972 50.2083 88.6772 51.3269C84.7978 52.12 80.9997 53.7674 77.2525 54.9521C72.6206 56.4215 69.7275 57.535 64.516 56.7672C61.7551 56.3604 58.6892 58.6891 59.0095 61.3432C59.4824 65.2531 58.6129 68.919 59.0095 72.7883C59.2332 74.8881 60.8552 76.7185 60.9569 78.8337C60.9649 79.08 60.907 79.324 60.7891 79.5404C59.4468 82.0013 56.6198 82.3165 54.3725 80.9132C49.7965 78.0557 46.6035 76.4745 40.6954 77.6947C40.6191 77.6947 36.1194 77.9642 35.7889 78.9862C35.4584 80.0082 36.638 80.1505 36.2617 81.5284C35.3364 85.2248 31.4468 87.884 37.2278 90.3092C39.0938 91.0872 41.0818 90.8736 43.0444 91.5193C43.8253 91.7101 44.5917 91.9565 45.3375 92.2566C46.0188 92.5667 46.7865 91.8041 47.9712 91.7736C48.8966 91.7481 50.1168 88.4738 51.2659 91.3007C52.1913 93.5785 48.4339 99.746 44.9765 100.204C41.5191 100.661 39.648 101.22 36.0584 100.941C35.2194 100.88 32.1891 101.256 31.8485 102.405C30.9688 105.339 29.0113 106.183 26.6928 108.069C22.8998 111.161 22.6253 112.793 22.3558 117.257C21.944 124.197 30.0384 121.512 26.8098 127.563C26.2251 128.666 23.4235 131.595 26.1234 132.454C28.5334 133.222 35.0415 133.252 35.3313 135.861C35.9313 141.194 30.435 142.226 25.8946 145.704C25.8183 145.765 20.4644 148.124 19.417 149.416C18.512 150.524 16.8392 150.194 14.597 149.924C13.2648 149.772 10.204 151.719 8.30242 152.411C6.40084 153.102 3.37052 153.565 1.30115 154.612C0.624922 154.953 0.202914 156.137 1.41301 156.448C1.88238 156.548 2.36706 156.555 2.83913 156.468C3.31121 156.381 3.76137 156.201 4.16369 155.939C4.86352 155.584 5.59344 155.291 6.34492 155.065C9.70064 154.048 13.0106 152.726 16.4833 152.822C19.7272 152.919 20.4136 151.353 24.1099 150.829C25.6709 150.611 31.7824 148.068 33.0992 146.67C35.3872 144.23 36.7956 143.411 39.4446 143.62C39.8978 143.641 40.3245 143.839 40.6327 144.172C40.9408 144.505 41.1058 144.946 41.092 145.399C40.975 147.23 42.18 147.667 45.612 146.848C46.6289 146.599 52.3032 145.241 51.2405 142.974C51.1192 142.708 51.0734 142.415 51.1083 142.125C51.3015 140.691 50.9863 138.306 49.705 140.711C48.9932 142.038 48.0882 142.831 46.3035 142.186C44.5189 141.54 47.7424 139.42 48.6474 138.078C49.3237 137.061 50.7575 136.298 51.4337 134.442C52.3387 131.966 54.0064 132.093 57.0774 132.027C58.4858 132.027 58.7197 129.688 58.8316 131.951C58.918 133.639 59.8485 133.639 57.3367 134.961C56.63 135.337 58.3536 136.11 61.0535 135.469C64.1041 134.712 65.66 135.612 70.9935 133.324C76.9881 130.756 81.1065 135.647 87.2282 138.642C89.6534 139.827 93.243 141.001 95.1802 143.64C97.7326 147.153 98.358 151.668 102.817 154.373C104.495 155.39 105.09 155.365 104.963 157.658C104.861 159.442 104.144 160.81 105.385 163.149C107.108 166.398 107.317 169.25 111.872 171.569C112.635 171.95 115.548 172.886 114.496 174.619C112.462 177.97 115.157 180.868 115.63 184.671C115.859 186.537 115.487 189.913 116.362 192.064C117.053 193.767 112.849 193.894 112.579 195.181C111.659 199.589 117.094 204.374 117.638 208.121C118.625 214.853 115.899 220.028 113.179 225.687C109.493 233.345 104.83 239.924 104.454 248.257C104.443 248.45 104.469 248.643 104.531 248.827C105.807 252.894 107.734 255.65 107.881 260.307C107.881 260.918 108.481 265.478 108.746 265.9C113.179 272.978 118.258 274.818 121.965 282.648C122.84 284.504 124.055 288.241 125.722 290.341C126.469 291.177 127.139 292.077 127.726 293.031C127.984 293.474 128.107 293.982 128.081 294.494C128.055 295.006 127.88 295.499 127.578 295.914C126.973 296.646 125.911 297.088 126.216 298.075C126.353 298.517 126.856 298.542 127.263 298.771C130.089 300.27 132.251 302.774 133.324 305.788C133.624 306.571 133.69 307.338 134.091 308.03C135.052 309.693 136.634 310.821 137.859 312.316C138.53 313.114 138.947 314.589 140.401 313.841C141.708 313.186 140.757 311.808 139.964 311.172C138.24 309.769 137.549 308.025 136.969 306.23C135.333 301.094 133.101 296.168 130.319 291.551C129.271 289.802 127.827 288.038 127.883 285.958C127.87 285.392 128.073 284.843 128.45 284.421C128.828 284 129.353 283.739 129.917 283.691C132.037 283.442 133.39 284.875 133.944 286.472C134.498 288.068 133.858 289.782 134.295 291.338C135.368 295.187 138.423 297.251 141.413 300.113C142.602 301.264 143.421 302.742 143.767 304.359C143.879 304.867 143.813 305.376 144.138 305.849C144.36 306.134 144.63 306.379 144.937 306.571C151.811 311.655 156.397 315.174 156.016 323.283C155.899 325.719 156.778 327.351 158.858 328.535C164.583 331.784 168.579 333.864 175.423 335.699C179.231 336.716 183.904 338.943 188.703 339.106C192.486 339.233 197.56 338.715 200.906 340.794C207.912 345.136 216.403 345.919 223.42 349.483C225.454 350.5 225.962 349.366 227.381 351.009C229.664 353.642 226.537 353.454 232.272 354.619C236.156 355.407 236.848 356.652 241.607 356.515C242.97 356.48 242.624 359.469 246.361 358.427C246.841 358.314 247.277 358.06 247.613 357.698C247.948 357.335 248.167 356.881 248.242 356.393C248.307 356.165 248.426 355.956 248.588 355.783C248.835 355.425 249.149 355.12 249.513 354.883C250.837 354.231 252.353 354.081 253.779 354.461C254.233 354.542 254.64 354.79 254.918 355.158C257.069 358.208 257.516 361.539 257.786 365.037C257.964 367.34 257.618 368.306 255.243 369.867C252.869 371.428 247.307 378.434 246.656 379.802C244.515 384.276 245.98 385.903 244.5 389.508C241.185 397.567 244.449 396.626 249.783 402.661C252.086 405.26 252.193 407.268 254.323 410.532C259.179 417.991 260.933 423.284 270.71 427.962C275.19 430.102 279.928 432.934 284.576 434.892C284.815 434.987 285.031 435.135 285.207 435.324C285.383 435.513 285.514 435.739 285.592 435.985C286.742 439.839 288.75 439.788 290.057 445.005C291.582 451.106 293.616 461.122 292.599 468.23C291.226 477.794 292.507 487.617 290.311 496.825C289.53 500.289 288.312 503.639 286.686 506.796C284.911 510.131 287.286 513.304 286.065 517.107C285.145 519.965 286.548 522.954 285.292 525.532C284.276 527.596 282.455 528.811 284.164 531.176C284.937 532.243 286.508 529.564 286.66 527.037C286.797 524.698 290.387 524.027 288.089 530.194C287.626 531.435 284.021 536.464 285.765 538.162C287.799 540.109 281.586 541.889 281.377 542.082C278.52 544.67 279.466 545.977 281.454 548.183C283.899 550.868 283.447 553.232 283.03 556.374C282.999 556.588 282.821 556.674 282.72 556.883C282.48 557.231 282.372 557.653 282.416 558.073C282.46 558.494 282.652 558.885 282.959 559.176C283.64 559.857 284.774 559.684 285.318 560.528C285.577 560.925 285.237 561.657 285.267 562.094C285.308 562.691 285.442 563.278 285.664 563.833C286.111 564.962 286.782 565.999 287.016 567.174C287.153 567.86 287.016 568.597 287.143 569.268C287.197 569.622 287.362 569.95 287.614 570.204C287.866 570.458 288.193 570.625 288.547 570.682C289.335 570.778 289.904 570.25 290.641 570.301C291.15 570.341 291.699 570.712 291.724 571.124C291.795 572.339 290.407 572.863 290.54 574.088C290.57 574.378 290.962 574.597 291.211 574.871C292.098 575.732 292.792 576.772 293.245 577.922C293.611 578.888 293.707 579.956 294.546 580.703C295.385 581.451 296.036 581.268 297.088 580.927C297.983 580.632 298.38 580.286 299.437 580.871C299.87 581.11 301.263 582.229 301.146 582.849C301.069 583.23 301.146 583.393 301.085 583.678C300.78 584.852 299.27 584.049 298.487 584.059C296.392 584.089 296.351 585.254 297.149 586.601C297.648 587.244 298.286 587.766 299.015 588.127C300.151 588.782 301.342 589.336 302.574 589.784C303.249 590.077 303.981 590.209 304.715 590.17C306.24 589.967 307.201 588.798 308.666 588.645C310.13 588.493 311.482 589.016 312.886 589.093C313.547 589.128 314.264 589.133 314.716 588.757C315.896 587.74 314.904 586.871 313.928 586.215C312.483 585.245 311.088 584.203 309.749 583.093C308.793 582.284 307.998 581.303 307.405 580.2C307.12 579.732 306.808 579.282 306.469 578.852C306.047 578.308 305.757 577.663 305.386 577.109C304.933 576.472 304.546 575.79 304.232 575.075C304.207 575.029 304.193 574.977 304.193 574.925C304.193 574.872 304.207 574.821 304.232 574.775C304.298 574.617 304.613 574.653 304.796 574.536C306.286 573.59 304.415 572.146 303.418 571.46C303.312 571.389 303.205 571.46 303.164 571.389C300.983 566.985 302.854 564.27 306.215 560.711C317.375 548.834 309.683 555.291 306.774 547.232C304.74 541.558 312.972 541.223 313.999 536.047C314.304 534.491 315.438 529.945 318.601 530.215C321.041 530.403 320.126 528.73 318.835 528.293C315.55 527.21 314.406 523.997 318.326 523.208C325.765 521.739 324.016 523.661 327.737 517.402C331.459 511.143 340.326 514.682 344.75 508.342C348.436 503.054 340.906 498.651 349.621 497.786C353.409 497.979 355.997 496.627 358.264 494.227C361.127 491.176 361.574 487.866 364.366 484.851C370.467 478.216 372.852 470.269 375.47 462.332C377.758 455.407 382.237 455.916 387.942 452.504C391.756 450.221 393.911 450.257 397.023 447.394C400.48 444.217 400.18 445.986 402.824 440.419C404.782 436.3 407.019 429.019 406.617 423.513C406.16 417.295 409.515 412.363 413.151 407.38C415.586 404.05 413.502 403.999 415.063 400.165C416.725 396.097 418.154 391.984 412.353 389.188C408.738 387.444 406.419 386.295 402.941 384.612C394.954 380.778 385.588 381.475 377.112 378.439C375.302 377.788 373.096 376.955 371.123 376.705C368.448 376.375 367.991 377.133 365.291 375.689C363.613 374.799 362.398 374.163 361.096 371.89C358.946 368.174 356.77 365.118 352.158 362.23C350.063 360.923 347.119 360.044 343.875 358.518C339.808 356.617 333.783 358.89 329.298 355.59C325.617 352.89 324.616 352.595 321.214 350.683C321.024 350.584 320.852 350.453 320.706 350.297C315.225 344.241 312.159 343.545 303.617 343.687C298.751 343.768 296.255 343.001 292.477 342.441C287.723 341.745 283.121 345.055 281.657 340.814C280.442 337.296 276.257 339.482 273.878 340.865C269.149 343.621 265.234 346.57 260.765 349.402C260.519 349.551 260.243 349.647 259.957 349.682C259.403 349.796 258.832 349.796 258.279 349.682C258.264 349.758 258.264 349.748 258.248 349.722ZM591.599 187.89C589.891 183.202 585.152 192.323 589.708 191.322C591.477 190.946 591.798 189.196 591.599 187.89ZM615.679 277.091C621.984 277.091 618.872 272.561 613.869 273.288C610.478 273.796 609.771 276.501 615.679 277.091ZM975.424 358.295C978.474 358.569 982.755 354.07 977.656 352.422C976.73 352.132 972.876 349.041 972.734 353.2C972.632 355.869 975.403 353.831 974.402 355.951C973.893 357.039 974.6 357.598 975.419 358.295H975.424ZM932.206 326.4C932.485 320.299 920.217 327.285 926.262 329.679C929.394 330.92 931.464 328.627 932.206 326.4ZM987.509 349.229C985.603 347.836 984.718 350.79 982.308 347.307C981.688 346.423 976.664 340.159 975.19 342.467C974.427 343.672 977.457 343.54 978.042 345.065C980.076 350.688 989.589 354.425 987.499 349.229H987.509ZM880.289 371.987C876.531 370.711 876.15 372.836 878.941 375.124C879.907 375.892 881.57 381.734 886.954 382.568C888.785 382.853 888.139 385.456 889.969 387.967C892.781 391.842 894.164 392.279 896.757 397.038C898.282 399.84 901.394 401.69 904.125 403.867C905.594 405.036 913.246 407.395 914.293 407.263C917.852 406.754 913.871 401.06 916.764 398.279C917.847 397.262 917.105 395.625 916.663 394.44C914.456 394.165 913.993 398.396 908.934 389.239C904.496 381.225 897.342 382.873 894.911 380.153C892.878 377.88 892.1 374.972 887.504 374.738C887.28 374.738 886.898 375.348 885.917 373.721C884.992 372.196 882.399 372.516 880.324 371.992L880.289 371.987ZM393.266 27.0792C393.672 26.7385 394.084 26.3114 394.516 25.9047C395.508 24.9539 397.15 26.2555 396.215 27.252C395.198 28.3554 393.855 29.1079 392.264 28.3554C391.42 27.9486 392.803 27.369 393.281 27.0792H393.266ZM485.238 36.1346C485.238 36.1346 486.382 34.5482 485.345 33.5923C482.523 30.984 479.752 37.4921 474.103 36.3939C470.036 35.6058 477.662 34.5075 476.533 32.7483C475.974 31.8636 478.949 31.1925 480.21 31.3094C483.291 31.584 489.494 32.3822 488.741 28.3655C488.436 26.7334 486.372 27.7198 484.892 26.5046C484.465 26.1538 481.013 24.6132 481.16 23.4997C481.389 22.6506 481.567 21.832 480.199 21.6083C477.693 21.1914 478.704 20.4135 478.277 19.0661C477.189 15.6138 477.627 16.8391 473.066 14.8155C467.209 12.2174 463.802 11.4445 456.867 13.1936C453.816 13.9613 454.64 12.4207 451.625 13.7783C448.9 15.0087 445.284 11.0886 440.764 13.0665C438.436 14.0833 439.117 15.0138 439.961 16.1171C440.056 16.2532 440.112 16.4128 440.123 16.5784C440.133 16.7441 440.098 16.9095 440.021 17.0564C439.944 17.2034 439.827 17.3263 439.685 17.4118C439.543 17.4972 439.38 17.5418 439.214 17.5408C434.033 17.9679 434.744 19.5237 433.524 22.9404C432.192 26.6724 433.524 27.3537 431.068 23.1082C430.052 21.3846 430.052 22.2845 429.111 19.2847C428.002 15.8578 424.657 14.5664 424.276 18.5475C423.818 23.2862 419.928 26.4995 420.147 23.876C420.483 19.905 422.181 18.0797 418.556 15.5629C417.895 15.1002 418.744 15.8476 417.401 15.1257C412.317 12.4055 411.976 18.5831 405.763 16.2747C401.696 14.7494 404.629 11.1395 397.821 8.40912C393.138 6.53804 386.681 3.8738 381.307 2.61794C381.098 2.56813 380.907 2.46271 380.753 2.31287C377.956 -0.412385 374.936 1.41801 370.538 1.49936C368.154 1.54004 361.122 0.599419 360.705 4.49918C360.537 6.02451 357.268 5.72962 356.403 5.36862C353.521 4.15344 353.571 4.82967 351.065 5.48556C346.194 6.75667 343.58 5.58217 339.996 5.8669C337.108 6.09061 338.333 7.06174 336.437 7.44307C336.325 7.46381 336.215 7.49795 336.111 7.54476C334.754 8.21591 333.701 9.43109 335.852 9.94462C338.084 10.4531 335.598 12.9953 335.461 14.3732C335.354 15.4307 336.63 20.9829 333.356 19.4068C327.641 16.6205 336.315 8.75994 329.263 6.96513C327.483 6.51262 326.436 9.63955 324.346 11.0327C318.824 14.6935 311.284 20.1338 313.867 26.7944C315.631 31.3704 310.816 29.5502 311.238 35.0567C311.747 41.4885 323.131 41.3563 318.418 46.6848C310.949 55.1351 307.837 55.1656 296.697 50.3811C290.835 47.8644 292.289 53.1267 294.714 55.552C299.681 60.5297 297.582 60.0365 295.431 65.9904C292.69 73.5611 301.232 74.2678 308.772 75.2695C310.923 75.5542 319.45 78.2947 321.483 76.1898C324.153 73.4137 328.256 76.3525 327.742 70.7189C326.726 59.7162 307.471 66.9056 307.618 61.9177C307.618 61.1398 313.511 60.25 314.198 60.4483C316.902 61.2364 320.299 61.9737 322.419 62.5991C329.125 64.5718 329.725 68.1919 334.576 64.7193C336.61 63.3109 333.63 65.3802 336.844 63.1939C340.057 61.0076 336.844 56.3706 342.299 54.9927C344.069 54.5504 345.619 53.9453 348.639 53.2284C356.892 51.2608 356.19 43.8934 364.971 40.4462C371.219 37.9904 375.689 36.3786 380.071 31.9501C382.334 29.6621 386.732 29.7332 382.39 32.3111C380.305 33.5517 377.184 35.5397 377.245 37.5429C377.306 39.5462 378.653 39.5767 380.148 39.6682C380.445 39.6735 380.729 39.7943 380.938 40.005C381.148 40.2156 381.267 40.4997 381.271 40.797C381.215 42.2003 380.483 43.9087 379.304 44.5137C373.096 47.6864 361.508 45.2662 357.146 50.1066C353.022 54.6826 363.756 58.2417 359.424 59.9907C355.626 61.5161 354.848 63.3821 355.641 66.7886C356.256 69.3868 357.675 71.1256 360.217 72.4781C360.512 72.6367 360.832 72.745 361.162 72.7984C366.898 73.7035 373.726 70.4291 378.236 74.9085C382.227 78.8743 382.614 88.8093 382.98 93.2125C383.381 98.0833 381.892 99.9646 380.854 103.58C380.285 105.563 381.475 105.059 380.188 106.696C379.858 107.113 381.271 108.893 383.483 108.125C384.536 107.759 388.059 109.356 387.551 111.176C386.697 116.977 385.197 111.954 381.134 112.462C379.431 112.676 381.19 114.781 378.653 115.045C374.468 115.472 374.651 119.789 376.823 122.392C378.994 124.995 379.166 125.443 375.918 128.076C371.647 131.569 370.569 136.659 371.158 141.21C372.226 149.462 375.465 149.553 377.397 156.849C378.19 159.834 377.906 168.457 383.158 169.276C385.781 169.682 385.563 170.059 387.805 171.142C390.973 172.667 391.537 172.336 393.255 175.163C394.781 177.655 397.506 176.831 399.784 175.936C404.156 174.223 405.494 164.639 408.738 161.517C411.381 158.975 412.515 158.883 414.381 156.356C416.74 153.168 422.766 150.204 424.199 147.077C425.308 144.662 426.919 146.472 428.862 145.852C437.927 143.02 439.636 137.34 451.36 134.895C459.496 133.202 456.918 132.963 462.648 129.754C468.541 126.455 472.486 123.038 473.468 116.911C473.511 116.643 473.511 116.37 473.468 116.103C472.517 110.611 470.01 109.864 474.444 104.408C477.708 100.402 479.498 100.798 482.747 95.2259C484.486 92.2515 487.877 90.5584 484.231 87.6908C479.538 83.9995 481.791 81.8792 479.996 78.8032C478.791 76.7287 488.436 81.1064 486.097 76.0016C484.882 73.3272 482.838 73.2154 483.128 69.1631C483.194 68.2326 485.233 63.7634 485.721 62.1415C486.547 59.0619 488.15 56.2464 490.378 53.9657C492.783 51.398 489.672 52.1048 493.658 49.0439C495.031 47.9915 495.351 47.8288 497.217 46.5017C498.93 45.2764 505.255 41.8291 504.844 39.0581C504.335 35.3109 498.697 34.0754 494.781 35.7329C493.495 36.3023 485.675 42.0071 485.365 37.9395C485.359 37.3409 485.316 36.7433 485.238 36.1498V36.1346ZM648.886 277.33C650.253 274.208 641.437 275.444 644.086 278.149C645.652 279.745 647.782 278.657 648.886 277.33ZM930.991 383.483C926.45 383.62 926.532 386.117 927.818 389.208C929.521 393.352 930.045 389.294 930.869 394.425C932.175 398.177 935.689 398.243 940.066 399.001C942.878 399.509 943 399.189 946.295 400.104C952.396 401.802 951.837 398.136 955.447 393.957C960.369 388.334 963.658 387.093 958.879 380.198C954.684 373.014 961.533 375.46 961.69 371.86C961.772 370.38 956.352 366.776 954.943 367.121C954.262 367.289 944.82 374.748 943.88 375.577C942.598 376.733 941.257 377.822 939.863 378.841C937.875 380.214 937.392 379.517 935.287 382.136C934.184 383.529 932.897 383.356 930.97 383.458L930.991 383.483ZM989.848 368.118C991.17 366.501 993.255 363.105 989.711 362.245C987.57 361.737 986.513 365.271 982.196 364.432C973.197 362.723 971.951 374.6 977.076 367.32C978.296 365.586 982.328 366.648 982.943 369.353C983.35 371.194 982.989 372.658 986.106 372.831C987.514 372.907 988.684 369.536 989.848 368.103V368.118ZM968.097 344.531C974.02 345.634 970.985 339.64 971.087 337.921C971.229 335.206 974.137 331.352 970.344 328.632C967.894 326.883 965.484 328.276 964.66 330.996C963.135 336.208 961.93 338.262 966.185 343.153C966.663 343.796 967.321 344.281 968.077 344.546L968.097 344.531ZM923.771 415.037C932.846 416.888 933.853 415.291 941.16 416.018C943.193 416.227 947.169 418.311 946.986 415.51C946.864 413.761 938.007 410.38 936.965 410.192C932.765 409.444 931.159 411.244 927.665 410.7C926.059 409.373 926.649 407.37 921.417 407.37C916.185 407.37 912.702 410.273 919.449 413.471L923.771 415.037ZM669.468 119.931C663.905 123.439 674.14 127.97 674.73 122.214C675.071 119.163 672.259 118.853 669.468 119.931ZM974.849 406.48C982.023 400.958 976.425 404.004 975.022 398.274C973.903 393.662 984.53 392.238 973.202 392.869C971.203 392.986 966.282 393.352 968.31 390.194C971.041 385.888 981.637 391.847 986.579 387.845C988.791 385.425 985.562 385.629 983.228 385.751C979.456 385.954 978.383 386.579 973.99 386.351C972.841 386.273 971.688 386.312 970.548 386.468C967.1 387.073 966.861 390.225 965.463 392.777C959.138 404.248 966.353 399.829 964.878 404.843C964.197 407.146 965.229 408.224 967.578 405.468C970.334 402.219 971.514 402.377 973.614 405.819C973.853 406.236 974.224 406.861 974.864 406.48H974.849ZM997.17 275.123C999.02 274.157 1000.93 270.232 1003.56 270.893C1004 270.995 1005.35 270.385 1007.11 270.573C1008.96 270.741 1011.09 268.295 1013.72 267.278C1017.06 265.966 1018.37 266.017 1019.85 263.012C1021.46 259.819 1025.29 267.192 1023.57 256.575C1023.26 254.709 1023.43 252.991 1021.94 251.669C1021.28 251.089 1023.47 249.935 1023.63 247.2C1024.35 236.111 1010.07 229.333 1014.23 246.183C1015.92 252.96 1013.62 249.549 1013.81 252.635C1013.95 255.05 1008.56 252.706 1005.99 255.747C1003.14 259.107 1004.4 259.585 999.087 261.299C996.255 262.199 992.919 264.665 991.394 266.958C990.631 268.112 990.931 270.517 990.128 272.815C989.243 275.327 990.387 273.41 990.972 276.669C991.19 277.91 991.872 281.016 994.226 280.228C997.038 279.277 994.185 276.12 997.154 275.144L997.17 275.123ZM958.07 414.127C952.127 414.076 953.957 418.337 959.901 416.11C963.414 414.803 959.758 414.244 958.07 414.127ZM991.47 415.652C993.199 413.817 981.027 416.827 979.842 417.686C977.574 419.369 976.186 424.072 984.204 418.942C988.44 416.242 988.679 417.264 991.068 415.891L991.47 415.652ZM966.185 414.025C961.909 416.247 970.344 418.642 975.286 416.059C980.371 413.425 968.636 413.517 966.185 414.025ZM998.217 396.443C988.836 398.38 1006.15 401.828 1003.94 397.786C1003.13 396.326 999.783 396.342 998.217 396.443ZM274.244 38.4988C271.814 41.3359 278.378 43.2731 277.152 38.8751C276.715 37.2582 275.429 37.5328 274.244 38.4988ZM306.205 39.175C306.293 39.0669 306.358 38.9425 306.398 38.809C308.645 31.3908 296.229 27.0792 298.161 41.5749C299.046 48.1847 305.534 47.7728 302.737 43.4104C301.852 42.0325 303.52 42.2867 305.386 40.197L306.205 39.175ZM273.822 61.4296C275.912 67.3733 277.478 64.7243 282.435 63.7227C283.925 63.4176 284.825 70.9223 289.726 68.8682C289.848 68.8173 291.002 67.6276 291.882 66.7073C292.126 66.461 292.318 66.1674 292.444 65.8444C292.571 65.5213 292.63 65.1758 292.618 64.8291C292.606 64.4823 292.524 64.1417 292.375 63.8281C292.227 63.5145 292.016 63.2347 291.755 63.0058C291.37 62.6771 291.029 62.3013 290.738 61.8872C288.226 57.8197 284.189 61.2059 287.743 54.0064C290.036 49.3693 283.447 48.8253 280.335 50.1676C274.691 52.6132 275.876 48.6423 272.861 48.0271C271.097 47.6711 269.948 52.4251 270.751 54.4487C271.819 57.1994 272.785 57.962 273.847 61.4296H273.822ZM14.6427 123.867C18.0544 123.048 16.168 119.601 11.9073 121.116C10.3413 121.675 10.9667 124.289 14.6427 123.867ZM829.627 60.0009C834.046 60.0823 831.183 55.0741 828.046 57.8095C826.419 59.2179 828.046 60.1382 829.627 60.0009ZM717.261 88.0873C714.917 92.5667 726.068 92.8108 721.985 87.5789C720.419 85.6163 718.593 86.562 717.261 88.0873ZM692.82 78.1066C695.871 74.039 696.598 73.6577 700.793 70.4799C707.402 65.5023 699.049 62.7007 696.939 63.8193C692.963 65.9599 698.144 68.6089 689.348 70.5155C682.819 71.9239 678.203 77.4456 676.291 82.5911C675.188 86.6129 676.957 89.2008 673.54 91.5041C672.117 92.4752 674.588 94.1378 674.928 96.9393C676.194 107.708 671.369 101.887 671.008 106.996C670.688 111.872 682.702 115.64 687.66 114.623C691.88 113.738 691.615 112.91 687.98 110.393C679.225 104.347 684.848 106.625 684.726 98.0122C684.446 79.5302 683.826 90.0143 692.82 78.0863V78.1066ZM575.731 75.661C576.493 73.6272 577.195 67.2716 578.141 66.5446C579.326 65.6243 580.932 66.7479 581.054 68.3953C581.232 71.1307 580.571 73.5255 586.052 73.4187C593.445 73.3018 588.086 65.2836 583.042 62.533C581.776 61.8364 577.678 59.8687 580.632 58.3891C583.124 57.1689 590.801 60.2399 591.737 54.9063C592.321 51.5302 596.313 48.8456 587.298 47.4678C584.908 47.1119 578.202 48.3881 577.841 47.6559C577.378 46.7712 577.297 45.7035 575.146 45.9424C570.951 46.4 572.177 52.2776 560.284 52.2929C551.671 52.2929 556.43 58.3383 556.217 61.4449C555.815 67.9174 554.976 65.3853 560.676 67.897C566.375 70.4087 560.798 73.1442 564.637 74.4204C569.035 75.8796 567.306 75.5237 570.057 78.7676C571.521 80.481 573.57 80.842 573.514 78.3761C573.514 77.3592 574.877 76.6118 575.721 75.6406L575.731 75.661ZM1024.12 221.488C1017.93 220.771 1019.54 218.02 1015.52 216.546C1010.6 214.761 1015.3 222.25 1014.58 224.732C1013.86 227.213 1008.91 225.24 1009.72 230.197C1010.06 232.323 1013.22 235.038 1014.9 231.489C1017.11 226.821 1019.18 232.541 1024.12 228.347C1026.37 226.43 1030.22 225.596 1028.18 222.896C1027.22 221.62 1025.71 221.64 1024.12 221.488ZM996.743 383.961C1000.04 380.402 996.204 377.931 994.033 382.436C993.753 383.234 993.733 388.028 995.299 385.486C995.62 384.847 996.122 384.317 996.743 383.961ZM294.211 36.7803C299.092 29.5604 298.146 31.3959 292.985 24.2624C290.397 20.7033 287.342 21.8168 287.392 26.5199C287.433 31.7874 284.138 28.3554 283.518 30.3739C282.974 32.2094 286.67 32.55 288.257 34.9499C290.428 38.2243 290.346 42.3884 294.221 36.8006L294.211 36.7803ZM871.391 33.8262C875.748 31.945 866.154 24.8369 867.323 31.0806C867.705 33.0788 869.128 33.9228 871.391 33.8262ZM890.569 26.3165C887.88 26.6419 888.861 28.4672 884.244 27.9028C884.061 27.9028 879.541 24.6336 878.88 28.9808C878.662 30.5061 881.814 35.8752 883.619 36.4396C886.09 37.2023 884.905 36.3125 887.717 37.965C891.957 40.4411 892.4 36.5159 895.852 34.8787C899.304 33.2415 907.663 29.6977 901.277 26.5961C898.283 25.1471 895.613 26.6572 891.693 26.3928L890.569 26.3165ZM272.78 22.9709C260.933 21.6134 267.919 27.5469 263.002 28.2028C260.46 28.5231 257.094 25.264 256.235 28.9502C255.93 30.2417 258.421 35.1838 261.655 34.9804C262.24 34.9295 272.52 32.245 272.963 32.0568C278.083 29.8807 280.935 23.7539 272.78 22.9709ZM18.4154 97.4275C16.046 91.9261 9.35999 92.8769 11.5463 95.6631C12.2479 96.5631 17.612 102.273 18.6645 98.8714C18.7217 98.3762 18.6352 97.8749 18.4154 97.4275ZM905.294 45.4747C908.426 47.6 916.139 46.0695 910.994 42.8409C908.345 41.1936 903.687 41.9105 905.294 45.4747ZM676.23 34.4516C679.103 38.2548 682.194 30.7654 677.898 30.7145C675.325 30.679 675.61 33.0941 676.23 34.4516ZM258.843 45.5916C257.176 47.3966 254.105 53.8843 251.354 52.8115C250.749 52.5929 249.828 46.4102 249.203 45.0323C246.208 38.4226 249.712 39.5462 253.016 34.9092C255.447 31.5128 249.803 31.462 246.874 30.9535C243.148 30.3129 240.285 34.3804 232.979 34.9295C230.711 35.0973 222.596 36.8311 224.986 39.8208C225.789 40.8377 231.835 46.1865 232.841 46.156C234.021 46.095 234.265 45.2865 234.921 45.5509C235.102 45.6223 235.259 45.744 235.373 45.9018C235.487 46.0596 235.553 46.2468 235.564 46.4411C235.574 46.6355 235.529 46.8288 235.433 46.9982C235.337 47.1675 235.195 47.3058 235.023 47.3966C232.658 48.866 228.921 50.3608 231.352 51.7743C235.068 53.9504 235.851 53.1674 237.199 57.8248C237.86 60.1484 238.765 59.9297 242.197 60.0467C246.519 60.1992 250.23 59.9094 254.649 60.2856C261.538 60.8653 260.435 60.9161 265.173 57.2807C270.354 53.3047 262.224 54.2301 262.524 49.1965C262.667 46.8525 263.068 42.9782 258.869 45.5916H258.843ZM769.702 24.8878C769.743 24.8878 769.702 24.8573 769.702 24.8878V24.8878ZM777.273 34.2838C778.361 33.2669 781.274 29.6621 779.586 28.4723C779.185 28.1825 778.341 28.696 776.632 27.7249C774.746 26.6572 771.039 28.1316 769.784 25.4674C768.817 23.393 766.026 23.9421 766.829 28.0808C767.175 29.8502 768.299 38.6463 771.248 38.087C771.873 37.97 776.292 34.8787 777.273 34.2838ZM748.292 19.966C747.244 19.7423 747.687 20.2711 746.68 18.4712C741.783 9.74124 733.369 10.809 735.957 18.6898C736.74 21.0694 739.516 24.059 737.823 25.0759C736.379 25.9606 737.767 29.0163 741.138 29.7129C744.997 30.4959 744.977 30.7298 748.551 31.8026C750.681 32.4483 761.547 32.9212 762.65 31.8026C764.053 30.3739 759.859 23.6675 757.149 22.5286C756.803 22.3913 749.995 20.3881 749.522 20.5406C748.902 20.7643 749.664 20.9473 748.281 19.966H748.292ZM1009.78 517.255C1012.36 519.024 1018.38 514.468 1013.16 514.336C1011.31 514.285 1008.36 515.185 1009.78 517.255ZM645.576 41.7732C642.017 44.2697 640.069 39.8869 636.897 43.0799C635.229 44.7425 636.592 49.0236 640.964 43.9646C643.639 40.9139 639.546 49.0744 643.822 49.1761C648.098 49.2778 652.099 39.2411 647.681 39.8869C646.796 40.0038 645.993 41.28 645.571 41.7732H645.576ZM1030.4 546.536C1029.55 550.054 1031.12 553.791 1035.7 551.397C1038.61 549.642 1044.2 544.685 1042.87 541.456C1042.3 540.099 1038.63 540.44 1036.26 539.641C1028.12 536.819 1031.06 542.509 1030.42 546.536H1030.4ZM1076.22 401.034C1074.6 402.194 1069.07 401.817 1070.47 404.594C1072.14 407.909 1082.22 405.56 1083.87 400.618C1084.18 399.662 1085.67 400.374 1086.48 399.901C1086.93 399.641 1087.56 399.362 1086.68 397.933C1084.61 394.521 1078.09 399.458 1076.22 401.045V401.034ZM1007.12 392.477C1007.29 395.309 1012.44 394.959 1010.63 397.226C1006.31 402.667 1019.7 403.206 1023.21 403.836C1028.49 404.736 1033.76 405.636 1033.32 411.005C1033.12 413.359 1029.05 412.571 1031.84 415.149C1034.52 417.615 1038.45 414.564 1039.46 415.632C1042.03 418.174 1049.3 419.038 1050.75 416.476C1052.21 413.913 1052.66 412.439 1056.72 411.574C1060.07 410.858 1056.68 413.257 1059.59 413.674C1064.1 414.295 1060.8 415.845 1064.87 416.766C1065.38 416.888 1067.47 421.342 1073.61 420.65C1079.17 420.045 1071.38 417.035 1069.95 415.718C1068.99 414.834 1065.03 410.68 1065.12 409.724C1065.38 407.37 1068.55 407.232 1062.43 405.341C1057.07 403.694 1061.53 401.716 1055.72 401.238C1053.68 401.085 1053.29 399.072 1048.39 398.279C1040.64 397.033 1050.05 395.543 1037.82 395.228C1035.53 395.162 1034.89 395.228 1032.97 394.14C1027.38 390.993 1024 405.122 1017.94 396.972C1015.18 393.22 1019.04 387.927 1011.39 388.974C1008.69 389.335 1008.44 390.886 1007.1 392.533L1007.12 392.477ZM1129.11 547.792C1124.39 548.458 1120.7 552.108 1119.37 555.927C1118.91 557.269 1120.49 556.13 1117.08 557.625C1112.86 559.476 1090.2 572.044 1100.99 575.781C1109.48 578.72 1114.03 568.445 1119.87 564.403C1124.63 561.108 1123.77 563.248 1127.44 557.966C1129.61 554.722 1137.93 550.166 1129.11 547.797V547.792ZM914.37 21.7151C899.747 18.9898 903.606 28.1469 914.151 26.2453C917.786 25.5996 920.817 22.9048 914.37 21.7151ZM671.257 37.965C669.793 48.1898 665.192 34.2279 663.066 32.2958C660.493 29.9671 658.948 36.6735 659.029 38.3056C659.11 39.9377 658.348 38.9513 658.012 41.5495C657.133 48.3779 658.978 46.6339 665.588 45.7441C670.042 45.1188 670.164 43.6392 673.881 43.0291C676.052 42.6731 675.045 41.5851 676.25 41.4325C676.652 41.3817 675.65 36.7955 675.233 36.2515C673.123 33.7093 671.674 35.7431 671.293 37.965H671.257ZM1000.22 431.114C996.387 437.571 997.17 434.19 989.93 433.799C980.747 433.29 982.654 439.59 978.073 442.046C971.722 445.447 974.295 444.969 971.61 449.591C969.215 453.714 965.214 453.45 960.689 454.045C955.096 454.772 950.688 454.716 944.958 455.402C939.99 456.002 938.856 462.2 938.77 465.353C938.653 469.563 935.831 470.905 937.707 474.677C940.377 479.762 938.139 486.88 937.168 491.456C936.182 496.108 933.136 497.557 932.653 500.156C931.799 504.732 937.86 505.174 941.215 504.813C946.895 504.198 950.367 502.54 956.499 502.459C966.16 502.332 965.575 500.878 975.012 498.076C983.457 495.574 1001.19 492.371 1006.03 501.869C1008.1 505.937 1005.9 508.321 1011.48 505.713C1021.26 501.137 1009.39 511.657 1014.94 510.055C1016.72 509.547 1016.71 509.262 1018.32 511.921C1023.47 520.392 1015.57 519.69 1028.38 527.856C1032.06 529.422 1033.81 527.815 1036.83 526.101C1034.47 531.221 1039.12 529.757 1042.81 528.588C1046.15 526.92 1047.05 526.905 1051.12 525.842C1056.32 524.49 1055.91 520.758 1058.75 516.441C1066.49 504.625 1081.54 499.418 1080.85 483.57C1080.62 478.323 1082.45 477.499 1078.52 472.023C1078.06 471.378 1072.88 465.098 1072.55 464.905C1069.42 463.324 1068.63 464.737 1067.46 462.104C1064.97 456.511 1057.91 454.868 1056.61 450.552C1055.7 447.501 1056.3 446.316 1055.63 443.306C1055.12 441.13 1055.37 436.661 1053.04 435.202C1049.65 433.072 1050.55 432.533 1049.44 429.436C1048.65 427.26 1048.38 426.741 1047.96 424.138C1047.64 422.176 1045.97 423.879 1045.42 425.333C1044.47 427.931 1043.92 426.889 1043.33 430.545C1042.9 433.239 1042.13 448.091 1035.05 446.306C1033.89 445.64 1035.05 446.459 1033.37 445.289C1031.68 444.12 1027.37 441.222 1025.34 439.28C1024.32 438.303 1023.21 438.659 1022.08 437.587C1020.05 435.654 1021.28 434.348 1022.02 431.709C1022.9 430.534 1028.57 428.658 1025.33 426.914C1024.93 426.696 1020.46 426.553 1018.8 426.06C1014.83 424.886 1011.43 424.453 1007.1 425.282C1005.84 425.526 1006.17 426.502 1004.63 427.26C1003.09 428.018 1001.18 429.482 1000.24 431.099L1000.22 431.114Z" fill="#F1F2F4"/>
</svg>
