<svg width="395" height="336" viewBox="0 0 395 336" fill="none" xmlns="http://www.w3.org/2000/svg">
<path d="M106.494 70.9959C91.7905 70.9959 79.8707 82.9157 79.8707 97.6195V255.882C79.8707 270.586 91.7904 282.505 106.494 282.505H147.909C162.613 282.505 174.532 270.586 174.532 255.882V200.416C174.532 188.98 183.803 179.709 195.239 179.709H236.654C251.358 179.709 263.278 167.789 263.278 153.085V97.6195C263.278 82.9157 251.358 70.9959 236.654 70.9959H106.494Z" stroke="url(#paint0_radial_53_94)" stroke-width="5.91635"/>
<rect x="190.802" y="115.369" width="183.407" height="100.578" rx="26.6236" stroke="url(#paint1_radial_53_94)" stroke-width="5.91635"/>
<path d="M159.741 178.97C145.038 178.97 133.118 190.889 133.118 205.593V306.171C133.118 320.875 145.038 332.795 159.741 332.795H211.509C226.213 332.795 238.133 320.875 238.133 306.171V205.593C238.133 190.889 226.213 178.97 211.509 178.97H159.741Z" stroke="url(#paint2_radial_53_94)" stroke-width="5.91635"/>
<path d="M143.471 0V144.951H0" stroke="url(#paint3_radial_53_94)" stroke-width="5.91635"/>
<rect x="102.732" y="98.2944" width="230.017" height="130.289" rx="7.23828" fill="white" stroke="#DEE0E5" stroke-width="1.60851"/>
<path d="M103.536 105.533C103.536 101.979 106.417 99.0986 109.97 99.0986H135.706V227.779H109.97C106.417 227.779 103.536 224.899 103.536 221.345V105.533Z" fill="#F1F2F4"/>
<path d="M122.569 114.5V125.967H120.488V116.927L117.731 117.838V116.157L122.334 114.5H122.569Z" fill="#AFB6C5"/>
<rect x="148.923" y="117.509" width="127.202" height="5.91635" rx="2.95817" fill="#DCDFE4"/>
<path d="M124.973 154.201V155.835H117.229V154.437L120.944 150.424C121.331 149.984 121.637 149.601 121.863 149.277C122.088 148.952 122.247 148.659 122.342 148.397C122.441 148.13 122.491 147.876 122.491 147.635C122.491 147.285 122.428 146.978 122.302 146.716C122.177 146.449 121.994 146.243 121.753 146.096C121.517 145.949 121.226 145.876 120.881 145.876C120.499 145.876 120.171 145.965 119.899 146.143C119.632 146.316 119.428 146.557 119.286 146.866C119.15 147.175 119.082 147.528 119.082 147.926H117.001C117.001 147.25 117.158 146.635 117.472 146.08C117.786 145.52 118.237 145.072 118.823 144.737C119.41 144.402 120.106 144.235 120.912 144.235C121.698 144.235 122.363 144.365 122.907 144.627C123.452 144.884 123.865 145.25 124.148 145.727C124.431 146.203 124.572 146.771 124.572 147.431C124.572 147.798 124.512 148.159 124.392 148.515C124.271 148.871 124.101 149.224 123.881 149.575C123.666 149.921 123.41 150.272 123.111 150.628C122.813 150.984 122.48 151.348 122.114 151.719L119.883 154.201H124.973Z" fill="#AFB6C5"/>
<rect x="148.923" y="147.377" width="147.909" height="5.91635" rx="2.95817" fill="#DCDFE4"/>
<path d="M119.499 179.066H120.669C121.082 179.066 121.423 178.996 121.69 178.854C121.962 178.708 122.164 178.509 122.295 178.257C122.431 178.001 122.499 177.705 122.499 177.37C122.499 177.04 122.439 176.755 122.318 176.514C122.198 176.268 122.014 176.079 121.768 175.948C121.528 175.812 121.219 175.744 120.842 175.744C120.538 175.744 120.258 175.804 120.001 175.925C119.75 176.045 119.548 176.218 119.396 176.443C119.25 176.663 119.177 176.928 119.177 177.236H117.095C117.095 176.619 117.258 176.077 117.582 175.611C117.912 175.139 118.357 174.77 118.917 174.503C119.478 174.236 120.103 174.103 120.794 174.103C121.548 174.103 122.208 174.228 122.774 174.48C123.344 174.726 123.787 175.09 124.101 175.571C124.42 176.053 124.58 176.65 124.58 177.362C124.58 177.702 124.499 178.043 124.337 178.383C124.18 178.718 123.947 179.022 123.638 179.294C123.334 179.561 122.96 179.779 122.514 179.946C122.075 180.108 121.569 180.19 120.999 180.19H119.499V179.066ZM119.499 180.669V179.561H120.999C121.643 179.561 122.2 179.637 122.672 179.789C123.148 179.936 123.541 180.145 123.85 180.417C124.159 180.684 124.386 180.996 124.533 181.352C124.685 181.708 124.761 182.09 124.761 182.499C124.761 183.033 124.661 183.509 124.462 183.928C124.263 184.342 123.983 184.693 123.622 184.981C123.266 185.269 122.847 185.488 122.365 185.64C121.884 185.787 121.363 185.86 120.802 185.86C120.315 185.86 119.842 185.795 119.381 185.664C118.925 185.528 118.514 185.326 118.148 185.059C117.781 184.787 117.491 184.446 117.276 184.038C117.061 183.624 116.954 183.145 116.954 182.601H119.035C119.035 182.915 119.111 183.195 119.263 183.441C119.42 183.687 119.635 183.881 119.907 184.022C120.184 184.158 120.496 184.227 120.842 184.227C121.224 184.227 121.551 184.158 121.823 184.022C122.101 183.881 122.313 183.682 122.46 183.425C122.606 183.164 122.679 182.852 122.679 182.491C122.679 182.061 122.598 181.713 122.436 181.446C122.274 181.179 122.041 180.983 121.737 180.857C121.438 180.732 121.082 180.669 120.669 180.669H119.499Z" fill="#AFB6C5"/>
<rect x="148.923" y="177.245" width="170.502" height="5.91635" rx="2.95817" fill="#DCDFE4"/>
<path d="M125.169 211.4V213.034H116.93L116.844 211.777L121.69 204.135H123.347L121.556 207.175L118.957 211.4H125.169ZM123.81 204.135V215.571H121.729V204.135H123.81Z" fill="#AFB6C5"/>
<rect x="148.923" y="207.113" width="136.723" height="5.91635" rx="2.95817" fill="#DCDFE4"/>
<rect x="48.0789" y="247.756" width="215.929" height="56.188" rx="6.57797" fill="white" stroke="#DEE0E5" stroke-width="1.46177"/>
<path fill-rule="evenodd" clip-rule="evenodd" d="M77.2825 289.901C84.6344 289.901 90.5943 283.942 90.5943 276.59C90.5943 273.878 89.7834 271.355 88.391 269.252L77.8076 281.011C76.7831 282.149 75.0591 282.318 73.8339 281.399L68.9996 277.773C68.3461 277.283 68.2137 276.356 68.7038 275.702C69.1939 275.049 70.121 274.916 70.7745 275.406L75.6088 279.032L86.4736 266.96C84.0842 264.679 80.8469 263.278 77.2825 263.278C69.9306 263.278 63.9707 269.238 63.9707 276.59C63.9707 283.942 69.9306 289.901 77.2825 289.901Z" fill="#E8B717"/>
<rect x="102.427" y="264.757" width="144.951" height="5.91635" rx="2.95817" fill="#DCDFE4"/>
<rect x="102.427" y="282.506" width="93.1825" height="5.91635" rx="2.95817" fill="#DCDFE4"/>
<g filter="url(#filter0_d_53_94)">
<circle cx="90.2244" cy="70.9961" r="17.749" fill="white"/>
</g>
<path fill-rule="evenodd" clip-rule="evenodd" d="M92.2949 62.7133H88.1535C86.1427 62.7133 84.8428 62.7177 83.8851 62.8465C82.987 62.9672 82.7055 63.1622 82.5478 63.3198C82.3902 63.4774 82.1952 63.7589 82.0745 64.6571C81.9457 65.6148 81.9413 66.9146 81.9413 68.9255V73.0669C81.9413 73.4347 81.9415 73.7788 81.9425 74.1013L83.4012 72.6426C84.7944 71.2494 85.491 70.5528 86.2457 70.4891C86.6256 70.457 87.0069 70.5305 87.3478 70.7013C88.0248 71.0407 88.4128 71.9462 89.189 73.7572L89.2443 73.8862C89.5819 74.674 89.7507 75.0679 90.0287 75.24C90.2447 75.3737 90.5023 75.4233 90.7526 75.3794C91.0745 75.3229 91.3776 75.0198 91.9836 74.4138L92.1008 74.2967C92.8476 73.5498 93.221 73.1764 93.6444 73.0191C94.1098 72.8461 94.6218 72.8461 95.0872 73.0191C95.5106 73.1764 95.884 73.5498 96.6308 74.2966L96.6308 74.2967L97.4091 75.0749C97.7231 75.3889 98.0871 75.6415 98.4824 75.8249C98.5057 75.0831 98.5071 74.1849 98.5071 73.0669V68.9255C98.5071 66.9146 98.5027 65.6148 98.3739 64.6571C98.2532 63.7589 98.0582 63.4774 97.9006 63.3198C97.743 63.1622 97.4615 62.9672 96.5633 62.8465C95.6056 62.7177 94.3058 62.7133 92.2949 62.7133ZM79.8706 73.0669C79.8706 75.3733 79.8706 76.9985 80.1206 78.1926C80.188 78.5146 80.2736 78.8053 80.3823 79.0695C80.5529 79.4841 80.7804 79.8336 81.0836 80.1369C82.2966 81.3499 84.2489 81.3499 88.1535 81.3499H92.295C96.1996 81.3499 98.1518 81.3499 99.3649 80.1369C100.578 78.9239 100.578 76.9716 100.578 73.067V68.9255C100.578 67.0952 100.578 65.6939 100.453 64.5966C100.378 63.9383 100.258 63.3893 100.066 62.9229C99.8955 62.5083 99.6681 62.1588 99.3648 61.8556C98.1518 60.6426 96.1995 60.6426 92.2949 60.6426H88.1535C84.2489 60.6426 82.2966 60.6426 81.0836 61.8556C79.8706 63.0686 79.8706 65.0209 79.8706 68.9255V73.0669ZM93.3304 69.9608C94.474 69.9608 95.4011 69.0337 95.4011 67.8901C95.4011 66.7465 94.474 65.8194 93.3304 65.8194C92.1867 65.8194 91.2596 66.7465 91.2596 67.8901C91.2596 69.0337 92.1867 69.9608 93.3304 69.9608Z" fill="#43C891"/>
<g filter="url(#filter1_d_53_94)">
<circle cx="371.251" cy="165.658" r="17.749" fill="white"/>
</g>
<path fill-rule="evenodd" clip-rule="evenodd" d="M371.942 175.74C373.86 174.745 380.479 170.842 380.479 164.356C380.479 159.357 376.427 155.304 371.428 155.304C366.429 155.304 362.376 159.357 362.376 164.356C362.376 170.842 368.995 174.745 370.913 175.74C371.24 175.909 371.615 175.909 371.942 175.74ZM371.428 168.235C373.57 168.235 375.307 166.498 375.307 164.356C375.307 162.213 373.57 160.476 371.428 160.476C369.285 160.476 367.548 162.213 367.548 164.356C367.548 166.498 369.285 168.235 371.428 168.235Z" fill="#E8B717"/>
<circle cx="331.315" cy="100.578" r="39.9354" fill="url(#paint4_linear_53_94)"/>
<path fill-rule="evenodd" clip-rule="evenodd" d="M312.088 99.9573C312.301 100.57 315.078 103.113 315.74 103.756L323.271 111.167C324.487 112.367 325.797 113.773 327.011 114.854C327.484 114.714 329.9 112.115 330.441 111.577L338.981 103.021C339.49 102.519 340.342 101.747 340.702 101.249C340.468 100.768 337.528 97.913 337.067 97.5048C336.178 97.9634 327.724 106.941 327.012 107.271C326.06 106.24 324.532 104.812 323.317 103.647L320.55 100.958C320.204 100.624 319.837 100.381 319.666 99.9573C321.875 97.5048 327.506 92.2516 330.228 89.525L334.118 85.6575C334.292 85.4715 334.595 85.1779 334.764 85.0115C337.215 82.5898 337.025 83.6412 337.025 80.7049C337.025 79.0005 337.101 77.1143 337.008 75.4336C336.674 75.4923 336.541 75.7132 336.249 76.0083C335.988 76.2809 335.718 76.5536 335.459 76.8011C334.914 77.3366 334.408 77.819 333.862 78.3629L312.088 99.9573Z" fill="white"/>
<path fill-rule="evenodd" clip-rule="evenodd" d="M323.384 99.9572L326.109 102.727C326.211 102.831 326.428 103.061 326.528 103.162C326.854 103.475 326.784 103.457 327.149 103.581L337.061 93.8035L344.419 101.111L337.608 107.962C336.07 109.489 333.95 111.747 333.107 112.516L327.769 117.81C327.453 118.11 327.286 118.301 327.286 118.914L327.275 125.722C327.977 125.397 346.235 107.003 348.861 104.43C349.517 103.787 351.595 101.972 351.899 101.249C351.839 101.158 351.772 101.072 351.699 100.99C351.644 100.926 351.623 100.901 351.596 100.874L351.488 100.764L351.14 100.413L347.206 96.435C346.435 95.6282 345.337 94.5306 344.399 93.598C343.636 92.8388 342.979 92.1886 342.692 91.8977C341.759 90.9497 340.835 90.0255 339.905 89.0831L337.067 86.2559C336.661 86.4558 336.508 86.6753 336.182 87.0137C334.364 88.8748 323.647 99.3643 323.385 99.9656" fill="white"/>
<defs>
<filter id="filter0_d_53_94" x="66.559" y="47.3307" width="47.3307" height="47.3307" filterUnits="userSpaceOnUse" color-interpolation-filters="sRGB">
<feFlood flood-opacity="0" result="BackgroundImageFix"/>
<feColorMatrix in="SourceAlpha" type="matrix" values="0 0 0 0 0 0 0 0 0 0 0 0 0 0 0 0 0 0 127 0" result="hardAlpha"/>
<feOffset/>
<feGaussianBlur stdDeviation="2.95817"/>
<feComposite in2="hardAlpha" operator="out"/>
<feColorMatrix type="matrix" values="0 0 0 0 0 0 0 0 0 0 0 0 0 0 0 0 0 0 0.1 0"/>
<feBlend mode="normal" in2="BackgroundImageFix" result="effect1_dropShadow_53_94"/>
<feBlend mode="normal" in="SourceGraphic" in2="effect1_dropShadow_53_94" result="shape"/>
</filter>
<filter id="filter1_d_53_94" x="347.586" y="141.992" width="47.3307" height="47.3307" filterUnits="userSpaceOnUse" color-interpolation-filters="sRGB">
<feFlood flood-opacity="0" result="BackgroundImageFix"/>
<feColorMatrix in="SourceAlpha" type="matrix" values="0 0 0 0 0 0 0 0 0 0 0 0 0 0 0 0 0 0 127 0" result="hardAlpha"/>
<feOffset/>
<feGaussianBlur stdDeviation="2.95817"/>
<feComposite in2="hardAlpha" operator="out"/>
<feColorMatrix type="matrix" values="0 0 0 0 0 0 0 0 0 0 0 0 0 0 0 0 0 0 0.1 0"/>
<feBlend mode="normal" in2="BackgroundImageFix" result="effect1_dropShadow_53_94"/>
<feBlend mode="normal" in="SourceGraphic" in2="effect1_dropShadow_53_94" result="shape"/>
</filter>
<radialGradient id="paint0_radial_53_94" cx="0" cy="0" r="1" gradientUnits="userSpaceOnUse" gradientTransform="translate(171.574 176.751) rotate(90) scale(194.457 167.876)">
<stop stop-color="#E2E4E9"/>
<stop offset="1" stop-color="#E2E4E9" stop-opacity="0"/>
</radialGradient>
<radialGradient id="paint1_radial_53_94" cx="0" cy="0" r="1" gradientUnits="userSpaceOnUse" gradientTransform="translate(282.506 165.658) rotate(90) scale(89.5341 167.876)">
<stop stop-color="#E2E4E9"/>
<stop offset="1" stop-color="#E2E4E9" stop-opacity="0"/>
</radialGradient>
<radialGradient id="paint2_radial_53_94" cx="0" cy="0" r="1" gradientUnits="userSpaceOnUse" gradientTransform="translate(185.625 255.882) rotate(90) scale(139.897 93.731)">
<stop stop-color="#E2E4E9"/>
<stop offset="1" stop-color="#E2E4E9" stop-opacity="0"/>
</radialGradient>
<radialGradient id="paint3_radial_53_94" cx="0" cy="0" r="1" gradientUnits="userSpaceOnUse" gradientTransform="translate(143.471 144.951) rotate(-180) scale(115.369 114.192)">
<stop stop-color="#E2E4E9"/>
<stop offset="1" stop-color="#E2E4E9" stop-opacity="0"/>
</radialGradient>
<linearGradient id="paint4_linear_53_94" x1="331.315" y1="60.6426" x2="331.315" y2="140.513" gradientUnits="userSpaceOnUse">
<stop stop-color="#43C891"/>
<stop offset="1" stop-color="#18B976"/>
</linearGradient>
</defs>
</svg>
