<svg width="46" height="46" viewBox="0 0 46 46" fill="none" xmlns="http://www.w3.org/2000/svg">
<rect width="46" height="46" rx="23" fill="#E1DFDF"/>
<mask id="mask0_27_332" style="mask-type:alpha" maskUnits="userSpaceOnUse" x="8" y="11" width="30" height="26">
<path d="M14.4755 36.4167C13.4526 36.4167 12.5609 35.8265 12.1281 34.9741L8.70536 22.5682L8.57422 21.9912C8.57422 21.6434 8.71238 21.3099 8.95832 21.0639C9.20426 20.818 9.53782 20.6798 9.88562 20.6798H15.8918L21.9243 12.0639C22.1604 11.7229 22.5538 11.5 22.9997 11.5C23.4455 11.5 23.8521 11.7229 24.0881 12.077L30.1075 20.6798H36.1137C36.4615 20.6798 36.7951 20.818 37.041 21.0639C37.2869 21.3099 37.4251 21.6434 37.4251 21.9912L37.3726 22.3715L33.8712 34.9741C33.4384 35.8265 32.5467 36.4167 31.5238 36.4167H14.4755ZM22.9997 15.0932L19.0654 20.6798H26.9339L22.9997 15.0932ZM22.9997 25.9254C22.304 25.9254 21.6369 26.2018 21.1451 26.6936C20.6532 27.1855 20.3768 27.8526 20.3768 28.5482C20.3768 29.2439 20.6532 29.911 21.1451 30.4028C21.6369 30.8947 22.304 31.1711 22.9997 31.1711C23.6953 31.1711 24.3624 30.8947 24.8543 30.4028C25.3461 29.911 25.6225 29.2439 25.6225 28.5482C25.6225 27.8526 25.3461 27.1855 24.8543 26.6936C24.3624 26.2018 23.6953 25.9254 22.9997 25.9254Z" fill="#979797"/>
</mask>
<g mask="url(#mask0_27_332)">
<rect width="46" height="46" fill="#4C4441"/>
</g>
</svg>
