<svg width="46" height="46" viewBox="0 0 46 46" fill="none" xmlns="http://www.w3.org/2000/svg">
<rect width="46" height="46" rx="23" fill="#E1DFDF"/>
<path d="M15.8954 33.4075H30.0902C32.6337 33.4075 33.9465 32.0947 33.9465 29.5863V15.3212C33.9465 12.8128 32.6337 11.5 30.0902 11.5H15.8954C13.3636 11.5 12.0391 12.8011 12.0391 15.3212V29.5863C12.0391 32.0947 13.3636 33.4075 15.8954 33.4075ZM23.0221 29.2815C22.7056 29.2815 22.4712 29.0471 22.4712 28.7189V27.8867C20.7247 27.746 19.4353 26.8317 19.0837 25.5424C19.0368 25.39 19.0134 25.2493 19.0134 25.1087C19.0134 24.6164 19.3533 24.2764 19.8573 24.2764C20.2793 24.2764 20.5723 24.4991 20.7364 24.9328C20.9357 25.6479 21.4983 26.1753 22.4712 26.316V23.1277L22.2602 23.0808C20.2324 22.612 19.1775 21.6743 19.1775 20.0919C19.1775 18.3805 20.5489 17.2084 22.4712 17.0325V16.212C22.4712 15.8721 22.7056 15.6494 23.0221 15.6494C23.3386 15.6494 23.5847 15.8838 23.5847 16.212V17.0325C25.2258 17.1967 26.4565 18.0992 26.7847 19.3534C26.8199 19.4941 26.8433 19.6347 26.8433 19.7754C26.8433 20.2442 26.5034 20.5842 26.0111 20.5842C25.5774 20.5842 25.2961 20.338 25.1203 19.9395C24.8858 19.2245 24.3584 18.7673 23.5847 18.6267V21.6391L23.8543 21.6977C25.9759 22.0962 27.0426 23.0691 27.0426 24.7336C27.0426 26.5856 25.5657 27.7226 23.5847 27.8984V28.7189C23.5847 29.0471 23.3386 29.2815 23.0221 29.2815ZM22.4712 21.3578V18.615C21.5452 18.7673 20.9826 19.3182 20.9826 19.9746C20.9826 20.6311 21.428 21.053 22.3891 21.3343L22.4712 21.3578ZM23.5847 23.3973V26.316C24.6983 26.187 25.2492 25.6244 25.2492 24.8625C25.2492 24.1827 24.8624 23.7372 23.8075 23.4559L23.5847 23.3973Z" fill="#4C4441"/>
</svg>
