<svg width="46" height="46" viewBox="0 0 46 46" fill="none" xmlns="http://www.w3.org/2000/svg">
<path d="M10.8721 14.3775C10.8721 14.9035 11.3171 15.3485 11.8228 15.3485H14.9886L16.5563 26.0493C16.7788 27.5766 17.5879 28.5071 19.1354 28.5071H30.9084C31.3837 28.5071 31.8186 28.1329 31.8186 27.5968C31.8186 27.0709 31.3837 26.6966 30.9084 26.6966H19.368C18.8825 26.6966 18.5791 26.3629 18.5083 25.847L18.3465 24.7952H30.9893C32.5367 24.7952 33.356 23.8545 33.5785 22.3172L34.3371 17.25C34.3573 17.1185 34.3775 16.9465 34.3775 16.8353C34.3775 16.2385 33.9629 15.834 33.265 15.834H17.062L16.9001 14.7416C16.7687 13.8617 16.4147 13.4167 15.292 13.4167H11.8228C11.3171 13.4167 10.8721 13.8617 10.8721 14.3775ZM18.1948 31.8144C18.1948 32.7955 18.9837 33.5844 19.9648 33.5844C20.9458 33.5844 21.7347 32.7955 21.7347 31.8144C21.7347 30.8334 20.9458 30.0445 19.9648 30.0445C18.9837 30.0445 18.1948 30.8334 18.1948 31.8144ZM27.5302 31.8144C27.5302 32.7955 28.3292 33.5844 29.3103 33.5844C30.2914 33.5844 31.0702 32.7955 31.0702 31.8144C31.0702 30.8334 30.2914 30.0445 29.3103 30.0445C28.3292 30.0445 27.5302 30.8334 27.5302 31.8144Z" fill="#827C7A"/>
</svg>
