<svg width="14" height="14" viewBox="0 0 14 14" fill="none" xmlns="http://www.w3.org/2000/svg">
<path fill-rule="evenodd" clip-rule="evenodd" d="M7 13.75C10.7279 13.75 13.75 10.7279 13.75 7C13.75 5.71789 13.3925 4.51926 12.7718 3.49835L7.60503 9.23926C6.91236 10.0089 5.74679 10.1226 4.91844 9.50133L2.65 7.8C2.20817 7.46863 2.11863 6.84183 2.45 6.4C2.78137 5.95817 3.40817 5.86863 3.85 6.2L6.11844 7.90133L11.4766 1.94787C10.2852 0.891459 8.71751 0.25 7 0.25C3.27208 0.25 0.25 3.27208 0.25 7C0.25 10.7279 3.27208 13.75 7 13.75Z" fill="#43C891"/>
</svg>
