<svg width="19" height="18" viewBox="0 0 19 18" fill="none" xmlns="http://www.w3.org/2000/svg">
<path fill-rule="evenodd" clip-rule="evenodd" d="M9.5 18C14.4706 18 18.5 13.9706 18.5 9C18.5 4.02944 14.4706 0 9.5 0C4.52944 0 0.5 4.02944 0.5 9C0.5 13.9706 4.52944 18 9.5 18ZM14.2682 6.64018C14.6218 6.21591 14.5645 5.58534 14.1402 5.23178C13.7159 4.87821 13.0853 4.93554 12.7318 5.35982L9.13383 9.67736C8.78711 10.0934 8.59219 10.3238 8.43658 10.4653L8.43063 10.4707L8.42422 10.4659C8.25643 10.339 8.04146 10.1272 7.6585 9.74428L6.20711 8.29289C5.81658 7.90237 5.18342 7.90237 4.79289 8.29289C4.40237 8.68342 4.40237 9.31658 4.79289 9.70711L6.24428 11.1585L6.28511 11.1993L6.28512 11.1993C6.61161 11.526 6.9257 11.8402 7.21794 12.0611C7.5453 12.3087 7.97402 12.5415 8.52343 12.5165C9.07284 12.4916 9.47872 12.221 9.78233 11.9448C10.0534 11.6983 10.3377 11.3569 10.6333 11.0021L10.6333 11.0021L10.6703 10.9577L14.2682 6.64018Z" fill="#0065FF"/>
</svg>
