<svg width="32" height="32" viewBox="0 0 32 32" fill="none" xmlns="http://www.w3.org/2000/svg">
<path fill-rule="evenodd" clip-rule="evenodd" d="M3.54274 4.87868C2.66406 5.75736 2.66406 7.17157 2.66406 10V22C2.66406 24.8284 2.66406 26.2426 3.54274 27.1213C4.42142 28 5.83563 28 8.66406 28H23.3307C26.1592 28 27.5734 28 28.452 27.1213C29.3307 26.2426 29.3307 24.8284 29.3307 22V10C29.3307 7.17157 29.3307 5.75736 28.452 4.87868C27.5734 4 26.1592 4 23.3307 4H8.66406C5.83564 4 4.42142 4 3.54274 4.87868ZM21.3301 11C21.8824 11 22.3301 11.4477 22.3301 12V22.6667C22.3301 23.219 21.8824 23.6667 21.3301 23.6667C20.7778 23.6667 20.3301 23.219 20.3301 22.6667V12C20.3301 11.4477 20.7778 11 21.3301 11ZM11.6641 14.6667C11.6641 14.1144 11.2163 13.6667 10.6641 13.6667C10.1118 13.6667 9.66406 14.1144 9.66406 14.6667V22.6667C9.66406 23.219 10.1118 23.6667 10.6641 23.6667C11.2163 23.6667 11.6641 23.219 11.6641 22.6667L11.6641 14.6667ZM16.998 17.3333C16.998 16.7811 16.5503 16.3333 15.998 16.3333C15.4458 16.3333 14.998 16.7811 14.998 17.3333V22.6667C14.998 23.219 15.4458 23.6667 15.998 23.6667C16.5503 23.6667 16.998 23.219 16.998 22.6667V17.3333Z" fill="#D97008"/>
</svg>
