<svg width="12" height="20" viewBox="0 0 12 20" fill="none" xmlns="http://www.w3.org/2000/svg">
<path fill-rule="evenodd" clip-rule="evenodd" d="M3.91858 0.273682C3.42313 0.273682 3.02148 0.675325 3.02148 1.17078V4.9008H4.81567V1.17078C4.81567 0.675325 4.41403 0.273682 3.91858 0.273682ZM0.189453 5.37305H11.9933V7.3561C11.9933 7.87763 11.5705 8.30041 11.049 8.30041H10.954V10.6611C10.954 12.844 9.47269 14.6808 7.46047 15.2214V15.8548C7.46047 16.3512 7.07751 16.7581 6.59093 16.7962C6.57654 17.1171 6.55139 17.4055 6.50743 17.6611C6.39868 18.2935 6.16127 18.8099 5.62701 19.1551C5.1348 19.4732 4.45262 19.6008 3.58235 19.6633C2.7023 19.7265 1.53786 19.7265 0.0212085 19.7265H0.0210711H0V18.7822C1.542 18.7822 2.67256 18.7819 3.51473 18.7214C4.37078 18.6599 4.83948 18.5397 5.11452 18.362C5.3475 18.2114 5.49372 17.9841 5.57678 17.5011C5.61179 17.2975 5.63305 17.0639 5.64595 16.7922C5.17855 16.7356 4.81641 16.3375 4.81641 15.8548V15.2216C2.80375 14.6814 1.32203 12.8443 1.32203 10.6611V8.30041H1.13376C0.612236 8.30041 0.189453 7.87763 0.189453 7.3561V5.37305ZM7.46094 1.17078C7.46094 0.675325 7.86258 0.273682 8.35803 0.273682C8.85348 0.273682 9.25513 0.675325 9.25513 1.17078V4.9008H7.46094V1.17078ZM6.04478 12.1721C6.93138 12.1721 7.65011 11.4534 7.65011 10.5668C7.65011 9.68015 6.93138 8.96143 6.04478 8.96143C5.15818 8.96143 4.43945 9.68015 4.43945 10.5668C4.43945 11.4534 5.15818 12.1721 6.04478 12.1721Z" fill="white"/>
</svg>
