<svg width="24" height="24" viewBox="0 0 24 24" fill="none" xmlns="http://www.w3.org/2000/svg">
<mask id="path-1-outside-1_1502_10514" maskUnits="userSpaceOnUse" x="8.16992" y="5.99414" width="13" height="16" fill="black">
<rect fill="white" x="8.16992" y="5.99414" width="13" height="16"/>
<path fill-rule="evenodd" clip-rule="evenodd" d="M9.16992 12.0508L10.1757 13.0731C10.2134 13.1113 10.2933 13.1965 10.3305 13.2336V13.2336C10.4549 13.3532 10.6372 13.3119 10.76 13.1907L13.5132 10.4748C13.9035 10.0898 14.5311 10.0909 14.9201 10.4772L16.2234 11.7716C16.6154 12.1609 16.6174 12.7943 16.2279 13.1861L14.4196 15.0052C13.852 15.5687 13.0697 16.4021 12.7585 16.6859L10.7882 18.6397C10.6716 18.7506 10.6102 18.8208 10.6102 19.0473L10.6086 19.9905C10.6074 20.7219 11.2247 21 11.748 20.489C13.7741 18.5107 17.8368 14.4227 18.5727 13.7017C18.7876 13.4909 19.4164 12.9391 19.6333 12.6313C19.6768 12.5697 19.6708 12.4883 19.6203 12.4322V12.4322C19.5997 12.4085 19.5919 12.3992 19.5821 12.3894L19.5424 12.3486L19.4139 12.2191L17.9617 10.7509C17.6774 10.4532 17.2723 10.0481 16.926 9.70388C16.6443 9.42367 16.4017 9.18371 16.296 9.07637C15.9518 8.7265 15.6107 8.38539 15.2675 8.03758L14.5268 7.29979C14.3432 7.11699 14.0729 7.08724 13.8933 7.27384V7.27384C13.2224 7.96069 9.26694 11.832 9.17044 12.0539"/>
</mask>
<path d="M10.1757 13.0731L9.46285 13.7744L9.46379 13.7754L10.1757 13.0731ZM14.4196 15.0052L15.1242 15.7149L15.1288 15.7102L14.4196 15.0052ZM12.7585 16.6859L12.0846 15.9471L12.0692 15.9612L12.0544 15.9759L12.7585 16.6859ZM10.7882 18.6397L11.4775 19.3642L11.485 19.357L11.4924 19.3497L10.7882 18.6397ZM10.6102 19.0473L11.6102 19.049V19.0473H10.6102ZM18.5727 13.7017L19.2726 14.416L19.273 14.4156L18.5727 13.7017ZM19.5821 12.3894L18.8659 13.0874L18.875 13.0965L19.5821 12.3894ZM19.5424 12.3486L20.2585 11.6506L20.2523 11.6443L19.5424 12.3486ZM19.4139 12.2191L18.7029 12.9223L18.704 12.9233L19.4139 12.2191ZM17.9617 10.7509L17.2385 11.4416L17.2446 11.4479L17.2508 11.4542L17.9617 10.7509ZM16.926 9.70388L16.2209 10.4129L16.2211 10.4131L16.926 9.70388ZM16.296 9.07637L15.5831 9.77767L15.5837 9.77832L16.296 9.07637ZM15.2675 8.03758L15.9794 7.33521L15.9732 7.32908L15.2675 8.03758ZM19.6333 12.6313L18.8159 12.0552L19.6333 12.6313ZM14.5268 7.29979L15.2325 6.59128L14.5268 7.29979ZM10.76 13.1907L10.0578 12.4788L10.76 13.1907ZM8.45708 12.7522L9.46285 13.7744L10.8885 12.3718L9.88276 11.3495L8.45708 12.7522ZM9.46379 13.7754C9.47553 13.7873 9.49756 13.8104 9.53042 13.8447C9.55672 13.8722 9.595 13.9123 9.6234 13.9407L11.0376 12.5265C10.9693 12.4582 10.9921 12.4768 10.8876 12.3708L9.46379 13.7754ZM11.4623 13.9026L14.2155 11.1868L12.8109 9.76294L10.0578 12.4788L11.4623 13.9026ZM14.2155 11.1868L15.5187 12.4811L16.9281 11.062L15.6248 9.7677L14.2155 11.1868ZM15.5187 12.4811L13.7104 14.3002L15.1288 15.7102L16.9371 13.8911L15.5187 12.4811ZM13.7151 14.2955C13.0864 14.9196 12.3824 15.6755 12.0846 15.9471L13.4324 17.4248C13.7569 17.1288 14.6176 16.2178 15.1241 15.7149L13.7151 14.2955ZM12.0544 15.9759L10.0841 17.9296L11.4924 19.3497L13.4626 17.396L12.0544 15.9759ZM10.099 17.9152C10.0444 17.9671 9.87836 18.1188 9.76144 18.3522C9.63647 18.6016 9.6102 18.8473 9.6102 19.0473H11.6102C11.6102 19.0209 11.6146 19.1182 11.5495 19.2481C11.5193 19.3084 11.4868 19.3502 11.4689 19.371C11.4559 19.3861 11.45 19.3903 11.4775 19.3642L10.099 17.9152ZM9.6102 19.0457L9.60865 19.9889L11.6086 19.9922L11.6102 19.049L9.6102 19.0457ZM12.4466 21.2045C13.4644 20.2107 14.9907 18.6901 16.3509 17.3313C17.7166 15.9672 18.9092 14.772 19.2726 14.416L17.8729 12.9874C17.5003 13.3524 16.2937 14.5617 14.9375 15.9163C13.5759 17.2764 12.0577 18.789 11.0494 19.7735L12.4466 21.2045ZM19.273 14.4156C19.3966 14.2944 19.5277 14.1808 19.7949 13.9242C19.9959 13.7311 20.278 13.4524 20.4507 13.2075L18.8159 12.0552C18.7716 12.1181 18.6309 12.2691 18.4096 12.4816C18.3103 12.5769 18.21 12.6704 18.1172 12.7569C18.0296 12.8385 17.9379 12.9236 17.8725 12.9877L19.273 14.4156ZM20.3749 11.776C20.3704 11.7708 20.367 11.7669 20.3626 11.7618C20.3589 11.7575 20.3533 11.7511 20.3474 11.7444C20.3344 11.7297 20.3147 11.7077 20.2892 11.6823L18.875 13.0965C18.8677 13.0892 18.8612 13.0823 18.8556 13.0763C18.8505 13.0709 18.8472 13.0671 18.8469 13.0667C18.8468 13.0666 18.8476 13.0675 18.8514 13.0719C18.8545 13.0755 18.8599 13.0817 18.8657 13.0884L20.3749 11.776ZM20.2982 11.6914L20.2585 11.6506L18.8263 13.0466L18.866 13.0873L20.2982 11.6914ZM20.2523 11.6443L20.1238 11.5148L18.704 12.9233L18.8325 13.0529L20.2523 11.6443ZM20.1249 11.5158L18.6727 10.0477L17.2508 11.4542L18.7029 12.9223L20.1249 11.5158ZM18.685 10.0603C18.3903 9.75177 17.9763 9.3379 17.631 8.99466L16.2211 10.4131C16.5683 10.7583 16.9645 11.1546 17.2385 11.4416L18.685 10.0603ZM17.6312 8.99483C17.3443 8.70951 17.1093 8.477 17.0082 8.37442L15.5837 9.77832C15.6942 9.89041 15.9443 10.1378 16.2209 10.4129L17.6312 8.99483ZM17.0088 8.37507C16.6696 8.03025 16.3106 7.67099 15.9793 7.33524L14.5556 8.73992C14.9107 9.09979 15.2339 9.42274 15.5831 9.77767L17.0088 8.37507ZM15.9732 7.32908L15.2325 6.59128L13.8211 8.00829L14.5618 8.74608L15.9732 7.32908ZM13.1779 6.57511C12.8482 6.91259 11.7065 8.0374 10.6105 9.13004C10.0675 9.67128 9.53893 10.2016 9.13886 10.6118C8.93956 10.8162 8.7671 10.9959 8.63918 11.1343C8.57604 11.2026 8.51686 11.2683 8.4685 11.3254C8.44481 11.3534 8.41648 11.3879 8.38903 11.4247C8.37772 11.4399 8.30709 11.5317 8.2534 11.6551L10.0875 12.4527C10.0579 12.5207 10.0278 12.5679 10.0184 12.5825C10.0055 12.6025 9.99555 12.616 9.99211 12.6206C9.98533 12.6297 9.98477 12.6297 9.99552 12.617C10.016 12.5928 10.0524 12.5519 10.1079 12.4917C10.2174 12.3733 10.3751 12.2088 10.5706 12.0082C10.9603 11.6087 11.4806 11.0866 12.0225 10.5464C13.096 9.47623 14.2674 8.32193 14.6086 7.97256L13.1779 6.57511ZM20.4507 13.2075C20.7713 12.7526 20.7165 12.1557 20.3639 11.7636L18.8767 13.1008C18.625 12.8209 18.5823 12.3867 18.8159 12.0552L20.4507 13.2075ZM15.2325 6.59128C14.7533 6.11403 13.8317 5.89594 13.1729 6.58025L14.6136 7.96742C14.4963 8.08933 14.3212 8.15712 14.1471 8.14639C13.9893 8.13667 13.8807 8.06771 13.8211 8.00829L15.2325 6.59128ZM9.60865 19.9889C9.60761 20.6201 9.88878 21.3159 10.5773 21.6203C11.2776 21.9299 11.9863 21.654 12.4466 21.2045L11.0494 19.7735C11.0196 19.8026 11.0309 19.7791 11.0961 19.7621C11.1663 19.7437 11.2733 19.7413 11.386 19.7911C11.6353 19.9013 11.6085 20.0923 11.6086 19.9922L9.60865 19.9889ZM15.5187 12.4811H15.5187L16.9371 13.8911C17.7161 13.1075 17.7121 11.8407 16.9281 11.062L15.5187 12.4811ZM14.2155 11.1868L14.2155 11.1868L15.6248 9.7677C14.8468 8.99497 13.5916 8.99285 12.8109 9.76294L14.2155 11.1868ZM9.63745 13.9545C10.3151 14.606 11.1373 14.2233 11.4623 13.9026L10.0578 12.4788C10.1237 12.4138 10.2384 12.3353 10.4096 12.3118C10.6054 12.2848 10.8436 12.3398 11.0235 12.5127L9.63745 13.9545Z" fill="white" mask="url(#path-1-outside-1_1502_10514)"/>
<path d="M13.562 2.86023L13.9172 3.21209L13.5563 2.86602C13.4632 2.96313 13.3689 3.0584 13.28 3.14341L13.28 3.14338L13.2753 3.14795C13.201 3.22094 13.126 3.2938 13.0503 3.36729C12.9297 3.48445 12.8074 3.60321 12.6837 3.72661C12.6836 3.72678 12.6834 3.72694 12.6832 3.7271L5.09587 11.2516C4.88646 11.4593 4.74281 11.732 4.72203 12.0348C4.70072 12.3453 4.81236 12.6474 5.04206 12.8836C5.29758 13.1464 5.62506 13.4563 5.83276 13.6529C5.9052 13.7214 5.96308 13.7762 5.99825 13.8104C5.9986 13.8107 5.99896 13.8111 5.99931 13.8114L8.77622 16.544C8.77627 16.544 8.77632 16.5441 8.77636 16.5441C8.9213 16.6871 9.07026 16.8385 9.22367 16.9944L9.25478 17.026C9.41806 17.192 9.58594 17.3622 9.75271 17.5254C9.95054 17.719 10.2087 17.849 10.4955 17.8617C10.7879 17.8746 11.0653 17.7629 11.2815 17.5536C11.5002 17.3417 11.7838 17.0476 11.9646 16.8601C12.0411 16.7807 12.0993 16.7205 12.1262 16.6937L12.1274 16.6924L15.278 13.5362C15.3185 13.4963 15.3638 13.4528 15.4145 13.4042C15.4406 13.3791 15.4682 13.3527 15.4972 13.3246C15.7162 13.1134 15.8485 12.8352 15.8542 12.5336C15.8599 12.2319 15.7381 11.9487 15.5264 11.7293C15.3807 11.5783 15.2159 11.4131 15.0639 11.2633C14.5929 10.7992 13.8687 10.7471 13.3608 11.2376C13.0018 11.5842 12.5114 12.0798 12.0255 12.5718C11.9854 12.6124 11.9454 12.6529 11.9054 12.6934C11.4582 13.1464 11.0233 13.5869 10.6979 13.9056C10.6366 13.9656 10.5844 13.9768 10.5444 13.975C10.4987 13.973 10.4264 13.951 10.3467 13.8731C10.1539 13.6846 9.94606 13.4865 9.75004 13.2997C9.66058 13.2145 9.57358 13.1315 9.49156 13.0529C9.49115 13.0525 9.49074 13.0521 9.49034 13.0518L8.47397 12.0641C8.47815 12.057 8.4851 12.0472 8.4966 12.0353C9.06149 11.4492 9.87692 10.6628 10.6387 9.92805C11.1687 9.41687 11.6727 8.93075 12.0483 8.55459C12.0485 8.55438 12.0488 8.55417 12.049 8.55396L13.4833 7.12787L13.49 7.1212L13.4965 7.11427C13.5405 7.06702 13.6142 6.99482 13.6778 6.93256C13.6925 6.91816 13.7067 6.90429 13.7198 6.89138L13.7206 6.89057C13.9194 6.6941 14.0673 6.56403 14.1842 6.46126C14.1935 6.45304 14.2027 6.445 14.2117 6.4371C14.2163 6.43302 14.221 6.42888 14.2258 6.4247C14.3287 6.3342 14.458 6.22047 14.5475 6.07978C14.6609 5.90159 14.6898 5.72267 14.6996 5.55433C14.7059 5.44572 14.7052 5.30487 14.7043 5.14012C14.704 5.07845 14.7036 5.01342 14.7036 4.94548C14.7036 4.76676 14.7061 4.5734 14.7087 4.37411C14.7131 4.03491 14.7177 3.67851 14.7106 3.34776C14.706 3.13276 14.6111 2.86107 14.3469 2.72109C14.0472 2.56232 13.7416 2.67892 13.562 2.86023ZM8.46775 12.0657L8.12309 12.4204L8.46753 12.0644C8.46761 12.0648 8.46768 12.0652 8.46775 12.0657Z" stroke="white"/>
</svg>
