<svg width="426" height="607" viewBox="0 0 426 607" fill="none" xmlns="http://www.w3.org/2000/svg">
<path d="M150.097 249.318C139.251 252.478 126.549 249.484 119.092 240.98C111.635 232.476 110.586 218.618 117.537 209.712C124.989 200.18 138.665 198.1 147.781 190.14C156.141 182.83 159.662 171.46 161.585 160.507C163.508 149.553 164.269 138.206 168.702 128.016C173.134 117.825 182.435 108.729 193.526 108.658C206.068 108.582 215.736 119.521 222.277 130.252C228.817 140.983 234.767 153.187 245.971 158.834C257.176 164.481 270.606 162.004 282.467 158.057C294.329 154.111 306.096 148.734 318.609 148.857C325.073 148.918 331.437 150.469 337.208 153.388C342.979 156.308 348.003 160.518 351.893 165.694C355.783 170.869 358.434 176.872 359.642 183.239C360.849 189.605 360.581 196.165 358.858 202.411C356.079 212.488 349.695 221.163 345.862 230.884C342.03 240.606 341.33 252.962 348.698 260.343C359.217 270.856 380.955 266.53 387.33 279.98C390.638 286.945 387.462 295.529 382.132 301.082C376.801 306.634 369.647 309.988 363.031 313.925C356.415 317.862 349.879 322.889 347.171 330.109C345.432 334.752 345.451 339.878 344.038 344.63C341.345 353.717 332.834 360.947 323.397 361.491C313.959 362.036 304.399 355.422 302.131 346.217C298.946 333.179 309.338 321.236 314.484 308.842C323.959 286.002 314.484 258.301 296.248 241.658C278.011 225.014 252.71 218.026 228.07 216.728C207.967 215.672 186.215 218.699 171.419 232.362C171.438 232.381 160.942 246.154 150.097 249.318Z" fill="#6C58CF"/>
<path d="M211.026 235.621C206.168 230.983 198.215 231.978 193.442 236.204C187.913 241.103 186.467 248.996 186.595 256.045C186.675 260.309 187.228 264.521 187.44 268.761C187.622 273.025 187.553 277.297 187.233 281.553C186.68 289.943 185.564 298.319 185.683 306.738C185.777 313.683 186.713 320.771 189.246 327.271C191.779 333.771 195.914 339.461 201.665 343.493C207.189 347.363 213.791 349.528 220.411 350.523C227.477 351.569 234.659 351.538 241.715 350.433C248.992 349.301 256.218 346.733 261.922 341.948C267.191 337.528 271 331.213 271.808 324.319C272.001 322.705 272.001 321.073 271.808 319.459C271.796 319.085 271.643 318.731 271.379 318.467C271.116 318.203 270.762 318.049 270.39 318.037C269.695 318.037 268.878 318.696 268.972 319.459C269.738 325.755 267.328 331.966 263.198 336.722C258.722 341.877 252.537 344.999 246.001 346.672C239.316 348.291 232.416 348.829 225.562 348.263C219.315 347.813 212.945 346.435 207.321 343.568C201.635 340.718 196.951 336.196 193.896 330.606C190.782 324.893 189.307 318.364 188.773 311.921C188.14 304.274 188.835 296.604 189.491 288.981C189.841 284.888 190.191 280.79 190.328 276.663C190.449 272.526 190.329 268.384 189.969 264.26C189.378 257.154 188.551 249.54 191.859 242.969C193.248 240.217 195.252 237.886 198.002 236.55C200.429 235.354 203.207 235.082 205.819 235.787C207.022 236.139 208.125 236.773 209.037 237.635C210.36 238.9 212.368 236.891 211.045 235.626L211.026 235.621Z" fill="white"/>
<path d="M270.763 271.31C270.199 284.955 269.635 298.599 269.071 312.244C268.507 325.803 267.946 339.373 267.388 352.954L266.443 375.903C266.443 376.28 266.593 376.642 266.859 376.908C267.124 377.175 267.485 377.324 267.861 377.324C268.237 377.324 268.598 377.175 268.864 376.908C269.129 376.642 269.279 376.28 269.279 375.903C269.843 362.259 270.407 348.614 270.971 334.97C271.534 321.408 272.095 307.842 272.653 294.274L273.598 271.325C273.598 270.948 273.449 270.586 273.183 270.32C272.917 270.053 272.556 269.903 272.18 269.903C271.804 269.903 271.444 270.053 271.178 270.32C270.912 270.586 270.763 270.948 270.763 271.325V271.31Z" fill="white"/>
<path d="M210.571 346.961C208.394 360.747 206.217 374.524 204.04 388.292L202.197 399.97C202.11 400.334 202.164 400.717 202.348 401.041C202.532 401.366 202.833 401.608 203.19 401.719C203.861 401.903 204.81 401.486 204.933 400.724C207.107 386.947 209.283 373.17 211.459 359.392L213.307 347.743C213.396 347.38 213.343 346.997 213.16 346.672C212.976 346.347 212.676 346.105 212.32 345.994C211.644 345.805 210.694 346.222 210.576 346.985L210.571 346.961Z" fill="white"/>
<path d="M214.056 230.723C219.112 240.105 222.321 250.375 223.507 260.973C224.1 266.28 224.19 271.633 223.776 276.957C223.412 281.591 222.406 286.229 222.713 290.896C223.011 295.463 224.83 300.058 229.164 302.176C233.568 304.331 238.851 303.597 243.189 301.655C247.216 299.826 251.412 295.922 250.798 291.071C250.66 289.934 250.289 288.837 249.709 287.85C249.13 286.863 248.353 286.006 247.428 285.334C246.541 284.704 245.497 284.333 244.413 284.263C243.328 284.193 242.245 284.426 241.285 284.936C237.481 286.888 236.857 292.094 236.715 295.894C236.495 301.92 236.274 307.946 236.054 313.973C236.002 315.46 235.945 316.948 235.893 318.431C235.822 320.264 238.657 320.259 238.728 318.431L239.376 301.314C239.47 298.779 239.447 296.216 239.725 293.695C239.763 293.354 239.801 293.065 239.886 292.596C239.971 292.127 240.085 291.649 240.217 291.175C240.404 290.379 240.724 289.62 241.162 288.929C241.228 288.82 241.45 288.498 241.45 288.503C241.337 288.645 241.62 288.304 241.602 288.328C241.658 288.261 241.72 288.195 241.786 288.129C241.913 288.001 242.046 287.878 242.183 287.764C241.998 287.916 242.225 287.736 242.277 287.702C242.329 287.669 242.504 287.556 242.622 287.489L242.868 287.366C243.1 287.257 242.561 287.465 242.981 287.323C243.161 287.262 243.345 287.21 243.534 287.162C244.007 287.049 243.411 287.162 243.681 287.129H243.974H244.338C244.626 287.129 244.224 287.086 244.531 287.129C244.717 287.17 244.9 287.221 245.08 287.281C245.344 287.371 245.202 287.328 245.141 287.281C245.25 287.328 245.358 287.385 245.462 287.442C245.816 287.619 246.136 287.858 246.408 288.148C246.96 288.703 247.394 289.366 247.683 290.095C248.331 291.886 248.052 293.487 246.951 295.169C245.85 296.851 244.177 298.011 242.41 298.897C238.922 300.646 234.173 301.47 230.595 299.727C226.933 297.926 225.69 294.179 225.525 290.389C225.326 285.959 226.243 281.572 226.598 277.171C227.006 272.123 226.959 267.049 226.456 262.01C225.453 251.808 222.659 241.864 218.205 232.637C217.657 231.514 217.089 230.405 216.494 229.32C215.625 227.71 213.186 229.145 214.046 230.742L214.056 230.723Z" fill="white"/>
<path d="M266.557 252.715C271.755 251.265 277.856 252.123 281.372 256.453C282.889 258.304 283.724 260.623 283.735 263.019C283.722 264.171 283.451 265.305 282.945 266.339C282.438 267.372 281.707 268.279 280.805 268.993C280.361 269.35 279.886 269.667 279.387 269.941C278.843 270.229 278.263 270.444 277.662 270.58C276.483 270.875 275.243 270.819 274.095 270.419C273.915 270.37 273.727 270.356 273.542 270.379C273.357 270.402 273.179 270.461 273.016 270.553C272.854 270.645 272.712 270.768 272.597 270.916C272.483 271.063 272.398 271.232 272.348 271.412C272.299 271.592 272.285 271.78 272.308 271.966C272.331 272.151 272.39 272.33 272.482 272.493C272.574 272.655 272.697 272.798 272.844 272.913C272.991 273.028 273.159 273.113 273.338 273.162C279.071 275.086 285.526 270.585 286.433 264.767C286.885 261.687 286.197 258.548 284.5 255.941C282.724 253.206 280.072 251.158 276.982 250.133C273.366 248.966 269.483 248.916 265.839 249.991C264.086 250.464 264.832 253.226 266.595 252.734L266.557 252.715Z" fill="white"/>
<path d="M144.206 281.828C134.197 284.628 122.468 287.603 112.355 283.576C107.699 281.73 103.921 278.171 101.793 273.627C99.7326 269.221 99.3262 264.09 99.9878 259.315C101.538 248.063 109.075 239.388 117.681 232.571C126.659 225.464 137.141 220.357 145.487 212.469C149.376 208.797 152.679 204.453 154.503 199.379C156.393 194.167 156.351 188.482 155.746 183.048C154.583 172.602 150.519 160.274 156.625 150.61C161.757 142.489 172.692 139.429 181.737 141.395C192.412 143.721 200.701 152.197 205.961 161.407C211.273 170.711 213.716 182.143 221.91 189.567C230.378 197.237 242.093 197.337 252.627 194.779C264.441 191.898 275.041 185.573 286.812 182.551C292.696 181.039 298.976 180.296 304.945 181.807C309.92 183.081 314.379 185.872 317.704 189.795C324.041 197.204 326.234 207.561 327.042 217.031C327.987 228.07 326.976 239.175 328.578 250.195C329.362 255.572 330.78 260.888 333.303 265.725C335.959 270.818 339.872 274.868 344.343 278.403C348.908 282.013 353.874 285.244 357.707 289.683C360.937 293.518 363.175 298.092 364.223 303C366.383 312.618 364.318 323.51 357.872 331.104C354.139 335.501 349.205 338.798 347.065 344.37C344.881 350.055 345.845 356.327 345.505 362.268C344.91 372.691 337.646 381.948 327.789 385.331C317.931 388.714 307.44 385.047 300.791 377.277C297.575 373.564 295.528 368.98 294.907 364.102C294.699 362.306 291.859 362.283 292.072 364.102C293.296 374.733 300.781 383.858 310.667 387.709C320.658 391.608 331.82 388.685 339.494 381.399C343.352 377.779 346.133 373.158 347.528 368.048C349.101 362.012 347.948 355.782 348.723 349.666C349.056 346.617 350.22 343.719 352.088 341.29C353.945 338.921 356.265 336.974 358.349 334.828C362.017 331.042 364.737 326.44 366.289 321.397C369.313 311.618 368.141 300.376 362.692 291.659C356.27 281.368 343.856 277.119 337.334 266.952C331.026 257.14 330.506 244.936 330.331 233.665C330.18 222.84 330.331 211.967 327.023 201.52C323.937 191.747 317.718 183.044 307.719 179.651C295.432 175.478 282.091 180.452 270.745 185.204C260.065 189.671 248.459 194.812 236.588 193.258C231.003 192.57 225.851 189.893 222.071 185.716C218.404 181.646 216.083 176.529 213.895 171.559C211.589 166.348 209.354 161.089 206.136 156.337C202.994 151.574 199.02 147.417 194.407 144.067C185.787 137.96 174.743 136.094 164.895 140.277C160.358 142.215 156.337 145.431 153.832 149.728C151.02 154.542 150.349 160.208 150.661 165.69C151.299 176.941 156.025 189.122 151.2 200.033C146.512 210.645 135.605 216.785 126.362 222.906C116.565 229.401 106.193 236.811 100.739 247.589C96.212 256.553 95.0684 268.283 100.475 277.138C106.457 286.907 118.134 289.11 128.725 287.944C134.235 287.338 139.631 286.049 144.962 284.547C146.72 284.074 145.973 281.316 144.211 281.809L144.206 281.828Z" fill="white"/>
<path d="M206.31 372.336C189.927 385.219 173.532 398.102 157.125 410.985C141.795 423.071 126.569 435.356 112.581 449.009C99.5379 461.744 87.5773 475.715 78.0078 491.279C68.5565 506.624 61.468 523.585 58.5191 541.426C55.5278 559.482 56.5438 578.413 62.9944 595.635C63.7741 597.724 64.6389 599.785 65.5651 601.793C66.326 603.452 68.7691 602.011 68.0177 600.372C60.4567 583.852 58.4105 565.262 60.5228 547.311C62.621 529.516 68.996 512.48 77.8897 497.011C86.7834 481.543 98.1675 467.562 110.7 454.846C124.239 441.14 139.101 428.851 154.176 416.888C170.144 404.215 186.221 391.679 202.25 379.087L208.328 374.311C209.745 373.184 207.742 371.184 206.319 372.302L206.31 372.336Z" fill="white"/>
<path d="M257.802 370.573C276.818 381.38 296.141 391.642 314.874 402.941C332.453 413.544 349.536 425.094 364.966 438.677C379.431 451.397 392.483 465.866 402.54 482.363C412.936 499.38 419.949 518.653 421.863 538.565C422.864 548.451 422.478 558.43 420.714 568.208C418.786 578.598 415.105 588.552 410.356 597.966C409.178 600.296 407.944 602.599 406.656 604.873C405.753 606.465 408.201 607.9 409.104 606.294C414.429 596.871 418.956 586.908 421.764 576.447C424.329 566.715 425.482 556.662 425.19 546.6C424.67 526.351 418.81 506.387 409.345 488.559C400.068 471.096 387.309 455.614 372.957 442.107C358.043 428.074 341.347 416.083 324.023 405.239C305.229 393.47 285.683 382.972 266.369 372.151C263.988 370.815 261.608 369.471 259.229 368.119C257.636 367.214 256.209 369.673 257.811 370.573H257.802Z" fill="white"/>
<path d="M314.687 596.667H145.942C142.195 596.668 138.562 595.372 135.657 592.998C132.752 590.625 130.753 587.319 129.998 583.639L112.296 497.452C111.808 495.079 111.854 492.627 112.429 490.274C113.004 487.921 114.094 485.726 115.621 483.848C117.148 481.97 119.072 480.457 121.255 479.417C123.437 478.377 125.824 477.838 128.24 477.838H340.819C343.364 477.835 345.874 478.43 348.147 479.575C350.421 480.721 352.395 482.384 353.912 484.433C355.428 486.482 356.444 488.858 356.879 491.371C357.313 493.885 357.154 496.465 356.414 498.906L330.262 585.098C329.246 588.446 327.184 591.377 324.379 593.46C321.575 595.543 318.177 596.668 314.687 596.667Z" fill="white"/>
<path d="M290.407 488.924H327.267C336.856 488.924 343.717 497.869 340.929 506.728L318.01 579.579C316.186 585.392 310.638 589.362 304.348 589.362H156.364C149.587 589.362 143.746 584.762 142.38 578.352L138.576 560.5" stroke="#404BEC" stroke-width="2.94" stroke-miterlimit="10"/>
<path d="M134.819 542.881L126.852 505.506C125.033 496.95 131.795 488.924 140.84 488.924H267.384" stroke="#404BEC" stroke-width="2.94" stroke-miterlimit="10"/>
<path d="M251.672 548.443C253.447 540.903 248.789 533.347 241.268 531.568C233.746 529.788 226.21 534.458 224.435 541.998C222.66 549.538 227.318 557.094 234.839 558.874C242.361 560.653 249.897 555.983 251.672 548.443Z" fill="#32AFEC"/>
<path d="M70.8059 34.2956H71.1367C79.34 34.3704 87.2757 37.2311 93.6482 42.4106C100.021 47.5902 104.453 54.7825 106.223 62.8134C107.992 70.8443 106.993 79.2393 103.39 86.6278C99.786 94.0163 93.7904 99.9618 86.3817 103.494L84.5765 104.356V138.997C84.5752 139.694 84.2985 140.362 83.8069 140.855C83.3153 141.348 82.6489 141.626 81.9537 141.627H59.6438C58.9486 141.626 58.2822 141.348 57.7907 140.855C57.2991 140.362 57.0223 139.694 57.0211 138.997V104.356L55.2159 103.494C48.9426 100.5 43.6588 95.7629 39.9929 89.8461C36.3269 83.9293 34.433 77.0815 34.5364 70.1169C34.8105 50.3562 51.0762 34.2814 70.8059 34.2814M70.8059 31.1072C49.3655 31.1072 31.6679 48.5369 31.3654 70.0695C31.2564 77.6395 33.3171 85.0819 37.3028 91.5124C41.2886 97.9428 47.0318 103.091 53.8502 106.346V138.983C53.8502 139.746 54.0001 140.501 54.2913 141.205C54.5825 141.91 55.0093 142.55 55.5474 143.089C56.0854 143.628 56.7242 144.055 57.4271 144.346C58.1299 144.638 58.8832 144.787 59.6438 144.787H81.9348C82.6952 144.787 83.4482 144.638 84.1509 144.346C84.8535 144.055 85.4919 143.627 86.0296 143.088C86.5673 142.549 86.9937 141.909 87.2844 141.205C87.5751 140.5 87.7244 139.745 87.7238 138.983V106.36C95.7734 102.517 102.287 96.0541 106.202 88.0241C110.118 79.994 111.204 70.8709 109.283 62.1427C107.363 53.4144 102.549 45.5959 95.6277 39.9623C88.7061 34.3287 80.0848 31.2123 71.1697 31.1214L70.8059 31.1072Z" fill="#F9E741"/>
<path d="M53.6934 126.86H87.5858" stroke="#F9E741" stroke-width="6.7" stroke-miterlimit="10"/>
<path d="M64.1465 144.645H77.1326V151.277C77.1326 152.133 76.7936 152.954 76.19 153.559C75.5865 154.164 74.768 154.504 73.9144 154.504H67.3647C66.942 154.504 66.5236 154.42 66.1331 154.258C65.7427 154.096 65.3879 153.858 65.0891 153.559C64.7902 153.259 64.5532 152.903 64.3915 152.512C64.2297 152.12 64.1465 151.701 64.1465 151.277V144.645V144.645Z" stroke="#F9E741" stroke-width="6.7" stroke-miterlimit="10"/>
<path d="M78.4006 70.9697C78.4005 69.5439 78.0017 68.1467 77.2492 66.9368C76.4968 65.7269 75.421 64.7528 74.144 64.1252C72.8671 63.4976 71.4401 63.2416 70.0253 63.3863C68.6104 63.531 67.2644 64.0706 66.1402 64.9438C65.0159 65.817 64.1585 66.9888 63.6653 68.3261C63.1721 69.6634 63.0628 71.1125 63.35 72.509C63.6371 73.9054 64.3092 75.193 65.2898 76.2257C66.2703 77.2584 67.5202 77.9947 68.8972 78.3509V122.733C68.8972 123.239 69.0976 123.724 69.4544 124.081C69.8111 124.439 70.2949 124.64 70.7993 124.64C71.3038 124.64 71.7876 124.439 72.1443 124.081C72.501 123.724 72.7014 123.239 72.7014 122.733V78.3509C74.333 77.9277 75.7781 76.9731 76.8097 75.637C77.8413 74.301 78.4009 72.6592 78.4006 70.9697Z" fill="#F9E741"/>
<path d="M73.8096 0H67.7891V21.9116H73.8096V0Z" fill="white"/>
<path d="M107.25 9.87881L95.3047 28.2283L100.346 31.5271L112.292 13.1776L107.25 9.87881Z" fill="white"/>
<path d="M134.922 39.7933L114.914 48.6111L117.335 54.1322L137.343 45.3144L134.922 39.7933Z" fill="white"/>
<path d="M120.225 76.4081L119.242 82.3582L140.805 85.9369L141.787 79.9868L120.225 76.4081Z" fill="white"/>
<path d="M21.8562 73.048L0 75.02L0.54142 81.051L22.3976 79.079L21.8562 73.048Z" fill="white"/>
<path d="M9.49148 35.1697L6.64648 40.489L25.9084 50.8433L28.7534 45.524L9.49148 35.1697Z" fill="white"/>
<path d="M39.2726 7.39064L33.9902 10.2864L44.4761 29.5115L49.7584 26.6158L39.2726 7.39064Z" fill="white"/>
</svg>
