<svg width="472" height="837" viewBox="0 0 472 837" fill="none" xmlns="http://www.w3.org/2000/svg">
<path d="M0 0H472V837H0V0Z" fill="#8270DB"/>
<g clip-path="url(#clip0_1134_31496)">
<g opacity="0.5">
<path fill-rule="evenodd" clip-rule="evenodd" d="M12.0312 68.3556C12.4775 69.6378 18.2696 74.9624 19.649 76.309L35.3571 91.8234C37.8944 94.335 40.6271 97.2798 43.1586 99.5425C44.1444 99.2498 49.184 93.8081 50.3127 92.6811L68.1264 74.7692C69.188 73.7184 70.9642 72.1025 71.7166 71.0604C71.2266 70.0534 65.0962 64.076 64.1338 63.2212C62.2789 64.1814 44.646 82.9772 43.1615 83.6681C41.1754 81.5078 37.9877 78.519 35.4533 76.0806L29.6817 70.4515C28.9613 69.7519 28.1943 69.2426 27.8385 68.3556C32.4465 63.2212 44.1911 52.2236 49.8694 46.5154L57.983 38.4187C58.3446 38.0294 58.9775 37.4146 59.3304 37.0663C64.4429 31.9963 64.0463 34.1976 64.0463 28.0504C64.0463 24.4821 64.2038 20.5332 64.0113 17.0146C63.3143 17.1376 63.0372 17.6001 62.4277 18.2177C61.8823 18.7886 61.3194 19.3594 60.7799 19.8775C59.6425 20.9986 58.5867 22.0085 57.4493 23.1472L12.0312 68.3556Z" fill="#1A74FF"/>
<path fill-rule="evenodd" clip-rule="evenodd" d="M35.6113 68.2614L41.2918 74.0535C41.5046 74.2699 41.9563 74.7523 42.1662 74.9628C42.8453 75.6177 42.6996 75.5797 43.4603 75.84L64.1216 55.3936L79.4581 70.6736L65.2612 85.0003C62.0552 88.1931 57.6367 92.9151 55.8792 94.5232L44.7514 105.593C44.0927 106.221 43.7459 106.619 43.7459 107.903L43.7226 122.139C45.1857 121.457 83.2441 82.9946 88.7177 77.6147C90.0846 76.2698 94.4157 72.4746 95.0511 70.963C94.9257 70.7726 94.7864 70.5918 94.6343 70.4221C94.5177 70.2876 94.474 70.235 94.4186 70.1794L94.1942 69.9484L93.4684 69.2146L85.2668 60.8963C83.6609 59.2092 81.373 56.914 79.4173 54.9638C77.8259 53.3762 76.4561 52.0166 75.8586 51.4085C73.9146 49.4261 71.9881 47.4935 70.0499 45.5228L64.1333 39.6108C63.2881 40.0289 62.9675 40.488 62.2884 41.1956C58.4994 45.0872 36.1593 67.0217 35.6142 68.2789" fill="#2C7FFF"/>
<path fill-rule="evenodd" clip-rule="evenodd" d="M133.586 68.3556C134.032 69.6378 139.824 74.9624 141.204 76.309L156.912 91.8234C159.449 94.335 162.182 97.2798 164.713 99.5425C165.699 99.2498 170.739 93.8081 171.867 92.6811L189.681 74.7692C190.743 73.7184 192.519 72.1025 193.271 71.0604C192.781 70.0534 186.651 64.076 185.688 63.2212C183.834 64.1814 166.201 82.9772 164.716 83.6681C162.73 81.5078 159.542 78.519 157.008 76.0806L151.236 70.4515C150.516 69.7519 149.749 69.2426 149.393 68.3556C154.001 63.2212 165.746 52.2236 171.424 46.5154L179.538 38.4187C179.899 38.0294 180.532 37.4146 180.885 37.0663C185.998 31.9963 185.601 34.1976 185.601 28.0504C185.601 24.4821 185.758 20.5332 185.566 17.0146C184.869 17.1376 184.592 17.6001 183.982 18.2177C183.437 18.7886 182.874 19.3594 182.335 19.8775C181.197 20.9986 180.141 22.0085 179.004 23.1472L133.586 68.3556Z" fill="#1A74FF"/>
<path fill-rule="evenodd" clip-rule="evenodd" d="M157.166 68.2614L162.847 74.0535C163.059 74.2699 163.511 74.7523 163.721 74.9628C164.4 75.6177 164.254 75.5797 165.015 75.84L185.676 55.3936L201.013 70.6736L186.816 85.0003C183.61 88.1931 179.191 92.9151 177.434 94.5232L166.306 105.593C165.647 106.221 165.301 106.619 165.301 107.903L165.277 122.139C166.74 121.457 204.799 82.9946 210.272 77.6147C211.639 76.2698 215.97 72.4746 216.606 70.963C216.48 70.7726 216.341 70.5918 216.189 70.4221C216.072 70.2876 216.029 70.235 215.973 70.1794L215.749 69.9484L215.023 69.2146L206.822 60.8963C205.216 59.2092 202.928 56.914 200.972 54.9638C199.381 53.3762 198.011 52.0166 197.413 51.4085C195.469 49.4261 193.543 47.4935 191.605 45.5228L185.688 39.6108C184.843 40.0289 184.522 40.488 183.843 41.1956C180.054 45.0872 157.714 67.0217 157.169 68.2789" fill="#2C7FFF"/>
<path fill-rule="evenodd" clip-rule="evenodd" d="M255.139 68.3556C255.585 69.6378 261.377 74.9624 262.756 76.309L278.465 91.8234C281.002 94.335 283.735 97.2798 286.266 99.5425C287.252 99.2498 292.291 93.8081 293.42 92.6811L311.234 74.7692C312.295 73.7184 314.072 72.1025 314.824 71.0604C314.334 70.0534 308.204 64.076 307.241 63.2212C305.386 64.1814 287.753 82.9772 286.269 83.6681C284.283 81.5078 281.095 78.519 278.561 76.0806L272.789 70.4515C272.069 69.7519 271.302 69.2426 270.946 68.3556C275.554 63.2212 287.298 52.2236 292.977 46.5154L301.09 38.4187C301.452 38.0294 302.085 37.4146 302.438 37.0663C307.55 31.9963 307.154 34.1976 307.154 28.0504C307.154 24.4821 307.311 20.5332 307.119 17.0146C306.422 17.1376 306.145 17.6001 305.535 18.2177C304.99 18.7886 304.427 19.3594 303.887 19.8775C302.75 20.9986 301.694 22.0085 300.557 23.1472L255.139 68.3556Z" fill="#1A74FF"/>
<path fill-rule="evenodd" clip-rule="evenodd" d="M278.719 68.2616L284.399 74.0537C284.612 74.2701 285.064 74.7525 285.274 74.963C285.953 75.618 285.807 75.58 286.568 75.8402L307.229 55.3939L322.566 70.6738L308.369 85.0005C305.163 88.1934 300.744 92.9153 298.987 94.5234L287.859 105.593C287.2 106.222 286.853 106.619 286.853 107.903L286.83 122.139C288.293 121.458 326.352 82.9948 331.825 77.615C333.192 76.27 337.523 72.4749 338.158 70.9633C338.033 70.7728 337.894 70.592 337.742 70.4223C337.625 70.2879 337.581 70.2352 337.526 70.1797L337.302 69.9487L336.576 69.2148L328.374 60.8965C326.768 59.2095 324.48 56.9143 322.525 54.9641C320.933 53.3765 319.564 52.0169 318.966 51.4087C317.022 49.4264 315.095 47.4937 313.157 45.5231L307.241 39.6111C306.395 40.0292 306.075 40.4882 305.396 41.1958C301.607 45.0874 279.267 67.0219 278.722 68.2792" fill="#2C7FFF"/>
<path fill-rule="evenodd" clip-rule="evenodd" d="M376.693 68.3556C377.14 69.6378 382.932 74.9624 384.311 76.309L400.019 91.8234C402.557 94.335 405.289 97.2798 407.821 99.5425C408.806 99.2498 413.846 93.8081 414.975 92.6811L432.789 74.7692C433.85 73.7184 435.626 72.1025 436.379 71.0604C435.889 70.0534 429.758 64.076 428.796 63.2212C426.941 64.1814 409.308 82.9772 407.824 83.6681C405.838 81.5078 402.65 78.519 400.115 76.0806L394.344 70.4515C393.623 69.7519 392.856 69.2426 392.501 68.3556C397.109 63.2212 408.853 52.2236 414.532 46.5154L422.645 38.4187C423.007 38.0294 423.64 37.4146 423.993 37.0663C429.105 31.9963 428.708 34.1976 428.708 28.0504C428.708 24.4821 428.866 20.5332 428.673 17.0146C427.976 17.1376 427.699 17.6001 427.09 18.2177C426.544 18.7886 425.982 19.3594 425.442 19.8775C424.305 20.9986 423.249 22.0085 422.111 23.1472L376.693 68.3556Z" fill="#1A74FF"/>
<path fill-rule="evenodd" clip-rule="evenodd" d="M400.273 68.2616L405.954 74.0537C406.167 74.2701 406.618 74.7525 406.828 74.963C407.507 75.618 407.362 75.58 408.122 75.8402L428.784 55.3939L444.12 70.6738L429.923 85.0005C426.717 88.1934 422.299 92.9153 420.541 94.5234L409.414 105.593C408.755 106.222 408.408 106.619 408.408 107.903L408.385 122.139C409.848 121.458 447.906 82.9948 453.38 77.615C454.747 76.27 459.078 72.4749 459.713 70.9633C459.588 70.7728 459.448 70.592 459.296 70.4223C459.18 70.2879 459.136 70.2352 459.081 70.1797L458.856 69.9487L458.131 69.2148L449.929 60.8965C448.323 59.2095 446.035 56.9143 444.079 54.9641C442.488 53.3765 441.118 52.0169 440.521 51.4087C438.577 49.4264 436.65 47.4937 434.712 45.5231L428.795 39.6111C427.95 40.0292 427.63 40.4882 426.95 41.1958C423.162 45.0874 400.821 67.0219 400.276 68.2792" fill="#2C7FFF"/>
<line x1="12" y1="154.186" x2="459.746" y2="154.186" stroke="#2C7FFF" stroke-width="1.75154" stroke-dasharray="19.27 19.27"/>
<path fill-rule="evenodd" clip-rule="evenodd" d="M12.0312 239.325C12.4775 240.607 18.2696 245.932 19.649 247.278L35.3571 262.793C37.8944 265.304 40.6271 268.249 43.1586 270.512C44.1444 270.219 49.184 264.777 50.3127 263.65L68.1264 245.738C69.188 244.688 70.9642 243.072 71.7166 242.03C71.2266 241.023 65.0962 235.045 64.1338 234.19C62.2789 235.151 44.646 253.946 43.1615 254.637C41.1754 252.477 37.9877 249.488 35.4533 247.05L29.6817 241.421C28.9613 240.721 28.1943 240.212 27.8385 239.325C32.4465 234.19 44.1911 223.193 49.8694 217.485L57.983 209.388C58.3446 208.999 58.9775 208.384 59.3304 208.036C64.4429 202.966 64.0463 205.167 64.0463 199.02C64.0463 195.451 64.2038 191.502 64.0113 187.984C63.3143 188.107 63.0372 188.569 62.4277 189.187C61.8823 189.758 61.3194 190.329 60.7799 190.847C59.6425 191.968 58.5867 192.978 57.4493 194.116L12.0312 239.325Z" fill="#1A74FF"/>
<path fill-rule="evenodd" clip-rule="evenodd" d="M35.6113 239.23L41.2918 245.022C41.5046 245.239 41.9563 245.721 42.1662 245.932C42.8453 246.587 42.6996 246.549 43.4603 246.809L64.1216 226.363L79.4581 241.643L65.2612 255.969C62.0552 259.162 57.6367 263.884 55.8792 265.492L44.7514 276.562C44.0927 277.19 43.7459 277.588 43.7459 278.872L43.7226 293.108C45.1857 292.426 83.2441 253.964 88.7177 248.584C90.0846 247.239 94.4157 243.444 95.0511 241.932C94.9257 241.742 94.7864 241.561 94.6343 241.391C94.5177 241.257 94.474 241.204 94.4186 241.148L94.1942 240.917L93.4684 240.184L85.2668 231.865C83.6609 230.178 81.373 227.883 79.4173 225.933C77.8259 224.345 76.4561 222.986 75.8586 222.377C73.9146 220.395 71.9881 218.462 70.0499 216.492L64.1333 210.58C63.2881 210.998 62.9675 211.457 62.2884 212.165C58.4994 216.056 36.1593 237.991 35.6142 239.248" fill="#2C7FFF"/>
<path fill-rule="evenodd" clip-rule="evenodd" d="M133.586 239.325C134.032 240.607 139.824 245.932 141.204 247.278L156.912 262.793C159.449 265.304 162.182 268.249 164.713 270.512C165.699 270.219 170.739 264.777 171.867 263.65L189.681 245.738C190.743 244.688 192.519 243.072 193.271 242.03C192.781 241.023 186.651 235.045 185.688 234.19C183.834 235.151 166.201 253.946 164.716 254.637C162.73 252.477 159.542 249.488 157.008 247.05L151.236 241.421C150.516 240.721 149.749 240.212 149.393 239.325C154.001 234.19 165.746 223.193 171.424 217.485L179.538 209.388C179.899 208.999 180.532 208.384 180.885 208.036C185.998 202.966 185.601 205.167 185.601 199.02C185.601 195.451 185.758 191.502 185.566 187.984C184.869 188.107 184.592 188.569 183.982 189.187C183.437 189.758 182.874 190.329 182.335 190.847C181.197 191.968 180.141 192.978 179.004 194.116L133.586 239.325Z" fill="#1A74FF"/>
<path fill-rule="evenodd" clip-rule="evenodd" d="M157.166 239.231L162.847 245.023C163.059 245.239 163.511 245.722 163.721 245.932C164.4 246.587 164.254 246.549 165.015 246.809L185.676 226.363L201.013 241.643L186.816 255.97C183.61 259.162 179.191 263.884 177.434 265.492L166.306 276.562C165.647 277.191 165.301 277.588 165.301 278.872L165.277 293.108C166.74 292.427 204.799 253.964 210.272 248.584C211.639 247.239 215.97 243.444 216.606 241.932C216.48 241.742 216.341 241.561 216.189 241.391C216.072 241.257 216.029 241.204 215.973 241.149L215.749 240.918L215.023 240.184L206.822 231.866C205.216 230.178 202.928 227.883 200.972 225.933C199.381 224.345 198.011 222.986 197.413 222.378C195.469 220.395 193.543 218.463 191.605 216.492L185.688 210.58C184.843 210.998 184.522 211.457 183.843 212.165C180.054 216.056 157.714 237.991 157.169 239.248" fill="#2C7FFF"/>
<path fill-rule="evenodd" clip-rule="evenodd" d="M255.139 239.325C255.585 240.607 261.377 245.932 262.756 247.278L278.465 262.793C281.002 265.304 283.735 268.249 286.266 270.512C287.252 270.219 292.291 264.777 293.42 263.65L311.234 245.738C312.295 244.688 314.072 243.072 314.824 242.03C314.334 241.023 308.204 235.045 307.241 234.19C305.386 235.151 287.753 253.946 286.269 254.637C284.283 252.477 281.095 249.488 278.561 247.05L272.789 241.421C272.069 240.721 271.302 240.212 270.946 239.325C275.554 234.19 287.298 223.193 292.977 217.485L301.09 209.388C301.452 208.999 302.085 208.384 302.438 208.036C307.55 202.966 307.154 205.167 307.154 199.02C307.154 195.451 307.311 191.502 307.119 187.984C306.422 188.107 306.145 188.569 305.535 189.187C304.99 189.758 304.427 190.329 303.887 190.847C302.75 191.968 301.694 192.978 300.557 194.116L255.139 239.325Z" fill="#1A74FF"/>
<path fill-rule="evenodd" clip-rule="evenodd" d="M278.719 239.231L284.399 245.023C284.612 245.239 285.064 245.722 285.274 245.932C285.953 246.587 285.807 246.549 286.568 246.809L307.229 226.363L322.566 241.643L308.369 255.97C305.163 259.163 300.744 263.885 298.987 265.493L287.859 276.562C287.2 277.191 286.853 277.589 286.853 278.872L286.83 293.108C288.293 292.427 326.352 253.964 331.825 248.584C333.192 247.239 337.523 243.444 338.158 241.932C338.033 241.742 337.894 241.561 337.742 241.392C337.625 241.257 337.581 241.204 337.526 241.149L337.302 240.918L336.576 240.184L328.374 231.866C326.768 230.179 324.48 227.884 322.525 225.933C320.933 224.346 319.564 222.986 318.966 222.378C317.022 220.396 315.095 218.463 313.157 216.492L307.241 210.58C306.395 210.998 306.075 211.457 305.396 212.165C301.607 216.057 279.267 237.991 278.722 239.248" fill="#2C7FFF"/>
<path fill-rule="evenodd" clip-rule="evenodd" d="M376.693 239.325C377.14 240.607 382.932 245.932 384.311 247.278L400.019 262.793C402.557 265.304 405.289 268.249 407.821 270.512C408.806 270.219 413.846 264.777 414.975 263.65L432.789 245.738C433.85 244.688 435.626 243.072 436.379 242.03C435.889 241.023 429.758 235.045 428.796 234.19C426.941 235.151 409.308 253.946 407.824 254.637C405.838 252.477 402.65 249.488 400.115 247.05L394.344 241.421C393.623 240.721 392.856 240.212 392.501 239.325C397.109 234.19 408.853 223.193 414.532 217.485L422.645 209.388C423.007 208.999 423.64 208.384 423.993 208.036C429.105 202.966 428.708 205.167 428.708 199.02C428.708 195.451 428.866 191.502 428.673 187.984C427.976 188.107 427.699 188.569 427.09 189.187C426.544 189.758 425.982 190.329 425.442 190.847C424.305 191.968 423.249 192.978 422.111 194.116L376.693 239.325Z" fill="#1A74FF"/>
<path fill-rule="evenodd" clip-rule="evenodd" d="M400.273 239.231L405.954 245.023C406.167 245.239 406.618 245.722 406.828 245.932C407.507 246.587 407.362 246.549 408.122 246.809L428.784 226.363L444.12 241.643L429.923 255.97C426.717 259.163 422.299 263.885 420.541 265.493L409.414 276.562C408.755 277.191 408.408 277.589 408.408 278.872L408.385 293.108C409.848 292.427 447.906 253.964 453.38 248.584C454.747 247.239 459.078 243.444 459.713 241.932C459.588 241.742 459.448 241.561 459.296 241.392C459.18 241.257 459.136 241.204 459.081 241.149L458.856 240.918L458.131 240.184L449.929 231.866C448.323 230.179 446.035 227.884 444.079 225.933C442.488 224.346 441.118 222.986 440.521 222.378C438.577 220.396 436.65 218.463 434.712 216.492L428.795 210.58C427.95 210.998 427.63 211.457 426.95 212.165C423.162 216.057 400.821 237.991 400.276 239.248" fill="#2C7FFF"/>
<line x1="12" y1="325.155" x2="459.746" y2="325.155" stroke="#2C7FFF" stroke-width="1.75154" stroke-dasharray="19.27 19.27"/>
<path fill-rule="evenodd" clip-rule="evenodd" d="M12.0312 410.294C12.4775 411.576 18.2696 416.901 19.649 418.248L35.3571 433.762C37.8944 436.274 40.6271 439.218 43.1586 441.481C44.1444 441.189 49.184 435.747 50.3127 434.62L68.1264 416.708C69.188 415.657 70.9642 414.041 71.7166 412.999C71.2266 411.992 65.0962 406.015 64.1338 405.16C62.2789 406.12 44.646 424.916 43.1615 425.607C41.1754 423.446 37.9877 420.458 35.4533 418.019L29.6817 412.39C28.9613 411.691 28.1943 411.181 27.8385 410.294C32.4465 405.16 44.1911 394.162 49.8694 388.454L57.983 380.357C58.3446 379.968 58.9775 379.353 59.3304 379.005C64.4429 373.935 64.0463 376.136 64.0463 369.989C64.0463 366.421 64.2038 362.472 64.0113 358.953C63.3143 359.076 63.0372 359.539 62.4277 360.156C61.8823 360.727 61.3194 361.298 60.7799 361.816C59.6425 362.937 58.5867 363.947 57.4493 365.086L12.0312 410.294Z" fill="#1A74FF"/>
<path fill-rule="evenodd" clip-rule="evenodd" d="M35.6113 410.2L41.2918 415.992C41.5046 416.209 41.9563 416.691 42.1662 416.902C42.8453 417.556 42.6996 417.518 43.4603 417.779L64.1216 397.332L79.4581 412.612L65.2612 426.939C62.0552 430.132 57.6367 434.854 55.8792 436.462L44.7514 447.532C44.0927 448.16 43.7459 448.558 43.7459 449.841L43.7226 464.077C45.1857 463.396 83.2441 424.933 88.7177 419.553C90.0846 418.208 94.4157 414.413 95.0511 412.902C94.9257 412.711 94.7864 412.531 94.6343 412.361C94.5177 412.226 94.474 412.174 94.4186 412.118L94.1942 411.887L93.4684 411.153L85.2668 402.835C83.6609 401.148 81.373 398.853 79.4173 396.903C77.8259 395.315 76.4561 393.955 75.8586 393.347C73.9146 391.365 71.9881 389.432 70.0499 387.462L64.1333 381.55C63.2881 381.968 62.9675 382.427 62.2884 383.134C58.4994 387.026 36.1593 408.96 35.6142 410.218" fill="#2C7FFF"/>
<path fill-rule="evenodd" clip-rule="evenodd" d="M133.586 410.294C134.032 411.576 139.824 416.901 141.204 418.248L156.912 433.762C159.449 436.274 162.182 439.218 164.713 441.481C165.699 441.189 170.739 435.747 171.867 434.62L189.681 416.708C190.743 415.657 192.519 414.041 193.271 412.999C192.781 411.992 186.651 406.015 185.688 405.16C183.834 406.12 166.201 424.916 164.716 425.607C162.73 423.446 159.542 420.458 157.008 418.019L151.236 412.39C150.516 411.691 149.749 411.181 149.393 410.294C154.001 405.16 165.746 394.162 171.424 388.454L179.538 380.357C179.899 379.968 180.532 379.353 180.885 379.005C185.998 373.935 185.601 376.136 185.601 369.989C185.601 366.421 185.758 362.472 185.566 358.953C184.869 359.076 184.592 359.539 183.982 360.156C183.437 360.727 182.874 361.298 182.335 361.816C181.197 362.937 180.141 363.947 179.004 365.086L133.586 410.294Z" fill="#1A74FF"/>
<path fill-rule="evenodd" clip-rule="evenodd" d="M157.166 410.2L162.847 415.992C163.059 416.209 163.511 416.691 163.721 416.902C164.4 417.556 164.254 417.518 165.015 417.779L185.676 397.332L201.013 412.612L186.816 426.939C183.61 430.132 179.191 434.854 177.434 436.462L166.306 447.532C165.647 448.16 165.301 448.558 165.301 449.841L165.277 464.077C166.74 463.396 204.799 424.933 210.272 419.553C211.639 418.208 215.97 414.413 216.606 412.902C216.48 412.711 216.341 412.531 216.189 412.361C216.072 412.226 216.029 412.174 215.973 412.118L215.749 411.887L215.023 411.153L206.822 402.835C205.216 401.148 202.928 398.853 200.972 396.903C199.381 395.315 198.011 393.955 197.413 393.347C195.469 391.365 193.543 389.432 191.605 387.462L185.688 381.55C184.843 381.968 184.522 382.427 183.843 383.134C180.054 387.026 157.714 408.96 157.169 410.218" fill="#2C7FFF"/>
<path fill-rule="evenodd" clip-rule="evenodd" d="M255.139 410.294C255.585 411.576 261.377 416.901 262.756 418.248L278.465 433.762C281.002 436.274 283.735 439.218 286.266 441.481C287.252 441.189 292.291 435.747 293.42 434.62L311.234 416.708C312.295 415.657 314.072 414.041 314.824 412.999C314.334 411.992 308.204 406.015 307.241 405.16C305.386 406.12 287.753 424.916 286.269 425.607C284.283 423.446 281.095 420.458 278.561 418.019L272.789 412.39C272.069 411.691 271.302 411.181 270.946 410.294C275.554 405.16 287.298 394.162 292.977 388.454L301.09 380.357C301.452 379.968 302.085 379.353 302.438 379.005C307.55 373.935 307.154 376.136 307.154 369.989C307.154 366.421 307.311 362.472 307.119 358.953C306.422 359.076 306.145 359.539 305.535 360.156C304.99 360.727 304.427 361.298 303.887 361.816C302.75 362.937 301.694 363.947 300.557 365.086L255.139 410.294Z" fill="#1A74FF"/>
<path fill-rule="evenodd" clip-rule="evenodd" d="M278.719 410.2L284.399 415.992C284.612 416.209 285.064 416.691 285.274 416.902C285.953 417.557 285.807 417.519 286.568 417.779L307.229 397.333L322.566 412.613L308.369 426.939C305.163 430.132 300.744 434.854 298.987 436.462L287.859 447.532C287.2 448.16 286.853 448.558 286.853 449.842L286.83 464.078C288.293 463.396 326.352 424.934 331.825 419.554C333.192 418.209 337.523 414.414 338.158 412.902C338.033 412.712 337.894 412.531 337.742 412.361C337.625 412.227 337.581 412.174 337.526 412.118L337.302 411.887L336.576 411.154L328.374 402.835C326.768 401.148 324.48 398.853 322.525 396.903C320.933 395.315 319.564 393.956 318.966 393.347C317.022 391.365 315.095 389.432 313.157 387.462L307.241 381.55C306.395 381.968 306.075 382.427 305.396 383.135C301.607 387.026 279.267 408.961 278.722 410.218" fill="#2C7FFF"/>
<path fill-rule="evenodd" clip-rule="evenodd" d="M376.693 410.294C377.14 411.576 382.932 416.901 384.311 418.248L400.019 433.762C402.557 436.274 405.289 439.218 407.821 441.481C408.806 441.189 413.846 435.747 414.975 434.62L432.789 416.708C433.85 415.657 435.626 414.041 436.379 412.999C435.889 411.992 429.758 406.015 428.796 405.16C426.941 406.12 409.308 424.916 407.824 425.607C405.838 423.446 402.65 420.458 400.115 418.019L394.344 412.39C393.623 411.691 392.856 411.181 392.501 410.294C397.109 405.16 408.853 394.162 414.532 388.454L422.645 380.357C423.007 379.968 423.64 379.353 423.993 379.005C429.105 373.935 428.708 376.136 428.708 369.989C428.708 366.421 428.866 362.472 428.673 358.953C427.976 359.076 427.699 359.539 427.09 360.156C426.544 360.727 425.982 361.298 425.442 361.816C424.305 362.937 423.249 363.947 422.111 365.086L376.693 410.294Z" fill="#1A74FF"/>
<path fill-rule="evenodd" clip-rule="evenodd" d="M400.273 410.201L405.954 415.993C406.167 416.209 406.618 416.691 406.828 416.902C407.507 417.557 407.362 417.519 408.122 417.779L428.784 397.333L444.12 412.613L429.923 426.94C426.717 430.132 422.299 434.854 420.541 436.462L409.414 447.532C408.755 448.161 408.408 448.558 408.408 449.842L408.385 464.078C409.848 463.397 447.906 424.934 453.38 419.554C454.747 418.209 459.078 414.414 459.713 412.902C459.588 412.712 459.448 412.531 459.296 412.361C459.18 412.227 459.136 412.174 459.081 412.119L458.856 411.888L458.131 411.154L449.929 402.835C448.323 401.148 446.035 398.853 444.079 396.903C442.488 395.315 441.118 393.956 440.521 393.348C438.577 391.365 436.65 389.433 434.712 387.462L428.795 381.55C427.95 381.968 427.63 382.427 426.95 383.135C423.162 387.026 400.821 408.961 400.276 410.218" fill="#2C7FFF"/>
<line x1="12" y1="496.125" x2="459.746" y2="496.125" stroke="#2C7FFF" stroke-width="1.75154" stroke-dasharray="19.27 19.27"/>
<path fill-rule="evenodd" clip-rule="evenodd" d="M12.0312 581.264C12.4775 582.546 18.2696 587.871 19.649 589.217L35.3571 604.732C37.8944 607.243 40.6271 610.188 43.1586 612.451C44.1444 612.158 49.184 606.716 50.3127 605.589L68.1264 587.677C69.188 586.627 70.9642 585.011 71.7166 583.969C71.2266 582.962 65.0962 576.984 64.1338 576.129C62.2789 577.09 44.646 595.885 43.1615 596.576C41.1754 594.416 37.9877 591.427 35.4533 588.989L29.6817 583.36C28.9613 582.66 28.1943 582.151 27.8385 581.264C32.4465 576.129 44.1911 565.132 49.8694 559.424L57.983 551.327C58.3446 550.938 58.9775 550.323 59.3304 549.974C64.4429 544.905 64.0463 547.106 64.0463 540.959C64.0463 537.39 64.2038 533.441 64.0113 529.923C63.3143 530.046 63.0372 530.508 62.4277 531.126C61.8823 531.697 61.3194 532.268 60.7799 532.786C59.6425 533.907 58.5867 534.917 57.4493 536.055L12.0312 581.264Z" fill="#1A74FF"/>
<path fill-rule="evenodd" clip-rule="evenodd" d="M35.6113 581.17L41.2918 586.962C41.5046 587.178 41.9563 587.66 42.1662 587.871C42.8453 588.526 42.6996 588.488 43.4603 588.748L64.1216 568.302L79.4581 583.582L65.2612 597.908C62.0552 601.101 57.6367 605.823 55.8792 607.431L44.7514 618.501C44.0927 619.13 43.7459 619.527 43.7459 620.811L43.7226 635.047C45.1857 634.366 83.2441 595.903 88.7177 590.523C90.0846 589.178 94.4157 585.383 95.0511 583.871C94.9257 583.681 94.7864 583.5 94.6343 583.33C94.5177 583.196 94.474 583.143 94.4186 583.088L94.1942 582.857L93.4684 582.123L85.2668 573.804C83.6609 572.117 81.373 569.822 79.4173 567.872C77.8259 566.284 76.4561 564.925 75.8586 564.317C73.9146 562.334 71.9881 560.402 70.0499 558.431L64.1333 552.519C63.2881 552.937 62.9675 553.396 62.2884 554.104C58.4994 557.995 36.1593 579.93 35.6142 581.187" fill="#2C7FFF"/>
<path fill-rule="evenodd" clip-rule="evenodd" d="M133.586 581.264C134.032 582.546 139.824 587.871 141.204 589.217L156.912 604.732C159.449 607.243 162.182 610.188 164.713 612.451C165.699 612.158 170.739 606.716 171.867 605.589L189.681 587.677C190.743 586.627 192.519 585.011 193.271 583.969C192.781 582.962 186.651 576.984 185.688 576.129C183.834 577.09 166.201 595.885 164.716 596.576C162.73 594.416 159.542 591.427 157.008 588.989L151.236 583.36C150.516 582.66 149.749 582.151 149.393 581.264C154.001 576.129 165.746 565.132 171.424 559.424L179.538 551.327C179.899 550.938 180.532 550.323 180.885 549.974C185.998 544.905 185.601 547.106 185.601 540.959C185.601 537.39 185.758 533.441 185.566 529.923C184.869 530.046 184.592 530.508 183.982 531.126C183.437 531.697 182.874 532.268 182.335 532.786C181.197 533.907 180.141 534.917 179.004 536.055L133.586 581.264Z" fill="#1A74FF"/>
<path fill-rule="evenodd" clip-rule="evenodd" d="M157.166 581.17L162.847 586.962C163.059 587.178 163.511 587.66 163.721 587.871C164.4 588.526 164.254 588.488 165.015 588.748L185.676 568.302L201.013 583.582L186.816 597.908C183.61 601.101 179.191 605.823 177.434 607.431L166.306 618.501C165.647 619.13 165.301 619.527 165.301 620.811L165.277 635.047C166.74 634.366 204.799 595.903 210.272 590.523C211.639 589.178 215.97 585.383 216.606 583.871C216.48 583.681 216.341 583.5 216.189 583.33C216.072 583.196 216.029 583.143 215.973 583.088L215.749 582.857L215.023 582.123L206.822 573.804C205.216 572.117 202.928 569.822 200.972 567.872C199.381 566.284 198.011 564.925 197.413 564.317C195.469 562.334 193.543 560.402 191.605 558.431L185.688 552.519C184.843 552.937 184.522 553.396 183.843 554.104C180.054 557.995 157.714 579.93 157.169 581.187" fill="#2C7FFF"/>
<path fill-rule="evenodd" clip-rule="evenodd" d="M255.139 581.264C255.585 582.546 261.377 587.871 262.756 589.217L278.465 604.732C281.002 607.243 283.735 610.188 286.266 612.451C287.252 612.158 292.291 606.716 293.42 605.589L311.234 587.677C312.295 586.627 314.072 585.011 314.824 583.969C314.334 582.962 308.204 576.984 307.241 576.129C305.386 577.09 287.753 595.885 286.269 596.576C284.283 594.416 281.095 591.427 278.561 588.989L272.789 583.36C272.069 582.66 271.302 582.151 270.946 581.264C275.554 576.129 287.298 565.132 292.977 559.424L301.09 551.327C301.452 550.938 302.085 550.323 302.438 549.974C307.55 544.905 307.154 547.106 307.154 540.959C307.154 537.39 307.311 533.441 307.119 529.923C306.422 530.046 306.145 530.508 305.535 531.126C304.99 531.697 304.427 532.268 303.887 532.786C302.75 533.907 301.694 534.917 300.557 536.055L255.139 581.264Z" fill="#1A74FF"/>
<path fill-rule="evenodd" clip-rule="evenodd" d="M278.719 581.17L284.399 586.962C284.612 587.178 285.064 587.66 285.274 587.871C285.953 588.526 285.807 588.488 286.568 588.748L307.229 568.302L322.566 583.582L308.369 597.908C305.163 601.101 300.744 605.823 298.987 607.431L287.859 618.501C287.2 619.13 286.853 619.527 286.853 620.811L286.83 635.047C288.293 634.366 326.352 595.903 331.825 590.523C333.192 589.178 337.523 585.383 338.158 583.871C338.033 583.681 337.894 583.5 337.742 583.33C337.625 583.196 337.581 583.143 337.526 583.088L337.302 582.857L336.576 582.123L328.374 573.804C326.768 572.117 324.48 569.822 322.525 567.872C320.933 566.284 319.564 564.925 318.966 564.317C317.022 562.334 315.095 560.402 313.157 558.431L307.241 552.519C306.395 552.937 306.075 553.396 305.396 554.104C301.607 557.995 279.267 579.93 278.722 581.187" fill="#2C7FFF"/>
<path fill-rule="evenodd" clip-rule="evenodd" d="M376.693 581.264C377.14 582.546 382.932 587.871 384.311 589.217L400.019 604.732C402.557 607.243 405.289 610.188 407.821 612.451C408.806 612.158 413.846 606.716 414.975 605.589L432.789 587.677C433.85 586.627 435.626 585.011 436.379 583.969C435.889 582.962 429.758 576.984 428.796 576.129C426.941 577.09 409.308 595.885 407.824 596.576C405.838 594.416 402.65 591.427 400.115 588.989L394.344 583.36C393.623 582.66 392.856 582.151 392.501 581.264C397.109 576.129 408.853 565.132 414.532 559.424L422.645 551.327C423.007 550.938 423.64 550.323 423.993 549.974C429.105 544.905 428.708 547.106 428.708 540.959C428.708 537.39 428.866 533.441 428.673 529.923C427.976 530.046 427.699 530.508 427.09 531.126C426.544 531.697 425.982 532.268 425.442 532.786C424.305 533.907 423.249 534.917 422.111 536.055L376.693 581.264Z" fill="#1A74FF"/>
<path fill-rule="evenodd" clip-rule="evenodd" d="M400.273 581.17L405.954 586.962C406.167 587.178 406.618 587.66 406.828 587.871C407.507 588.526 407.362 588.488 408.122 588.748L428.784 568.302L444.12 583.582L429.923 597.908C426.717 601.101 422.299 605.823 420.541 607.431L409.414 618.501C408.755 619.13 408.408 619.527 408.408 620.811L408.385 635.047C409.848 634.366 447.906 595.903 453.38 590.523C454.747 589.178 459.078 585.383 459.713 583.871C459.588 583.681 459.448 583.5 459.296 583.33C459.18 583.196 459.136 583.143 459.081 583.088L458.856 582.857L458.131 582.123L449.929 573.804C448.323 572.117 446.035 569.822 444.079 567.872C442.488 566.284 441.118 564.925 440.521 564.317C438.577 562.334 436.65 560.402 434.712 558.431L428.795 552.519C427.95 552.937 427.63 553.396 426.95 554.104C423.162 557.995 400.821 579.93 400.276 581.187" fill="#2C7FFF"/>
<line x1="12" y1="667.094" x2="459.746" y2="667.094" stroke="#2C7FFF" stroke-width="1.75154" stroke-dasharray="19.27 19.27"/>
<path fill-rule="evenodd" clip-rule="evenodd" d="M12.0312 752.233C12.4775 753.515 18.2696 758.84 19.649 760.186L35.3571 775.701C37.8944 778.212 40.6271 781.157 43.1586 783.42C44.1444 783.127 49.184 777.685 50.3127 776.559L68.1264 758.647C69.188 757.596 70.9642 755.98 71.7166 754.938C71.2266 753.931 65.0962 747.953 64.1338 747.099C62.2789 748.059 44.646 766.855 43.1615 767.546C41.1754 765.385 37.9877 762.396 35.4533 759.958L29.6817 754.329C28.9613 753.629 28.1943 753.12 27.8385 752.233C32.4465 747.099 44.1911 736.101 49.8694 730.393L57.983 722.296C58.3446 721.907 58.9775 721.292 59.3304 720.944C64.4429 715.874 64.0463 718.075 64.0463 711.928C64.0463 708.359 64.2038 704.411 64.0113 700.892C63.3143 701.015 63.0372 701.478 62.4277 702.095C61.8823 702.666 61.3194 703.237 60.7799 703.755C59.6425 704.876 58.5867 705.886 57.4493 707.025L12.0312 752.233Z" fill="#1A74FF"/>
<path fill-rule="evenodd" clip-rule="evenodd" d="M35.6113 752.139L41.2918 757.931C41.5046 758.147 41.9563 758.63 42.1662 758.84C42.8453 759.495 42.6996 759.457 43.4603 759.717L64.1216 739.271L79.4581 754.551L65.2612 768.878C62.0552 772.071 57.6367 776.793 55.8792 778.401L44.7514 789.47C44.0927 790.099 43.7459 790.496 43.7459 791.78L43.7226 806.016C45.1857 805.335 83.2441 766.872 88.7177 761.492C90.0846 760.147 94.4157 756.352 95.0511 754.84C94.9257 754.65 94.7864 754.469 94.6343 754.3C94.5177 754.165 94.474 754.112 94.4186 754.057L94.1942 753.826L93.4684 753.092L85.2668 744.774C83.6609 743.087 81.373 740.791 79.4173 738.841C77.8259 737.254 76.4561 735.894 75.8586 735.286C73.9146 733.304 71.9881 731.371 70.0499 729.4L64.1333 723.488C63.2881 723.906 62.9675 724.365 62.2884 725.073C58.4994 728.965 36.1593 750.899 35.6142 752.156" fill="#2C7FFF"/>
<path fill-rule="evenodd" clip-rule="evenodd" d="M133.586 752.233C134.032 753.515 139.824 758.84 141.204 760.186L156.912 775.701C159.449 778.212 162.182 781.157 164.713 783.42C165.699 783.127 170.739 777.685 171.867 776.559L189.681 758.647C190.743 757.596 192.519 755.98 193.271 754.938C192.781 753.931 186.651 747.953 185.688 747.099C183.834 748.059 166.201 766.855 164.716 767.546C162.73 765.385 159.542 762.396 157.008 759.958L151.236 754.329C150.516 753.629 149.749 753.12 149.393 752.233C154.001 747.099 165.746 736.101 171.424 730.393L179.538 722.296C179.899 721.907 180.532 721.292 180.885 720.944C185.998 715.874 185.601 718.075 185.601 711.928C185.601 708.359 185.758 704.411 185.566 700.892C184.869 701.015 184.592 701.478 183.982 702.095C183.437 702.666 182.874 703.237 182.335 703.755C181.197 704.876 180.141 705.886 179.004 707.025L133.586 752.233Z" fill="#1A74FF"/>
<path fill-rule="evenodd" clip-rule="evenodd" d="M157.166 752.139L162.847 757.931C163.059 758.147 163.511 758.63 163.721 758.84C164.4 759.495 164.254 759.457 165.015 759.717L185.676 739.271L201.013 754.551L186.816 768.878C183.61 772.071 179.191 776.793 177.434 778.401L166.306 789.47C165.647 790.099 165.301 790.496 165.301 791.78L165.277 806.016C166.74 805.335 204.799 766.872 210.272 761.492C211.639 760.147 215.97 756.352 216.606 754.84C216.48 754.65 216.341 754.469 216.189 754.3C216.072 754.165 216.029 754.112 215.973 754.057L215.749 753.826L215.023 753.092L206.822 744.774C205.216 743.087 202.928 740.791 200.972 738.841C199.381 737.254 198.011 735.894 197.413 735.286C195.469 733.304 193.543 731.371 191.605 729.4L185.688 723.488C184.843 723.906 184.522 724.365 183.843 725.073C180.054 728.965 157.714 750.899 157.169 752.156" fill="#2C7FFF"/>
<path fill-rule="evenodd" clip-rule="evenodd" d="M255.139 752.233C255.585 753.515 261.377 758.84 262.756 760.186L278.465 775.701C281.002 778.212 283.735 781.157 286.266 783.42C287.252 783.127 292.291 777.685 293.42 776.559L311.234 758.647C312.295 757.596 314.072 755.98 314.824 754.938C314.334 753.931 308.204 747.953 307.241 747.099C305.386 748.059 287.753 766.855 286.269 767.546C284.283 765.385 281.095 762.396 278.561 759.958L272.789 754.329C272.069 753.629 271.302 753.12 270.946 752.233C275.554 747.099 287.298 736.101 292.977 730.393L301.09 722.296C301.452 721.907 302.085 721.292 302.438 720.944C307.55 715.874 307.154 718.075 307.154 711.928C307.154 708.359 307.311 704.411 307.119 700.892C306.422 701.015 306.145 701.478 305.535 702.095C304.99 702.666 304.427 703.237 303.887 703.755C302.75 704.876 301.694 705.886 300.557 707.025L255.139 752.233Z" fill="#1A74FF"/>
<path fill-rule="evenodd" clip-rule="evenodd" d="M278.719 752.139L284.399 757.931C284.612 758.147 285.064 758.63 285.274 758.84C285.953 759.495 285.807 759.457 286.568 759.717L307.229 739.271L322.566 754.551L308.369 768.878C305.163 772.071 300.744 776.793 298.987 778.401L287.859 789.47C287.2 790.099 286.853 790.496 286.853 791.78L286.83 806.016C288.293 805.335 326.352 766.872 331.825 761.492C333.192 760.147 337.523 756.352 338.158 754.84C338.033 754.65 337.894 754.469 337.742 754.3C337.625 754.165 337.581 754.112 337.526 754.057L337.302 753.826L336.576 753.092L328.374 744.774C326.768 743.087 324.48 740.791 322.525 738.841C320.933 737.254 319.564 735.894 318.966 735.286C317.022 733.304 315.095 731.371 313.157 729.4L307.241 723.488C306.395 723.906 306.075 724.365 305.396 725.073C301.607 728.965 279.267 750.899 278.722 752.156" fill="#2C7FFF"/>
<path fill-rule="evenodd" clip-rule="evenodd" d="M376.693 752.233C377.14 753.515 382.932 758.84 384.311 760.186L400.019 775.701C402.557 778.212 405.289 781.157 407.821 783.42C408.806 783.127 413.846 777.685 414.975 776.559L432.789 758.647C433.85 757.596 435.626 755.98 436.379 754.938C435.889 753.931 429.758 747.953 428.796 747.099C426.941 748.059 409.308 766.855 407.824 767.546C405.838 765.385 402.65 762.396 400.115 759.958L394.344 754.329C393.623 753.629 392.856 753.12 392.501 752.233C397.109 747.099 408.853 736.101 414.532 730.393L422.645 722.296C423.007 721.907 423.64 721.292 423.993 720.944C429.105 715.874 428.708 718.075 428.708 711.928C428.708 708.359 428.866 704.411 428.673 700.892C427.976 701.015 427.699 701.478 427.09 702.095C426.544 702.666 425.982 703.237 425.442 703.755C424.305 704.876 423.249 705.886 422.111 707.025L376.693 752.233Z" fill="#1A74FF"/>
<path fill-rule="evenodd" clip-rule="evenodd" d="M400.273 752.139L405.954 757.931C406.167 758.147 406.618 758.63 406.828 758.84C407.507 759.495 407.362 759.457 408.122 759.717L428.784 739.271L444.12 754.551L429.923 768.878C426.717 772.071 422.299 776.793 420.541 778.401L409.414 789.47C408.755 790.099 408.408 790.496 408.408 791.78L408.385 806.016C409.848 805.335 447.906 766.872 453.38 761.492C454.747 760.147 459.078 756.352 459.713 754.84C459.588 754.65 459.448 754.469 459.296 754.3C459.18 754.165 459.136 754.112 459.081 754.057L458.856 753.826L458.131 753.092L449.929 744.774C448.323 743.087 446.035 740.791 444.079 738.841C442.488 737.254 441.118 735.894 440.521 735.286C438.577 733.304 436.65 731.371 434.712 729.4L428.795 723.488C427.95 723.906 427.63 724.365 426.95 725.073C423.162 728.965 400.821 750.899 400.276 752.156" fill="#2C7FFF"/>
</g>
<rect width="472" height="837" fill="url(#paint0_linear_1134_31496)"/>
</g>
<defs>
<linearGradient id="paint0_linear_1134_31496" x1="236" y1="0" x2="236" y2="837" gradientUnits="userSpaceOnUse">
<stop stop-color="#0065FF" stop-opacity="0.05"/>
<stop offset="1" stop-color="#5F43E7"/>
</linearGradient>
<clipPath id="clip0_1134_31496">
<rect width="472" height="837" fill="white"/>
</clipPath>
</defs>
</svg>
