<svg width="36" height="23" viewBox="0 0 36 23" fill="none" xmlns="http://www.w3.org/2000/svg">
<path d="M2.24048 0H33.7584C34.7531 0 35.5595 0.806364 35.5595 1.80103V20.7118C35.5595 21.7065 34.7531 22.5128 33.7584 22.5128H2.24048C1.24582 22.5128 0.439453 21.7065 0.439453 20.7118V1.80103C0.439453 0.806364 1.24582 0 2.24048 0Z" fill="#0079BE"/>
<path d="M27.4509 11.3217C27.4509 6.84552 23.7147 3.75158 19.6209 3.75293H16.098C11.9556 3.75144 8.5459 6.84642 8.5459 11.3217C8.5459 15.4159 11.9556 18.7798 16.098 18.76H19.6209C23.7144 18.7796 27.4509 15.4148 27.4509 11.3217Z" fill="white"/>
<path d="M16.1209 4.38672C12.3356 4.38793 9.26848 7.46233 9.26758 11.2567C9.26848 15.0505 12.3358 18.1245 16.1209 18.1258C19.9071 18.1246 22.9752 15.0505 22.9756 11.2567C22.9751 7.46233 19.9072 4.38807 16.1209 4.38672Z" fill="#0079BE"/>
<path d="M11.79 11.2384C11.7936 9.38419 12.9493 7.80307 14.5789 7.17483V15.3011C12.9493 14.673 11.7936 13.0928 11.79 11.2384ZM17.6884 15.303V7.17456C19.3186 7.80132 20.4761 9.38338 20.479 11.2384C20.4761 13.094 19.3186 14.6749 17.6884 15.3029V15.303Z" fill="white"/>
</svg>
