<svg width="54" height="32" viewBox="0 0 54 32" fill="none" xmlns="http://www.w3.org/2000/svg">
<g clip-path="url(#clip0_168_1993)">
<path fill-rule="evenodd" clip-rule="evenodd" d="M0 0H53.3333V32H0V0Z" fill="white"/>
<path fill-rule="evenodd" clip-rule="evenodd" d="M12.8613 31.9999H53.3333V17.9722C53.3333 17.9722 39.04 27.6628 12.8613 31.9999Z" fill="#E6772F"/>
<path fill-rule="evenodd" clip-rule="evenodd" d="M9.7544 15.9052C9.35386 16.2476 8.844 16.3974 8.02906 16.3974H7.69093V12.3121H8.02906C8.844 12.3121 9.33413 12.4513 9.7544 12.8108C10.1875 13.1825 10.4477 13.7548 10.4477 14.3478C10.4477 14.943 10.1875 15.5366 9.7544 15.9052ZM8.28133 11.2652H6.43066V17.4444H8.27066C9.2488 17.4444 9.956 17.2214 10.5747 16.7297C11.3107 16.1468 11.7469 15.2673 11.7469 14.3564C11.7469 12.5324 10.3229 11.2652 8.28133 11.2652ZM12.3277 11.2652H13.5827V17.4444H12.3277V11.2652ZM16.6637 13.6337C15.9064 13.3676 15.6851 13.191 15.6851 12.8566C15.6851 12.4684 16.0808 12.174 16.6248 12.174C17.0019 12.174 17.3128 12.3185 17.6435 12.6716L18.2984 11.8492C17.7698 11.4 17.0971 11.1564 16.4035 11.1628C15.2605 11.1628 14.3896 11.9233 14.3896 12.9292C14.3896 13.783 14.7944 14.2166 15.9757 14.6278C16.4701 14.7921 16.7208 14.9046 16.8477 14.9804C17.0995 15.1361 17.2248 15.359 17.2248 15.6172C17.2248 16.1201 16.8088 16.4892 16.2461 16.4892C15.6472 16.4892 15.1629 16.2022 14.8728 15.6636L14.0611 16.4156C14.6413 17.2294 15.3368 17.5932 16.2957 17.5932C17.6024 17.5932 18.5235 16.7558 18.5235 15.5633C18.5235 14.5804 18.0968 14.1345 16.6637 13.6337ZM18.9197 14.3564C18.9197 16.1734 20.4099 17.5814 22.3283 17.5814C22.8696 17.5814 23.3331 17.479 23.9043 17.2214V15.8012C23.3997 16.2865 22.9565 16.4785 22.3837 16.4785C21.116 16.4785 20.2179 15.6001 20.2179 14.3478C20.2179 13.1638 21.1448 12.2268 22.3283 12.2268C22.9256 12.2268 23.3821 12.4294 23.9043 12.9217V11.503C23.3528 11.2364 22.9 11.126 22.3544 11.126C20.4467 11.126 18.9197 12.5612 18.9197 14.3564ZM34.1064 15.4134L32.3843 11.2652H31.0115L33.7485 17.6001H34.4237L37.2141 11.2652H35.852L34.1064 15.4134ZM37.7853 17.4444H41.3565V16.3974H39.0456V14.7292H41.2685V13.6828H39.0456V12.3121H41.3565V11.2652H37.7853V17.4444ZM43.8157 14.1068H43.4504V12.238H43.8365C44.6232 12.238 45.0445 12.5537 45.0445 13.1553C45.0445 13.774 44.6232 14.1068 43.8157 14.1068ZM46.3411 13.0881C46.3411 11.9313 45.5117 11.2652 44.0584 11.2652H42.188V17.4444H43.4504V14.9601H43.6141L45.3539 17.4444H46.9027L44.8712 14.8401C45.8205 14.6545 46.3411 14.0332 46.3411 13.0881Z" fill="#1A1919"/>
<path fill-rule="evenodd" clip-rule="evenodd" d="M31.1888 14.3707C31.1888 16.1494 29.6826 17.5915 27.8229 17.5915C25.9632 17.5915 24.457 16.1494 24.457 14.3707C24.457 12.5915 25.9632 11.1494 27.8224 11.1494C29.6826 11.1494 31.1888 12.5915 31.1888 14.3707Z" fill="#E6772F"/>
</g>
<defs>
<clipPath id="clip0_168_1993">
<rect width="53.3333" height="32" fill="white"/>
</clipPath>
</defs>
</svg>
