<svg width="25" height="24" viewBox="0 0 25 24" fill="none" xmlns="http://www.w3.org/2000/svg">
<path d="M13.1409 4V6.38992H12.2392V4H13.1409ZM13.1144 18.7724V21H12.2127V18.7724H13.1144ZM15.4481 15.8865C15.4481 15.4416 15.3567 15.0568 15.174 14.7321C14.9972 14.4014 14.6967 14.1038 14.2724 13.8393C13.854 13.5687 13.2823 13.3042 12.5575 13.0456C11.8149 12.7991 11.1726 12.5195 10.6304 12.2069C10.0941 11.8943 9.67864 11.5034 9.38398 11.0345C9.09521 10.5595 8.95083 9.96428 8.95083 9.24881C8.95083 8.54536 9.1011 7.9351 9.40166 7.41804C9.7081 6.90097 10.1413 6.50416 10.7011 6.22759C11.261 5.945 11.918 5.80371 12.6724 5.80371C13.2558 5.80371 13.7773 5.89089 14.237 6.06525C14.7026 6.23961 15.0945 6.50115 15.4127 6.84987C15.7368 7.19257 15.9843 7.61645 16.1552 8.12149C16.3262 8.62051 16.4116 9.1977 16.4116 9.85305H15.3597C15.3597 9.40813 15.3007 8.99929 15.1829 8.62653C15.0709 8.25376 14.9 7.92909 14.6702 7.65252C14.4403 7.36994 14.1575 7.15349 13.8215 7.00318C13.4915 6.84686 13.1085 6.7687 12.6724 6.7687C12.0654 6.7687 11.5645 6.87993 11.1696 7.10239C10.7748 7.32485 10.4831 7.62246 10.2945 7.99523C10.1059 8.36799 10.0116 8.77683 10.0116 9.22175C10.0116 9.66065 10.0912 10.0454 10.2503 10.3761C10.4094 10.7068 10.6982 11.0074 11.1166 11.278C11.535 11.5425 12.1361 11.8101 12.9199 12.0806C13.6624 12.3271 14.2989 12.6067 14.8293 12.9194C15.3656 13.232 15.7781 13.6228 16.0669 14.0918C16.3556 14.5547 16.5 15.1469 16.5 15.8684C16.5 16.5959 16.3379 17.2182 16.0138 17.7353C15.6897 18.2463 15.2359 18.6371 14.6525 18.9077C14.0691 19.1782 13.3884 19.3135 12.6105 19.3135C12.1096 19.3135 11.6145 19.2474 11.1254 19.1151C10.6363 18.9768 10.1943 18.7544 9.79945 18.4477C9.4046 18.1411 9.08932 17.7353 8.85359 17.2302C8.61786 16.7192 8.5 16.0909 8.5 15.3454H9.55193C9.55193 15.9286 9.64328 16.4126 9.82597 16.7973C10.0087 17.1821 10.2473 17.4888 10.542 17.7172C10.8425 17.9457 11.1726 18.108 11.532 18.2042C11.8915 18.3004 12.251 18.3485 12.6105 18.3485C13.2116 18.3485 13.7214 18.2403 14.1398 18.0239C14.5641 17.8014 14.8882 17.5038 15.1122 17.131C15.3361 16.7523 15.4481 16.3374 15.4481 15.8865Z" fill="white"/>
</svg>
