<svg width="25" height="24" viewBox="0 0 25 24" fill="none" xmlns="http://www.w3.org/2000/svg">
<path d="M5.73852 14.8117C6.13734 16.3002 7.01616 17.6154 8.23867 18.5535C9.46118 19.4915 10.9591 20 12.5 20C14.0409 20 15.5388 19.4915 16.7613 18.5535C17.9838 17.6154 18.8627 16.3002 19.2615 14.8117" stroke="#2C3E5D" stroke-width="1.5" stroke-linecap="round" stroke-linejoin="round"/>
<path d="M12.5 13L12.0315 13.5857L12.5 13.9605L12.9685 13.5857L12.5 13ZM13.25 4C13.25 3.58579 12.9142 3.25 12.5 3.25C12.0858 3.25 11.75 3.58579 11.75 4L13.25 4ZM7.03148 9.58565L12.0315 13.5857L12.9685 12.4143L7.96852 8.41435L7.03148 9.58565ZM12.9685 13.5857L17.9685 9.58565L17.0315 8.41435L12.0315 12.4143L12.9685 13.5857ZM13.25 13L13.25 4L11.75 4L11.75 13L13.25 13Z" fill="#2C3E5D"/>
</svg>
