<svg width="46" height="46" viewBox="0 0 46 46" fill="none" xmlns="http://www.w3.org/2000/svg">
<rect width="46" height="46" rx="23" fill="#E1DFDF"/>
<path d="M23.0084 23.5184C23.4507 23.5184 23.8416 23.3127 24.3045 22.8498L33.2747 13.9516C32.8735 13.5915 32.1637 13.4167 31.1659 13.4167H14.5731C13.6884 13.4167 13.0609 13.5813 12.7008 13.9104L21.7122 22.8498C22.1648 23.3127 22.566 23.5184 23.0084 23.5184ZM11.7133 29.742L19.1096 22.4177L11.7236 15.1243C11.5384 15.4535 11.4355 15.9987 11.4355 16.7702V28.1373C11.4355 28.8882 11.5281 29.4231 11.7133 29.742ZM34.2828 29.7317C34.4577 29.4129 34.5503 28.8779 34.5503 28.1373V16.7702C34.5503 16.0193 34.4474 15.4741 34.2623 15.1552L26.9071 22.4177L34.2828 29.7317ZM14.8199 31.4908H31.4128C32.318 31.4908 32.9558 31.3159 33.3262 30.9765L25.7961 23.4979L25.1583 24.1254C24.4485 24.8146 23.7696 25.1438 23.0084 25.1438C22.2471 25.1438 21.5579 24.8146 20.8481 24.1254L20.2103 23.4979L12.6906 30.9559C13.102 31.3057 13.8221 31.4908 14.8199 31.4908Z" fill="#4C4441"/>
</svg>
