<svg width="46" height="46" viewBox="0 0 46 46" fill="none" xmlns="http://www.w3.org/2000/svg">
<rect width="46" height="46" rx="23" fill="#E1DFDF"/>
<path d="M22.9997 37.3622C31.1578 37.3622 37.9153 30.6191 37.9153 22.4465C37.9153 14.2884 31.1578 7.53085 22.9852 7.53085C14.8271 7.53085 8.08398 14.2884 8.08398 22.4465C8.08398 30.6191 14.8415 37.3622 22.9997 37.3622ZM17.2673 29.464V15.4291C17.2673 14.014 18.2636 13.0611 19.7364 13.0611H26.2629C27.7357 13.0611 28.732 14.014 28.732 15.4291V29.464C28.732 30.879 27.7357 31.8464 26.2629 31.8464H19.7364C18.2636 31.8464 17.2673 30.879 17.2673 29.464ZM21.267 14.7071C21.267 14.8948 21.4258 15.0537 21.6135 15.0537H24.3858C24.588 15.0537 24.7324 14.8948 24.7324 14.7071C24.7324 14.4761 24.588 14.3317 24.3858 14.3317H21.6135C21.4258 14.3317 21.267 14.4761 21.267 14.7071ZM18.8845 28.6842H27.1148V16.2088H18.8845V28.6842ZM23.0141 30.879C23.4184 30.879 23.7649 30.5325 23.7649 30.1137C23.7649 29.695 23.4184 29.3484 23.0141 29.3484C22.5954 29.3484 22.2488 29.695 22.2488 30.1137C22.2488 30.5325 22.5954 30.879 23.0141 30.879Z" fill="#4C4441"/>
</svg>
