<svg width="54" height="32" viewBox="0 0 54 32" fill="none" xmlns="http://www.w3.org/2000/svg">
<g clip-path="url(#clip0_168_1987)">
<path fill-rule="evenodd" clip-rule="evenodd" d="M0 0H53.3333V32H0V0Z" fill="white"/>
<path fill-rule="evenodd" clip-rule="evenodd" d="M33.46 16.9249H35.3453C35.3765 16.9253 35.4076 16.9271 35.4386 16.9302C35.4761 16.9342 35.5135 16.9395 35.5506 16.9462L35.5629 16.9483C35.6168 16.9604 35.6692 16.9783 35.7192 17.0017C35.8414 17.0568 35.9484 17.141 36.0306 17.247C36.1064 17.3435 36.1596 17.4558 36.1864 17.5755C36.2348 17.7911 36.2013 18.0169 36.0925 18.2091C36.0245 18.3266 35.9282 18.4252 35.8125 18.4961C35.7355 18.5437 35.6512 18.5783 35.5629 18.5985L35.5506 18.6011C35.5343 18.605 35.5177 18.6079 35.501 18.6097C35.4494 18.617 35.3974 18.6213 35.3453 18.6225H33.46V16.9249ZM35.9682 15.0027C36.0074 15.1843 35.9855 15.3736 35.9058 15.5414C35.8379 15.6785 35.7291 15.791 35.5944 15.8635C35.517 15.9069 35.4327 15.9366 35.3453 15.9515L35.3378 15.9526C35.3197 15.9559 35.3013 15.9582 35.2829 15.9595C35.2414 15.9635 35.1998 15.966 35.1581 15.967H33.46V14.4006H35.1896C35.2311 14.4022 35.2726 14.4058 35.3138 14.4113L35.3378 14.4139L35.3453 14.4155C35.4097 14.4267 35.4724 14.4459 35.532 14.4726C35.587 14.4976 35.6392 14.5284 35.6877 14.5643C35.747 14.6096 35.7994 14.6631 35.8434 14.7233C35.9039 14.8068 35.9464 14.9019 35.9682 15.0027ZM39.8312 6.87793H39.844V22.9707C39.8433 23.3808 39.765 23.7871 39.613 24.1681C39.5235 24.392 39.4086 24.6049 39.2706 24.8027C39.2503 24.8319 39.2295 24.8607 39.2082 24.8891L39.1768 24.9297C39.1465 24.9689 39.1154 25.0075 39.0834 25.0454L39.0525 25.0822L39.021 25.1169C39.0007 25.1397 38.9801 25.1623 38.9592 25.1846L38.9277 25.2166L38.8968 25.2486L38.8653 25.279L38.8344 25.3089C38.7839 25.3564 38.732 25.4022 38.6786 25.4465L38.6472 25.4721L38.6162 25.4971L38.5853 25.5211L38.5538 25.5446L38.5229 25.5675L38.4914 25.5905L38.4605 25.6118L38.429 25.6337L38.3981 25.6545L38.3672 25.6747L38.3357 25.6945C38.3151 25.7075 38.2943 25.7203 38.2733 25.7329L38.2424 25.7515C38.2321 25.7575 38.2218 25.7633 38.2114 25.7691L38.18 25.7867L38.149 25.8038L38.1176 25.8198L38.0866 25.8363L38.0552 25.8523L38.0242 25.8673L37.9933 25.8822L37.9618 25.8966L37.9309 25.911L37.8994 25.9243L37.8685 25.9377L37.8376 25.9505L37.8061 25.9633L37.7752 25.9755L37.7437 25.9873L37.7128 25.9985L37.6813 26.0091C37.6712 26.0129 37.661 26.0171 37.6504 26.0203L37.6194 26.0305L37.588 26.0406L37.557 26.0502L37.5256 26.0593L37.4946 26.0683L37.4637 26.0769L37.4322 26.0854L37.4013 26.0929L37.3698 26.1009L37.3389 26.1083L37.3074 26.1147L37.2765 26.1217L37.2456 26.1281L37.2141 26.1334L37.1832 26.1398L37.1517 26.1451L37.1208 26.1499L37.0898 26.1547L37.0584 26.159L37.0274 26.1633L36.996 26.167L36.965 26.1702L36.9341 26.1734L36.9026 26.1766L36.8717 26.1793L36.8402 26.1814L36.8093 26.1835C36.7986 26.1835 36.788 26.1846 36.7778 26.1851L36.7469 26.1862L36.716 26.1873L36.6845 26.1883H36.6536L36.6221 26.1889H31.8824V19.6278H36.9341L36.965 19.6267L36.996 19.6262C37.0066 19.6262 37.0173 19.6251 37.0274 19.6246L37.0584 19.6235L37.0898 19.6214L37.1208 19.6193L37.1517 19.6171L37.1832 19.6139L37.2141 19.6113L37.2456 19.6075L37.2765 19.6038L37.3074 19.5995L37.3389 19.5953L37.3698 19.5899L37.4013 19.5846L37.4322 19.5793L37.4637 19.5739L37.4946 19.567L37.5256 19.5606C37.5361 19.5582 37.5466 19.5557 37.557 19.5531L37.588 19.5457C37.6299 19.5354 37.6715 19.524 37.7128 19.5115L37.7437 19.5019C37.7752 19.492 37.8065 19.4814 37.8376 19.4699L37.8685 19.4577L37.8994 19.4459L37.9309 19.4331C38.1238 19.3515 38.3025 19.2399 38.4605 19.1025C38.5414 19.0292 38.6145 18.9476 38.6786 18.8593C38.7792 18.717 38.8532 18.5576 38.8968 18.3889C38.9275 18.2683 38.9425 18.1442 38.9416 18.0198C38.9415 17.8991 38.9265 17.7789 38.8968 17.6619C38.8456 17.4652 38.7496 17.283 38.6162 17.1297C38.534 17.0331 38.4397 16.9474 38.3357 16.8747C38.2381 16.8043 38.1338 16.7437 38.0242 16.6939C37.9935 16.6796 37.9624 16.6661 37.9309 16.6534L37.8994 16.6406C37.8892 16.6366 37.8788 16.6327 37.8685 16.6289L37.8376 16.6177C37.7963 16.603 37.7547 16.5893 37.7128 16.5766L37.6813 16.5675C37.6197 16.5498 37.5574 16.5345 37.4946 16.5217L37.4637 16.5153L37.4322 16.5094L37.4013 16.5041C37.3908 16.5022 37.3803 16.5004 37.3698 16.4987L37.3389 16.4934C37.3284 16.4919 37.3179 16.4905 37.3074 16.4891L37.2765 16.4849L37.2456 16.4806L37.2141 16.4774L37.1832 16.4742L37.1517 16.471L37.1208 16.4683L37.092 16.4662V16.4289L37.1208 16.4246L37.1517 16.4193L37.1832 16.4139L37.2141 16.4086L37.2456 16.4017L37.2765 16.3947C37.3935 16.3684 37.5082 16.3325 37.6194 16.2875C37.7519 16.2325 37.8772 16.1617 37.9928 16.0769C38.1778 15.9386 38.3274 15.7584 38.429 15.551C38.4963 15.4095 38.5386 15.2574 38.5538 15.1014C38.5645 14.9998 38.5645 14.8974 38.5538 14.7958C38.5406 14.6646 38.5091 14.5359 38.4605 14.4134C38.3909 14.2417 38.2846 14.0874 38.149 13.9611C38.0913 13.9057 38.0289 13.8553 37.9624 13.8107C37.8739 13.7499 37.7798 13.6978 37.6813 13.655C37.6003 13.6191 37.5171 13.5883 37.4322 13.5627L37.4013 13.5537C37.3806 13.5477 37.3598 13.542 37.3389 13.5366L37.3074 13.5291C37.2869 13.5239 37.2663 13.5189 37.2456 13.5142L37.2141 13.5078L37.1832 13.5014L37.1517 13.4961L37.1208 13.4907L37.0898 13.4854L37.0584 13.4801L37.0274 13.4758L36.996 13.4721L36.965 13.4683L36.9341 13.4651L36.9026 13.4619L36.8717 13.4593L36.8402 13.4566L36.8093 13.4545L36.7778 13.4529L36.7656 13.4518L36.7469 13.4507L36.716 13.4491L36.6845 13.447L36.6536 13.4454L36.6221 13.4443L36.5912 13.4427L36.5597 13.4417L36.5288 13.4406L36.4978 13.4401H36.4664L36.4493 13.4395H31.8818V10.0971C31.8821 9.61568 31.9901 9.1404 32.1981 8.7062C32.2533 8.5906 32.3156 8.47856 32.3848 8.37073C32.4052 8.33906 32.4262 8.30776 32.4477 8.27686L32.4786 8.2326C32.499 8.20419 32.5198 8.1761 32.541 8.14833L32.572 8.1078L32.6034 8.0694C32.6236 8.04416 32.6443 8.01927 32.6653 7.99473L32.6968 7.96006L32.7277 7.9254C32.7583 7.89207 32.7896 7.85936 32.8216 7.82726L32.8525 7.79686L32.8834 7.76646L32.9149 7.73766L32.9458 7.70886L32.9773 7.68166C33.0179 7.64585 33.0593 7.61099 33.1016 7.57713L33.133 7.55313L33.164 7.52913C33.1846 7.5136 33.2054 7.49831 33.2264 7.48326L33.2573 7.4614C33.2677 7.45422 33.2782 7.44711 33.2888 7.44006L33.3197 7.41873L33.3512 7.39793L33.3821 7.3782L33.413 7.359L33.4445 7.3398L33.4754 7.32113L33.5069 7.303L33.5378 7.2854L33.5693 7.26833L33.6002 7.2518L33.6312 7.2358L33.6626 7.2198L33.6936 7.2038L33.725 7.1894C33.7352 7.18406 33.7458 7.1798 33.756 7.175L33.7869 7.1606L33.8184 7.14673L33.8493 7.1334L33.8808 7.1206L33.9117 7.1078L33.9432 7.09553L33.9741 7.0838L34.005 7.07206L34.0365 7.0614L34.0674 7.0502L34.0989 7.03953L34.1298 7.02993L34.1608 7.0198L34.1922 7.01073L34.2232 7.00166L34.2546 6.99313L34.2856 6.9846L34.317 6.9766L34.348 6.96913L34.3789 6.96166L34.4104 6.95473L34.4413 6.9478L34.4728 6.9414L34.5037 6.93553L34.5346 6.92966L34.5661 6.92433L34.597 6.919L34.6285 6.9142L34.6594 6.90993L34.6909 6.90566L34.7218 6.90193L34.7528 6.8982L34.7842 6.895L34.8152 6.8918L34.8466 6.88913L34.8776 6.887L34.9085 6.88486C34.9192 6.88486 34.9298 6.8838 34.94 6.88326L34.9709 6.88166L35.0024 6.8806L35.0333 6.87953H35.0648L35.0957 6.879H39.8312V6.87793Z" fill="#54B230"/>
<path fill-rule="evenodd" clip-rule="evenodd" d="M14.0225 18.0454V10.0961C14.0227 9.6152 14.1306 9.14049 14.3382 8.70673C14.4099 8.55763 14.493 8.41427 14.5867 8.27793L14.6177 8.23313L14.6491 8.19046L14.6801 8.14886L14.711 8.10886L14.7425 8.06993C14.7627 8.04472 14.7833 8.01983 14.8043 7.99526L14.8358 7.9606C14.846 7.94896 14.8563 7.9374 14.8667 7.92593L14.8977 7.89233C14.9182 7.8707 14.939 7.84936 14.9601 7.82833L14.991 7.7974L15.0219 7.76753L15.0534 7.7382L15.0843 7.70993L15.1153 7.6822L15.1467 7.65553L15.1777 7.62886C15.2282 7.58627 15.2801 7.54535 15.3334 7.5062L15.3643 7.4838C15.405 7.4543 15.4465 7.42584 15.4886 7.39846L15.5195 7.37873L15.551 7.35953L15.5819 7.34033L15.6129 7.32166L15.6443 7.30353L15.6753 7.28646L15.7062 7.26886L15.7377 7.25286L15.7686 7.2358L15.7995 7.2198L15.831 7.20486C15.8411 7.19953 15.8513 7.1942 15.8619 7.18993L15.8929 7.175L15.9238 7.1606L15.9553 7.14726L15.9862 7.13393L16.0171 7.1206L16.0486 7.10833L16.0795 7.09606L16.1105 7.08433L16.1419 7.07206L16.1729 7.0614L16.2038 7.05073L16.2353 7.04006L16.2662 7.02993L16.2971 7.02033L16.3286 7.01073L16.3595 7.00166L16.3905 6.99313L16.4219 6.9846L16.4529 6.9766L16.4838 6.96913L16.5147 6.96166C16.5251 6.9589 16.5356 6.95659 16.5462 6.95473L16.5771 6.9478L16.6081 6.9414L16.6395 6.93553L16.6705 6.92913L16.7014 6.9238L16.7329 6.91846C16.7435 6.9174 16.7531 6.91526 16.7638 6.91366L16.7947 6.9094L16.8262 6.90513L16.8571 6.9014L16.8881 6.89766L16.9195 6.89446L16.9505 6.89126L16.9814 6.8886L17.0123 6.88646L17.0438 6.88433L17.0747 6.8822L17.1057 6.88113L17.1371 6.87953L17.1681 6.87846H17.199L17.2305 6.87793H21.9841V22.9697C21.9836 23.3329 21.9222 23.6935 21.8022 24.0363C21.6815 24.3803 21.5026 24.7008 21.2731 24.9841L21.2422 25.0225C21.2218 25.0469 21.201 25.0711 21.1798 25.095L21.1489 25.1297L21.1179 25.1633L21.0865 25.1963C21.0461 25.2383 21.0047 25.2792 20.9622 25.319L20.9313 25.3478L20.8998 25.3755L20.8689 25.4027L20.8379 25.4294L20.807 25.4555L20.7755 25.4801L20.7446 25.5051L20.7137 25.5286L20.6822 25.5526L20.6513 25.575L20.6203 25.5974L20.5889 25.6187L20.5579 25.6401L20.527 25.6609L20.4955 25.6811C20.4854 25.6881 20.4753 25.6939 20.4646 25.7003L20.4337 25.7201L20.4022 25.7382L20.3713 25.7569C20.3606 25.7622 20.3505 25.7686 20.3403 25.7745C20.3197 25.7861 20.2989 25.7975 20.2779 25.8086L20.247 25.8246L20.2161 25.8406L20.1846 25.8566L20.1537 25.8715L20.1227 25.8859L20.0913 25.9009L20.0603 25.9142L20.0294 25.9281L19.9979 25.9414L19.967 25.9537L19.9361 25.9665L19.9046 25.9782L19.8737 25.9899L19.8427 26.0006L19.8118 26.0118L19.7803 26.0225L19.7494 26.0331C19.7387 26.0358 19.7286 26.0395 19.7185 26.0427L19.687 26.0518L19.6561 26.0614L19.6251 26.0699L19.5937 26.0785L19.5627 26.087L19.5318 26.0945L19.5003 26.1019L19.4694 26.1094L19.4385 26.1158L19.407 26.1227L19.3761 26.1286L19.3451 26.1345L19.3142 26.1398L19.2827 26.1451L19.2518 26.1505L19.2209 26.1547L19.1894 26.159L19.1585 26.1633L19.1275 26.167L19.0961 26.1702L19.0651 26.1734L19.0342 26.1761L19.0027 26.1787L18.9718 26.1809L18.9409 26.183L18.9094 26.1846L18.8785 26.1857L18.8475 26.1867L18.8166 26.1873H18.7851L18.7563 26.1883H14.0225V19.4059L14.0891 19.4235L14.1201 19.431L14.1515 19.4385L14.1825 19.4459L14.2134 19.4534L14.2449 19.4609L14.2758 19.4678L14.3067 19.4747L14.3382 19.4817L14.3691 19.4886L14.4001 19.495L14.4315 19.5019L14.4625 19.5083L14.4934 19.5147L14.5243 19.5211L14.5558 19.5275L14.5867 19.5334L14.6177 19.5398L14.6491 19.5457L14.6801 19.5515L14.711 19.5574L14.7425 19.5633L14.7734 19.5691L14.8043 19.5745L14.8358 19.5803L14.8667 19.5857L14.8977 19.591L14.9291 19.5963L14.9601 19.6017L14.991 19.607L15.0219 19.6123L15.0534 19.6177L15.0843 19.623L15.1153 19.6273L15.1467 19.6326L15.1777 19.6374L15.2086 19.6422L15.2401 19.6465L15.271 19.6513L15.3019 19.6555L15.3334 19.6603L15.3643 19.6646L15.3953 19.6689L15.4267 19.6731L15.4577 19.6774L15.4886 19.6817L15.5195 19.6854L15.551 19.6897L15.5819 19.6934L15.6129 19.6977L15.6443 19.7014L15.6753 19.7051L15.7062 19.7089L15.7377 19.7121L15.7686 19.7158L15.7995 19.7195L15.831 19.7227L15.8619 19.7259L15.8929 19.7291L15.9238 19.7323L15.9553 19.7355L15.9862 19.7387L16.0171 19.7419L16.0486 19.7446L16.0795 19.7473L16.1105 19.7505L16.1419 19.7531L16.1729 19.7558L16.2038 19.7585L16.2353 19.7606L16.2662 19.7633L16.2971 19.7654L16.3286 19.7681L16.3595 19.7702L16.3905 19.7723L16.4219 19.7745L16.4529 19.7766L16.4838 19.7787L16.5147 19.7803L16.5462 19.7825L16.5771 19.7841L16.6081 19.7857L16.6395 19.7873L16.6705 19.7889L16.7014 19.7905L16.7329 19.7921L16.7638 19.7937L16.7947 19.7947L16.8262 19.7958L16.8571 19.7969L16.8881 19.7979L16.9195 19.799L16.9505 19.8001L16.9814 19.8011L17.0123 19.8017L17.0438 19.8027H17.0747L17.1057 19.8038H17.1371L17.1681 19.8049H17.2305L17.2614 19.8054H17.479L17.5099 19.8043H17.5414L17.5723 19.8033L17.6033 19.8027L17.6347 19.8017L17.6657 19.8011L17.6966 19.8001L17.7281 19.799L17.759 19.7979L17.7899 19.7969L17.8214 19.7953L17.8523 19.7937L17.8833 19.7926L17.9147 19.791L17.9457 19.7889L17.9766 19.7873L18.0075 19.7857L18.039 19.7835L18.0699 19.7809L18.1009 19.7787L18.1323 19.7766L18.1633 19.7739L18.1942 19.7713L18.2257 19.7686L18.2566 19.7659L18.2875 19.7633L18.319 19.7601L18.3499 19.7569L18.3809 19.7537L18.4118 19.7505L18.4433 19.7467L18.4742 19.743L18.5051 19.7393L18.5366 19.7355L18.5675 19.7313L18.5985 19.727L18.6299 19.7227L18.6609 19.7179L18.6918 19.7137L18.7233 19.7083L18.7542 19.7041L18.7851 19.6987L18.8166 19.6934L18.8475 19.6881L18.8785 19.6827L18.9094 19.6769L18.9409 19.671L18.9718 19.6646C18.9825 19.663 18.9926 19.6603 19.0027 19.6582L19.0342 19.6523L19.0651 19.6454L19.0961 19.6385L19.1275 19.6315L19.1585 19.6246L19.1894 19.6171L19.2209 19.6097L19.2518 19.6017L19.2827 19.5937L19.3142 19.5851L19.3451 19.5771L19.3761 19.5681L19.407 19.5595L19.4385 19.5505L19.4694 19.5409L19.5003 19.5313L19.5318 19.5211L19.5627 19.511L19.5937 19.5003L19.6251 19.4897L19.6561 19.479L19.687 19.4673L19.7185 19.4561L19.7494 19.4438L19.7803 19.4315L19.8118 19.4193L19.8427 19.4059L19.8737 19.3931L19.9046 19.3793L19.9361 19.3649L19.967 19.3505C19.9777 19.3457 19.9883 19.3409 19.9979 19.3355L20.0294 19.3206L20.0603 19.3046L20.0913 19.2886L20.1227 19.2726C20.1542 19.2554 20.1853 19.2376 20.2161 19.2193L20.247 19.2006L20.2779 19.1814L20.3094 19.1617L20.3403 19.1409L20.3713 19.1201C20.3819 19.1126 20.3926 19.1057 20.4022 19.0982L20.4337 19.0758L20.4646 19.0523C20.4963 19.0283 20.5275 19.0034 20.5579 18.9777L20.5889 18.951L20.6203 18.9227L20.6513 18.8939C20.6725 18.8738 20.6933 18.8531 20.7137 18.8321L20.7446 18.8001L20.7755 18.7654C20.9005 18.6252 21.0052 18.4681 21.0865 18.2987C21.137 18.195 21.1787 18.0873 21.2113 17.9766C21.2368 17.8909 21.2574 17.8038 21.2731 17.7158C21.3051 17.5368 21.3208 17.3552 21.3201 17.1734V13.439H18.5675L18.5441 17.1734C18.5437 17.3018 18.5306 17.4299 18.5051 17.5558C18.4834 17.6577 18.4522 17.7573 18.4118 17.8534C18.3631 17.9666 18.3004 18.0732 18.2251 18.1707C18.1452 18.2736 18.0511 18.3646 17.9457 18.4411C17.8313 18.525 17.7056 18.5921 17.5723 18.6406C17.5212 18.6596 17.4692 18.6763 17.4166 18.6907L17.3857 18.6993C17.3241 18.7152 17.2618 18.728 17.199 18.7377L17.1681 18.743C17.1473 18.7459 17.1265 18.7486 17.1057 18.751L17.0747 18.7542L17.0438 18.7574L17.0123 18.7601C16.9917 18.7616 16.9711 18.7628 16.9505 18.7638L16.9195 18.7654L16.8881 18.7665H16.8571L16.8262 18.7675H16.7638L16.7329 18.7665H16.7014L16.6705 18.7654L16.6395 18.7643L16.6081 18.7627L16.5771 18.7617L16.5462 18.7601L16.5147 18.7579L16.4838 18.7558L16.4529 18.7537L16.4219 18.7515L16.3905 18.7489L16.3595 18.7462L16.3286 18.743L16.2971 18.7398L16.2662 18.7366L16.2353 18.7329L16.2038 18.7291L16.1729 18.7254L16.1419 18.7211L16.1105 18.7169L16.0795 18.7126L16.0486 18.7078L16.0171 18.7025L15.9862 18.6977L15.9553 18.6923L15.9238 18.687L15.8929 18.6817L15.8619 18.6763L15.831 18.6699L15.7995 18.6641L15.7686 18.6577L15.7377 18.6513L15.7062 18.6443L15.6753 18.6379L15.6443 18.631L15.6129 18.6235L15.5819 18.6161L15.551 18.6086L15.5195 18.6011L15.4886 18.5931L15.4577 18.5851L15.4267 18.5771L15.3953 18.5686L15.3643 18.5601L15.3334 18.5515L15.3019 18.5425L15.271 18.5334L15.2401 18.5243L15.2086 18.5153L15.1777 18.5057L15.1467 18.4961L15.1153 18.4859L15.0843 18.4763L15.0534 18.4657L15.0219 18.4555L14.991 18.4449L14.9601 18.4342L14.9291 18.4235L14.8977 18.4129L14.8667 18.4022L14.8358 18.3905L14.8043 18.3793L14.7734 18.3675L14.7425 18.3558L14.711 18.3441L14.6801 18.3323L14.6491 18.3201L14.6177 18.3078L14.5867 18.2955L14.5558 18.2827L14.5243 18.2699L14.4934 18.2571L14.4625 18.2443L14.4315 18.231L14.4001 18.2177L14.3691 18.2043L14.3382 18.1905L14.3067 18.1771L14.2758 18.1633L14.2449 18.1494L14.2134 18.135L14.1825 18.1206L14.1515 18.1062L14.1201 18.0918L14.0891 18.0774L14.0225 18.0454Z" fill="#006CB9"/>
<path fill-rule="evenodd" clip-rule="evenodd" d="M23.0183 14.255C22.996 14.2731 22.9739 14.2916 22.9521 14.3104V10.0971C22.9522 9.61608 23.0599 9.14119 23.2673 8.70722C23.3392 8.55809 23.4225 8.41473 23.5164 8.27842L23.5473 8.23362L23.5788 8.19095C23.589 8.17718 23.5993 8.16349 23.6097 8.14988L23.6407 8.10935L23.6721 8.07095C23.6924 8.04574 23.713 8.02085 23.734 7.99628L23.7649 7.96108L23.7964 7.92642C23.8366 7.88259 23.8781 7.83991 23.9207 7.79842L23.9516 7.76802L23.9831 7.73922L24.014 7.71042L24.0449 7.68268L24.0764 7.65602L24.1073 7.62935C24.168 7.57922 24.2303 7.53102 24.294 7.48482C24.3248 7.46266 24.3559 7.44097 24.3873 7.41975L24.4183 7.39948L24.4492 7.37922L24.4807 7.36002L24.5116 7.34082L24.5425 7.32268L24.574 7.30402L24.6049 7.28695L24.6359 7.26935L24.6673 7.25335L24.6983 7.23682L24.7292 7.22082L24.7607 7.20535L24.7916 7.19042L24.8225 7.17602L24.8535 7.16162L24.8849 7.14775L24.9159 7.13442L24.9468 7.12162L24.9783 7.10882L25.0092 7.09655L25.0401 7.08482L25.0716 7.07308L25.1025 7.06242L25.1335 7.05122L25.1649 7.04055L25.1959 7.03042L25.2268 7.02082L25.2583 7.01175L25.2892 7.00215L25.3201 6.99362L25.3516 6.98508L25.3825 6.97708L25.4135 6.96962L25.4444 6.96215L25.4759 6.95522L25.5068 6.94828L25.5377 6.94188L25.5692 6.93602L25.6001 6.93015L25.6311 6.92482L25.6625 6.91948L25.6935 6.91415L25.7244 6.90988L25.7559 6.90562L25.7868 6.90188L25.8177 6.89815L25.8492 6.89495L25.8801 6.89175L25.9111 6.88908L25.9425 6.88695L25.9735 6.88482L26.0044 6.88268L26.0353 6.88162L26.0668 6.88002L26.0977 6.87895H26.1287L26.1601 6.87842H30.9143V22.9702C30.9137 23.3334 30.8521 23.694 30.7319 24.0368C30.6587 24.2434 30.5649 24.4421 30.4519 24.6299C30.4319 24.663 30.4112 24.6957 30.39 24.728C30.3793 24.744 30.3692 24.76 30.3585 24.775C30.3095 24.8468 30.2578 24.9167 30.2033 24.9846L30.1719 25.023L30.1409 25.0598L30.11 25.095L30.0785 25.1302L30.0476 25.1638L30.0167 25.1968L29.9857 25.2288C29.9553 25.2597 29.9241 25.2899 29.8924 25.3195L29.8609 25.3483L29.83 25.376L29.7991 25.4032L29.7676 25.4299L29.7367 25.4555L29.7057 25.4806L29.6743 25.5056L29.6433 25.5291L29.6124 25.5526L29.5809 25.5755L29.55 25.5979L29.5191 25.6192L29.4876 25.6406L29.4567 25.6614L29.4257 25.6816L29.3948 25.7008L29.3633 25.7206L29.3324 25.7387L29.3015 25.7574C29.291 25.7633 29.2805 25.7691 29.27 25.775L29.2391 25.792L29.2081 25.8091L29.1767 25.8251L29.1457 25.8411L29.1148 25.8571L29.0833 25.872C29.0732 25.8774 29.0625 25.8816 29.0524 25.8864L29.0215 25.9008C29.0108 25.9062 29.0001 25.9104 28.99 25.9147L28.9591 25.9286L28.9281 25.9414L28.8967 25.9542L28.8657 25.967L28.8348 25.9787L28.8039 25.9904L28.7724 26.0011L28.7415 26.0123L28.7105 26.023L28.6791 26.0336C28.6684 26.0363 28.6583 26.04 28.6481 26.0432L28.6172 26.0523L28.5857 26.0619L28.5548 26.0704L28.5239 26.079L28.4924 26.0875L28.4615 26.095L28.4305 26.1024L28.3991 26.1099L28.3681 26.1163L28.3372 26.1232L28.3057 26.1291L28.2748 26.135L28.2439 26.1403L28.2129 26.1456L28.1815 26.151L28.1505 26.1552L28.1196 26.1595L28.0881 26.1638L28.0572 26.1675L28.0263 26.1707L27.9948 26.1739L27.9639 26.1766L27.9329 26.1792L27.9015 26.1814L27.8705 26.1835L27.8396 26.1851L27.8081 26.1862L27.7772 26.1872L27.7463 26.1878L27.7148 26.1883H22.9521V18.7584C22.9942 18.7943 23.0372 18.829 23.0812 18.8624L23.1121 18.8859L23.1431 18.9088C23.1637 18.9238 23.1845 18.9386 23.2055 18.9531L23.2364 18.9744L23.2673 18.9947L23.2988 19.015L23.3297 19.0347L23.3607 19.0539L23.3921 19.0731L23.4231 19.0912L23.454 19.1094L23.4855 19.127L23.5164 19.144L23.5473 19.1611L23.5788 19.1771L23.6097 19.1931L23.6407 19.2091L23.6721 19.2246L23.7031 19.2395L23.734 19.2544L23.7649 19.2688L23.7964 19.2827L23.8273 19.2966L23.8583 19.3099L23.8897 19.3232L23.9207 19.336L23.9516 19.3488L23.9831 19.3611L24.014 19.3734L24.0449 19.3856L24.0764 19.3974L24.1073 19.408L24.1383 19.4198L24.1697 19.4304L24.2007 19.4411L24.2316 19.4518L24.2625 19.4624L24.294 19.472L24.3249 19.4822L24.3559 19.4918L24.3873 19.5008L24.4183 19.5099L24.4492 19.519L24.4807 19.528L24.5116 19.5366L24.5425 19.5451L24.574 19.5536L24.6049 19.5616L24.6359 19.5696L24.6673 19.5771L24.6983 19.5846L24.7292 19.592L24.7607 19.5995L24.7916 19.6064L24.8225 19.6134L24.8535 19.6203L24.8849 19.6267L24.9159 19.6331L24.9468 19.6395L24.9783 19.6459L25.0092 19.6518L25.0401 19.6576L25.0716 19.663L25.1025 19.6688L25.1335 19.6742L25.1649 19.6795L25.1959 19.6848L25.2268 19.6902L25.2583 19.695L25.2892 19.6998L25.3201 19.7046L25.3516 19.7088L25.3825 19.7131L25.4135 19.7179L25.4444 19.7216L25.4759 19.7259L25.5068 19.7296L25.5377 19.7339L25.5692 19.7376L25.6001 19.7408L25.6311 19.7446L25.6625 19.7478L25.6935 19.751L25.7244 19.7542L25.7559 19.7574L25.7868 19.7606L25.8177 19.7632L25.8492 19.7659L25.8801 19.7686L25.9111 19.7712L25.9425 19.7739L25.9735 19.776L26.0044 19.7782L26.0353 19.7803L26.0668 19.7824L26.0977 19.7846L26.1287 19.7862L26.1601 19.7883L26.1911 19.7899L26.222 19.7915L26.2535 19.7931L26.2844 19.7947L26.3153 19.7958L26.3468 19.7974L26.3777 19.7984L26.4087 19.7995L26.4401 19.8006L26.4711 19.8016L26.502 19.8022L26.5335 19.8027L26.5644 19.8038L26.5953 19.8043H26.6263L26.6577 19.8054H26.6887L26.7196 19.8059H26.8129L26.8444 19.8064H26.9377L26.9687 19.8059L26.9996 19.8054H27.0311L27.062 19.8043H27.0929L27.1244 19.8032L27.1553 19.8027L27.1863 19.8016L27.2172 19.8011L27.2487 19.8L27.2796 19.799L27.3105 19.7979L27.342 19.7968L27.3729 19.7958L27.4039 19.7947L27.4353 19.7931L27.4663 19.792L27.4812 19.7915L27.4972 19.7904L27.5287 19.7894L27.5596 19.7878L27.5905 19.7856L27.622 19.784L27.6529 19.7819L27.6839 19.7798L27.7148 19.7776L27.7463 19.7755L27.7772 19.7734L27.8081 19.7707L27.8396 19.768L27.8705 19.7654L27.9015 19.7627L27.9329 19.76L27.9639 19.7574L27.9948 19.7542L28.0263 19.751L28.0572 19.7478L28.0881 19.7446L28.1196 19.7414L28.1505 19.7376L28.1815 19.7344L28.2129 19.7307L28.2439 19.727L28.2748 19.7232L28.3057 19.7195L28.3372 19.7158L28.3681 19.7115L28.3991 19.7078L28.4305 19.7035L28.4615 19.6992L28.4924 19.695L28.5239 19.6907L28.5548 19.6864L28.5857 19.6822L28.6172 19.6774L28.6481 19.6731L28.6791 19.6678L28.7105 19.6635L28.7415 19.6587L28.7724 19.6534L28.8039 19.6491L28.8348 19.6438L28.8657 19.6384L28.8967 19.6336L28.9281 19.6283L28.9591 19.623L28.99 19.6176L29.0215 19.6123L29.0524 19.607L29.0833 19.6016L29.1148 19.5963L29.1457 19.591L29.1767 19.5846L29.2081 19.5792L29.2391 19.5734L29.27 19.5675L29.3015 19.5616L29.3324 19.5552L29.3633 19.5499L29.3948 19.5435L29.4257 19.5371L29.4567 19.5307L29.4876 19.5248L29.5191 19.5184L29.55 19.512L29.5809 19.5056L29.6124 19.4987L29.6433 19.4923L29.6743 19.4854L29.7057 19.479L29.7367 19.472L29.7676 19.4651L29.7991 19.4582L29.83 19.4512L29.8609 19.4443L29.8924 19.4368L29.9233 19.4299L29.9543 19.4224L29.9857 19.415L30.0167 19.407V18.0459L29.9857 18.0614L29.9543 18.0763L29.9233 18.0918L29.8924 18.1067L29.8609 18.1216L29.83 18.1366L29.7991 18.151L29.7676 18.1654L29.7367 18.1798L29.7057 18.1936L29.6743 18.208L29.6433 18.2219L29.6124 18.2352L29.5809 18.2486L29.55 18.2619L29.5191 18.2752L29.4876 18.2886L29.4567 18.3014L29.4257 18.3142L29.3948 18.3264L29.3633 18.3387L29.3324 18.351L29.3015 18.3627L29.27 18.375L29.2391 18.3867L29.2081 18.3979L29.1767 18.4091L29.1457 18.4203L29.1148 18.431L29.0833 18.4416L29.0524 18.4523L29.0215 18.463L28.99 18.4736L28.9591 18.4832L28.9281 18.4934L28.8967 18.503L28.8657 18.5126L28.8348 18.5222L28.8039 18.5312L28.7724 18.5403L28.7415 18.5494L28.7105 18.5579L28.6791 18.5664L28.6481 18.5744L28.6172 18.5824L28.5857 18.5904L28.5548 18.5984L28.5239 18.6059L28.4924 18.6134L28.4615 18.6208L28.4305 18.6278L28.3991 18.6347L28.3681 18.6416L28.3372 18.648L28.3057 18.6544L28.2748 18.6608L28.2439 18.6667L28.2129 18.672L28.1815 18.6784L28.1505 18.6838L28.1196 18.6891L28.0881 18.6944L28.0572 18.6998L28.0263 18.704L27.9948 18.7094L27.9639 18.7131L27.9329 18.7179L27.9015 18.7222L27.8705 18.7259L27.8396 18.7296L27.8081 18.7334L27.7772 18.7371L27.7463 18.7403L27.7148 18.7435L27.6839 18.7467L27.6529 18.7494L27.622 18.752L27.5905 18.7547L27.5719 18.7563L27.5596 18.7568L27.5287 18.759L27.4972 18.7611L27.4663 18.7627L27.4353 18.7643L27.4039 18.7659L27.3729 18.767L27.342 18.768H27.3105L27.2796 18.7691H27.1553L27.1244 18.768L27.0929 18.767L27.062 18.7659L27.0311 18.7648L26.9996 18.7627L26.9687 18.7611L26.9377 18.759L26.9063 18.7563L26.8753 18.7542L26.8444 18.751L26.8129 18.7478L26.782 18.744L26.7511 18.7403L26.7196 18.736L26.6887 18.7318L26.6577 18.7275L26.6263 18.7222L26.5953 18.7168L26.5644 18.7115L26.5335 18.7056L26.502 18.6987L26.4711 18.6923L26.4401 18.6854L26.4087 18.6779L26.3777 18.6699L26.3468 18.6619L26.3153 18.6534C26.305 18.6506 26.2947 18.6477 26.2844 18.6448L26.2535 18.6352C26.2326 18.6289 26.2118 18.6223 26.1911 18.6155L26.1601 18.6048L26.1287 18.5936L26.0977 18.5824L26.0668 18.5702L26.0353 18.5579L26.0044 18.5446L25.9735 18.5312L25.9425 18.5168L25.9111 18.5019C25.8903 18.4919 25.8697 18.4816 25.8492 18.471L25.8177 18.4544C25.8071 18.4491 25.7969 18.4427 25.7868 18.4368C25.7553 18.4189 25.7241 18.4002 25.6935 18.3808C25.6829 18.3747 25.6726 18.3681 25.6625 18.3611L25.6311 18.3398C25.6102 18.3252 25.5895 18.3103 25.5692 18.295L25.5377 18.271C25.5274 18.2629 25.517 18.2547 25.5068 18.2464L25.4759 18.2208C25.4438 18.1934 25.4127 18.165 25.3825 18.1355C25.3719 18.1248 25.3612 18.1152 25.3516 18.1046C25.2957 18.0477 25.2437 17.9871 25.1959 17.9232C25.1238 17.8281 25.0612 17.7261 25.0092 17.6187C24.9589 17.5164 24.9173 17.4101 24.8849 17.3008C24.8591 17.2154 24.8382 17.1285 24.8225 17.0406C24.7653 16.7054 24.7653 16.3629 24.8225 16.0278C24.8447 15.9072 24.8759 15.7884 24.9159 15.6726C24.9504 15.5751 24.9919 15.4803 25.0401 15.3888C25.1018 15.2744 25.1749 15.1664 25.2583 15.0667C25.3154 14.9979 25.3778 14.9337 25.4449 14.8747C25.4551 14.8656 25.4652 14.856 25.4759 14.8475L25.5068 14.8214C25.5471 14.7887 25.5885 14.7576 25.6311 14.728L25.6625 14.7067L25.6935 14.687C25.714 14.6738 25.7348 14.661 25.7559 14.6486L25.7868 14.631L25.8177 14.6134L25.8492 14.5974C25.8697 14.5864 25.8903 14.5757 25.9111 14.5654L25.9425 14.551L25.9735 14.5366L26.0044 14.5232L26.0353 14.5099L26.0668 14.4976L26.0977 14.4854L26.1287 14.4742L26.1601 14.463L26.1911 14.4523C26.222 14.442 26.2531 14.4322 26.2844 14.423L26.3153 14.4144L26.3468 14.4059C26.3569 14.4027 26.3671 14.4006 26.3777 14.3979L26.4087 14.3899L26.4401 14.3824L26.4711 14.3755L26.502 14.3691L26.5335 14.3622L26.5644 14.3568L26.5953 14.351L26.6263 14.3456L26.6577 14.3403L26.6887 14.336L26.7196 14.3312L26.7511 14.3275L26.782 14.3238L26.8129 14.32L26.8444 14.3168L26.8753 14.3136L26.9063 14.3115L26.9377 14.3088L26.9687 14.3067L26.9996 14.3046L27.0311 14.303L27.062 14.3019C27.0727 14.3019 27.0828 14.3008 27.0929 14.3003L27.1244 14.2998L27.1553 14.2992L27.1863 14.2987H27.2796L27.3105 14.2992L27.342 14.2998L27.3729 14.3008L27.4039 14.3019L27.4353 14.3035L27.4663 14.3051L27.4972 14.3067L27.5287 14.3088L27.5596 14.311L27.5719 14.3115L27.5905 14.3131L27.622 14.3158L27.6529 14.3184L27.6839 14.3211L27.7148 14.3238L27.7463 14.327L27.7772 14.3307L27.8081 14.3339L27.8396 14.3376L27.8705 14.3414L27.9015 14.3451L27.9329 14.3494L27.9639 14.3536L27.9948 14.3584L28.0263 14.3627L28.0572 14.368L28.0881 14.3728L28.1196 14.3782L28.1505 14.3835L28.1815 14.3888L28.2129 14.3942L28.2439 14.3995L28.2748 14.4059L28.3057 14.4123L28.3372 14.4187L28.3681 14.4251L28.3991 14.4315L28.4305 14.4384L28.4615 14.4454L28.4924 14.4528L28.5239 14.4603L28.5548 14.4678L28.5857 14.4752L28.6172 14.4832L28.6481 14.4912L28.6791 14.4998L28.7105 14.5083L28.7415 14.5168L28.7724 14.5259L28.8039 14.5344L28.8348 14.544L28.8657 14.5531L28.8967 14.5627L28.9281 14.5723L28.9591 14.5824L28.99 14.5926L29.0215 14.6032L29.0524 14.6134L29.0833 14.624L29.1148 14.6347L29.1457 14.6454L29.1767 14.6566L29.2081 14.6683L29.2391 14.6795L29.27 14.6912L29.3015 14.7035L29.3324 14.7152L29.3633 14.7275L29.3948 14.7398L29.4257 14.7526L29.4567 14.7654L29.4876 14.7782L29.5191 14.7915L29.55 14.8048L29.5809 14.8182L29.6124 14.8315L29.6433 14.8454L29.6743 14.8592L29.7057 14.8736L29.7367 14.888L29.7676 14.9024L29.7991 14.9168L29.83 14.9318L29.8609 14.9462L29.8924 14.9616L29.9233 14.9766L29.9543 14.992L29.9857 15.0075L30.0167 15.023V13.6603L29.9857 13.6528L29.9543 13.6454L29.9233 13.6379L29.8924 13.631L29.8609 13.6235L29.83 13.6166L29.7991 13.6096L29.7676 13.6027L29.7367 13.5958L29.7057 13.5888L29.6743 13.5819L29.6433 13.5755L29.6124 13.5691L29.5809 13.5622L29.55 13.5558L29.5191 13.5494L29.4876 13.543L29.4567 13.5371L29.4257 13.5307L29.3948 13.5243L29.3633 13.5184L29.3324 13.5126L29.3015 13.5062L29.27 13.5008L29.2391 13.4944L29.2081 13.4891L29.1767 13.4832L29.1457 13.4774L29.1148 13.472L29.0833 13.4667L29.0524 13.4608L29.0215 13.4555L28.99 13.4502L28.9591 13.4448L28.9281 13.4395L28.8967 13.4342L28.8657 13.4288L28.8348 13.424L28.8039 13.4187L28.7724 13.4139L28.7415 13.4091L28.7105 13.4043L28.6791 13.3995L28.6481 13.3952L28.6172 13.3904L28.5857 13.3862L28.5548 13.3814L28.5239 13.3771L28.4924 13.3728L28.4615 13.3686L28.4305 13.3643L28.3991 13.3606L28.3681 13.3563L28.3372 13.3526L28.3057 13.3483L28.2748 13.3446L28.2439 13.3408L28.2129 13.3371L28.1809 13.3334L28.15 13.3296L28.1191 13.3264L28.0876 13.3232L28.0567 13.3195L28.0257 13.3168L27.9943 13.3136L27.9633 13.3104L27.9324 13.3078L27.9009 13.3051L27.87 13.3019L27.8391 13.2992L27.8076 13.2971L27.7767 13.2944L27.7457 13.2923L27.7143 13.2902L27.6833 13.288L27.6524 13.2859L27.6215 13.2838L27.59 13.2822L27.5591 13.2806L27.5281 13.279L27.4967 13.2774L27.4807 13.2763H27.4663L27.4353 13.2747L27.4039 13.2731L27.3729 13.272L27.342 13.271L27.3105 13.2699L27.2796 13.2688L27.2487 13.2678L27.2172 13.2667L27.1863 13.2662L27.1553 13.2651H27.1244L27.0929 13.264L27.062 13.2635L27.0311 13.263H26.9996L26.9687 13.2619H26.6887L26.6577 13.2624L26.6263 13.263L26.5953 13.2635L26.5644 13.264L26.5335 13.2651L26.502 13.2656L26.4711 13.2667L26.4401 13.2678L26.4087 13.2683L26.3777 13.2694L26.3468 13.271L26.3153 13.272L26.2844 13.2736L26.2535 13.2747L26.222 13.2763L26.1911 13.2779L26.1601 13.2795L26.1287 13.2816L26.0977 13.2832L26.0668 13.2854L26.0353 13.2875L26.0044 13.2896L25.9735 13.2918L25.9425 13.2944L25.9111 13.2966L25.8801 13.2992L25.8492 13.3019L25.8177 13.3046L25.7868 13.3078L25.7559 13.3104L25.7244 13.3136L25.6935 13.3168L25.6625 13.32L25.6311 13.3232L25.6001 13.327L25.5692 13.3307L25.5377 13.3344L25.5068 13.3382L25.4759 13.3419L25.4444 13.3462L25.4135 13.3504L25.3825 13.3547L25.3516 13.359L25.3201 13.3638L25.2892 13.3686L25.2583 13.3728L25.2268 13.3782L25.1959 13.3835L25.1649 13.3883L25.1335 13.3936L25.1025 13.399L25.0716 13.4043L25.0401 13.4107L25.0092 13.416L24.9783 13.4224L24.9468 13.4283L24.9159 13.4347L24.8849 13.4411L24.8535 13.448L24.8225 13.4544L24.7916 13.4614L24.7607 13.4688L24.7292 13.4758L24.6983 13.4832L24.6673 13.4907L24.6359 13.4987L24.6049 13.5067L24.574 13.5147L24.5425 13.5232L24.5116 13.5312L24.4807 13.5403L24.4492 13.5488L24.4183 13.5579L24.3873 13.567L24.3559 13.5766L24.3249 13.5862L24.294 13.5963L24.2625 13.6059L24.2316 13.6166L24.2007 13.6272L24.1697 13.6379L24.1383 13.6486L24.1073 13.6598L24.0764 13.671L24.0449 13.6827L24.014 13.6944L23.9831 13.7067L23.9516 13.7195L23.9207 13.7318L23.8897 13.7451L23.8583 13.7584L23.8273 13.7718L23.7964 13.7856L23.7649 13.7995L23.734 13.8139L23.7031 13.8288L23.6721 13.8438L23.6407 13.8592L23.6097 13.8752L23.5788 13.8912L23.5473 13.9072L23.5164 13.9243L23.4855 13.9414L23.454 13.959L23.4231 13.9771L23.3921 13.9958L23.3607 14.0144L23.3297 14.0336L23.2988 14.0534L23.2673 14.0736L23.2364 14.0944L23.2055 14.1158C23.1845 14.1301 23.1637 14.1447 23.1431 14.1595L23.1121 14.1824C23.0806 14.206 23.049 14.2302 23.0183 14.255Z" fill="#E10238"/>
</g>
<defs>
<clipPath id="clip0_168_1987">
<rect width="53.3333" height="32" fill="white"/>
</clipPath>
</defs>
</svg>
