<svg width="25" height="24" viewBox="0 0 25 24" fill="none" xmlns="http://www.w3.org/2000/svg">
<path d="M12.5 4L5.5 7L12.5 10L19.5 7L12.5 4Z" stroke="#626F86" stroke-linejoin="round"/>
<path fill-rule="evenodd" clip-rule="evenodd" d="M8.16009 10.3159L5.30304 11.5404C5.1192 11.6192 5 11.7999 5 11.9999C5 12.2 5.1192 12.3807 5.30304 12.4595L12.303 15.4595C12.4288 15.5134 12.5712 15.5134 12.697 15.4595L19.697 12.4595C19.8808 12.3807 20 12.2 20 11.9999C20 11.7999 19.8808 11.6192 19.697 11.5404L16.8399 10.3159L15.5706 10.8599L18.2307 11.9999L12.5 14.456L6.7693 11.9999L9.42939 10.8599L8.16009 10.3159Z" fill="#626F86"/>
<path fill-rule="evenodd" clip-rule="evenodd" d="M8.16009 15.3159L5.30304 16.5404C5.1192 16.6192 5 16.7999 5 16.9999C5 17.2 5.1192 17.3807 5.30304 17.4595L12.303 20.4595C12.4288 20.5134 12.5712 20.5134 12.697 20.4595L19.697 17.4595C19.8808 17.3807 20 17.2 20 16.9999C20 16.7999 19.8808 16.6192 19.697 16.5404L16.8399 15.3159L15.5706 15.8599L18.2307 16.9999L12.5 19.456L6.7693 16.9999L9.42939 15.8599L8.16009 15.3159Z" fill="#626F86"/>
</svg>
