<svg width="46" height="46" viewBox="0 0 46 46" fill="none" xmlns="http://www.w3.org/2000/svg">
<rect width="46" height="46" rx="23" fill="#E1DFDF"/>
<path d="M14.9209 33.3786H31.3273C33.5182 33.3786 34.6591 32.2478 34.6591 30.0872V14.7914C34.6591 12.6308 33.5182 11.5 31.3273 11.5H19.2421C17.0512 11.5 15.9205 12.6308 15.9205 14.7914V31.3694C15.9205 32.3992 15.668 32.9747 14.9209 33.3786ZM20.2215 17.8102C19.8277 17.8102 19.5349 17.5073 19.5349 17.1236C19.5349 16.75 19.8176 16.4573 20.2215 16.4573H30.3682C30.7518 16.4573 31.0446 16.75 31.0446 17.1236C31.0446 17.5073 30.7518 17.8102 30.3682 17.8102H20.2215ZM11.3267 21.5256V30.4406C11.3267 31.2785 11.9526 31.7329 12.6392 31.7329C13.3358 31.7329 13.9517 31.2785 13.9517 30.4406V19.2842H13.5478C12.2757 19.2842 11.3267 20.0818 11.3267 21.5256ZM20.2215 21.2934C19.8176 21.2934 19.5349 21.0006 19.5349 20.627C19.5349 20.2433 19.8277 19.9405 20.2215 19.9405H30.3682C30.7518 19.9405 31.0446 20.2433 31.0446 20.627C31.0446 21.0006 30.7518 21.2934 30.3682 21.2934H20.2215ZM20.7364 28.3405C19.9791 28.3405 19.5147 27.8862 19.5147 27.129V24.6453C19.5147 23.8982 19.9791 23.4338 20.7364 23.4338H23.1393C23.9066 23.4338 24.3609 23.8982 24.3609 24.6453V27.129C24.3609 27.8862 23.9066 28.3405 23.1393 28.3405H20.7364ZM26.3499 24.7867C25.9561 24.7867 25.6633 24.4939 25.6633 24.1203C25.6633 23.7366 25.946 23.4338 26.3499 23.4338H30.3682C30.7518 23.4338 31.0446 23.7366 31.0446 24.1203C31.0446 24.4939 30.7518 24.7867 30.3682 24.7867H26.3499ZM26.3499 28.3001C25.946 28.3001 25.6633 28.0074 25.6633 27.6338C25.6633 27.2501 25.9561 26.9473 26.3499 26.9473H30.3682C30.7518 26.9473 31.0446 27.2501 31.0446 27.6338C31.0446 28.0074 30.7518 28.3001 30.3682 28.3001H26.3499Z" fill="#4C4441"/>
</svg>
