<svg width="46" height="46" viewBox="0 0 46 46" fill="none" xmlns="http://www.w3.org/2000/svg">
<rect width="46" height="46" rx="23" fill="#E1DFDF"/>
<mask id="mask0_27_345" style="mask-type:alpha" maskUnits="userSpaceOnUse" x="13" y="9" width="20" height="28">
<path d="M23.0001 9.58334C20.5092 9.58334 18.1204 10.5728 16.3592 12.3341C14.5979 14.0954 13.6084 16.4842 13.6084 18.975C13.6084 22.1682 15.205 24.9723 17.6334 26.6762V29.7083C17.6334 30.0642 17.7748 30.4054 18.0264 30.657C18.278 30.9087 18.6192 31.05 18.9751 31.05H27.0251C27.3809 31.05 27.7222 30.9087 27.9738 30.657C28.2254 30.4054 28.3667 30.0642 28.3667 29.7083V26.6762C30.7951 24.9723 32.3917 22.1682 32.3917 18.975C32.3917 16.4842 31.4023 14.0954 29.641 12.3341C27.8797 10.5728 25.4909 9.58334 23.0001 9.58334ZM18.9751 35.075C18.9751 35.4308 19.1164 35.7721 19.368 36.0237C19.6196 36.2753 19.9609 36.4167 20.3167 36.4167H25.6834C26.0392 36.4167 26.3805 36.2753 26.6321 36.0237C26.8837 35.7721 27.0251 35.4308 27.0251 35.075V33.7333H18.9751V35.075Z" fill="#979797"/>
</mask>
<g mask="url(#mask0_27_345)">
<rect width="46" height="46" fill="#4C4441"/>
</g>
</svg>
