<svg width="128" height="59" viewBox="0 0 128 59" fill="none" xmlns="http://www.w3.org/2000/svg">
<path fill-rule="evenodd" clip-rule="evenodd" d="M0 28.7726C0.249261 29.4861 3.48477 32.4496 4.25536 33.199L13.03 41.8335C14.4474 43.2313 15.9739 44.8703 17.388 46.1296C17.9387 45.9667 20.7539 42.9381 21.3843 42.3109L31.3353 32.342C31.9283 31.7572 32.9204 30.8579 33.3407 30.2779C33.067 29.7175 29.6426 26.3907 29.1049 25.915C28.0688 26.4494 18.2189 36.9102 17.3896 37.2947C16.2802 36.0924 14.4995 34.429 13.0838 33.0719L9.85967 29.939C9.45727 29.5497 9.0288 29.2662 8.83004 28.7726C11.4041 25.915 17.9647 19.7943 21.1367 16.6174L25.669 12.1111C25.8711 11.8945 26.2246 11.5523 26.4217 11.3585C29.2776 8.53677 29.0561 9.7619 29.0561 6.34066C29.0561 4.35472 29.144 2.15698 29.0365 0.19873C28.6471 0.267155 28.4924 0.524562 28.1519 0.868315C27.8472 1.186 27.5328 1.50369 27.2314 1.79205C26.596 2.41602 26.0063 2.97808 25.3709 3.61182L0 28.7726Z" fill="white"/>
<path fill-rule="evenodd" clip-rule="evenodd" d="M13.1621 28.7727L16.3373 32.0001C16.4563 32.1206 16.7088 32.3895 16.8261 32.5068C17.2057 32.8717 17.1242 32.8505 17.5494 32.9955L29.0985 21.6028L37.6712 30.1168L29.7355 38.0997C27.9435 39.8787 25.4737 42.5098 24.4913 43.4058L18.2712 49.5738C17.903 49.9241 17.7091 50.1457 17.7091 50.8609L17.6961 58.7932C18.5139 58.4136 39.7875 36.9821 42.847 33.9844C43.6111 33.235 46.032 31.1203 46.3872 30.2781C46.3171 30.172 46.2392 30.0712 46.1542 29.9767C46.089 29.9017 46.0646 29.8724 46.0337 29.8415L45.9082 29.7127L45.5026 29.3038L40.9181 24.6689C40.0204 23.7288 38.7415 22.45 37.6484 21.3633C36.7589 20.4787 35.9931 19.7211 35.6592 19.3823C34.5725 18.2777 33.4956 17.2008 32.4123 16.1028L29.1051 12.8086C28.6326 13.0416 28.4534 13.2973 28.0738 13.6916C25.9559 15.86 13.4684 28.082 13.1637 28.7825" fill="white"/>
<path d="M55.0886 0H53.707V59H55.0886V0Z" fill="white"/>
<g clip-path="url(#clip0_1502_1404)">
<path fill-rule="evenodd" clip-rule="evenodd" d="M110.575 12.9063L108.437 16.294H101.448C101.07 16.2586 100.69 16.2801 100.319 16.3577C100.056 16.4178 99.8075 16.5299 99.5888 16.6873C99.4125 16.8171 99.2786 16.9953 99.2039 17.1998C99.1303 17.4111 99.0833 17.6307 99.064 17.8535C99.0807 18.1614 99.1771 18.46 99.3439 18.7205C99.4343 18.8659 99.5568 18.9892 99.7023 19.0811C99.8477 19.173 100.012 19.231 100.184 19.2509C100.693 19.3237 101.208 19.3561 101.723 19.3479H104.514C105.829 19.3479 106.867 19.527 107.63 19.8852C108.033 20.0646 108.402 20.3115 108.72 20.6151C109.06 20.9377 109.351 21.3071 109.585 21.712C109.835 22.1494 110.025 22.6174 110.152 23.1039C110.293 23.6317 110.364 24.1756 110.363 24.7216C110.363 25.9902 110.083 27.0918 109.523 28.0262C109.008 28.9333 108.323 29.5275 107.459 29.8003C106.602 30.0441 105.483 30.1655 104.1 30.1646H94.8511V26.7714H103.159C103.592 26.8063 104.027 26.783 104.453 26.7021C104.775 26.6399 105.082 26.5172 105.358 26.3406C105.575 26.2039 105.751 26.0127 105.869 25.7867C105.973 25.5766 106.018 25.3426 105.999 25.1094C105.992 24.8973 105.941 24.6889 105.85 24.4969C105.758 24.305 105.628 24.1335 105.467 23.9931C105.127 23.6801 104.628 23.5554 103.978 23.615H100.499C99.3173 23.615 98.3404 23.4391 97.5594 23.0859C97.146 22.8847 96.768 22.6191 96.4397 22.2993C96.0924 21.9621 95.7947 21.5784 95.5551 21.1594C95.2967 20.7109 95.0999 20.2302 94.9701 19.7301C94.8305 19.1898 94.7614 18.6341 94.7643 18.0765C94.7494 17.0288 94.9986 15.994 95.4893 15.0655C95.7203 14.6504 96.0352 14.2869 96.4145 13.9977C96.7949 13.7092 97.2204 13.4842 97.6741 13.3315C98.1675 13.1668 98.6777 13.0567 99.1955 13.0033C99.7604 12.9371 100.329 12.9047 100.897 12.9063H110.58H110.575ZM94.0589 12.9063L91.9875 16.6596H88.4142C87.3757 16.6596 86.5238 16.7667 85.8585 16.9809C85.2203 17.175 84.6808 17.6024 84.3497 18.1762C84.0334 18.6892 83.8059 19.251 83.6765 19.8382C83.5694 20.3792 83.5165 20.9294 83.5183 21.4807C83.5183 21.8021 83.5183 22.0943 83.5505 22.3547C83.5752 22.6278 83.6253 22.8981 83.7003 23.1621C83.7787 23.4529 83.8721 23.7395 83.9802 24.0208C84.1138 24.3524 84.2666 24.6761 84.4379 24.9903C84.8284 25.6828 85.2986 26.1177 85.8543 26.306C86.4379 26.4875 87.3869 26.5747 88.6941 26.5747H93.4529V30.1632H86.8312C86.1219 30.1688 85.4132 30.1225 84.7108 30.0247C84.1531 29.9526 83.6064 29.813 83.083 29.6092C82.6237 29.4247 82.2021 29.1591 81.8388 28.8253C81.4582 28.4671 81.1286 28.0594 80.859 27.6134C80.3079 26.698 79.9055 25.7025 79.6665 24.6634C79.4384 23.6471 79.3244 22.609 79.3264 21.568C79.3204 20.5529 79.4222 19.54 79.6301 18.546C79.8662 17.521 80.2644 16.5394 80.81 15.6375C81.3855 14.6555 82.2924 13.9056 83.3713 13.5199C84.4752 13.1108 85.7666 12.9063 87.2455 12.9063H94.0589Z" fill="#0159BF"/>
<path fill-rule="evenodd" clip-rule="evenodd" d="M121.493 33.8915V44.3454H127.219L125.784 46.909H118.358V33.8901L121.493 33.8915ZM111.77 33.8915V44.3454H117.494L116.061 46.909H108.634V33.8901L111.77 33.8915ZM107.226 33.8915V46.9104H104.073V33.8915H107.226ZM94.662 33.8915H103.453L102.091 36.451H97.8V39.3594H103.105V41.9037H97.8V46.9131H94.662V33.8915ZM88.0586 33.8915V44.3454H93.7844L92.3498 46.909H84.9234V33.8901L88.0586 33.8915ZM72.1686 33.8915H75.3079V41.3317C75.2901 41.8936 75.3633 42.4547 75.5249 42.9936C75.6456 43.3756 75.9015 43.7017 76.2457 43.9119C76.5206 44.0676 76.8166 44.1837 77.1247 44.2567C77.3723 44.3041 77.624 44.3273 77.8763 44.326C78.435 44.339 78.9868 44.2021 79.4732 43.9299C79.6953 43.8026 79.8893 43.6324 80.0437 43.4294C80.1981 43.2265 80.3096 42.9949 80.3718 42.7485C80.5232 42.0947 80.5914 41.4247 80.5747 40.7541V33.8915H83.7127V41.3497C83.7127 42.8621 83.5177 43.9765 83.1277 44.693C82.733 45.3952 82.2627 45.9049 81.7126 46.2165C81.1584 46.5288 80.5537 46.7439 79.9253 46.8522C79.2315 46.9658 78.5291 47.0205 77.8259 47.0156C77.4312 47.0156 77.0673 47.0032 76.7314 46.9782C76.4025 46.9571 76.0753 46.916 75.7516 46.855C75.4257 46.7931 75.1065 46.7003 74.7985 46.578C74.459 46.4471 74.1313 46.2882 73.8187 46.1029C73.1558 45.7073 72.6768 45.0695 72.4849 44.3274C72.2731 43.5315 72.1676 42.4558 72.1686 41.1004V33.8915ZM62.6875 33.8915H71.4786L70.1167 36.451H65.8255V39.3594H71.1287V41.9037H65.8255V46.9131H62.6875V33.8915Z" fill="#000066"/>
</g>
<defs>
<clipPath id="clip0_1502_1404">
<rect width="64.5312" height="34.1094" fill="white" transform="translate(62.6875 12.9062)"/>
</clipPath>
</defs>
</svg>
