<svg width="138" height="64" viewBox="0 0 138 64" fill="none" xmlns="http://www.w3.org/2000/svg">
<path fill-rule="evenodd" clip-rule="evenodd" d="M0 31.2109C0.270385 31.985 3.78009 35.1995 4.61599 36.0125L14.1343 45.3787C15.6717 46.895 17.3276 48.6728 18.8616 50.0389C19.4589 49.8622 22.5127 46.5769 23.1966 45.8965L33.9908 35.0829C34.6341 34.4485 35.7103 33.473 36.1662 32.8438C35.8693 32.2359 32.1546 28.6272 31.5715 28.1112C30.4475 28.6909 19.7629 40.0382 18.8633 40.4553C17.6599 39.151 15.7283 37.3467 14.1926 35.8746L10.6952 32.4762C10.2587 32.0539 9.79395 31.7464 9.57835 31.2109C12.3706 28.1112 19.4872 21.4717 22.928 18.0257L27.8444 13.1375C28.0635 12.9025 28.447 12.5314 28.6608 12.3211C31.7588 9.26023 31.5184 10.5892 31.5184 6.87801C31.5184 4.72376 31.6139 2.33978 31.4972 0.215576C31.0749 0.2898 30.907 0.569021 30.5376 0.941905C30.2072 1.28651 29.8661 1.63112 29.5391 1.94392C28.8499 2.62077 28.2102 3.23046 27.521 3.91791L0 31.2109Z" fill="#0158BF"/>
<path fill-rule="evenodd" clip-rule="evenodd" d="M14.2773 31.2108L17.7217 34.7117C17.8507 34.8425 18.1246 35.1341 18.2518 35.2613C18.6636 35.6572 18.5752 35.6342 19.0365 35.7915L31.5643 23.4333L40.8635 32.6688L32.2553 41.3282C30.3114 43.258 27.6323 46.112 26.5666 47.084L19.8194 53.7747C19.42 54.1547 19.2097 54.395 19.2097 55.1708L19.1955 63.7755C20.0827 63.3637 43.1591 40.1159 46.4779 36.8642C47.3068 36.0512 49.9329 33.7574 50.3181 32.8437C50.2421 32.7286 50.1576 32.6194 50.0654 32.5168C49.9947 32.4355 49.9682 32.4037 49.9346 32.3701L49.7985 32.2305L49.3585 31.7869L44.3855 26.7592C43.4118 25.7395 42.0245 24.3522 40.8387 23.1735C39.8738 22.2139 39.0432 21.3921 38.6809 21.0245C37.5022 19.8264 36.3341 18.6582 35.1589 17.4671L31.5714 13.8938C31.0589 14.1465 30.8645 14.424 30.4527 14.8516C28.1554 17.2038 14.6096 30.4615 14.2791 31.2214" fill="#010066"/>
<path d="M59.7564 0H58.2578V64H59.7564V0Z" fill="#010066"/>
<g clip-path="url(#clip0_1502_10477)">
<path fill-rule="evenodd" clip-rule="evenodd" d="M119.945 13.9998L117.627 17.6746H110.045C109.636 17.6362 109.223 17.6595 108.821 17.7437C108.535 17.8089 108.266 17.9305 108.029 18.1012C107.837 18.242 107.692 18.4353 107.611 18.6571C107.531 18.8864 107.48 19.1246 107.459 19.3662C107.477 19.7003 107.582 20.0241 107.763 20.3067C107.861 20.4645 107.994 20.5982 108.152 20.6979C108.309 20.7975 108.488 20.8605 108.674 20.8821C109.227 20.961 109.785 20.9962 110.344 20.9873H113.371C114.797 20.9873 115.924 21.1816 116.751 21.5702C117.188 21.7647 117.588 22.0326 117.934 22.3619C118.303 22.7118 118.619 23.1126 118.872 23.5518C119.143 24.0262 119.35 24.5339 119.487 25.0617C119.64 25.6341 119.718 26.2241 119.716 26.8164C119.716 28.1926 119.412 29.3874 118.805 30.401C118.246 31.3851 117.502 32.0296 116.566 32.3255C115.637 32.59 114.422 32.7217 112.922 32.7207H102.889V29.0399H111.902C112.371 29.0777 112.843 29.0525 113.305 28.9648C113.654 28.8973 113.988 28.7642 114.287 28.5727C114.522 28.4243 114.713 28.2169 114.841 27.9717C114.954 27.7438 115.003 27.4901 114.982 27.2371C114.974 27.007 114.919 26.7809 114.82 26.5727C114.721 26.3645 114.58 26.1785 114.405 26.0262C114.036 25.6866 113.494 25.5514 112.79 25.616H109.016C107.734 25.616 106.674 25.4252 105.827 25.0421C105.379 24.8238 104.969 24.5357 104.613 24.1888C104.236 23.8231 103.913 23.4069 103.653 22.9524C103.373 22.4658 103.159 21.9444 103.018 21.4019C102.867 20.8158 102.792 20.213 102.795 19.6081C102.779 18.4717 103.049 17.3491 103.582 16.342C103.832 15.8918 104.174 15.4975 104.585 15.1837C104.998 14.8708 105.46 14.6267 105.952 14.461C106.487 14.2824 107.04 14.163 107.602 14.105C108.215 14.0332 108.831 13.9981 109.448 13.9998H119.951H119.945ZM102.03 13.9998L99.7831 18.0712H95.907C94.7805 18.0712 93.8564 18.1874 93.1347 18.4197C92.4424 18.6303 91.8572 19.0939 91.4981 19.7163C91.155 20.2728 90.9082 20.8821 90.7678 21.5191C90.6517 22.106 90.5942 22.7028 90.5962 23.3009C90.5962 23.6494 90.5962 23.9664 90.6312 24.2489C90.6579 24.5452 90.7123 24.8384 90.7936 25.1248C90.8787 25.4402 90.98 25.7511 91.0973 26.0562C91.2422 26.4159 91.408 26.767 91.5937 27.1079C92.0173 27.859 92.5274 28.3308 93.1302 28.5351C93.7633 28.7319 94.7926 28.8266 96.2107 28.8266H101.373V32.7192H94.1899C93.4205 32.7252 92.6517 32.675 91.8898 32.5689C91.2848 32.4907 90.6918 32.3393 90.1241 32.1182C89.6258 31.9181 89.1684 31.63 88.7743 31.2679C88.3616 30.8793 88.004 30.4371 87.7116 29.9533C87.1137 28.9602 86.6772 27.8804 86.418 26.7533C86.1706 25.6509 86.0469 24.5248 86.0491 23.3955C86.0426 22.2944 86.153 21.1957 86.3786 20.1174C86.6346 19.0056 87.0666 17.9408 87.6584 16.9625C88.2827 15.8972 89.2665 15.0838 90.4368 14.6654C91.6342 14.2217 93.035 13.9998 94.6393 13.9998H102.03Z" fill="#0159BF"/>
<path fill-rule="evenodd" clip-rule="evenodd" d="M131.789 36.7637V48.1035H138L136.444 50.8843H128.388V36.7622L131.789 36.7637ZM121.242 36.7637V48.1035H127.451L125.897 50.8843H117.841V36.7622L121.242 36.7637ZM116.313 36.7637V50.8858H112.893V36.7637H116.313ZM102.684 36.7637H112.22L110.743 39.5401H106.088V42.695H111.842V45.4548H106.088V50.8889H102.684V36.7637ZM95.5211 36.7637V48.1035H101.732L100.176 50.8843H92.1203V36.7622L95.5211 36.7637ZM78.2846 36.7637H81.69V44.8344C81.6706 45.4439 81.7501 46.0525 81.9253 46.6372C82.0562 47.0515 82.3339 47.4052 82.7072 47.6332C83.0054 47.8022 83.3265 47.9281 83.6607 48.0073C83.9293 48.0587 84.2024 48.0838 84.4759 48.0825C85.082 48.0966 85.6806 47.9481 86.2083 47.6528C86.4492 47.5147 86.6596 47.3301 86.8271 47.1099C86.9945 46.8898 87.1155 46.6386 87.183 46.3713C87.3472 45.662 87.4211 44.9353 87.4031 44.2079V36.7637H90.807V44.8539C90.807 46.4945 90.5955 47.7034 90.1724 48.4806C89.7442 49.2423 89.2341 49.7951 88.6374 50.1332C88.0362 50.4719 87.3803 50.7053 86.6987 50.8227C85.946 50.946 85.1841 51.0053 84.4213 51C83.9931 51 83.5984 50.9865 83.234 50.9595C82.8773 50.9366 82.5224 50.8919 82.1713 50.8258C81.8177 50.7586 81.4714 50.658 81.1373 50.5253C80.7691 50.3833 80.4136 50.2109 80.0746 50.01C79.3555 49.5808 78.8358 48.889 78.6277 48.084C78.3979 47.2206 78.2835 46.0538 78.2846 44.5835V36.7637ZM68 36.7637H77.5361L76.0588 39.5401H71.4039V42.695H77.1565V45.4548H71.4039V50.8889H68V36.7637Z" fill="#000066"/>
</g>
<defs>
<clipPath id="clip0_1502_10477">
<rect width="70" height="37" fill="white" transform="translate(68 14)"/>
</clipPath>
</defs>
</svg>
