<svg width="117" height="59" viewBox="0 0 117 59" fill="none" xmlns="http://www.w3.org/2000/svg">
<path fill-rule="evenodd" clip-rule="evenodd" d="M0.53125 28.7728C0.780511 29.4864 4.01602 32.4498 4.78661 33.1992L13.5613 41.8338C14.9786 43.2316 16.5052 44.8705 17.9193 46.1299C18.4699 45.9669 21.2851 42.9383 21.9156 42.3111L31.8665 32.3423C32.4595 31.7574 33.4517 30.8581 33.872 30.2781C33.5983 29.7177 30.1738 26.391 29.6362 25.9153C28.6 26.4496 18.7501 36.9104 17.9209 37.2949C16.8114 36.0926 15.0308 34.4292 13.615 33.0722L10.3909 29.9393C9.98852 29.5499 9.56005 29.2664 9.36129 28.7728C11.9354 25.9153 18.496 19.7945 21.668 16.6176L26.2003 12.1114C26.4023 11.8947 26.7558 11.5526 26.953 11.3587C29.8089 8.53701 29.5873 9.76214 29.5873 6.3409C29.5873 4.35496 29.6753 2.15722 29.5678 0.198975C29.1784 0.267399 29.0236 0.524806 28.6831 0.868559C28.3785 1.18625 28.064 1.50393 27.7626 1.79229C27.1273 2.41626 26.5375 2.97832 25.9021 3.61206L0.53125 28.7728Z" fill="white"/>
<path fill-rule="evenodd" clip-rule="evenodd" d="M13.6931 28.773L16.8683 32.0003C16.9873 32.1209 17.2398 32.3897 17.3571 32.507C17.7367 32.8719 17.6552 32.8508 18.0804 32.9957L29.6296 21.603L38.2022 30.117L30.2666 38.0999C28.4745 39.8789 26.0047 42.51 25.0223 43.4061L18.8022 49.5741C18.434 49.9243 18.2401 50.1459 18.2401 50.8611L18.2271 58.7935C19.0449 58.4139 40.3185 36.9823 43.378 33.9847C44.1421 33.2352 46.563 31.1206 46.9182 30.2783C46.8481 30.1722 46.7702 30.0715 46.6852 29.9769C46.6201 29.902 46.5956 29.8727 46.5647 29.8417L46.4392 29.713L46.0336 29.3041L41.4491 24.6691C40.5514 23.7291 39.2725 22.4502 38.1794 21.3636C37.2899 20.4789 36.5242 19.7214 36.1902 19.3825C35.1035 18.2779 34.0267 17.201 32.9433 16.103L29.6361 12.8088C29.1636 13.0418 28.9844 13.2976 28.6048 13.6918C26.4869 15.8603 13.9994 28.0822 13.6947 28.7827" fill="white"/>
<g clip-path="url(#clip0_1567_2046)">
<path fill-rule="evenodd" clip-rule="evenodd" d="M100.043 12.9064L97.9059 16.2941H90.9162C90.539 16.2587 90.1587 16.2802 89.7881 16.3578C89.5246 16.4179 89.2761 16.53 89.0575 16.6874C88.8811 16.8172 88.7473 16.9954 88.6726 17.1999C88.5989 17.4113 88.5519 17.6308 88.5326 17.8536C88.5493 18.1615 88.6457 18.4601 88.8125 18.7206C88.9029 18.866 89.0254 18.9893 89.1709 19.0812C89.3163 19.1731 89.4809 19.2311 89.6523 19.251C90.1621 19.3238 90.6769 19.3562 91.1919 19.348H93.9828C95.2975 19.348 96.336 19.5271 97.0983 19.8854C97.5015 20.0647 97.8704 20.3116 98.1886 20.6152C98.5288 20.9378 98.8201 21.3073 99.0536 21.7122C99.3035 22.1495 99.494 22.6175 99.6205 23.1041C99.7621 23.6318 99.8331 24.1757 99.8318 24.7217C99.8318 25.9904 99.5519 27.0919 98.992 28.0263C98.477 28.9335 97.7911 29.5276 96.9276 29.8005C96.071 30.0442 94.9513 30.1656 93.5685 30.1647H84.3197V26.7715H92.6279C93.0602 26.8064 93.4952 26.7831 93.9212 26.7023C94.2436 26.64 94.5509 26.5173 94.8267 26.3408C95.0435 26.204 95.2197 26.0128 95.3376 25.7868C95.4416 25.5767 95.4866 25.3427 95.4678 25.1095C95.4606 24.8974 95.4097 24.689 95.3183 24.497C95.2268 24.3051 95.0967 24.1336 94.9359 23.9932C94.5958 23.6802 94.0961 23.5556 93.4467 23.6151H89.9672C88.7859 23.6151 87.809 23.4392 87.028 23.0861C86.6146 22.8848 86.2366 22.6192 85.9083 22.2994C85.5611 21.9622 85.2633 21.5785 85.0237 21.1595C84.7653 20.711 84.5685 20.2303 84.4387 19.7302C84.2992 19.19 84.23 18.6342 84.2329 18.0766C84.2181 17.0289 84.4672 15.9941 84.958 15.0656C85.1889 14.6506 85.5039 14.2871 85.8831 13.9978C86.2635 13.7094 86.689 13.4843 87.1428 13.3316C87.6361 13.1669 88.1463 13.0568 88.6642 13.0034C89.229 12.9372 89.7973 12.9048 90.3661 12.9064H100.049H100.043ZM83.5275 12.9064L81.4561 16.6597H77.8828C76.8443 16.6597 75.9924 16.7668 75.3271 16.9811C74.6889 17.1751 74.1494 17.6025 73.8183 18.1763C73.502 18.6894 73.2745 19.2511 73.1451 19.8383C73.0381 20.3793 72.9851 20.9295 72.9869 21.4809C72.9869 21.8022 72.9869 22.0944 73.0191 22.3548C73.0438 22.6279 73.094 22.8982 73.1689 23.1622C73.2473 23.453 73.3408 23.7396 73.4488 24.0209C73.5824 24.3525 73.7352 24.6762 73.9065 24.9904C74.297 25.6829 74.7673 26.1178 75.3229 26.3061C75.9066 26.4876 76.8555 26.5748 78.1628 26.5748H82.9215V30.1633H76.2999C75.5906 30.1689 74.8818 30.1226 74.1794 30.0248C73.6217 29.9527 73.075 29.8131 72.5517 29.6093C72.0923 29.4248 71.6707 29.1592 71.3074 28.8254C70.9269 28.4672 70.5973 28.0596 70.3276 27.6136C69.7765 26.6981 69.3741 25.7026 69.1352 24.6636C68.9071 23.6473 68.793 22.6092 68.7951 21.5681C68.789 20.553 68.8908 19.5401 69.0988 18.5461C69.3348 17.5212 69.733 16.5396 70.2787 15.6376C70.8541 14.6556 71.7611 13.9057 72.84 13.52C73.9438 13.1109 75.2352 12.9064 76.7141 12.9064H83.5275Z" fill="#0159BF"/>
<path fill-rule="evenodd" clip-rule="evenodd" d="M110.962 33.8916V44.3455H116.688L115.253 46.9091H107.826V33.8903L110.962 33.8916ZM101.238 33.8916V44.3455H106.963L105.53 46.9091H98.1032V33.8903L101.238 33.8916ZM96.6952 33.8916V46.9105H93.5419V33.8916H96.6952ZM84.1308 33.8916H92.9218L91.56 36.4511H87.2687V39.3596H92.5733V41.9038H87.2687V46.9133H84.1308V33.8916ZM77.5273 33.8916V44.3455H83.2532L81.8186 46.9091H74.3921V33.8903L77.5273 33.8916ZM61.6373 33.8916H64.7767V41.3318C64.7588 41.8937 64.8321 42.4548 64.9936 42.9938C65.1143 43.3757 65.3703 43.7018 65.7144 43.912C65.9894 44.0677 66.2853 44.1839 66.5934 44.2569C66.8411 44.3042 67.0928 44.3274 67.345 44.3261C67.9037 44.3391 68.4555 44.2022 68.942 43.93C69.1641 43.8027 69.3581 43.6325 69.5124 43.4296C69.6668 43.2266 69.7784 42.9951 69.8406 42.7486C69.9919 42.0948 70.0601 41.4248 70.0435 40.7542V33.8916H73.1815V41.3498C73.1815 42.8622 72.9864 43.9766 72.5964 44.6931C72.2017 45.3953 71.7314 45.905 71.1814 46.2166C70.6271 46.5289 70.0224 46.744 69.3941 46.8523C68.7002 46.9659 67.9979 47.0206 67.2946 47.0157C66.8999 47.0157 66.536 47.0033 66.2001 46.9784C65.8713 46.9573 65.5441 46.9161 65.2204 46.8551C64.8944 46.7932 64.5752 46.7004 64.2672 46.5781C63.9278 46.4472 63.6 46.2883 63.2875 46.103C62.6246 45.7074 62.1455 45.0696 61.9536 44.3275C61.7418 43.5316 61.6364 42.4559 61.6373 41.1005V33.8916ZM52.1562 33.8916H60.9473L59.5855 36.4511H55.2942V39.3596H60.5974V41.9038H55.2942V46.9133H52.1562V33.8916Z" fill="#000066"/>
</g>
<defs>
<clipPath id="clip0_1567_2046">
<rect width="64.5312" height="34.1094" fill="white" transform="translate(52.1562 12.9065)"/>
</clipPath>
</defs>
</svg>
