<svg width="69" height="32" viewBox="0 0 69 32" fill="none" xmlns="http://www.w3.org/2000/svg">
<path fill-rule="evenodd" clip-rule="evenodd" d="M0 15.6056C0.135193 15.9926 1.89005 17.5999 2.30799 18.0064L7.06713 22.6895C7.83587 23.4476 8.66381 24.3365 9.43079 25.0196C9.72945 24.9312 11.2563 23.2886 11.5983 22.9484L16.9954 17.5416C17.317 17.2244 17.8551 16.7366 18.0831 16.422C17.9347 16.1181 16.0773 14.3137 15.7857 14.0557C15.2237 14.3455 9.88143 20.0192 9.43167 20.2278C8.82993 19.5756 7.86415 18.6735 7.09629 17.9374L5.34762 16.2382C5.12937 16.0271 4.89698 15.8733 4.78918 15.6056C6.18528 14.0557 9.74359 10.736 11.464 9.01295L13.9222 6.56888C14.0318 6.45136 14.2235 6.2658 14.3304 6.16065C15.8794 4.63024 15.7592 5.29471 15.7592 3.43913C15.7592 2.362 15.8069 1.17001 15.7486 0.10791C15.5374 0.145022 15.4535 0.284633 15.2688 0.471075C15.1036 0.643379 14.933 0.815683 14.7696 0.972082C14.425 1.31051 14.1051 1.61535 13.7605 1.95908L0 15.6056Z" fill="#41414E"/>
<path fill-rule="evenodd" clip-rule="evenodd" d="M7.13867 15.6053L8.86083 17.3557C8.92534 17.4211 9.06229 17.5669 9.12591 17.6305C9.3318 17.8285 9.28762 17.817 9.51824 17.8956L15.7822 11.7165L20.4317 16.3343L16.1277 20.664C15.1557 21.6289 13.8161 23.0559 13.2833 23.5419L9.90968 26.8872C9.70998 27.0772 9.60483 27.1974 9.60483 27.5853L9.59776 31.8876C10.0413 31.6817 21.5795 20.0578 23.239 18.432C23.6534 18.0255 24.9664 16.8786 25.1591 16.4217C25.121 16.3642 25.0788 16.3096 25.0327 16.2583C24.9974 16.2176 24.9841 16.2017 24.9673 16.1849L24.8993 16.1151L24.6793 15.8933L22.1928 13.3795C21.7059 12.8696 21.0123 12.176 20.4194 11.5866C19.9369 11.1068 19.5216 10.6959 19.3405 10.5122C18.7511 9.91306 18.167 9.32899 17.5794 8.73344L15.7857 6.94678C15.5295 7.07313 15.4323 7.21186 15.2264 7.42569C14.0777 8.60178 7.30479 15.2306 7.13956 15.6106" fill="#41414E"/>
<path d="M29.8782 0H29.1289V32H29.8782V0Z" fill="#41414E"/>
<g clip-path="url(#clip0_1502_4182)">
<path fill-rule="evenodd" clip-rule="evenodd" d="M59.9727 7.00003L58.8135 8.83741H55.0224C54.8179 8.81822 54.6116 8.82987 54.4106 8.87197C54.2677 8.90456 54.1329 8.96537 54.0143 9.05075C53.9187 9.12111 53.8461 9.21777 53.8056 9.32868C53.7656 9.44333 53.7401 9.56241 53.7297 9.68324C53.7387 9.85026 53.791 10.0122 53.8815 10.1535C53.9305 10.2324 53.997 10.2992 54.0759 10.3491C54.1547 10.3989 54.244 10.4304 54.337 10.4412C54.6134 10.4806 54.8927 10.4982 55.172 10.4938H56.6857C57.3987 10.4938 57.962 10.5909 58.3755 10.7852C58.5942 10.8825 58.7942 11.0164 58.9668 11.1811C59.1513 11.356 59.3093 11.5564 59.436 11.776C59.5715 12.0132 59.6748 12.267 59.7434 12.531C59.8202 12.8172 59.8588 13.1122 59.858 13.4083C59.858 14.0964 59.7062 14.6938 59.4026 15.2006C59.1232 15.6927 58.7512 16.0149 58.2829 16.1629C57.8183 16.2951 57.211 16.361 56.461 16.3605H51.4447V14.5201H55.9509C56.1853 14.539 56.4213 14.5264 56.6523 14.4825C56.8271 14.4488 56.9938 14.3822 57.1434 14.2865C57.261 14.2123 57.3566 14.1086 57.4205 13.986C57.4769 13.872 57.5013 13.7451 57.4911 13.6187C57.4872 13.5036 57.4596 13.3906 57.41 13.2865C57.3604 13.1824 57.2899 13.0894 57.2026 13.0132C57.0182 12.8434 56.7472 12.7758 56.3949 12.8081H54.5078C53.8671 12.8081 53.3372 12.7127 52.9136 12.5212C52.6894 12.412 52.4844 12.268 52.3063 12.0945C52.118 11.9116 51.9565 11.7035 51.8266 11.4763C51.6864 11.233 51.5797 10.9723 51.5092 10.7011C51.4336 10.408 51.3961 10.1066 51.3976 9.80418C51.3896 9.23595 51.5247 8.67469 51.7909 8.17112C51.9161 7.946 52.087 7.74885 52.2927 7.59196C52.499 7.43552 52.7298 7.31347 52.9759 7.23064C53.2434 7.14131 53.5202 7.0816 53.801 7.05261C54.1074 7.01671 54.4156 6.99915 54.7241 7.00003H59.9757H59.9727ZM51.0151 7.00003L49.8916 9.03572H47.9535C47.3903 9.03572 46.9282 9.09381 46.5674 9.21C46.2212 9.31527 45.9286 9.54708 45.749 9.85826C45.5775 10.1365 45.4541 10.4412 45.3839 10.7597C45.3259 11.0531 45.2971 11.3515 45.2981 11.6506C45.2981 11.8248 45.2981 11.9833 45.3156 12.1246C45.329 12.2727 45.3562 12.4193 45.3968 12.5625C45.4393 12.7202 45.49 12.8757 45.5486 13.0282C45.6211 13.2081 45.704 13.3836 45.7969 13.5541C46.0087 13.9296 46.2637 14.1655 46.5651 14.2677C46.8816 14.3661 47.3963 14.4134 48.1053 14.4134H50.6864V16.3597H47.095C46.7103 16.3627 46.3258 16.3376 45.9449 16.2846C45.6424 16.2455 45.3459 16.1698 45.062 16.0592C44.8129 15.9592 44.5842 15.8151 44.3872 15.6341C44.1808 15.4398 44.002 15.2187 43.8558 14.9768C43.5569 14.4802 43.3386 13.9403 43.209 13.3768C43.0853 12.8256 43.0234 12.2625 43.0246 11.6979C43.0213 11.1473 43.0765 10.598 43.1893 10.0588C43.3173 9.50293 43.5333 8.97055 43.8292 8.48135C44.1413 7.94872 44.6332 7.54203 45.2184 7.3328C45.8171 7.11096 46.5175 7.00003 47.3197 7.00003H51.0151Z" fill="#0159BF"/>
<path fill-rule="evenodd" clip-rule="evenodd" d="M65.8944 18.3821V24.052H69L68.2219 25.4424H64.194V18.3813L65.8944 18.3821ZM60.6208 18.3821V24.052H63.7256L62.9483 25.4424H58.9204V18.3813L60.6208 18.3821ZM58.1567 18.3821V25.4432H56.4464V18.3821H58.1567ZM51.3421 18.3821H56.1101L55.3715 19.7703H53.0441V21.3477H55.9211V22.7277H53.0441V25.4447H51.3421V18.3821ZM47.7606 18.3821V24.052H50.8661L50.088 25.4424H46.0601V18.3813L47.7606 18.3821ZM39.1423 18.3821H40.845V22.4174C40.8353 22.7222 40.875 23.0265 40.9627 23.3188C41.0281 23.526 41.1669 23.7029 41.3536 23.8169C41.5027 23.9013 41.6632 23.9643 41.8303 24.0039C41.9646 24.0296 42.1012 24.0422 42.238 24.0415C42.541 24.0485 42.8403 23.9743 43.1041 23.8266C43.2246 23.7576 43.3298 23.6653 43.4135 23.5552C43.4972 23.4451 43.5578 23.3195 43.5915 23.1859C43.6736 22.8313 43.7106 22.4679 43.7016 22.1042V18.3821H45.4035V22.4272C45.4035 23.2475 45.2977 23.8519 45.0862 24.2405C44.8721 24.6214 44.6171 24.8978 44.3187 25.0668C44.0181 25.2362 43.6901 25.3529 43.3493 25.4116C42.973 25.4732 42.5921 25.5029 42.2106 25.5003C41.9966 25.5003 41.7992 25.4935 41.617 25.48C41.4387 25.4685 41.2612 25.4462 41.0856 25.4131C40.9088 25.3796 40.7357 25.3292 40.5687 25.2629C40.3846 25.1919 40.2068 25.1057 40.0373 25.0052C39.6777 24.7906 39.4179 24.4447 39.3138 24.0422C39.199 23.6105 39.1418 23.0271 39.1423 22.292V18.3821ZM34 18.3821H38.768L38.0294 19.7703H35.7019V21.3477H38.5783V22.7277H35.7019V25.4447H34V18.3821Z" fill="#000066"/>
</g>
<defs>
<clipPath id="clip0_1502_4182">
<rect width="35" height="18.5" fill="white" transform="translate(34 7)"/>
</clipPath>
</defs>
</svg>
