<svg width="126" height="64" viewBox="0 0 126 64" fill="none" xmlns="http://www.w3.org/2000/svg">
<path fill-rule="evenodd" clip-rule="evenodd" d="M0 31.2112C0.270385 31.9852 3.78009 35.1998 4.61599 36.0127L14.1343 45.379C15.6717 46.8953 17.3276 48.6731 18.8616 50.0392C19.4589 49.8624 22.5127 46.5772 23.1966 45.8968L33.9908 35.0831C34.6341 34.4487 35.7103 33.4732 36.1662 32.8441C35.8693 32.2361 32.1546 28.6275 31.5715 28.1114C30.4475 28.6911 19.7629 40.0384 18.8633 40.4555C17.6599 39.1513 15.7283 37.347 14.1926 35.8749L10.6952 32.4765C10.2587 32.0541 9.79395 31.7466 9.57835 31.2112C12.3706 28.1114 19.4872 21.472 22.928 18.0259L27.8444 13.1378C28.0635 12.9027 28.447 12.5316 28.6608 12.3213C31.7588 9.26047 31.5184 10.5894 31.5184 6.87825C31.5184 4.72401 31.6139 2.34002 31.4972 0.21582C31.0749 0.290044 30.907 0.569265 30.5376 0.942149C30.2072 1.28676 29.8661 1.63137 29.5391 1.94416C28.8499 2.62101 28.2102 3.2307 27.521 3.91815L0 31.2112Z" fill="#0158BF"/>
<path fill-rule="evenodd" clip-rule="evenodd" d="M14.2773 31.2111L17.7217 34.7119C17.8507 34.8427 18.1246 35.1343 18.2518 35.2615C18.6636 35.6574 18.5752 35.6344 19.0365 35.7917L31.5643 23.4335L40.8635 32.669L32.2553 41.3284C30.3114 43.2582 27.6323 46.1123 26.5666 47.0843L19.8194 53.775C19.42 54.1549 19.2097 54.3953 19.2097 55.1711L19.1955 63.7757C20.0827 63.3639 43.1591 40.1161 46.4779 36.8644C47.3068 36.0515 49.9329 33.7576 50.3181 32.844C50.2421 32.7289 50.1576 32.6196 50.0654 32.517C49.9947 32.4358 49.9682 32.4039 49.9346 32.3704L49.7985 32.2308L49.3585 31.7872L44.3855 26.7594C43.4118 25.7397 42.0245 24.3525 40.8387 23.1737C39.8738 22.2141 39.0432 21.3924 38.6809 21.0248C37.5022 19.8266 36.3341 18.6585 35.1589 17.4674L31.5714 13.894C31.0589 14.1468 30.8645 14.4242 30.4527 14.8519C28.1554 17.2041 14.6096 30.4618 14.2791 31.2217" fill="#010066"/>
<g clip-path="url(#clip0_1567_5154)">
<path fill-rule="evenodd" clip-rule="evenodd" d="M107.945 14.0001L105.627 17.6748H98.0449C97.6358 17.6364 97.2232 17.6597 96.8212 17.7439C96.5354 17.8091 96.2658 17.9307 96.0287 18.1015C95.8374 18.2422 95.6922 18.4355 95.6112 18.6574C95.5313 18.8867 95.4803 19.1248 95.4593 19.3665C95.4775 19.7005 95.582 20.0244 95.763 20.3069C95.861 20.4647 95.9939 20.5985 96.1517 20.6981C96.3095 20.7978 96.488 20.8608 96.6739 20.8824C97.2269 20.9613 97.7854 20.9964 98.344 20.9875H101.371C102.797 20.9875 103.924 21.1818 104.751 21.5704C105.188 21.765 105.588 22.0328 105.934 22.3622C106.303 22.7121 106.619 23.1128 106.872 23.552C107.143 24.0265 107.35 24.5341 107.487 25.0619C107.64 25.6344 107.718 26.2243 107.716 26.8167C107.716 28.1928 107.412 29.3877 106.805 30.4013C106.246 31.3853 105.502 32.0298 104.566 32.3258C103.637 32.5902 102.422 32.7219 100.922 32.7209H90.8894V29.0401H99.9017C100.371 29.078 100.843 29.0527 101.305 28.965C101.654 28.8975 101.988 28.7644 102.287 28.5729C102.522 28.4245 102.713 28.2172 102.841 27.972C102.954 27.7441 103.003 27.4903 102.982 27.2373C102.974 27.0072 102.919 26.7812 102.82 26.5729C102.721 26.3647 102.58 26.1787 102.405 26.0264C102.036 25.6869 101.494 25.5517 100.79 25.6163H97.0155C95.7341 25.6163 94.6744 25.4255 93.8272 25.0424C93.3788 24.8241 92.9687 24.536 92.6126 24.189C92.236 23.8233 91.913 23.4071 91.6531 22.9526C91.3727 22.466 91.1593 21.9446 91.0185 21.4022C90.8671 20.8161 90.7921 20.2133 90.7953 19.6084C90.7792 18.4719 91.0494 17.3494 91.5817 16.3422C91.8323 15.892 92.1739 15.4977 92.5853 15.1839C92.998 14.871 93.4595 14.6269 93.9517 14.4613C94.4868 14.2826 95.0403 14.1632 95.602 14.1052C96.2147 14.0334 96.8313 13.9983 97.4482 14.0001H107.951H107.945ZM90.0301 14.0001L87.7831 18.0714H83.907C82.7805 18.0714 81.8564 18.1876 81.1347 18.42C80.4424 18.6305 79.8572 19.0942 79.4981 19.7165C79.155 20.2731 78.9082 20.8824 78.7678 21.5194C78.6517 22.1063 78.5942 22.7031 78.5962 23.3011C78.5962 23.6497 78.5962 23.9667 78.6312 24.2491C78.6579 24.5454 78.7123 24.8386 78.7936 25.125C78.8787 25.4404 78.98 25.7513 79.0973 26.0565C79.2422 26.4162 79.408 26.7673 79.5937 27.1081C80.0173 27.8593 80.5274 28.331 81.1302 28.5353C81.7633 28.7322 82.7926 28.8268 84.2107 28.8268H89.3727V32.7194H82.1899C81.4205 32.7255 80.6517 32.6753 79.8898 32.5692C79.2848 32.4909 78.6918 32.3396 78.1241 32.1185C77.6258 31.9183 77.1684 31.6302 76.7743 31.2681C76.3616 30.8796 76.004 30.4374 75.7116 29.9536C75.1137 28.9605 74.6772 27.8807 74.418 26.7536C74.1706 25.6511 74.0469 24.5251 74.0491 23.3958C74.0426 22.2947 74.153 21.1959 74.3786 20.1177C74.6346 19.0059 75.0666 17.9411 75.6584 16.9627C76.2827 15.8974 77.2665 15.0841 78.4368 14.6656C79.6342 14.2219 81.035 14.0001 82.6393 14.0001H90.0301Z" fill="#0159BF"/>
<path fill-rule="evenodd" clip-rule="evenodd" d="M119.789 36.7637V48.1035H126L124.444 50.8843H116.388V36.7622L119.789 36.7637ZM109.242 36.7637V48.1035H115.451L113.897 50.8843H105.841V36.7622L109.242 36.7637ZM104.313 36.7637V50.8858H100.893V36.7637H104.313ZM90.6842 36.7637H100.22L98.743 39.5401H94.0881V42.695H99.8422V45.4548H94.0881V50.8889H90.6842V36.7637ZM83.5211 36.7637V48.1035H89.7323L88.1761 50.8843H80.1203V36.7622L83.5211 36.7637ZM66.2846 36.7637H69.69V44.8344C69.6706 45.4439 69.7501 46.0525 69.9253 46.6372C70.0562 47.0515 70.3339 47.4052 70.7072 47.6332C71.0054 47.8022 71.3265 47.9281 71.6607 48.0073C71.9293 48.0587 72.2024 48.0838 72.4759 48.0825C73.082 48.0966 73.6806 47.9481 74.2083 47.6528C74.4492 47.5147 74.6596 47.3301 74.8271 47.1099C74.9945 46.8898 75.1155 46.6386 75.183 46.3713C75.3472 45.662 75.4211 44.9353 75.4031 44.2079V36.7637H78.807V44.8539C78.807 46.4945 78.5955 47.7034 78.1724 48.4806C77.7442 49.2423 77.2341 49.7951 76.6374 50.1332C76.0362 50.4719 75.3803 50.7053 74.6987 50.8227C73.946 50.946 73.1841 51.0053 72.4213 51C71.9931 51 71.5984 50.9865 71.234 50.9595C70.8773 50.9366 70.5224 50.8919 70.1713 50.8258C69.8177 50.7586 69.4714 50.658 69.1373 50.5253C68.7691 50.3833 68.4136 50.2109 68.0746 50.01C67.3555 49.5808 66.8358 48.889 66.6277 48.084C66.3979 47.2206 66.2835 46.0538 66.2846 44.5835V36.7637ZM56 36.7637H65.5361L64.0588 39.5401H59.4039V42.695H65.1565V45.4548H59.4039V50.8889H56V36.7637Z" fill="#000066"/>
</g>
<defs>
<clipPath id="clip0_1567_5154">
<rect width="70" height="37" fill="white" transform="translate(56 14)"/>
</clipPath>
</defs>
</svg>
