<svg width="375" height="305" viewBox="0 0 375 305" fill="none" xmlns="http://www.w3.org/2000/svg">
<path fill-rule="evenodd" clip-rule="evenodd" d="M-2 146.099C0.0334206 151.92 26.428 176.095 32.7143 182.209L104.296 252.648C115.859 264.051 128.312 277.421 139.848 287.694C144.34 286.365 167.306 261.659 172.449 256.542L253.626 175.218C258.464 170.447 266.558 163.111 269.987 158.379C267.754 153.807 239.818 126.669 235.432 122.788C226.979 127.147 146.626 212.484 139.861 215.621C130.81 205.813 116.284 192.243 104.735 181.172L78.4331 155.615C75.1504 152.439 71.655 150.126 70.0336 146.099C91.0323 122.788 144.552 72.8561 170.429 46.9399L207.402 10.1789C209.05 8.41127 211.934 5.62031 213.543 4.03876C236.841 -18.9801 235.033 -8.98576 235.033 -36.8955C235.033 -53.0964 235.751 -71.025 234.874 -87C231.697 -86.4418 230.435 -84.3419 227.657 -81.5377C225.172 -78.9461 222.607 -76.3544 220.148 -74.0021C214.965 -68.9119 210.154 -64.3267 204.97 -59.1568L-2 146.099Z" fill="#106FFF"/>
<path fill-rule="evenodd" clip-rule="evenodd" d="M105.374 146.099L131.277 172.427C132.247 173.411 134.307 175.604 135.264 176.561C138.361 179.538 137.696 179.365 141.165 180.548L235.38 87.6084L305.314 157.064L240.577 222.186C225.957 236.699 205.809 258.163 197.795 265.473L147.053 315.79C144.049 318.648 142.467 320.455 142.467 326.289L142.361 391C149.033 387.903 322.578 213.069 347.537 188.615C353.77 182.501 373.52 165.251 376.417 158.379C375.845 157.514 375.21 156.692 374.517 155.921C373.985 155.309 373.786 155.07 373.533 154.818L372.51 153.768L369.2 150.432L331.801 112.621C324.478 104.952 314.046 94.5194 305.128 85.6547C297.871 78.4381 291.625 72.2581 288.9 69.4937C280.036 60.4828 271.251 51.6979 262.413 42.7402L235.433 15.8672C231.579 17.7677 230.117 19.8543 227.02 23.0705C209.743 40.76 107.873 140.464 105.387 146.179" fill="#0862EB"/>
</svg>
