<svg width="63" height="32" viewBox="0 0 63 32" fill="none" xmlns="http://www.w3.org/2000/svg">
<path fill-rule="evenodd" clip-rule="evenodd" d="M0 15.6056C0.135193 15.9926 1.89005 17.5999 2.30799 18.0064L7.06713 22.6895C7.83587 23.4476 8.66381 24.3365 9.43079 25.0196C9.72945 24.9312 11.2563 23.2886 11.5983 22.9484L16.9954 17.5416C17.317 17.2244 17.8551 16.7366 18.0831 16.422C17.9347 16.1181 16.0773 14.3137 15.7857 14.0557C15.2237 14.3455 9.88143 20.0192 9.43167 20.2278C8.82993 19.5756 7.86415 18.6735 7.09629 17.9374L5.34762 16.2382C5.12937 16.0271 4.89698 15.8733 4.78918 15.6056C6.18528 14.0557 9.74359 10.736 11.464 9.01295L13.9222 6.56888C14.0318 6.45136 14.2235 6.2658 14.3304 6.16065C15.8794 4.63024 15.7592 5.29471 15.7592 3.43913C15.7592 2.362 15.8069 1.17001 15.7486 0.10791C15.5374 0.145022 15.4535 0.284633 15.2688 0.471075C15.1036 0.643379 14.933 0.815683 14.7696 0.972082C14.425 1.31051 14.1051 1.61535 13.7605 1.95908L0 15.6056Z" fill="#41414E"/>
<path fill-rule="evenodd" clip-rule="evenodd" d="M7.13867 15.6058L8.86083 17.3562C8.92534 17.4216 9.06229 17.5674 9.12591 17.631C9.3318 17.8289 9.28762 17.8175 9.51824 17.8961L15.7822 11.717L20.4317 16.3348L16.1277 20.6645C15.1557 21.6294 13.8161 23.0564 13.2833 23.5424L9.90968 26.8877C9.70998 27.0777 9.60483 27.1979 9.60483 27.5858L9.59776 31.8881C10.0413 31.6822 21.5795 20.0583 23.239 18.4325C23.6534 18.026 24.9664 16.8791 25.1591 16.4222C25.121 16.3647 25.0788 16.31 25.0327 16.2588C24.9974 16.2181 24.9841 16.2022 24.9673 16.1854L24.8993 16.1156L24.6793 15.8938L22.1928 13.38C21.7059 12.8701 21.0123 12.1765 20.4194 11.5871C19.9369 11.1073 19.5216 10.6964 19.3405 10.5126C18.7511 9.91355 18.167 9.32948 17.5794 8.73393L15.7857 6.94727C15.5295 7.07362 15.4323 7.21235 15.2264 7.42618C14.0777 8.60227 7.30479 15.2311 7.13956 15.6111" fill="#41414E"/>
<g clip-path="url(#clip0_1567_4183)">
<path fill-rule="evenodd" clip-rule="evenodd" d="M53.9727 7.00003L52.8135 8.83741H49.0224C48.8179 8.81822 48.6116 8.82987 48.4106 8.87197C48.2677 8.90456 48.1329 8.96537 48.0143 9.05075C47.9187 9.12111 47.8461 9.21777 47.8056 9.32868C47.7656 9.44333 47.7401 9.56241 47.7297 9.68324C47.7387 9.85026 47.791 10.0122 47.8815 10.1535C47.9305 10.2324 47.997 10.2992 48.0759 10.3491C48.1547 10.3989 48.244 10.4304 48.337 10.4412C48.6134 10.4806 48.8927 10.4982 49.172 10.4938H50.6857C51.3987 10.4938 51.962 10.5909 52.3755 10.7852C52.5942 10.8825 52.7942 11.0164 52.9668 11.1811C53.1513 11.356 53.3093 11.5564 53.436 11.776C53.5715 12.0132 53.6748 12.267 53.7434 12.531C53.8202 12.8172 53.8588 13.1122 53.858 13.4083C53.858 14.0964 53.7062 14.6938 53.4026 15.2006C53.1232 15.6927 52.7512 16.0149 52.2829 16.1629C51.8183 16.2951 51.211 16.361 50.461 16.3605H45.4447V14.5201H49.9509C50.1853 14.539 50.4213 14.5264 50.6523 14.4825C50.8271 14.4488 50.9938 14.3822 51.1434 14.2865C51.261 14.2123 51.3566 14.1086 51.4205 13.986C51.4769 13.872 51.5013 13.7451 51.4911 13.6187C51.4872 13.5036 51.4596 13.3906 51.41 13.2865C51.3604 13.1824 51.2899 13.0894 51.2026 13.0132C51.0182 12.8434 50.7472 12.7758 50.3949 12.8081H48.5078C47.8671 12.8081 47.3372 12.7127 46.9136 12.5212C46.6894 12.412 46.4844 12.268 46.3063 12.0945C46.118 11.9116 45.9565 11.7035 45.8266 11.4763C45.6864 11.233 45.5797 10.9723 45.5092 10.7011C45.4336 10.408 45.3961 10.1066 45.3976 9.80418C45.3896 9.23595 45.5247 8.67469 45.7909 8.17112C45.9161 7.946 46.087 7.74885 46.2927 7.59196C46.499 7.43552 46.7298 7.31347 46.9759 7.23064C47.2434 7.14131 47.5202 7.0816 47.801 7.05261C48.1074 7.01671 48.4156 6.99915 48.7241 7.00003H53.9757H53.9727ZM45.0151 7.00003L43.8916 9.03572H41.9535C41.3903 9.03572 40.9282 9.09381 40.5674 9.21C40.2212 9.31527 39.9286 9.54708 39.749 9.85826C39.5775 10.1365 39.4541 10.4412 39.3839 10.7597C39.3259 11.0531 39.2971 11.3515 39.2981 11.6506C39.2981 11.8248 39.2981 11.9833 39.3156 12.1246C39.329 12.2727 39.3562 12.4193 39.3968 12.5625C39.4393 12.7202 39.49 12.8757 39.5486 13.0282C39.6211 13.2081 39.704 13.3836 39.7969 13.5541C40.0087 13.9296 40.2637 14.1655 40.5651 14.2677C40.8816 14.3661 41.3963 14.4134 42.1053 14.4134H44.6864V16.3597H41.095C40.7103 16.3627 40.3258 16.3376 39.9449 16.2846C39.6424 16.2455 39.3459 16.1698 39.062 16.0592C38.8129 15.9592 38.5842 15.8151 38.3872 15.6341C38.1808 15.4398 38.002 15.2187 37.8558 14.9768C37.5569 14.4802 37.3386 13.9403 37.209 13.3768C37.0853 12.8256 37.0234 12.2625 37.0246 11.6979C37.0213 11.1473 37.0765 10.598 37.1893 10.0588C37.3173 9.50293 37.5333 8.97055 37.8292 8.48135C38.1413 7.94872 38.6332 7.54203 39.2184 7.3328C39.8171 7.11096 40.5175 7.00003 41.3197 7.00003H45.0151Z" fill="#0159BF"/>
<path fill-rule="evenodd" clip-rule="evenodd" d="M59.8944 18.3821V24.052H63L62.2219 25.4424H58.194V18.3813L59.8944 18.3821ZM54.6208 18.3821V24.052H57.7256L56.9483 25.4424H52.9204V18.3813L54.6208 18.3821ZM52.1567 18.3821V25.4432H50.4464V18.3821H52.1567ZM45.3421 18.3821H50.1101L49.3715 19.7703H47.0441V21.3477H49.9211V22.7277H47.0441V25.4447H45.3421V18.3821ZM41.7606 18.3821V24.052H44.8661L44.088 25.4424H40.0601V18.3813L41.7606 18.3821ZM33.1423 18.3821H34.845V22.4174C34.8353 22.7222 34.875 23.0265 34.9627 23.3188C35.0281 23.526 35.1669 23.7029 35.3536 23.8169C35.5027 23.9013 35.6632 23.9643 35.8303 24.0039C35.9646 24.0296 36.1012 24.0422 36.238 24.0415C36.541 24.0485 36.8403 23.9743 37.1041 23.8266C37.2246 23.7576 37.3298 23.6653 37.4135 23.5552C37.4972 23.4451 37.5578 23.3195 37.5915 23.1859C37.6736 22.8313 37.7106 22.4679 37.7016 22.1042V18.3821H39.4035V22.4272C39.4035 23.2475 39.2977 23.8519 39.0862 24.2405C38.8721 24.6214 38.6171 24.8978 38.3187 25.0668C38.0181 25.2362 37.6901 25.3529 37.3493 25.4116C36.973 25.4732 36.5921 25.5029 36.2106 25.5003C35.9966 25.5003 35.7992 25.4935 35.617 25.48C35.4387 25.4685 35.2612 25.4462 35.0856 25.4131C34.9088 25.3796 34.7357 25.3292 34.5687 25.2629C34.3846 25.1919 34.2068 25.1057 34.0373 25.0052C33.6777 24.7906 33.4179 24.4447 33.3138 24.0422C33.199 23.6105 33.1418 23.0271 33.1423 22.292V18.3821ZM28 18.3821H32.768L32.0294 19.7703H29.7019V21.3477H32.5783V22.7277H29.7019V25.4447H28V18.3821Z" fill="#000066"/>
</g>
<defs>
<clipPath id="clip0_1567_4183">
<rect width="35" height="18.5" fill="white" transform="translate(28 7)"/>
</clipPath>
</defs>
</svg>
