<svg width="79" height="34" viewBox="0 0 79 34" fill="none" xmlns="http://www.w3.org/2000/svg">
<g clip-path="url(#clip0_107_56)">
<path fill-rule="evenodd" clip-rule="evenodd" d="M0 16.5808C0.143642 16.992 2.00817 18.6998 2.45224 19.1317L7.50882 24.1075C8.32561 24.913 9.2053 25.8575 10.0202 26.5832C10.3375 26.4893 11.9599 24.744 12.3232 24.3826L18.0576 18.6378C18.3993 18.3008 18.9711 17.7825 19.2133 17.4483C19.0556 17.1254 17.0821 15.2083 16.7723 14.9341C16.1752 15.2421 10.499 21.2703 10.0212 21.4919C9.3818 20.799 8.35565 19.8405 7.5398 19.0584L5.68185 17.253C5.44995 17.0287 5.20304 16.8653 5.0885 16.5808C6.57186 14.9341 10.3526 11.4069 12.1805 9.57617L14.7923 6.97934C14.9087 6.85448 15.1125 6.65732 15.2261 6.5456C16.8718 4.91953 16.7442 5.62554 16.7442 3.65398C16.7442 2.50954 16.7949 1.24305 16.7329 0.114563C16.5085 0.153994 16.4193 0.30233 16.2231 0.500425C16.0476 0.683499 15.8664 0.866572 15.6927 1.03275C15.3265 1.39232 14.9867 1.71622 14.6205 2.08143L0 16.5808Z" fill="#0158BF"/>
<path fill-rule="evenodd" clip-rule="evenodd" d="M7.58484 16.5808L9.41463 18.4407C9.48317 18.5101 9.62869 18.6651 9.69628 18.7326C9.91503 18.9429 9.86809 18.9307 10.1131 19.0143L16.7685 12.449L21.7087 17.3554L17.1356 21.9557C16.1029 22.9809 14.6796 24.4971 14.1135 25.0135L10.529 28.5679C10.3169 28.7698 10.2051 28.8974 10.2051 29.3096L10.1976 33.8808C10.6689 33.662 22.9283 21.3116 24.6914 19.5842C25.1317 19.1523 26.5268 17.9337 26.7315 17.4483C26.6911 17.3872 26.6462 17.3291 26.5972 17.2746C26.5597 17.2314 26.5456 17.2145 26.5278 17.1967L26.4555 17.1225L26.2217 16.8869L23.5798 14.2159C23.0625 13.6742 22.3255 12.9372 21.6956 12.311C21.183 11.8012 20.7417 11.3647 20.5492 11.1694C19.923 10.5328 19.3025 9.91227 18.6781 9.27949L16.7723 7.38116C16.5 7.51542 16.3968 7.66282 16.178 7.89001C14.9575 9.13961 7.76134 16.1828 7.58578 16.5865" fill="#010066"/>
<path d="M31.7458 0H30.9497V34H31.7458V0Z" fill="#010066"/>
<path fill-rule="evenodd" clip-rule="evenodd" d="M74.9117 8.70398H78.7337L78.1855 9.7029H76.1247V10.8408H78.6117V11.8359H76.1247V12.7926H78.6117V13.7953H74.9117V8.70398ZM68.0723 8.70398H69.3595L70.7884 12.695L72.2511 8.70398H73.511L71.6418 13.7953H69.889L68.0723 8.70398ZM66.6462 8.70398V13.7953H65.4257V8.70398H66.6462ZM59.3777 8.70398H64.0522L63.4701 9.7029H62.2318V13.7953H61.0245V9.7029H59.3777V8.70398ZM54.7408 11.7693H56.1031L55.4234 9.85218L54.7408 11.7693ZM56.243 8.70398L58.0915 13.7953H56.8147L56.4739 12.8724H55.2975L54.7014 11.8632L53.97 13.7953H52.6557L54.5465 8.70398H56.243ZM47.5869 8.70398H51.4108L50.8634 9.7029H48.8027V10.8408H51.2896V11.8359H48.8027V12.7926H51.2896V13.7953H47.5888L47.5869 8.70398ZM42.7368 10.8905H43.8954C44.2121 10.9112 44.4358 10.8718 44.5666 10.7722C44.6962 10.6727 44.7666 10.5094 44.776 10.2803C44.7886 10.1954 44.777 10.1087 44.7424 10.0301C44.7079 9.95151 44.6518 9.88431 44.5807 9.83622C44.4352 9.74233 44.2164 9.69539 43.9235 9.70478H42.7368V10.8905ZM41.5163 8.70586H44.2493C44.4239 8.70586 44.5826 8.71149 44.7187 8.72369C44.8456 8.73315 44.9713 8.7542 45.0943 8.7866C45.202 8.81264 45.3043 8.85745 45.3966 8.91897C45.4909 8.98471 45.5739 9.06524 45.6425 9.15744C45.7883 9.33746 45.8934 9.54693 45.9505 9.77144C45.9993 9.9747 46.0242 10.183 46.0246 10.392C46.0252 10.5814 46.0054 10.7702 45.9655 10.9553C45.9304 11.1275 45.8541 11.2886 45.743 11.4247C45.6388 11.5564 45.5046 11.661 45.3515 11.7299C45.231 11.7876 45.1052 11.8338 44.976 11.8679C44.8817 11.8892 44.7853 11.8996 44.6887 11.8988L45.9467 13.7897H44.5328L42.7368 11.0314V13.7953H41.5163V8.70586ZM40.0414 8.70586L39.4378 9.81275H38.3985C38.1467 9.80579 37.8953 9.83745 37.653 9.90663C37.467 9.96401 37.3096 10.0898 37.2127 10.2587C37.1207 10.4101 37.0544 10.5757 37.0165 10.7488C36.9854 10.9084 36.97 11.0706 36.9705 11.2332C36.9705 11.3271 36.9705 11.4144 36.9799 11.4914C36.9867 11.5718 37.0011 11.6513 37.0231 11.7289C37.0464 11.8148 37.0743 11.8995 37.1066 11.9824C37.1452 12.0808 37.1897 12.1767 37.2399 12.2697C37.3239 12.4465 37.4714 12.5853 37.653 12.6584C37.9245 12.7222 38.2034 12.7488 38.482 12.7372H39.8687V13.7962H37.9337C37.7265 13.7982 37.5194 13.7847 37.3141 13.7559C37.1515 13.734 36.9923 13.6921 36.84 13.631C36.7056 13.5773 36.5824 13.4989 36.4767 13.4C36.3671 13.2944 36.2723 13.1744 36.195 13.0433C36.0348 12.7729 35.9173 12.4793 35.8467 12.173C35.7806 11.8733 35.7475 11.5673 35.7481 11.2604C35.7463 10.9612 35.7758 10.6626 35.8364 10.3695C35.9053 10.0677 36.0216 9.77866 36.1809 9.51326C36.3477 9.22288 36.6117 9.00076 36.9264 8.88611C37.288 8.7588 37.6696 8.69743 38.053 8.70492L40.0414 8.70586Z" fill="#0158BF"/>
<path fill-rule="evenodd" clip-rule="evenodd" d="M71.7187 16.0213H78.6821L77.6831 17.8379H73.9278V19.9109H78.4586V21.7238H73.9287V23.471H78.4596V25.2979H71.7187V16.0213ZM71.2699 16.0213L70.1706 18.037H68.2704C67.8112 18.026 67.353 18.0855 66.9119 18.2135C66.5726 18.3176 66.2858 18.5473 66.1101 18.8556C65.942 19.1314 65.8208 19.4331 65.7515 19.7485C65.6949 20.0392 65.6669 20.3348 65.6679 20.631C65.6679 20.8037 65.6679 20.9605 65.6848 21.1004C65.6981 21.2468 65.7248 21.3917 65.7646 21.5332C65.8067 21.6897 65.8572 21.8439 65.9158 21.9951C65.9862 22.1744 66.0674 22.3494 66.1589 22.519C66.3664 22.8898 66.6161 23.1245 66.91 23.2259C67.2207 23.3198 67.7249 23.3705 68.4196 23.3705H70.947V25.2989H67.4292C67.0523 25.3021 66.6758 25.2776 66.3026 25.2256C66.006 25.186 65.7156 25.1097 65.4379 24.9984C65.1952 24.8996 64.9725 24.7574 64.7807 24.5788C64.5797 24.3857 64.4054 24.1665 64.2625 23.9272C63.968 23.4362 63.7523 22.9021 63.6231 22.3443C63.5019 21.7984 63.4412 21.2409 63.4419 20.6817C63.4391 20.1361 63.4933 19.5918 63.6034 19.0575C63.7294 18.5079 63.9414 17.9816 64.2315 17.4981C64.5355 16.969 65.0166 16.5643 65.59 16.3555C66.2513 16.1233 66.949 16.0117 67.6498 16.026L71.2699 16.0213ZM57.1198 21.6064H59.6011L58.3637 18.113L57.1198 21.6064ZM59.8602 16.0213L63.2288 25.2961H60.8977L60.2733 23.6155H58.1412L57.055 21.781L55.7219 25.3007H53.3259L56.7565 16.026L59.8602 16.0213ZM47.0986 20.1334H49.0495C49.606 20.1334 49.9878 20.0896 50.1949 20.0019C50.3807 19.9407 50.5368 19.8121 50.6324 19.6414C50.718 19.4468 50.7579 19.2352 50.7488 19.0227C50.756 18.8277 50.7201 18.6334 50.6437 18.4538C50.5302 18.2949 50.3637 18.1818 50.1743 18.1346C49.9452 18.0604 49.5856 18.0238 49.0984 18.0238H47.0986V20.1334ZM47.0986 20.415V25.297H44.8877V16.0213H50.04C50.5518 16.0128 51.0617 16.0873 51.5497 16.2419C51.96 16.3695 52.3096 16.6426 52.5326 17.0099C52.7351 17.318 52.8846 17.6579 52.9748 18.0154C53.0992 18.666 53.1072 19.3335 52.9983 19.9869C52.9485 20.2564 52.8105 20.5972 52.5758 21.0112C52.3475 21.425 51.9642 21.7313 51.5102 21.8627C51.0295 22.0186 50.3836 22.0984 49.58 22.0984H48.4703L47.0986 20.415ZM44.2042 16.0185L43.0682 17.8379H39.3523C39.152 17.8192 38.9501 17.8309 38.7533 17.8727C38.6132 17.9047 38.481 17.9647 38.3646 18.0492C38.2698 18.1205 38.1985 18.2186 38.16 18.3308C38.1198 18.4443 38.0936 18.5622 38.082 18.6819C38.0901 18.8483 38.1405 19.0099 38.2285 19.1514C38.2773 19.2291 38.343 19.2947 38.4207 19.3435C38.4984 19.3923 38.5861 19.4229 38.6773 19.433C38.9493 19.4723 39.224 19.4896 39.4987 19.4846H40.983C41.6815 19.4846 42.2336 19.5785 42.6392 19.7738C42.8533 19.8705 43.0492 20.0032 43.2184 20.1662C43.3995 20.3391 43.5545 20.5374 43.6784 20.7549C43.811 20.9911 43.9123 21.2436 43.9798 21.506C44.055 21.7896 44.0929 22.0819 44.0925 22.3753C44.1073 22.996 43.9538 23.6092 43.6484 24.1497C43.3743 24.6379 43.01 24.9562 42.55 25.1036C42.0956 25.235 41.4985 25.2998 40.7662 25.2998H35.8457V23.471H40.2583C40.4882 23.4904 40.7198 23.4781 40.9464 23.4343C41.1176 23.4009 41.2808 23.335 41.4271 23.24C41.5422 23.1674 41.6361 23.0657 41.6994 22.9452C41.7543 22.8321 41.778 22.7063 41.7679 22.5809C41.7644 22.467 41.7376 22.355 41.6892 22.2518C41.6407 22.1486 41.5717 22.0565 41.4863 21.981C41.3051 21.813 41.0403 21.7463 40.6948 21.7782H38.8453C38.2172 21.7782 37.6981 21.6843 37.284 21.4966C37.0627 21.3888 36.8601 21.2462 36.6841 21.0741C36.4998 20.8926 36.3418 20.6863 36.2147 20.461C36.0779 20.2202 35.9737 19.9623 35.9049 19.694C35.8296 19.4037 35.7924 19.1048 35.7941 18.8049C35.7855 18.2395 35.9192 17.681 36.1828 17.1807C36.3046 16.9574 36.4719 16.762 36.6738 16.6071C36.8771 16.4517 37.1045 16.3305 37.3469 16.2485C37.6089 16.1591 37.88 16.0992 38.1553 16.0701C38.4544 16.0349 38.7554 16.0177 39.0566 16.0185H44.2042Z" fill="#010066"/>
</g>
<defs>
<clipPath id="clip0_107_56">
<rect width="78.7337" height="34" fill="white"/>
</clipPath>
</defs>
</svg>
