<svg width="137" height="59" viewBox="0 0 137 59" fill="none" xmlns="http://www.w3.org/2000/svg">
<g clip-path="url(#clip0_632_3077)">
<path fill-rule="evenodd" clip-rule="evenodd" d="M0 28.7726C0.249261 29.4861 3.48477 32.4496 4.25536 33.199L13.03 41.8335C14.4474 43.2313 15.9739 44.8703 17.388 46.1296C17.9387 45.9667 20.7539 42.9381 21.3843 42.3109L31.3353 32.342C31.9283 31.7572 32.9204 30.8579 33.3407 30.2779C33.067 29.7175 29.6426 26.3907 29.1049 25.915C28.0688 26.4494 18.2189 36.9102 17.3896 37.2947C16.2802 36.0924 14.4995 34.429 13.0838 33.0719L9.85967 29.939C9.45727 29.5497 9.0288 29.2662 8.83004 28.7726C11.4041 25.915 17.9647 19.7943 21.1367 16.6174L25.669 12.1111C25.8711 11.8945 26.2246 11.5523 26.4217 11.3585C29.2776 8.53677 29.0561 9.7619 29.0561 6.34066C29.0561 4.35472 29.144 2.15698 29.0365 0.19873C28.6471 0.267155 28.4924 0.524562 28.1519 0.868315C27.8472 1.186 27.5328 1.50369 27.2314 1.79205C26.596 2.41602 26.0063 2.97808 25.3709 3.61182L0 28.7726Z" fill="white"/>
<path fill-rule="evenodd" clip-rule="evenodd" d="M13.1619 28.7726L16.3371 32C16.456 32.1205 16.7085 32.3893 16.8258 32.5066C17.2054 32.8716 17.124 32.8504 17.5492 32.9954L29.0983 21.6027L37.6709 30.1167L29.7353 38.0995C27.9432 39.8786 25.4734 42.5097 24.491 43.4057L18.2709 49.5737C17.9027 49.924 17.7088 50.1455 17.7088 50.8607L17.6958 58.7931C18.5137 58.4135 39.7872 36.9819 42.8468 33.9843C43.6109 33.2349 46.0318 31.1202 46.3869 30.2779C46.3169 30.1718 46.239 30.0711 46.154 29.9766C46.0888 29.9016 46.0644 29.8723 46.0334 29.8413L45.908 29.7126L45.5023 29.3037L40.9179 24.6687C40.0202 23.7287 38.7413 22.4498 37.6481 21.3632C36.7586 20.4786 35.9929 19.721 35.6589 19.3821C34.5723 18.2776 33.4954 17.2007 32.412 16.1026L29.1048 12.8085C28.6324 13.0414 28.4532 13.2972 28.0736 13.6915C25.9557 15.8599 13.4681 28.0818 13.1635 28.7824" fill="white"/>
<path d="M55.0884 0H53.7069V59H55.0884V0Z" fill="white"/>
<path fill-rule="evenodd" clip-rule="evenodd" d="M129.994 15.1039H136.626L135.675 16.8373H132.099V18.8118H136.414V20.5388H132.099V22.1989H136.414V23.9388H129.994V15.1039ZM118.125 15.1039H120.359L122.839 22.0294L125.377 15.1039H127.563L124.319 23.9388H121.278L118.125 15.1039ZM115.651 15.1039V23.9388H113.533V15.1039H115.651ZM103.038 15.1039H111.149L110.139 16.8373H107.99V23.9388H105.895V16.8373H103.038V15.1039ZM94.9914 20.4231H97.3553L96.1758 17.0963L94.9914 20.4231ZM97.598 15.1039L100.806 23.9388H98.5902L97.9988 22.3373H95.9575L94.9229 20.586L93.6538 23.9388H91.373L94.6541 15.1039H97.598ZM82.5772 15.1039H89.2127L88.2629 16.8373H84.6869V18.8118H89.0026V20.5388H84.6869V22.1989H89.0026V23.9388H82.5804L82.5772 15.1039ZM74.1609 18.8982H76.1713C76.7209 18.934 77.1092 18.8656 77.3362 18.6929C77.561 18.5202 77.6832 18.2368 77.6995 17.8392C77.7214 17.6919 77.7012 17.5414 77.6412 17.4051C77.5812 17.2687 77.484 17.1521 77.3606 17.0686C77.1081 16.9057 76.7285 16.8243 76.2202 16.8406H74.1609V18.8982ZM72.043 15.1071H76.7855C77.0885 15.1071 77.3639 15.1169 77.6001 15.1381C77.8202 15.1545 78.0383 15.191 78.2518 15.2472C78.4387 15.2924 78.6163 15.3702 78.7763 15.477C78.94 15.591 79.0841 15.7308 79.2032 15.8908C79.4562 16.2032 79.6385 16.5667 79.7375 16.9562C79.8222 17.309 79.8654 17.6704 79.8663 18.0331C79.8672 18.3617 79.8328 18.6894 79.7636 19.0106C79.7027 19.3094 79.5703 19.5889 79.3775 19.8252C79.1968 20.0536 78.9638 20.2352 78.6981 20.3547C78.489 20.4549 78.2708 20.5351 78.0465 20.5941C77.8829 20.6312 77.7156 20.6493 77.548 20.6479L79.731 23.929H77.2775L74.1609 19.1426V23.9388H72.043V15.1071ZM69.4836 15.1071L68.4361 17.0279H66.6326C66.1956 17.0158 65.7594 17.0708 65.339 17.1908C65.0162 17.2904 64.7431 17.5087 64.575 17.8018C64.4153 18.0645 64.3003 18.3519 64.2345 18.6522C64.1804 18.9291 64.1537 19.2107 64.1546 19.4928C64.1546 19.6558 64.1546 19.8073 64.1709 19.9409C64.1827 20.0803 64.2078 20.2183 64.2459 20.353C64.2863 20.5021 64.3347 20.649 64.3909 20.7929C64.4577 20.9636 64.535 21.1301 64.6222 21.2914C64.7679 21.5983 65.0238 21.8391 65.339 21.9659C65.8101 22.0767 66.2941 22.1228 66.7776 22.1027H69.1839V23.9404H65.8262C65.4665 23.9438 65.1071 23.9204 64.7509 23.8704C64.4688 23.8325 64.1924 23.7597 63.9282 23.6537C63.6949 23.5604 63.4811 23.4245 63.2977 23.2529C63.1075 23.0697 62.9431 22.8614 62.8089 22.6339C62.5308 22.1646 62.327 21.6552 62.2045 21.1236C62.0897 20.6036 62.0324 20.0726 62.0335 19.5401C62.0302 19.0208 62.0816 18.5026 62.1866 17.994C62.3061 17.4703 62.5079 16.9688 62.7845 16.5082C63.0739 16.0043 63.5321 15.6189 64.0781 15.4199C64.7057 15.199 65.3678 15.0925 66.0331 15.1055L69.4836 15.1071Z" fill="white"/>
<path fill-rule="evenodd" clip-rule="evenodd" d="M124.453 27.8016H136.537L134.803 30.954H128.287V34.5512H136.149V37.6971H128.288V40.7289H136.15V43.8993H124.453V27.8016ZM123.674 27.8016L121.767 31.2994H118.469C117.672 31.2803 116.877 31.3836 116.112 31.6057C115.523 31.7863 115.025 32.1849 114.721 32.72C114.429 33.1985 114.219 33.722 114.098 34.2693C114 34.7738 113.951 35.2868 113.953 35.8007C113.953 36.1005 113.953 36.3726 113.983 36.6153C114.006 36.8694 114.052 37.1208 114.121 37.3664C114.194 37.638 114.282 37.9056 114.383 38.1679C114.506 38.4791 114.646 38.7827 114.805 39.077C115.165 39.7205 115.599 40.1278 116.109 40.3037C116.648 40.4666 117.523 40.5546 118.728 40.5546H123.114V43.9009H117.009C116.356 43.9065 115.702 43.864 115.055 43.7738C114.54 43.705 114.036 43.5726 113.554 43.3796C113.133 43.2081 112.746 42.9613 112.414 42.6513C112.065 42.3162 111.762 41.936 111.514 41.5207C111.003 40.6686 110.629 39.7418 110.405 38.774C110.195 37.8266 110.089 36.8591 110.09 35.8887C110.086 34.942 110.18 33.9975 110.371 33.0703C110.589 32.1165 110.957 31.2033 111.461 30.3642C111.988 29.4461 112.823 28.7439 113.818 28.3815C114.966 27.9787 116.176 27.785 117.392 27.8097L123.674 27.8016ZM99.1197 37.4934H103.426L101.278 31.4313L99.1197 37.4934ZM103.875 27.8016L109.721 43.896H105.675L104.592 40.9798H100.892L99.0073 37.7965L96.6939 43.9042H92.5363L98.4892 27.8097L103.875 27.8016ZM81.7301 34.9373H85.1154C86.081 34.9373 86.7435 34.8613 87.103 34.7092C87.4254 34.603 87.6963 34.3797 87.8622 34.0836C88.0108 33.7459 88.0799 33.3786 88.0642 33.01C88.0767 32.6715 88.0144 32.3344 87.8818 32.0227C87.6848 31.747 87.396 31.5506 87.0672 31.4688C86.6697 31.3401 86.0457 31.2766 85.2002 31.2766H81.7301V34.9373ZM81.7301 35.426V43.8977H77.8934V27.8016H86.8342C87.7224 27.7868 88.6071 27.9161 89.4539 28.1844C90.1659 28.4058 90.7725 28.8797 91.1596 29.5171C91.5111 30.0517 91.7704 30.6415 91.927 31.2619C92.1428 32.3909 92.1566 33.5493 91.9677 34.6831C91.8813 35.1507 91.6419 35.7421 91.2346 36.4605C90.8383 37.1786 90.1733 37.7101 89.3855 37.9382C88.5513 38.2086 87.4305 38.3471 86.0359 38.3471H84.1103L81.7301 35.426ZM76.7074 27.7967L74.7361 30.954H68.2879C67.9403 30.9215 67.5899 30.9418 67.2485 31.0143C67.0053 31.0698 66.7758 31.174 66.574 31.3205C66.4095 31.4444 66.2858 31.6146 66.2188 31.8093C66.1491 32.0061 66.1037 32.2108 66.0836 32.4186C66.0975 32.7074 66.185 32.9878 66.3378 33.2332C66.4224 33.368 66.5364 33.482 66.6712 33.5666C66.8061 33.6513 66.9583 33.7043 67.1165 33.7219C67.5885 33.7901 68.0652 33.8201 68.542 33.8115H71.1177C72.3298 33.8115 73.2878 33.9744 73.9915 34.3133C74.3631 34.4811 74.7031 34.7114 74.9967 34.9943C75.3109 35.2943 75.5799 35.6384 75.795 36.0158C76.0251 36.4257 76.2009 36.8638 76.318 37.3191C76.4485 37.8113 76.5142 38.3185 76.5135 38.8277C76.5391 39.9048 76.2729 40.9688 75.7429 41.9068C75.2672 42.754 74.6351 43.3063 73.8368 43.5621C73.0483 43.7901 72.0121 43.9025 70.7414 43.9025H62.2029V40.7289H69.86C70.2591 40.7628 70.6609 40.7414 71.0542 40.6654C71.3512 40.6074 71.6344 40.4929 71.8883 40.3282C72.088 40.2022 72.251 40.0257 72.3608 39.8166C72.4561 39.6203 72.4972 39.402 72.4797 39.1845C72.4736 38.9868 72.4271 38.7924 72.3431 38.6134C72.259 38.4343 72.1392 38.2744 71.9909 38.1435C71.6765 37.8518 71.2171 37.7362 70.6176 37.7916H67.4081C66.3182 37.7916 65.4173 37.6287 64.6988 37.3028C64.3148 37.1158 63.9633 36.8683 63.6578 36.5697C63.338 36.2548 63.0638 35.8967 62.8432 35.5059C62.6058 35.088 62.425 34.6404 62.3056 34.1748C62.175 33.6711 62.1104 33.1524 62.1133 32.632C62.0984 31.6509 62.3304 30.6817 62.7878 29.8136C62.9993 29.426 63.2895 29.0869 63.6399 28.8182C63.9927 28.5484 64.3873 28.3382 64.808 28.1958C65.2625 28.0407 65.733 27.9369 66.2107 27.8863C66.7298 27.8252 67.252 27.7953 67.7747 27.7967H76.7074Z" fill="white"/>
</g>
<defs>
<clipPath id="clip0_632_3077">
<rect width="136.626" height="59" fill="white"/>
</clipPath>
</defs>
</svg>
