<svg width="68" height="34" viewBox="0 0 68 34" fill="none" xmlns="http://www.w3.org/2000/svg">
<path fill-rule="evenodd" clip-rule="evenodd" d="M0.1875 16.581C0.331142 16.9922 2.19567 18.7 2.63974 19.1318L7.69632 24.1077C8.51311 24.9132 9.3928 25.8577 10.2077 26.5834C10.525 26.4895 12.1474 24.7442 12.5107 24.3828L18.2451 18.638C18.5868 18.301 19.1586 17.7827 19.4008 17.4485C19.2431 17.1255 17.2696 15.2084 16.9598 14.9343C16.3627 15.2422 10.6865 21.2705 10.2087 21.4921C9.5693 20.7992 8.54315 19.8407 7.7273 19.0586L5.86935 17.2532C5.63745 17.0288 5.39054 16.8655 5.276 16.581C6.75936 14.9343 10.5401 11.4071 12.368 9.57635L14.9798 6.97953C15.0962 6.85466 15.3 6.6575 15.4136 6.54578C17.0593 4.91972 16.9317 5.62572 16.9317 3.65416C16.9317 2.50972 16.9824 1.24323 16.9204 0.114746C16.696 0.154177 16.6068 0.302514 16.4106 0.500608C16.2351 0.683682 16.0539 0.866755 15.8802 1.03293C15.514 1.3925 15.1742 1.7164 14.808 2.08161L0.1875 16.581Z" fill="#0158BF"/>
<path fill-rule="evenodd" clip-rule="evenodd" d="M7.77234 16.581L9.60213 18.4409C9.67067 18.5103 9.81619 18.6652 9.88378 18.7328C10.1025 18.9431 10.0556 18.9309 10.3006 19.0145L16.956 12.4492L21.8962 17.3556L17.3231 21.9559C16.2904 22.9811 14.8671 24.4973 14.301 25.0137L10.7165 28.5681C10.5044 28.7699 10.3926 28.8976 10.3926 29.3098L10.3851 33.881C10.8564 33.6622 23.1158 21.3118 24.8789 19.5844C25.3192 19.1525 26.7143 17.9339 26.919 17.4485C26.8786 17.3874 26.8337 17.3293 26.7847 17.2748C26.7472 17.2316 26.7331 17.2147 26.7153 17.1969L26.643 17.1227L26.4092 16.8871L23.7673 14.2161C23.25 13.6744 22.513 12.9374 21.8831 12.3112C21.3705 11.8014 20.9292 11.3648 20.7367 11.1696C20.1105 10.533 19.49 9.91245 18.8656 9.27968L16.9598 7.38135C16.6875 7.5156 16.5843 7.663 16.3655 7.8902C15.145 9.13979 7.94884 16.1829 7.77328 16.5866" fill="#010066"/>
<g clip-path="url(#clip0_1567_450)">
<path fill-rule="evenodd" clip-rule="evenodd" d="M57.5333 7.43753L56.3017 9.38975H52.2737C52.0564 9.36936 51.8372 9.38174 51.6236 9.42646C51.4718 9.46109 51.3286 9.5257 51.2026 9.61642C51.101 9.69118 51.0239 9.79388 50.9808 9.91172C50.9384 10.0335 50.9113 10.1601 50.9001 10.2884C50.9098 10.4659 50.9653 10.6379 51.0615 10.7881C51.1135 10.8719 51.1842 10.9429 51.268 10.9959C51.3518 11.0488 51.4466 11.0823 51.5454 11.0937C51.8392 11.1357 52.1358 11.1544 52.4326 11.1496H54.0409C54.7985 11.1496 55.397 11.2528 55.8363 11.4593C56.0687 11.5626 56.2812 11.7049 56.4646 11.8799C56.6606 12.0658 56.8285 12.2787 56.9631 12.512C57.1071 12.7641 57.2169 13.0337 57.2898 13.3141C57.3714 13.6183 57.4123 13.9317 57.4115 14.2463C57.4115 14.9774 57.2502 15.6122 56.9276 16.1507C56.6308 16.6734 56.2356 17.0158 55.7379 17.1731C55.2443 17.3135 54.5991 17.3835 53.8022 17.383H48.4724V15.4276H53.2602C53.5093 15.4477 53.76 15.4342 54.0054 15.3877C54.1912 15.3518 54.3683 15.2811 54.5273 15.1794C54.6522 15.1005 54.7537 14.9904 54.8217 14.8601C54.8816 14.739 54.9075 14.6042 54.8967 14.4698C54.8926 14.3476 54.8632 14.2275 54.8105 14.1169C54.7578 14.0063 54.6829 13.9075 54.5902 13.8265C54.3942 13.6462 54.1062 13.5743 53.732 13.6086H51.7269C51.0461 13.6086 50.4832 13.5073 50.0331 13.3038C49.7949 13.1878 49.577 13.0347 49.3878 12.8504C49.1877 12.6561 49.0161 12.435 48.8781 12.1936C48.7292 11.9351 48.6158 11.6581 48.5409 11.3699C48.4605 11.0585 48.4207 10.7383 48.4224 10.4169C48.4138 9.8132 48.5574 9.21686 48.8402 8.68181C48.9733 8.44263 49.1548 8.23315 49.3733 8.06646C49.5926 7.90024 49.8378 7.77057 50.0992 7.68256C50.3835 7.58764 50.6776 7.5242 50.976 7.4934C51.3015 7.45526 51.629 7.4366 51.9567 7.43753H57.5366H57.5333ZM48.0159 7.43753L46.8222 9.60046H44.763C44.1645 9.60046 43.6736 9.66218 43.2902 9.78562C42.9224 9.89747 42.6115 10.1438 42.4207 10.4744C42.2385 10.7701 42.1073 11.0938 42.0328 11.4322C41.9711 11.744 41.9406 12.061 41.9416 12.3787C41.9416 12.5639 41.9416 12.7323 41.9602 12.8823C41.9744 13.0397 42.0033 13.1955 42.0465 13.3477C42.0917 13.5152 42.1455 13.6804 42.2078 13.8425C42.2848 14.0336 42.3729 14.2201 42.4715 14.4012C42.6966 14.8002 42.9676 15.0509 43.2878 15.1594C43.6241 15.264 44.171 15.3142 44.9243 15.3142H47.6666V17.3822H43.8508C43.442 17.3854 43.0336 17.3587 42.6288 17.3024C42.3074 17.2608 41.9924 17.1804 41.6908 17.0629C41.4261 16.9566 41.1831 16.8035 40.9737 16.6112C40.7545 16.4048 40.5645 16.1698 40.4092 15.9128C40.0916 15.3853 39.8597 14.8116 39.722 14.2128C39.5905 13.6272 39.5248 13.0289 39.526 12.429C39.5225 11.844 39.5812 11.2603 39.701 10.6875C39.837 10.0969 40.0665 9.53121 40.3809 9.01144C40.7125 8.44552 41.2352 8.01341 41.8569 7.7911C42.493 7.55539 43.2372 7.43753 44.0895 7.43753H48.0159Z" fill="#0159BF"/>
<path fill-rule="evenodd" clip-rule="evenodd" d="M63.8253 19.5311V25.5553H67.125L66.2983 27.0327H62.0186V19.5303L63.8253 19.5311ZM58.2221 19.5311V25.5553H61.521L60.6951 27.0327H56.4154V19.5303L58.2221 19.5311ZM55.604 19.5311V27.0335H53.7868V19.5311H55.604ZM48.3635 19.5311H53.4295L52.6447 21.006H50.1718V22.6821H53.2287V24.1482H50.1718V27.0351H48.3635V19.5311ZM44.5581 19.5311V25.5553H47.8578L47.031 27.0327H42.7514V19.5303L44.5581 19.5311ZM35.4012 19.5311H37.2103V23.8186C37.2 24.1424 37.2422 24.4658 37.3353 24.7764C37.4049 24.9965 37.5524 25.1844 37.7507 25.3055C37.9091 25.3953 38.0797 25.4622 38.2572 25.5042C38.3999 25.5315 38.545 25.5449 38.6903 25.5442C39.0123 25.5517 39.3303 25.4728 39.6106 25.3159C39.7386 25.2425 39.8504 25.1444 39.9394 25.0275C40.0283 24.9105 40.0926 24.7771 40.1285 24.6351C40.2157 24.2583 40.255 23.8722 40.2454 23.4858V19.5311H42.0537V23.829C42.0537 24.7005 41.9413 25.3428 41.7166 25.7557C41.4891 26.1603 41.2181 26.454 40.9011 26.6336C40.5817 26.8136 40.2333 26.9375 39.8712 26.9999C39.4713 27.0654 39.0666 27.0969 38.6613 27.0941C38.4339 27.0941 38.2242 27.0869 38.0306 27.0726C37.8411 27.0604 37.6525 27.0367 37.466 27.0015C37.2781 26.9659 37.0942 26.9124 36.9167 26.8419C36.7211 26.7665 36.5322 26.6749 36.3521 26.5681C35.9701 26.3401 35.694 25.9726 35.5835 25.545C35.4614 25.0863 35.4006 24.4664 35.4012 23.6853V19.5311ZM29.9375 19.5311H35.0035L34.2187 21.006H31.7458V22.6821H34.8019V24.1482H31.7458V27.0351H29.9375V19.5311Z" fill="#000066"/>
</g>
<defs>
<clipPath id="clip0_1567_450">
<rect width="37.1875" height="19.6562" fill="white" transform="translate(29.9375 7.4375)"/>
</clipPath>
</defs>
</svg>
