<svg width="117" height="59" viewBox="0 0 117 59" fill="none" xmlns="http://www.w3.org/2000/svg">
<path fill-rule="evenodd" clip-rule="evenodd" d="M0.53125 28.7726C0.780511 29.4861 4.01602 32.4496 4.78661 33.199L13.5613 41.8335C14.9786 43.2313 16.5052 44.8703 17.9193 46.1296C18.4699 45.9667 21.2851 42.9381 21.9156 42.3109L31.8665 32.342C32.4595 31.7572 33.4517 30.8579 33.872 30.2779C33.5983 29.7175 30.1738 26.3907 29.6362 25.915C28.6 26.4494 18.7501 36.9102 17.9209 37.2947C16.8114 36.0924 15.0308 34.429 13.615 33.0719L10.3909 29.939C9.98852 29.5497 9.56005 29.2662 9.36129 28.7726C11.9354 25.915 18.496 19.7943 21.668 16.6174L26.2003 12.1111C26.4023 11.8945 26.7558 11.5523 26.953 11.3585C29.8089 8.53677 29.5873 9.7619 29.5873 6.34066C29.5873 4.35472 29.6753 2.15698 29.5678 0.19873C29.1784 0.267155 29.0236 0.524562 28.6831 0.868315C28.3785 1.186 28.064 1.50369 27.7626 1.79205C27.1273 2.41602 26.5375 2.97808 25.9021 3.61182L0.53125 28.7726Z" fill="white"/>
<path fill-rule="evenodd" clip-rule="evenodd" d="M13.6932 28.7727L16.8684 32.0001C16.9873 32.1206 17.2399 32.3895 17.3572 32.5068C17.7367 32.8717 17.6553 32.8505 18.0805 32.9955L29.6296 21.6028L38.2023 30.1168L30.2666 38.0997C28.4745 39.8787 26.0047 42.5098 25.0224 43.4058L18.8022 49.5738C18.434 49.9241 18.2402 50.1457 18.2402 50.8609L18.2271 58.7932C19.045 58.4136 40.3185 36.9821 43.3781 33.9844C44.1422 33.235 46.5631 31.1203 46.9183 30.2781C46.8482 30.172 46.7703 30.0712 46.6853 29.9767C46.6201 29.9017 46.5957 29.8724 46.5647 29.8415L46.4393 29.7127L46.0336 29.3038L41.4492 24.6689C40.5515 23.7288 39.2726 22.45 38.1794 21.3633C37.2899 20.4787 36.5242 19.7211 36.1902 19.3823C35.1036 18.2777 34.0267 17.2008 32.9433 16.1028L29.6361 12.8086C29.1637 13.0416 28.9845 13.2973 28.6049 13.6916C26.487 15.86 13.9995 28.082 13.6948 28.7825" fill="white"/>
<g clip-path="url(#clip0_1602_2413)">
<path fill-rule="evenodd" clip-rule="evenodd" d="M100.043 12.9063L97.9059 16.294H90.9162C90.539 16.2586 90.1587 16.2801 89.7881 16.3577C89.5246 16.4178 89.2761 16.5299 89.0575 16.6873C88.8811 16.8171 88.7473 16.9953 88.6726 17.1998C88.5989 17.4111 88.5519 17.6307 88.5326 17.8535C88.5493 18.1614 88.6457 18.46 88.8125 18.7205C88.9029 18.8659 89.0254 18.9892 89.1709 19.0811C89.3163 19.173 89.4809 19.231 89.6523 19.2509C90.1621 19.3237 90.6769 19.3561 91.1919 19.3479H93.9828C95.2975 19.3479 96.336 19.527 97.0983 19.8852C97.5015 20.0646 97.8704 20.3115 98.1886 20.6151C98.5288 20.9377 98.8201 21.3071 99.0536 21.712C99.3035 22.1494 99.494 22.6174 99.6205 23.1039C99.7621 23.6317 99.8331 24.1756 99.8318 24.7216C99.8318 25.9902 99.5519 27.0918 98.992 28.0262C98.477 28.9333 97.7911 29.5275 96.9276 29.8003C96.071 30.0441 94.9513 30.1655 93.5685 30.1646H84.3197V26.7714H92.6279C93.0602 26.8063 93.4952 26.783 93.9212 26.7021C94.2436 26.6399 94.5509 26.5172 94.8267 26.3406C95.0435 26.2039 95.2197 26.0127 95.3376 25.7867C95.4416 25.5766 95.4866 25.3426 95.4678 25.1094C95.4606 24.8973 95.4097 24.6889 95.3183 24.4969C95.2268 24.305 95.0967 24.1335 94.9359 23.9931C94.5958 23.6801 94.0961 23.5554 93.4467 23.615H89.9672C88.7859 23.615 87.809 23.4391 87.028 23.0859C86.6146 22.8847 86.2366 22.6191 85.9083 22.2993C85.5611 21.9621 85.2633 21.5784 85.0237 21.1594C84.7653 20.7109 84.5685 20.2302 84.4387 19.7301C84.2992 19.1898 84.23 18.6341 84.2329 18.0765C84.2181 17.0288 84.4672 15.994 84.958 15.0655C85.1889 14.6504 85.5039 14.2869 85.8831 13.9977C86.2635 13.7092 86.689 13.4842 87.1428 13.3315C87.6361 13.1668 88.1463 13.0567 88.6642 13.0033C89.229 12.9371 89.7973 12.9047 90.3661 12.9063H100.049H100.043ZM83.5275 12.9063L81.4561 16.6596H77.8828C76.8443 16.6596 75.9924 16.7667 75.3271 16.9809C74.6889 17.175 74.1494 17.6024 73.8183 18.1762C73.502 18.6892 73.2745 19.251 73.1451 19.8382C73.0381 20.3792 72.9851 20.9294 72.9869 21.4807C72.9869 21.8021 72.9869 22.0943 73.0191 22.3547C73.0438 22.6278 73.094 22.8981 73.1689 23.1621C73.2473 23.4529 73.3408 23.7395 73.4488 24.0208C73.5824 24.3524 73.7352 24.6761 73.9065 24.9903C74.297 25.6828 74.7673 26.1177 75.3229 26.306C75.9066 26.4875 76.8555 26.5747 78.1628 26.5747H82.9215V30.1632H76.2999C75.5906 30.1688 74.8818 30.1225 74.1794 30.0247C73.6217 29.9526 73.075 29.813 72.5517 29.6092C72.0923 29.4247 71.6707 29.1591 71.3074 28.8253C70.9269 28.4671 70.5973 28.0594 70.3276 27.6134C69.7765 26.698 69.3741 25.7025 69.1352 24.6634C68.9071 23.6471 68.793 22.609 68.7951 21.568C68.789 20.5529 68.8908 19.54 69.0988 18.546C69.3348 17.521 69.733 16.5394 70.2787 15.6375C70.8541 14.6555 71.7611 13.9056 72.84 13.5199C73.9438 13.1108 75.2352 12.9063 76.7141 12.9063H83.5275Z" fill="white"/>
<path fill-rule="evenodd" clip-rule="evenodd" d="M110.962 33.8915V44.3454H116.688L115.253 46.909H107.826V33.8901L110.962 33.8915ZM101.238 33.8915V44.3454H106.963L105.53 46.909H98.1032V33.8901L101.238 33.8915ZM96.6952 33.8915V46.9104H93.5419V33.8915H96.6952ZM84.1308 33.8915H92.9218L91.56 36.451H87.2687V39.3594H92.5733V41.9037H87.2687V46.9131H84.1308V33.8915ZM77.5273 33.8915V44.3454H83.2532L81.8186 46.909H74.3921V33.8901L77.5273 33.8915ZM61.6373 33.8915H64.7767V41.3317C64.7588 41.8936 64.8321 42.4547 64.9936 42.9936C65.1143 43.3756 65.3703 43.7017 65.7144 43.9119C65.9894 44.0676 66.2853 44.1837 66.5934 44.2567C66.8411 44.3041 67.0928 44.3273 67.345 44.326C67.9037 44.339 68.4555 44.2021 68.942 43.9299C69.1641 43.8026 69.3581 43.6324 69.5124 43.4294C69.6668 43.2265 69.7784 42.9949 69.8406 42.7485C69.9919 42.0947 70.0601 41.4247 70.0435 40.7541V33.8915H73.1815V41.3497C73.1815 42.8621 72.9864 43.9765 72.5964 44.693C72.2017 45.3952 71.7314 45.9049 71.1814 46.2165C70.6271 46.5288 70.0224 46.7439 69.3941 46.8522C68.7002 46.9658 67.9979 47.0205 67.2946 47.0156C66.8999 47.0156 66.536 47.0032 66.2001 46.9782C65.8713 46.9571 65.5441 46.916 65.2204 46.855C64.8944 46.7931 64.5752 46.7003 64.2672 46.578C63.9278 46.4471 63.6 46.2882 63.2875 46.1029C62.6246 45.7073 62.1455 45.0695 61.9536 44.3274C61.7418 43.5315 61.6364 42.4558 61.6373 41.1004V33.8915ZM52.1562 33.8915H60.9473L59.5855 36.451H55.2942V39.3594H60.5974V41.9037H55.2942V46.9131H52.1562V33.8915Z" fill="white"/>
</g>
<defs>
<clipPath id="clip0_1602_2413">
<rect width="64.5312" height="34.1094" fill="white" transform="translate(52.1562 12.9062)"/>
</clipPath>
</defs>
</svg>
