<svg width="149" height="64" viewBox="0 0 149 64" fill="none" xmlns="http://www.w3.org/2000/svg">
<g clip-path="url(#clip0_5_12)">
<path fill-rule="evenodd" clip-rule="evenodd" d="M0 31.2109C0.270385 31.985 3.78009 35.1995 4.61599 36.0125L14.1343 45.3787C15.6717 46.895 17.3276 48.6728 18.8616 50.0389C19.4589 49.8622 22.5127 46.5769 23.1966 45.8965L33.9908 35.0829C34.6341 34.4485 35.7103 33.473 36.1662 32.8438C35.8693 32.2359 32.1546 28.6272 31.5715 28.1112C30.4475 28.6909 19.7629 40.0382 18.8633 40.4553C17.6599 39.151 15.7283 37.3467 14.1926 35.8746L10.6952 32.4762C10.2587 32.0539 9.79395 31.7464 9.57835 31.2109C12.3706 28.1112 19.4872 21.4717 22.928 18.0257L27.8444 13.1375C28.0635 12.9025 28.447 12.5314 28.6608 12.3211C31.7588 9.26023 31.5184 10.5892 31.5184 6.87801C31.5184 4.72376 31.6139 2.33978 31.4972 0.215576C31.0749 0.2898 30.907 0.569021 30.5376 0.941905C30.2072 1.28651 29.8661 1.63112 29.5391 1.94392C28.8499 2.62077 28.2102 3.23046 27.521 3.91791L0 31.2109Z" fill="#0158BF"/>
<path fill-rule="evenodd" clip-rule="evenodd" d="M14.2774 31.2109L17.7217 34.7118C17.8507 34.8426 18.1246 35.1342 18.2519 35.2614C18.6637 35.6573 18.5753 35.6343 19.0365 35.7916L31.5644 23.4334L40.8635 32.6689L32.2554 41.3283C30.3114 43.2581 27.6323 46.1122 26.5667 47.0841L19.8194 53.7749C19.42 54.1548 19.2097 54.3951 19.2097 55.171L19.1956 63.7756C20.0827 63.3638 43.1591 40.116 46.478 36.8643C47.3068 36.0514 49.9329 33.7575 50.3182 32.8439C50.2421 32.7288 50.1577 32.6195 50.0654 32.5169C49.9948 32.4356 49.9683 32.4038 49.9347 32.3702L49.7986 32.2306L49.3586 31.7871L44.3856 26.7593C43.4119 25.7396 42.0246 24.3524 40.8388 23.1736C39.8739 22.214 39.0433 21.3923 38.681 21.0247C37.5023 19.8265 36.3341 18.6584 35.1589 17.4672L31.5715 13.8939C31.059 14.1466 30.8646 14.4241 30.4528 14.8518C28.1554 17.2039 14.6096 30.4616 14.2792 31.2215" fill="#010066"/>
<path d="M59.7569 0H58.2583V64H59.7569V0Z" fill="#010066"/>
<path fill-rule="evenodd" clip-rule="evenodd" d="M141.01 16.3839H148.205L147.173 18.2642H143.294V20.4061H147.975V22.2794H143.294V24.0802H147.975V25.9676H141.01V16.3839ZM128.136 16.3839H130.559L133.249 23.8964L136.002 16.3839H138.374L134.855 25.9676H131.556L128.136 16.3839ZM125.452 16.3839V25.9676H123.154V16.3839H125.452ZM111.77 16.3839H120.569L119.473 18.2642H117.142V25.9676H114.87V18.2642H111.77V16.3839ZM103.042 22.1539H105.606L104.326 18.5452L103.042 22.1539ZM105.869 16.3839L109.349 25.9676H106.945L106.304 24.2304H104.089L102.967 22.3306L101.591 25.9676H99.1165L102.676 16.3839H105.869ZM89.5753 16.3839H96.7732L95.7429 18.2642H91.8638V20.4061H96.5452V22.2794H91.8638V24.0802H96.5452V25.9676H89.5788L89.5753 16.3839ZM80.4458 20.4998H82.6265C83.2227 20.5387 83.6439 20.4644 83.8901 20.2771C84.134 20.0898 84.2665 19.7823 84.2842 19.3511C84.3079 19.1913 84.286 19.028 84.221 18.8801C84.156 18.7322 84.0504 18.6057 83.9166 18.5152C83.6427 18.3385 83.2309 18.2501 82.6796 18.2678H80.4458V20.4998ZM78.1484 16.3874H83.2928C83.6215 16.3874 83.9201 16.398 84.1764 16.421C84.4151 16.4388 84.6518 16.4785 84.8833 16.5394C85.0861 16.5884 85.2787 16.6728 85.4523 16.7886C85.6298 16.9124 85.7862 17.0639 85.9153 17.2375C86.1898 17.5763 86.3875 17.9706 86.495 18.3932C86.5868 18.7759 86.6337 19.1679 86.6346 19.5614C86.6356 19.9178 86.5983 20.2733 86.5233 20.6217C86.4572 20.9458 86.3135 21.249 86.1044 21.5053C85.9084 21.7531 85.6556 21.9501 85.3675 22.0797C85.1406 22.1884 84.9039 22.2754 84.6606 22.3395C84.4832 22.3797 84.3017 22.3992 84.1198 22.3978L86.4879 25.957H83.8265L80.4458 20.7649V25.9676H78.1484V16.3874ZM75.3721 16.3874L74.2358 18.471H72.2794C71.8054 18.4579 71.3322 18.5175 70.8763 18.6477C70.5261 18.7557 70.2298 18.9926 70.0474 19.3104C69.8743 19.5955 69.7495 19.9072 69.6781 20.2329C69.6195 20.5333 69.5905 20.8387 69.5915 21.1448C69.5915 21.3215 69.5915 21.4859 69.6092 21.6308C69.622 21.7821 69.6492 21.9318 69.6905 22.0779C69.7343 22.2397 69.7868 22.3989 69.8477 22.5551C69.9203 22.7403 70.0041 22.9209 70.0987 23.0958C70.2568 23.4287 70.5344 23.6899 70.8763 23.8275C71.3872 23.9477 71.9122 23.9976 72.4367 23.9759H75.0469V25.9693H71.4047C71.0145 25.973 70.6247 25.9476 70.2383 25.8933C69.9322 25.8522 69.6325 25.7733 69.3459 25.6583C69.0929 25.5571 68.8609 25.4097 68.6619 25.2236C68.4556 25.0248 68.2772 24.7989 68.1318 24.552C67.8301 24.043 67.6089 23.4904 67.4761 22.9138C67.3516 22.3497 67.2894 21.7737 67.2906 21.1961C67.2871 20.6328 67.3427 20.0706 67.4567 19.519C67.5863 18.9508 67.8053 18.4068 68.1053 17.9073C68.4192 17.3607 68.9162 16.9426 69.5084 16.7268C70.1892 16.4871 70.9075 16.3716 71.6291 16.3857L75.3721 16.3874Z" fill="#0158BF"/>
<path fill-rule="evenodd" clip-rule="evenodd" d="M135 30.1577H148.107L146.227 33.5773H139.158V37.4793H147.687V40.8918H139.16V44.1806H147.689V47.6196H135V30.1577ZM134.155 30.1577L132.086 33.9519H128.509C127.645 33.9313 126.782 34.0433 125.952 34.2842C125.313 34.4802 124.773 34.9125 124.443 35.4929C124.126 36.012 123.898 36.5799 123.768 37.1736C123.661 37.7208 123.608 38.2772 123.61 38.8348C123.61 39.1599 123.61 39.4551 123.642 39.7184C123.667 39.994 123.717 40.2667 123.792 40.5331C123.872 40.8278 123.966 41.118 124.077 41.4025C124.209 41.7401 124.362 42.0694 124.534 42.3886C124.925 43.0867 125.395 43.5285 125.948 43.7194C126.533 43.8961 127.482 43.9915 128.79 43.9915H133.547V47.6214H126.926C126.216 47.6274 125.507 47.5813 124.805 47.4836C124.247 47.4089 123.7 47.2652 123.177 47.0559C122.72 46.8698 122.301 46.6021 121.94 46.2659C121.562 45.9024 121.234 45.4899 120.965 45.0395C120.411 44.1152 120.004 43.1098 119.761 42.0599C119.533 41.0324 119.419 39.9828 119.42 38.9302C119.415 37.9033 119.517 36.8787 119.724 35.8729C119.961 34.8383 120.36 33.8477 120.906 32.9375C121.479 31.9416 122.384 31.1799 123.464 30.7868C124.708 30.3498 126.022 30.1397 127.341 30.1665L134.155 30.1577ZM107.52 40.6709H112.19L109.861 34.0951L107.52 40.6709ZM112.678 30.1577L119.019 47.6161H114.631L113.456 44.4528H109.442L107.398 40.9996L104.888 47.6249H100.378L106.836 30.1665L112.678 30.1577ZM88.6563 37.8981H92.3286C93.376 37.8981 94.0947 37.8157 94.4846 37.6507C94.8343 37.5355 95.1282 37.2933 95.3081 36.9721C95.4693 36.6058 95.5443 36.2074 95.5273 35.8075C95.5408 35.4403 95.4733 35.0747 95.3294 34.7366C95.1157 34.4375 94.8024 34.2245 94.4457 34.1357C94.0145 33.9961 93.3377 33.9272 92.4205 33.9272H88.6563V37.8981ZM88.6563 38.4283V47.6179H84.4945V30.1577H94.193C95.1565 30.1417 96.1162 30.2819 97.0347 30.573C97.8071 30.8131 98.4651 31.3272 98.885 32.0186C99.2662 32.5986 99.5476 33.2383 99.7174 33.9113C99.9515 35.136 99.9665 36.3925 99.7616 37.6224C99.6679 38.1296 99.4081 38.7711 98.9663 39.5505C98.5364 40.3294 97.815 40.9059 96.9605 41.1534C96.0557 41.4467 94.8398 41.5969 93.3271 41.5969H91.2382L88.6563 38.4283ZM83.208 30.1524L81.0696 33.5773H74.075C73.698 33.5421 73.3178 33.5641 72.9475 33.6427C72.6837 33.7029 72.4348 33.8159 72.2158 33.9749C72.0374 34.1092 71.9032 34.2938 71.8306 34.5051C71.755 34.7186 71.7057 34.9405 71.6839 35.166C71.699 35.4792 71.7939 35.7834 71.9596 36.0496C72.0514 36.1959 72.175 36.3195 72.3213 36.4113C72.4676 36.5031 72.6327 36.5607 72.8043 36.5798C73.3163 36.6537 73.8334 36.6862 74.3506 36.677H77.1446C78.4594 36.677 79.4986 36.8537 80.262 37.2213C80.6651 37.4033 81.0339 37.6532 81.3524 37.96C81.6932 38.2854 81.9849 38.6587 82.2183 39.068C82.4679 39.5127 82.6586 39.988 82.7856 40.4818C82.9272 41.0158 82.9985 41.5659 82.9977 42.1183C83.0255 43.2866 82.7366 44.4408 82.1618 45.4583C81.6457 46.3773 80.9601 46.9764 80.0941 47.2538C79.2388 47.5012 78.1148 47.6232 76.7364 47.6232H67.4744V44.1806H75.7803C76.2132 44.2173 76.6491 44.1941 77.0757 44.1117C77.3979 44.0488 77.7051 43.9246 77.9805 43.7459C78.1972 43.6092 78.374 43.4178 78.493 43.191C78.5965 42.978 78.641 42.7413 78.622 42.5053C78.6154 42.2908 78.565 42.08 78.4738 41.8858C78.3826 41.6916 78.2526 41.5181 78.0919 41.376C77.7508 41.0597 77.2524 40.9342 76.6021 40.9943H73.1207C71.9384 40.9943 70.9611 40.8176 70.1818 40.4641C69.7651 40.2613 69.3839 39.9928 69.0525 39.6689C68.7056 39.3273 68.4082 38.9389 68.1689 38.5149C67.9114 38.0616 67.7152 37.5761 67.5857 37.0711C67.444 36.5246 67.374 35.962 67.3772 35.3975C67.361 34.3332 67.6126 33.2819 68.1088 32.3402C68.3382 31.9198 68.653 31.552 69.0331 31.2604C69.4158 30.9678 69.8438 30.7398 70.3002 30.5854C70.7933 30.4171 71.3036 30.3045 71.8217 30.2496C72.3848 30.1834 72.9513 30.1509 73.5183 30.1524H83.208Z" fill="#010066"/>
</g>
<defs>
<clipPath id="clip0_5_12">
<rect width="148.205" height="64" fill="white"/>
</clipPath>
</defs>
</svg>
