<svg width="79" height="34" viewBox="0 0 79 34" fill="none" xmlns="http://www.w3.org/2000/svg">
<path fill-rule="evenodd" clip-rule="evenodd" d="M0 16.581C0.143642 16.9922 2.00817 18.7 2.45224 19.1318L7.50882 24.1077C8.32561 24.9132 9.2053 25.8577 10.0202 26.5834C10.3375 26.4895 11.9599 24.7442 12.3232 24.3828L18.0576 18.638C18.3993 18.301 18.9711 17.7827 19.2133 17.4485C19.0556 17.1255 17.0821 15.2084 16.7723 14.9343C16.1752 15.2422 10.499 21.2705 10.0212 21.4921C9.3818 20.7992 8.35565 19.8407 7.5398 19.0586L5.68185 17.2532C5.44995 17.0288 5.20304 16.8655 5.0885 16.581C6.57186 14.9343 10.3526 11.4071 12.1805 9.57635L14.7923 6.97953C14.9087 6.85466 15.1125 6.65751 15.2261 6.54578C16.8718 4.91972 16.7442 5.62572 16.7442 3.65416C16.7442 2.50972 16.7949 1.24323 16.7329 0.114746C16.5085 0.154177 16.4193 0.302514 16.2231 0.500608C16.0476 0.683682 15.8664 0.866755 15.6927 1.03293C15.3265 1.3925 14.9867 1.7164 14.6205 2.08161L0 16.581Z" fill="#0158BF"/>
<path fill-rule="evenodd" clip-rule="evenodd" d="M7.58496 16.581L9.41476 18.4409C9.48329 18.5103 9.62881 18.6652 9.69641 18.7328C9.91516 18.9431 9.86821 18.9309 10.1133 19.0145L16.7687 12.4492L21.7088 17.3556L17.1358 21.9559C16.103 22.9811 14.6798 24.4973 14.1136 25.0137L10.5292 28.5681C10.317 28.7699 10.2053 28.8976 10.2053 29.3098L10.1977 33.881C10.669 33.6622 22.9284 21.3118 24.6915 19.5844C25.1318 19.1525 26.5269 17.9339 26.7316 17.4485C26.6912 17.3874 26.6464 17.3293 26.5974 17.2748C26.5598 17.2316 26.5457 17.2147 26.5279 17.1969L26.4556 17.1227L26.2218 16.8871L23.5799 14.2161C23.0626 13.6744 22.3256 12.9374 21.6957 12.3112C21.1831 11.8014 20.7418 11.3648 20.5494 11.1696C19.9232 10.533 19.3026 9.91245 18.6783 9.27968L16.7724 7.38135C16.5002 7.5156 16.3969 7.663 16.1781 7.8902C14.9577 9.13979 7.76146 16.1829 7.5859 16.5866" fill="#010066"/>
<path d="M31.7463 0H30.9502V34H31.7463V0Z" fill="#010066"/>
<g clip-path="url(#clip0_1502_3781)">
<path fill-rule="evenodd" clip-rule="evenodd" d="M63.7204 7.43753L62.4888 9.38975H58.4608C58.2435 9.36936 58.0243 9.38174 57.8107 9.42646C57.6589 9.46109 57.5157 9.5257 57.3897 9.61642C57.2881 9.69118 57.2109 9.79388 57.1679 9.91172C57.1254 10.0335 57.0984 10.1601 57.0872 10.2884C57.0969 10.4659 57.1524 10.6379 57.2485 10.7881C57.3006 10.8719 57.3712 10.9429 57.455 10.9959C57.5389 11.0488 57.6337 11.0823 57.7325 11.0937C58.0262 11.1357 58.3229 11.1544 58.6197 11.1496H60.228C60.9856 11.1496 61.5841 11.2528 62.0234 11.4593C62.2558 11.5626 62.4683 11.7049 62.6517 11.8799C62.8477 12.0658 63.0156 12.2787 63.1502 12.512C63.2942 12.7641 63.404 13.0337 63.4768 13.3141C63.5584 13.6183 63.5994 13.9317 63.5986 14.2463C63.5986 14.9774 63.4373 15.6122 63.1147 16.1507C62.8179 16.6734 62.4227 17.0158 61.925 17.1731C61.4314 17.3135 60.7861 17.3835 59.9892 17.383H54.6595V15.4276H59.4472C59.6963 15.4477 59.947 15.4342 60.1925 15.3877C60.3783 15.3518 60.5554 15.2811 60.7143 15.1794C60.8392 15.1005 60.9408 14.9904 61.0087 14.8601C61.0687 14.739 61.0946 14.6042 61.0838 14.4698C61.0796 14.3476 61.0503 14.2275 60.9976 14.1169C60.9449 14.0063 60.8699 13.9075 60.7773 13.8265C60.5813 13.6462 60.2933 13.5743 59.9191 13.6086H57.9139C57.2332 13.6086 56.6702 13.5073 56.2202 13.3038C55.982 13.1878 55.7641 13.0347 55.5749 12.8504C55.3748 12.6561 55.2032 12.435 55.0652 12.1936C54.9162 11.9351 54.8028 11.6581 54.728 11.3699C54.6476 11.0585 54.6078 10.7383 54.6095 10.4169C54.6009 9.8132 54.7445 9.21686 55.0273 8.68181C55.1604 8.44263 55.3418 8.23315 55.5604 8.06646C55.7796 7.90024 56.0248 7.77057 56.2863 7.68256C56.5706 7.58764 56.8646 7.5242 57.163 7.4934C57.4885 7.45526 57.8161 7.4366 58.1438 7.43753H63.7236H63.7204ZM54.2029 7.43753L53.0092 9.60046H50.9501C50.3516 9.60046 49.8607 9.66218 49.4773 9.78562C49.1095 9.89747 48.7986 10.1438 48.6078 10.4744C48.4255 10.7701 48.2944 11.0938 48.2198 11.4322C48.1582 11.744 48.1276 12.061 48.1287 12.3787C48.1287 12.5639 48.1287 12.7323 48.1472 12.8823C48.1615 13.0397 48.1904 13.1955 48.2336 13.3477C48.2788 13.5152 48.3326 13.6804 48.3949 13.8425C48.4719 14.0336 48.5599 14.2201 48.6586 14.4012C48.8836 14.8002 49.1547 15.0509 49.4749 15.1594C49.8112 15.264 50.358 15.3142 51.1114 15.3142H53.8537V17.3822H50.0378C49.6291 17.3854 49.2207 17.3587 48.8159 17.3024C48.4945 17.2608 48.1795 17.1804 47.8779 17.0629C47.6131 16.9566 47.3702 16.8035 47.1608 16.6112C46.9415 16.4048 46.7516 16.1698 46.5962 15.9128C46.2786 15.3853 46.0467 14.8116 45.909 14.2128C45.7776 13.6272 45.7119 13.0289 45.713 12.429C45.7096 11.844 45.7682 11.2603 45.8881 10.6875C46.0241 10.0969 46.2536 9.53121 46.568 9.01144C46.8996 8.44552 47.4223 8.01341 48.044 7.7911C48.6801 7.55539 49.4243 7.43753 50.2766 7.43753H54.2029Z" fill="#0159BF"/>
<path fill-rule="evenodd" clip-rule="evenodd" d="M70.0128 19.5311V25.5553H73.3125L72.4858 27.0327H68.2061V19.5303L70.0128 19.5311ZM64.4096 19.5311V25.5553H67.7085L66.8826 27.0327H62.6029V19.5303L64.4096 19.5311ZM61.7915 19.5311V27.0335H59.9743V19.5311H61.7915ZM54.551 19.5311H59.617L58.8322 21.006H56.3593V22.6821H59.4162V24.1482H56.3593V27.0351H54.551V19.5311ZM50.7456 19.5311V25.5553H54.0453L53.2185 27.0327H48.9389V19.5303L50.7456 19.5311ZM41.5887 19.5311H43.3978V23.8186C43.3875 24.1424 43.4297 24.4658 43.5228 24.7764C43.5924 24.9965 43.7399 25.1844 43.9382 25.3055C44.0966 25.3953 44.2672 25.4622 44.4447 25.5042C44.5874 25.5315 44.7325 25.5449 44.8778 25.5442C45.1998 25.5517 45.5178 25.4728 45.7981 25.3159C45.9261 25.2425 46.0379 25.1444 46.1269 25.0275C46.2158 24.9105 46.2801 24.7771 46.316 24.6351C46.4032 24.2583 46.4425 23.8722 46.4329 23.4858V19.5311H48.2412V23.829C48.2412 24.7005 48.1288 25.3428 47.9041 25.7557C47.6766 26.1603 47.4056 26.454 47.0886 26.6336C46.7692 26.8136 46.4208 26.9375 46.0587 26.9999C45.6588 27.0654 45.2541 27.0969 44.8488 27.0941C44.6214 27.0941 44.4117 27.0869 44.2181 27.0726C44.0286 27.0604 43.84 27.0367 43.6535 27.0015C43.4656 26.9659 43.2817 26.9124 43.1042 26.8419C42.9086 26.7665 42.7197 26.6749 42.5396 26.5682C42.1576 26.3401 41.8815 25.9726 41.771 25.545C41.6489 25.0863 41.5881 24.4664 41.5887 23.6853V19.5311ZM36.125 19.5311H41.191L40.4062 21.006H37.9333V22.6821H40.9894V24.1482H37.9333V27.0351H36.125V19.5311Z" fill="#000066"/>
</g>
<defs>
<clipPath id="clip0_1502_3781">
<rect width="37.1875" height="19.6562" fill="white" transform="translate(36.125 7.4375)"/>
</clipPath>
</defs>
</svg>
