<svg width="75" height="32" viewBox="0 0 75 32" fill="none" xmlns="http://www.w3.org/2000/svg">
<g clip-path="url(#clip0_5_17)">
<path fill-rule="evenodd" clip-rule="evenodd" d="M0 15.6055C0.135193 15.9925 1.89005 17.5998 2.30799 18.0062L7.06713 22.6894C7.83587 23.4475 8.66381 24.3364 9.43079 25.0195C9.72945 24.9311 11.2563 23.2885 11.5983 22.9483L16.9954 17.5415C17.317 17.2242 17.8551 16.7365 18.0831 16.4219C17.9347 16.118 16.0773 14.3136 15.7857 14.0556C15.2237 14.3454 9.88143 20.0191 9.43167 20.2276C8.82993 19.5755 7.86415 18.6734 7.09629 17.9373L5.34762 16.2381C5.12937 16.027 4.89698 15.8732 4.78918 15.6055C6.18528 14.0556 9.74359 10.7359 11.464 9.01284L13.9222 6.56877C14.0318 6.45125 14.2235 6.26569 14.3304 6.16054C15.8794 4.63013 15.7592 5.2946 15.7592 3.43902C15.7592 2.3619 15.8069 1.1699 15.7486 0.107803C15.5374 0.144915 15.4535 0.284526 15.2688 0.470968C15.1036 0.643272 14.933 0.815576 14.7696 0.971976C14.425 1.3104 14.1051 1.61525 13.7605 1.95897L0 15.6055Z" fill="#41414E"/>
<path fill-rule="evenodd" clip-rule="evenodd" d="M7.1387 15.6055L8.86086 17.3559C8.92536 17.4213 9.06232 17.5671 9.12594 17.6307C9.33183 17.8286 9.28764 17.8172 9.51827 17.8958L15.7822 11.7167L20.4318 16.3345L16.1277 20.6641C15.1557 21.6291 13.8162 23.0561 13.2833 23.5421L9.90971 26.8874C9.71001 27.0774 9.60486 27.1976 9.60486 27.5855L9.59779 31.8878C10.0414 31.6819 21.5796 20.058 23.239 18.4321C23.6534 18.0257 24.9665 16.8788 25.1591 16.4219C25.1211 16.3644 25.0788 16.3097 25.0327 16.2585C24.9974 16.2178 24.9841 16.2019 24.9673 16.1851L24.8993 16.1153L24.6793 15.8935L22.1928 13.3797C21.7059 12.8698 21.0123 12.1762 20.4194 11.5868C19.9369 11.107 19.5216 10.6961 19.3405 10.5123C18.7511 9.91324 18.1671 9.32918 17.5795 8.73362L15.7857 6.94696C15.5295 7.07332 15.4323 7.21204 15.2264 7.42588C14.0777 8.60197 7.30482 15.2308 7.13958 15.6108" fill="#41414E"/>
<path d="M29.8785 0H29.1291V32H29.8785V0Z" fill="#41414E"/>
<path fill-rule="evenodd" clip-rule="evenodd" d="M70.5052 8.19197H74.1023L73.5863 9.13213H71.6468V10.2031H73.9875V11.1397H71.6468V12.0401H73.9875V12.9838H70.5052V8.19197ZM64.068 8.19197H65.2795L66.6243 11.9482L68.001 8.19197H69.1868L67.4275 12.9838H65.7778L64.068 8.19197ZM62.7258 8.19197V12.9838H61.5771V8.19197H62.7258ZM55.8849 8.19197H60.2844L59.7366 9.13213H58.5711V12.9838H57.4348V9.13213H55.8849V8.19197ZM51.5208 11.077H52.8029L52.1631 9.27263L51.5208 11.077ZM52.9345 8.19197L54.6744 12.9838H53.4727L53.1519 12.1152H52.0447L51.4836 11.1653L50.7953 12.9838H49.5583L51.3378 8.19197H52.9345ZM44.7876 8.19197H48.3866L47.8714 9.13213H45.9319V10.2031H48.2726V11.1397H45.9319V12.0401H48.2726V12.9838H44.7894L44.7876 8.19197ZM40.2229 10.2499H41.3133C41.6113 10.2693 41.8219 10.2322 41.9451 10.1386C42.067 10.0449 42.1333 9.89116 42.1421 9.67556C42.154 9.59565 42.143 9.51402 42.1105 9.44007C42.078 9.36612 42.0252 9.30287 41.9583 9.25761C41.8213 9.16925 41.6155 9.12507 41.3398 9.1339H40.2229V10.2499ZM39.0742 8.19374H41.6464C41.8107 8.19374 41.9601 8.19904 42.0882 8.21053C42.2076 8.21943 42.3259 8.23924 42.4416 8.26973C42.5431 8.29424 42.6394 8.33641 42.7262 8.39432C42.8149 8.45619 42.8931 8.53198 42.9577 8.61876C43.0949 8.78819 43.1938 8.98534 43.2475 9.19664C43.2934 9.38795 43.3168 9.58396 43.3173 9.78071C43.3178 9.95891 43.2991 10.1367 43.2616 10.3109C43.2286 10.4729 43.1568 10.6245 43.0522 10.7527C42.9542 10.8766 42.8278 10.9751 42.6838 11.0399C42.5703 11.0942 42.452 11.1377 42.3303 11.1697C42.2416 11.1899 42.1509 11.1996 42.0599 11.1989L43.244 12.9785H41.9132L40.2229 10.3824V12.9838H39.0742V8.19374ZM37.686 8.19374L37.1179 9.23552H36.1397C35.9027 9.22897 35.6661 9.25877 35.4381 9.32388C35.263 9.37788 35.1149 9.4963 35.0237 9.65523C34.9371 9.79774 34.8747 9.9536 34.839 10.1165C34.8097 10.2667 34.7952 10.4194 34.7957 10.5724C34.7957 10.6608 34.7957 10.743 34.8046 10.8154C34.811 10.8911 34.8246 10.9659 34.8452 11.039C34.8672 11.1198 34.8934 11.1995 34.9239 11.2775C34.9601 11.3701 35.002 11.4604 35.0493 11.5479C35.1284 11.7144 35.2672 11.845 35.4381 11.9137C35.6936 11.9739 35.9561 11.9988 36.2184 11.988H37.5235V12.9847H35.7023C35.5073 12.9865 35.3123 12.9738 35.1192 12.9467C34.9661 12.9261 34.8162 12.8867 34.6729 12.8292C34.5464 12.7786 34.4305 12.7049 34.331 12.6118C34.2278 12.5124 34.1386 12.3994 34.0659 12.276C33.915 12.0215 33.8045 11.7452 33.7381 11.4569C33.6758 11.1749 33.6447 10.8869 33.6453 10.598C33.6435 10.3164 33.6714 10.0353 33.7283 9.7595C33.7932 9.47543 33.9026 9.20344 34.0526 8.95364C34.2096 8.68035 34.4581 8.47129 34.7542 8.36339C35.0946 8.24356 35.4538 8.1858 35.8146 8.19285L37.686 8.19374Z" fill="#41414E"/>
<path fill-rule="evenodd" clip-rule="evenodd" d="M67.5 15.0788H74.0537L73.1136 16.7886H69.5791V18.7396H73.8434V20.4459H69.58V22.0903H73.8443V23.8098H67.5V15.0788ZM67.0776 15.0788L66.0429 16.9759H64.2545C63.8223 16.9656 63.3911 17.0216 62.9759 17.1421C62.6566 17.2401 62.3867 17.4562 62.2213 17.7465C62.0631 18.006 61.949 18.2899 61.8838 18.5868C61.8305 18.8604 61.8042 19.1386 61.8051 19.4174C61.8051 19.58 61.8051 19.7275 61.821 19.8592C61.8336 19.997 61.8587 20.1333 61.8961 20.2665C61.9358 20.4139 61.9832 20.559 62.0384 20.7013C62.1047 20.8701 62.1811 21.0347 62.2672 21.1943C62.4625 21.5433 62.6976 21.7642 62.9741 21.8597C63.2666 21.948 63.7411 21.9957 64.395 21.9957H66.7737V23.8107H63.4628C63.1081 23.8137 62.7537 23.7907 62.4024 23.7418C62.1234 23.7044 61.85 23.6326 61.5886 23.5279C61.3602 23.4349 61.1506 23.3011 60.9701 23.133C60.7809 22.9512 60.6169 22.745 60.4823 22.5197C60.2053 22.0576 60.0022 21.5549 59.8806 21.03C59.7666 20.5162 59.7094 19.9914 59.7101 19.4651C59.7075 18.9516 59.7584 18.4393 59.862 17.9364C59.9806 17.4191 60.1801 16.9238 60.4532 16.4688C60.7393 15.9708 61.1921 15.5899 61.7318 15.3934C62.3542 15.1749 63.0109 15.0698 63.6704 15.0833L67.0776 15.0788ZM53.7598 20.3354H56.0952L54.9306 17.0475L53.7598 20.3354ZM56.3391 15.0788L59.5095 23.808H57.3155L56.7279 22.2264H54.7212L53.6989 20.4998L52.4441 23.8124H50.1892L53.4179 15.0833L56.3391 15.0788ZM44.3282 18.9491H46.1643C46.688 18.9491 47.0473 18.9078 47.2423 18.8253C47.4172 18.7677 47.5641 18.6467 47.6541 18.486C47.7347 18.3029 47.7721 18.1037 47.7636 17.9037C47.7704 17.7201 47.7366 17.5373 47.6647 17.3683C47.5578 17.2188 47.4012 17.1122 47.2229 17.0678C47.0073 16.998 46.6688 16.9636 46.2102 16.9636H44.3282V18.9491ZM44.3282 19.2141V23.8089H42.2472V15.0788H47.0965C47.5782 15.0708 48.0581 15.141 48.5174 15.2865C48.9036 15.4066 49.2326 15.6636 49.4425 16.0093C49.6331 16.2993 49.7738 16.6191 49.8587 16.9556C49.9758 17.568 49.9832 18.1962 49.8808 18.8112C49.8339 19.0648 49.7041 19.3856 49.4831 19.7752C49.2682 20.1647 48.9075 20.4529 48.4802 20.5767C48.0278 20.7233 47.4199 20.7985 46.6635 20.7985H45.6191L44.3282 19.2141ZM41.604 15.0762L40.5348 16.7886H37.0375C36.849 16.771 36.6589 16.782 36.4737 16.8213C36.3418 16.8514 36.2174 16.908 36.1079 16.9874C36.0187 17.0546 35.9516 17.1469 35.9153 17.2525C35.8775 17.3593 35.8529 17.4703 35.8419 17.583C35.8495 17.7396 35.8969 17.8917 35.9798 18.0248C36.0257 18.0979 36.0875 18.1597 36.1607 18.2056C36.2338 18.2515 36.3163 18.2803 36.4022 18.2899C36.6582 18.3268 36.9167 18.3431 37.1753 18.3385H38.5723C39.2297 18.3385 39.7493 18.4268 40.131 18.6106C40.3325 18.7016 40.5169 18.8266 40.6762 18.98C40.8466 19.1427 40.9925 19.3293 41.1092 19.534C41.2339 19.7563 41.3293 19.994 41.3928 20.2409C41.4636 20.5079 41.4992 20.7829 41.4988 21.0591C41.5127 21.6433 41.3683 22.2204 41.0809 22.7291C40.8229 23.1886 40.48 23.4882 40.0471 23.6269C39.6194 23.7506 39.0574 23.8116 38.3682 23.8116H33.7372V22.0903H37.8902C38.1066 22.1086 38.3246 22.097 38.5378 22.0558C38.699 22.0244 38.8526 21.9623 38.9903 21.8729C39.0986 21.8046 39.187 21.7089 39.2465 21.5955C39.2982 21.489 39.3205 21.3706 39.311 21.2526C39.3077 21.1454 39.2825 21.04 39.2369 20.9429C39.1913 20.8458 39.1263 20.759 39.0459 20.688C38.8754 20.5298 38.6262 20.4671 38.301 20.4971H36.5603C35.9692 20.4971 35.4806 20.4088 35.0909 20.2321C34.8826 20.1306 34.6919 19.9964 34.5262 19.8344C34.3528 19.6636 34.2041 19.4694 34.0844 19.2574C33.9557 19.0308 33.8576 18.788 33.7929 18.5355C33.722 18.2623 33.687 17.981 33.6886 17.6987C33.6805 17.1666 33.8063 16.6409 34.0544 16.1701C34.1691 15.9599 34.3265 15.776 34.5165 15.6302C34.7079 15.4839 34.9219 15.3699 35.1501 15.2927C35.3966 15.2085 35.6518 15.1522 35.9109 15.1248C36.1924 15.0917 36.4757 15.0754 36.7591 15.0762H41.604Z" fill="#41414E"/>
</g>
<defs>
<clipPath id="clip0_5_17">
<rect width="74.1023" height="32" fill="white"/>
</clipPath>
</defs>
</svg>
