<svg width="50" height="30" viewBox="0 0 50 30" fill="none" xmlns="http://www.w3.org/2000/svg">
<path fill-rule="evenodd" clip-rule="evenodd" d="M0 0H50V30H0V0Z" fill="white"/>
<path d="M21.5244 8.38208H28.9284V21.9531H21.5244V8.38208Z" fill="#FF5F00"/>
<path d="M21.9948 15.1686C21.9918 12.5201 23.1833 10.0171 25.2263 8.38214C21.7568 5.60114 16.7748 6.00614 13.7813 9.31214C10.7878 12.6186 10.7878 17.7161 13.7813 21.0221C16.7748 24.3286 21.7568 24.7336 25.2263 21.9526C23.1843 20.3176 21.9923 17.8166 21.9943 15.1686H21.9948Z" fill="#EB001B"/>
<path d="M38.9176 15.1685C38.9176 18.4725 37.0676 21.487 34.1541 22.931C31.2401 24.3745 27.7736 23.995 25.2266 21.9525C27.2676 20.3165 28.4596 17.815 28.4596 15.1675C28.4596 12.5195 27.2676 10.018 25.2266 8.38198C27.7736 6.33948 31.2401 5.95998 34.1541 7.40398C37.0681 8.84748 38.9176 11.862 38.9176 15.166V15.1685ZM38.1091 20.636V20.257H38.2196V20.179H37.9396V20.257H38.0596V20.636H38.1091ZM38.6521 20.636V20.179H38.5676L38.4691 20.5055L38.3701 20.179H38.2951V20.636H38.3561V20.293L38.4476 20.5905H38.5111L38.6031 20.293V20.6395L38.6521 20.636Z" fill="#F79E1B"/>
</svg>
