<svg width="25" height="24" viewBox="0 0 25 24" fill="none" xmlns="http://www.w3.org/2000/svg">
<path d="M12.6716 21H9.5C7.61438 21 6.67157 21 6.08579 20.4142C5.5 19.8284 5.5 18.8856 5.5 17V7C5.5 5.11438 5.5 4.17157 6.08579 3.58579C6.67157 3 7.61438 3 9.5 3H15.5C17.3856 3 18.3284 3 18.9142 3.58579C19.5 4.17157 19.5 5.11438 19.5 7V14.1716C19.5 14.5803 19.5 14.7847 19.4239 14.9685C19.3478 15.1522 19.2032 15.2968 18.9142 15.5858L14.0858 20.4142C13.7968 20.7032 13.6522 20.8478 13.4685 20.9239C13.2847 21 13.0803 21 12.6716 21Z" stroke="white"/>
<path d="M12.5 21V16.3333C12.5 15.2334 12.5 14.6834 12.8417 14.3417C13.1834 14 13.7334 14 14.8333 14H19.5" stroke="white"/>
</svg>
