<svg width="46" height="46" viewBox="0 0 46 46" fill="none" xmlns="http://www.w3.org/2000/svg">
<rect width="46" height="46" rx="23" fill="#E1DFDF"/>
<path d="M31.9055 13.4167H14.0817C11.8289 13.4167 10.6504 14.5847 10.6504 16.8166V17.7553H35.3367V16.8166C35.3367 14.5847 34.1686 13.4167 31.9055 13.4167ZM15.0099 28.1534C14.3945 28.1534 13.9774 27.7466 13.9774 27.1522V25.2227C13.9774 24.6387 14.3945 24.2215 15.0099 24.2215H17.5651C18.17 24.2215 18.5872 24.6387 18.5872 25.2227V27.1522C18.5872 27.7466 18.17 28.1534 17.5651 28.1534H15.0099ZM14.0817 31.4908H31.9055C34.1686 31.4908 35.3367 30.3123 35.3367 28.0804V20.2062H10.6504V28.0804C10.6504 30.3227 11.8289 31.4908 14.0817 31.4908Z" fill="#4C4441"/>
</svg>
