<svg width="158" height="42" viewBox="0 0 158 42" fill="none" xmlns="http://www.w3.org/2000/svg">
<g clip-path="url(#clip0_64_975)">
<path d="M18.9169 5.21541e-07H6.64343C6.2319 -0.00367191 5.83318 0.143039 5.52218 0.412576C5.21117 0.682114 5.00928 1.05593 4.95442 1.46381L0 32.8794C0 33.1183 0.0949059 33.3474 0.263839 33.5163C0.432773 33.6853 0.661896 33.7802 0.900804 33.7802H6.86863C7.2377 33.8215 7.6095 33.7312 7.9185 33.5252C8.22749 33.3192 8.45384 33.0107 8.55764 32.6542L9.90885 24.0965C9.90493 23.7147 10.0398 23.3444 10.2883 23.0544C10.5368 22.7645 10.8821 22.5746 11.2601 22.5201H15.0885C16.7722 22.7559 18.4863 22.6488 20.1276 22.2053C21.7689 21.7617 23.3036 20.9909 24.6394 19.9391C25.9752 18.8873 27.0845 17.5762 27.9007 16.0847C28.7168 14.5933 29.223 12.9521 29.3887 11.2601C29.7289 9.91172 29.7639 8.50447 29.4912 7.1409C29.2185 5.77732 28.6449 4.49179 27.8123 3.37802C26.6661 2.19977 25.2757 1.2868 23.739 0.70322C22.2022 0.119641 20.5563 -0.120385 18.9169 5.21541e-07ZM20.3807 11.2601C19.7051 15.6515 16.3271 15.6515 13.0617 15.6515H11.2601L12.4987 7.65684C12.5468 7.41698 12.6717 7.19933 12.8546 7.0368C13.0374 6.87427 13.2682 6.77571 13.5121 6.75603H14.3003C16.5523 6.75603 18.6917 6.75603 19.7051 8.10724C20.0402 8.552 20.2743 9.06452 20.391 9.60905C20.5077 10.1536 20.5042 10.717 20.3807 11.2601ZM55.6247 11.2601H49.6568C49.4277 11.2725 49.2079 11.3547 49.0268 11.4956C48.8457 11.6364 48.7119 11.8293 48.6434 12.0483V13.7373V13.1743C47.6532 12.2389 46.4403 11.5721 45.12 11.2371C43.7997 10.9021 42.4156 10.91 41.0992 11.2601C37.9317 11.295 34.8771 12.4417 32.4691 14.4998C30.0611 16.5579 28.4527 19.3967 27.9249 22.5201C27.6383 24.0954 27.6909 25.7137 28.0792 27.2671C28.4675 28.8204 29.1827 30.2731 30.1769 31.5281C31.1072 32.5547 32.2616 33.3529 33.5505 33.8607C34.8395 34.3684 36.2281 34.5721 37.6086 34.4558C39.1173 34.4646 40.6124 34.1701 42.0051 33.5898C43.3978 33.0095 44.6597 32.1552 45.7158 31.0777V32.7668C45.7002 32.9 45.7112 33.035 45.7481 33.1639C45.785 33.2929 45.8472 33.4132 45.931 33.518C46.0148 33.6227 46.1185 33.7098 46.2362 33.7741C46.3539 33.8384 46.4832 33.8788 46.6166 33.8928H52.0215C52.4222 33.9254 52.8203 33.8037 53.1343 33.5525C53.4482 33.3013 53.6544 32.9397 53.7105 32.5416L56.3003 12.4987C56.4587 12.3314 56.5469 12.1097 56.5469 11.8794C56.5469 11.649 56.4587 11.4274 56.3003 11.2601H55.6247ZM47.4048 22.5201C47.1838 24.1114 46.384 25.5653 45.1584 26.604C43.9328 27.6426 42.3674 28.1931 40.7614 28.1501C40.0296 28.188 39.2983 28.0666 38.6179 27.7945C37.9375 27.5223 37.3242 27.1058 36.8204 26.5737C36.3717 26.0111 36.0574 25.3535 35.9013 24.6511C35.7452 23.9486 35.7514 23.2198 35.9196 22.5201C36.1384 20.9484 36.9219 19.5102 38.1238 18.4741C39.3257 17.438 40.8637 16.8749 42.4504 16.8901C43.1822 16.8522 43.9136 16.9736 44.5939 17.2457C45.2743 17.5179 45.8876 17.9344 46.3914 18.4665C46.8266 19.038 47.1409 19.6921 47.3151 20.389C47.4893 21.086 47.5199 21.811 47.4048 22.5201ZM86.815 11.2601H80.9598C80.6801 11.2512 80.4022 11.3077 80.1481 11.425C79.894 11.5423 79.6707 11.7171 79.496 11.9357L71.3887 24.0965L67.5603 12.6113C67.5205 12.285 67.3797 11.9794 67.1576 11.7371C66.9355 11.4949 66.6433 11.3281 66.3217 11.2601H60.4665C60.1977 11.2601 59.94 11.3668 59.7499 11.5569C59.5599 11.7469 59.4531 12.0047 59.4531 12.2735L65.8713 31.3029L59.7909 39.9732C59.695 40.0577 59.6183 40.1617 59.5657 40.2782C59.5131 40.3946 59.4859 40.521 59.4859 40.6488C59.4859 40.7766 59.5131 40.9029 59.5657 41.0194C59.6183 41.1359 59.695 41.2399 59.7909 41.3244H60.4665H66.3217C66.5156 41.4149 66.727 41.4619 66.941 41.4619C67.155 41.4619 67.3664 41.4149 67.5603 41.3244L87.7158 12.9491C87.8146 12.8545 87.8932 12.7409 87.9469 12.6151C88.0006 12.4893 88.0283 12.3539 88.0283 12.2172C88.0283 12.0804 88.0006 11.945 87.9469 11.8193C87.8932 11.6935 87.8146 11.5799 87.7158 11.4853L86.815 11.2601Z" fill="#253B80"/>
<path d="M106.407 5.23403e-07H94.134C93.9268 -0.0153255 93.7187 0.0104297 93.5216 0.075786C93.3244 0.141142 93.1422 0.244811 92.9852 0.380836C92.8283 0.516861 92.6997 0.68256 92.607 0.868412C92.5143 1.05426 92.4592 1.2566 92.445 1.46381L87.4905 32.8794C87.4573 33.0059 87.452 33.1381 87.475 33.2668C87.498 33.3956 87.5488 33.5178 87.6238 33.625C87.6988 33.7321 87.7962 33.8217 87.9093 33.8874C88.0224 33.953 88.1485 33.9933 88.2787 34.0054H94.8096C95.073 34.0107 95.3299 33.9234 95.5357 33.7588C95.7414 33.5943 95.8829 33.3627 95.9356 33.1046L97.3994 24.0965C97.3988 23.8797 97.443 23.665 97.5292 23.4661C97.6154 23.2671 97.7417 23.088 97.9002 22.94C98.0587 22.7921 98.246 22.6784 98.4505 22.6062C98.6549 22.5339 98.8721 22.5046 99.0884 22.5201H102.917C104.575 22.7074 106.253 22.5638 107.855 22.0978C109.457 21.6318 110.95 20.8526 112.249 19.8053C113.548 18.758 114.626 17.4635 115.42 15.9966C116.215 14.5298 116.711 12.9199 116.879 11.2601C117.219 9.91173 117.254 8.50448 116.982 7.1409C116.709 5.77732 116.135 4.49179 115.303 3.37802C114.157 2.19977 112.766 1.2868 111.23 0.70322C109.693 0.119641 108.047 -0.120385 106.407 5.23403e-07ZM107.759 11.2601C107.083 15.6515 103.705 15.6515 100.552 15.6515H98.638L99.9892 7.65684C99.9976 7.49938 100.043 7.34607 100.121 7.20908C100.199 7.0721 100.308 6.95523 100.439 6.86776C100.57 6.7803 100.72 6.72466 100.876 6.70526C101.033 6.68586 101.192 6.70325 101.34 6.75603C103.592 6.75603 105.619 6.75603 106.745 8.10724C107.139 8.52338 107.435 9.02272 107.61 9.5684C107.786 10.1141 107.837 10.6922 107.759 11.2601ZM143.003 11.2601H137.147C136.918 11.2725 136.698 11.3547 136.517 11.4956C136.336 11.6364 136.202 11.8293 136.134 12.0483V13.7373V13.1743C135.144 12.2389 133.931 11.5721 132.611 11.2371C131.29 10.9021 129.906 10.91 128.59 11.2601C125.422 11.295 122.368 12.4417 119.96 14.4998C117.552 16.5579 115.943 19.3967 115.415 22.5201C115.129 24.0954 115.181 25.7137 115.57 27.2671C115.958 28.8204 116.673 30.2731 117.667 31.5281C118.58 32.5457 119.716 33.3392 120.985 33.8469C122.254 34.3547 123.624 34.563 124.987 34.4558C126.495 34.4646 127.99 34.1701 129.383 33.5898C130.776 33.0095 132.038 32.1552 133.094 31.0777V32.7668C133.059 32.9022 133.056 33.044 133.085 33.1809C133.114 33.3177 133.175 33.4459 133.262 33.5551C133.35 33.6644 133.462 33.7518 133.589 33.8104C133.716 33.869 133.855 33.8972 133.995 33.8928H139.399C139.8 33.9254 140.198 33.8037 140.512 33.5525C140.826 33.3014 141.032 32.9397 141.088 32.5416L144.241 12.3861C144.274 12.2596 144.28 12.1273 144.257 11.9986C144.234 11.8698 144.183 11.7476 144.108 11.6404C144.033 11.5333 143.936 11.4438 143.822 11.3781C143.709 11.3124 143.583 11.2721 143.453 11.2601H143.003ZM135.121 22.5201C134.9 24.1114 134.1 25.5653 132.874 26.604C131.649 27.6426 130.083 28.1931 128.477 28.1501C127.656 28.3356 126.802 28.3088 125.994 28.0724C125.186 27.836 124.452 27.3977 123.861 26.7989C123.548 26.1289 123.387 25.3987 123.387 24.6595C123.387 23.9204 123.548 23.1901 123.861 22.5201C124.104 20.939 124.911 19.4991 126.131 18.4648C127.352 17.4305 128.904 16.8714 130.504 16.8901C131.236 16.8522 131.967 16.9736 132.647 17.2457C133.328 17.5179 133.941 17.9344 134.445 18.4665C134.822 19.063 135.076 19.7289 135.192 20.425C135.308 21.1212 135.284 21.8335 135.121 22.5201ZM149.984 0.900805L144.917 32.8794C144.87 33.0653 144.884 33.2613 144.956 33.4389C145.028 33.6165 145.155 33.7665 145.318 33.867C145.481 33.9675 145.672 34.0132 145.864 33.9976C146.055 33.982 146.236 33.9058 146.381 33.7802H151.56C151.955 33.7881 152.341 33.6573 152.649 33.4104C152.958 33.1635 153.17 32.8162 153.249 32.429L157.641 1.12601C157.646 0.862581 157.559 0.605635 157.394 0.399893C157.23 0.194151 156.998 0.0526426 156.74 5.23403e-07H150.997C150.87 -0.0160535 150.74 -0.00468769 150.618 0.0333359C150.495 0.0713594 150.382 0.135162 150.286 0.220467C150.19 0.305771 150.114 0.410606 150.061 0.527943C150.009 0.645281 149.983 0.772409 149.984 0.900805Z" fill="#179BD7"/>
</g>
<defs>
<clipPath id="clip0_64_975">
<rect width="157.641" height="42" fill="white"/>
</clipPath>
</defs>
</svg>
