<svg width="19" height="18" viewBox="0 0 19 18" fill="none" xmlns="http://www.w3.org/2000/svg">
<path fill-rule="evenodd" clip-rule="evenodd" d="M18.5 9C18.5 13.9706 14.4706 18 9.5 18C4.52944 18 0.5 13.9706 0.5 9C0.5 4.02944 4.52944 0 9.5 0C14.4706 0 18.5 4.02944 18.5 9ZM9.5 15C8.94771 15 8.5 14.5523 8.5 14V10H4.5C3.94772 10 3.5 9.55229 3.5 9C3.5 8.44771 3.94772 8 4.5 8H8.5V4C8.5 3.44772 8.94771 3 9.5 3C10.0523 3 10.5 3.44772 10.5 4V8H14.5C15.0523 8 15.5 8.44771 15.5 9C15.5 9.55229 15.0523 10 14.5 10H10.5V14C10.5 14.5523 10.0523 15 9.5 15Z" fill="#0065FF"/>
</svg>
