<svg width="18" height="19" viewBox="0 0 18 19" fill="none" xmlns="http://www.w3.org/2000/svg">
<path fill-rule="evenodd" clip-rule="evenodd" d="M18 9.5C18 14.4706 13.9706 18.5 9 18.5C4.02944 18.5 0 14.4706 0 9.5C0 4.52944 4.02944 0.5 9 0.5C13.9706 0.5 18 4.52944 18 9.5ZM9 15.5C8.44771 15.5 8 15.0523 8 14.5V10.5H4C3.44772 10.5 3 10.0523 3 9.5C3 8.94771 3.44772 8.5 4 8.5H8V4.5C8 3.94772 8.44771 3.5 9 3.5C9.55228 3.5 10 3.94772 10 4.5V8.5H14C14.5523 8.5 15 8.94771 15 9.5C15 10.0523 14.5523 10.5 14 10.5H10V14.5C10 15.0523 9.55229 15.5 9 15.5Z" fill="#2C3E5D"/>
</svg>
