<svg width="19" height="18" viewBox="0 0 19 18" fill="none" xmlns="http://www.w3.org/2000/svg">
<path d="M8 14.25L7.46967 13.7197L6.93934 14.25L7.46967 14.7803L8 14.25ZM10.4697 10.7197L7.46967 13.7197L8.53033 14.7803L11.5303 11.7803L10.4697 10.7197ZM7.46967 14.7803L10.4697 17.7803L11.5303 16.7197L8.53033 13.7197L7.46967 14.7803Z" fill="#0065FF"/>
<path d="M4.95337 11.625C4.35856 10.5948 4.13128 9.39309 4.30875 8.21679C4.48622 7.0405 5.05791 5.95936 5.93018 5.15047C6.80245 4.34158 7.92357 3.85291 9.10989 3.76451C10.2962 3.67612 11.4774 3.99324 12.4599 4.66392C13.4424 5.3346 14.168 6.31908 14.5178 7.45608C14.8677 8.59308 14.821 9.81519 14.3855 10.9222C13.9499 12.0292 13.1513 12.9554 12.1205 13.5492C11.0897 14.143 9.88777 14.3691 8.71166 14.1905" stroke="#0065FF" stroke-width="1.5" stroke-linecap="round"/>
</svg>
