<svg width="19" height="18" viewBox="0 0 19 18" fill="none" xmlns="http://www.w3.org/2000/svg">
<path fill-rule="evenodd" clip-rule="evenodd" d="M2.75 6.75C2.75 4.62868 2.75 3.56802 3.40901 2.90901C4.06802 2.25 5.12868 2.25 7.25 2.25H12.0074C12.6205 2.25 12.927 2.25 13.2027 2.36418C13.4784 2.47836 13.6951 2.69513 14.1287 3.12868L15.3713 4.37132C15.8049 4.80487 16.0216 5.02164 16.1358 5.2973C16.25 5.57295 16.25 5.87951 16.25 6.49264V11.25C16.25 13.3713 16.25 14.432 15.591 15.091C15.11 15.572 14.4151 15.7019 13.25 15.737V13.5L13.25 13.4538C13.25 12.9632 13.2501 12.5224 13.2021 12.1656C13.1498 11.7761 13.0282 11.3765 12.7008 11.0492C12.3735 10.7218 11.9739 10.6002 11.5844 10.5479C11.2276 10.4999 10.7868 10.5 10.2962 10.5L10.25 10.5H8L7.95379 10.5C7.4632 10.5 7.02241 10.4999 6.66563 10.5479C6.27611 10.6002 5.8765 10.7218 5.54917 11.0492C5.22185 11.3765 5.10025 11.7761 5.04788 12.1656C4.99991 12.5224 4.99995 12.9632 5 13.4538L5 13.5V15.6929C4.26869 15.621 3.77642 15.4584 3.40901 15.091C2.75 14.432 2.75 13.3713 2.75 11.25V6.75ZM11.75 13.5V15.75H7.25C6.98372 15.75 6.73416 15.75 6.5 15.7487V13.5C6.5 12.9485 6.50159 12.6103 6.5345 12.3655C6.56342 12.1504 6.60456 12.1144 6.60944 12.1102L6.60983 12.1098L6.61019 12.1094C6.61445 12.1046 6.65037 12.0634 6.86551 12.0345C7.11027 12.0016 7.44847 12 8 12H10.25C10.8015 12 11.1397 12.0016 11.3845 12.0345C11.5996 12.0634 11.6356 12.1046 11.6398 12.1094L11.6402 12.1098L11.6406 12.1102C11.6454 12.1144 11.6866 12.1504 11.7155 12.3655C11.7484 12.6103 11.75 12.9485 11.75 13.5ZM5.75 5.25C5.33579 5.25 5 5.58579 5 6C5 6.41421 5.33579 6.75 5.75 6.75H9.5C9.91421 6.75 10.25 6.41421 10.25 6C10.25 5.58579 9.91421 5.25 9.5 5.25H5.75Z" fill="white"/>
</svg>
