<svg width="46" height="46" viewBox="0 0 46 46" fill="none" xmlns="http://www.w3.org/2000/svg">
<rect width="46" height="46" rx="23" fill="#E1DFDF"/>
<mask id="mask0_25_950" style="mask-type:alpha" maskUnits="userSpaceOnUse" x="11" y="11" width="24" height="24">
<path d="M31.5418 24.127C31.5878 23.759 31.6223 23.391 31.6223 23C31.6223 22.609 31.5878 22.241 31.5418 21.873L33.9683 19.9755C34.1868 19.803 34.2443 19.4925 34.1063 19.2395L31.8063 15.2605C31.6683 15.0075 31.3578 14.9155 31.1048 15.0075L28.2413 16.1575C27.6433 15.6975 26.9993 15.318 26.2978 15.0305L25.8608 11.983C25.8263 11.707 25.5848 11.5 25.2973 11.5H20.6973C20.4098 11.5 20.1683 11.707 20.1338 11.983L19.6968 15.0305C18.9953 15.318 18.3513 15.709 17.7533 16.1575L14.8898 15.0075C14.6253 14.904 14.3263 15.0075 14.1883 15.2605L11.8883 19.2395C11.7388 19.4925 11.8078 19.803 12.0263 19.9755L14.4528 21.873C14.4068 22.241 14.3723 22.6205 14.3723 23C14.3723 23.3795 14.4068 23.759 14.4528 24.127L12.0263 26.0245C11.8078 26.197 11.7503 26.5075 11.8883 26.7605L14.1883 30.7395C14.3263 30.9925 14.6368 31.0845 14.8898 30.9925L17.7533 29.8425C18.3513 30.3025 18.9953 30.682 19.6968 30.9695L20.1338 34.017C20.1683 34.293 20.4098 34.5 20.6973 34.5H25.2973C25.5848 34.5 25.8263 34.293 25.8608 34.017L26.2978 30.9695C26.9993 30.682 27.6433 30.291 28.2413 29.8425L31.1048 30.9925C31.3693 31.096 31.6683 30.9925 31.8063 30.7395L34.1063 26.7605C34.2443 26.5075 34.1868 26.197 33.9683 26.0245L31.5418 24.127V24.127ZM22.9973 27.025C20.7778 27.025 18.9723 25.2195 18.9723 23C18.9723 20.7805 20.7778 18.975 22.9973 18.975C25.2168 18.975 27.0223 20.7805 27.0223 23C27.0223 25.2195 25.2168 27.025 22.9973 27.025Z" fill="#979797"/>
</mask>
<g mask="url(#mask0_25_950)">
<rect width="46" height="46" fill="#4C4441"/>
</g>
</svg>
