<svg width="46" height="46" viewBox="0 0 46 46" fill="none" xmlns="http://www.w3.org/2000/svg">
<rect width="46" height="46" rx="23" fill="#E1DFDF"/>
<path d="M17.2945 35.2123C17.7652 35.2123 18.1126 34.9882 18.6729 34.4839L22.808 30.7522L30.1368 30.7634C33.5099 30.7634 35.4037 28.8136 35.4037 25.4853V16.7781C35.4037 13.4499 33.5099 11.5 30.1368 11.5H15.8489C12.4871 11.5 10.582 13.4499 10.582 16.7781V25.4853C10.582 28.8248 12.5431 30.7522 15.7705 30.7522H16.2187V34.002C16.2187 34.7416 16.611 35.2123 17.2945 35.2123ZM17.373 22.8631C16.4093 22.8631 15.6248 22.0899 15.6248 21.1261C15.6248 20.1624 16.4093 19.378 17.373 19.378C18.3367 19.378 19.1211 20.1624 19.1211 21.1261C19.1211 22.0899 18.3367 22.8631 17.373 22.8631ZM23.0097 22.8631C22.0348 22.8631 21.2615 22.0899 21.2615 21.1261C21.2615 20.1624 22.0348 19.378 23.0097 19.378C23.9734 19.378 24.7467 20.1624 24.7467 21.1261C24.7467 22.0899 23.9734 22.8631 23.0097 22.8631ZM28.6352 22.8631C27.6715 22.8631 26.887 22.0899 26.887 21.1261C26.887 20.1624 27.6715 19.378 28.6352 19.378C29.5989 19.378 30.3834 20.1624 30.3834 21.1261C30.3834 22.0899 29.5989 22.8631 28.6352 22.8631Z" fill="#4C4441"/>
</svg>
