<svg width="25" height="24" viewBox="0 0 25 24" fill="none" xmlns="http://www.w3.org/2000/svg">
<path fill-rule="evenodd" clip-rule="evenodd" d="M14.0306 2.54161C14.118 2.71093 14.1397 2.92777 14.183 3.36144C14.2651 4.1823 14.3061 4.59274 14.4779 4.81793C14.6958 5.10358 15.0503 5.25038 15.4063 5.20248C15.687 5.16472 16.0063 4.90352 16.6447 4.38113C16.9821 4.10515 17.1507 3.96716 17.3322 3.90918C17.5627 3.83555 17.8121 3.84798 18.0341 3.94419C18.2089 4.01994 18.363 4.17402 18.6712 4.4822L19.5646 5.37567C19.8728 5.68385 20.0269 5.83794 20.1027 6.01275C20.1989 6.23478 20.2113 6.48415 20.1377 6.71464C20.0797 6.89612 19.9417 7.06478 19.6657 7.4021C19.1433 8.0406 18.8821 8.35984 18.8443 8.64056C18.7964 8.99662 18.9432 9.35102 19.2289 9.56893C19.4541 9.74072 19.8645 9.78176 20.6854 9.86385C21.1191 9.90722 21.336 9.92891 21.5053 10.0162C21.7203 10.1272 21.8879 10.3123 21.9768 10.5373C22.0469 10.7145 22.0469 10.9324 22.0469 11.3682V12.6319C22.0469 13.0676 22.0469 13.2855 21.9769 13.4626C21.8879 13.6877 21.7203 13.8729 21.5052 13.9838C21.3359 14.0711 21.1191 14.0928 20.6855 14.1361L20.6855 14.1361C19.8649 14.2182 19.4546 14.2592 19.2294 14.4309C18.9436 14.6489 18.7968 15.0034 18.8447 15.3596C18.8825 15.6402 19.1436 15.9593 19.6659 16.5976C19.9417 16.9348 20.0797 17.1034 20.1377 17.2848C20.2114 17.5154 20.1989 17.7648 20.1026 17.9869C20.0269 18.1617 19.8729 18.3157 19.5648 18.6238L18.6712 19.5174C18.363 19.8255 18.2089 19.9796 18.0341 20.0554C17.8121 20.1516 17.5627 20.164 17.3322 20.0904C17.1508 20.0324 16.9821 19.8944 16.6448 19.6184L16.6448 19.6184C16.0063 19.096 15.6871 18.8348 15.4064 18.7971C15.0503 18.7492 14.6959 18.896 14.478 19.1816C14.3062 19.4068 14.2651 19.8173 14.183 20.6383C14.1397 21.0722 14.118 21.2891 14.0306 21.4585C13.9197 21.6735 13.7346 21.8409 13.5097 21.9299C13.3325 22 13.1145 22 12.6785 22H11.4151C10.9793 22 10.7613 22 10.5842 21.9299C10.3592 21.841 10.174 21.6734 10.0631 21.4584C9.97578 21.2891 9.9541 21.0722 9.91073 20.6385C9.82864 19.8176 9.78759 19.4072 9.61579 19.182C9.39788 18.8964 9.0435 18.7496 8.68745 18.7975C8.40673 18.8352 8.08747 19.0964 7.44895 19.6189L7.44894 19.6189C7.11161 19.8949 6.94294 20.0329 6.76146 20.0908C6.53097 20.1645 6.28161 20.152 6.0596 20.0558C5.88478 19.9801 5.73068 19.826 5.42248 19.5178L4.52904 18.6243C4.22085 18.3162 4.06676 18.1621 3.99101 17.9873C3.89481 17.7652 3.88238 17.5159 3.95601 17.2854C4.01398 17.1039 4.15198 16.9352 4.42798 16.5979C4.95038 15.9594 5.21159 15.6402 5.24935 15.3594C5.29725 15.0034 5.15045 14.649 4.8648 14.4311C4.63961 14.2593 4.22917 14.2182 3.40831 14.1361C2.97464 14.0928 2.7578 14.0711 2.58849 13.9838C2.37343 13.8728 2.20589 13.6877 2.11692 13.4627C2.04688 13.2855 2.04688 13.0676 2.04688 12.6318V11.3683C2.04688 10.9324 2.04688 10.7144 2.11696 10.5372C2.20592 10.3123 2.37342 10.1272 2.5884 10.0163C2.75775 9.92891 2.97464 9.90722 3.40843 9.86384H3.40843H3.40843C4.22952 9.78173 4.64006 9.74068 4.86529 9.56881C5.15083 9.35092 5.29757 8.99664 5.24974 8.64066C5.21201 8.35987 4.95073 8.04052 4.42815 7.40182C4.15204 7.06435 4.01398 6.89561 3.95601 6.71405C3.88244 6.48364 3.89487 6.23438 3.991 6.01243C4.06675 5.83754 4.22091 5.68339 4.52921 5.37509L5.42253 4.48177L5.42253 4.48177C5.73073 4.17357 5.88482 4.01947 6.05964 3.94373C6.28166 3.84753 6.53102 3.8351 6.7615 3.90872C6.94299 3.9667 7.11168 4.10472 7.44907 4.38076C8.08749 4.9031 8.4067 5.16427 8.68732 5.20207C9.04349 5.25003 9.39801 5.10319 9.61594 4.81742C9.78765 4.59227 9.82868 4.18195 9.91074 3.36131C9.9541 2.92776 9.97578 2.71098 10.0631 2.5417C10.174 2.32658 10.3592 2.15898 10.5843 2.07001C10.7614 2 10.9793 2 11.415 2H12.6787C13.1145 2 13.3324 2 13.5096 2.07005C13.7346 2.15902 13.9197 2.32656 14.0306 2.54161ZM12.0469 16C14.256 16 16.0469 14.2091 16.0469 12C16.0469 9.79086 14.256 8 12.0469 8C9.83774 8 8.04688 9.79086 8.04688 12C8.04688 14.2091 9.83774 16 12.0469 16Z" fill="#2C3E5D"/>
</svg>
