<svg width="46" height="46" viewBox="0 0 46 46" fill="none" xmlns="http://www.w3.org/2000/svg">
<mask id="mask0_67_714" style="mask-type:alpha" maskUnits="userSpaceOnUse" x="11" y="11" width="24" height="24">
<path d="M15.525 17.25C15.0675 17.25 14.6287 17.0683 14.3052 16.7448C13.9817 16.4213 13.8 15.9825 13.8 15.525C13.8 15.0675 13.9817 14.6287 14.3052 14.3052C14.6287 13.9817 15.0675 13.8 15.525 13.8C15.9825 13.8 16.4213 13.9817 16.7448 14.3052C17.0683 14.6287 17.25 15.0675 17.25 15.525C17.25 15.9825 17.0683 16.4213 16.7448 16.7448C16.4213 17.0683 15.9825 17.25 15.525 17.25ZM33.8215 22.517L23.4715 12.167C23.0575 11.753 22.4825 11.5 21.85 11.5H13.8C12.5235 11.5 11.5 12.5235 11.5 13.8V21.85C11.5 22.4825 11.753 23.0575 12.1785 23.4715L22.517 33.8215C22.9425 34.2355 23.5175 34.5 24.15 34.5C24.7825 34.5 25.3575 34.2355 25.7715 33.8215L33.8215 25.7715C34.247 25.3575 34.5 24.7825 34.5 24.15C34.5 23.506 34.2355 22.931 33.8215 22.517Z" fill="#FFF"/>
</mask>
<g mask="url(#mask0_67_714)">
<rect width="46" height="46" fill="#FFF"/>
</g>
</svg>
