<svg width="24" height="24" viewBox="0 0 24 24" fill="none" xmlns="http://www.w3.org/2000/svg">
<path d="M17.9558 8.20027C17.5596 8.37096 17.143 8.48982 16.7163 8.55392C16.9158 8.51969 17.2093 8.16034 17.3261 8.01489C17.5036 7.79549 17.6389 7.54502 17.725 7.27622C17.725 7.25625 17.745 7.22773 17.725 7.21347C17.715 7.20798 17.7037 7.20511 17.6923 7.20511C17.6808 7.20511 17.6695 7.20798 17.6595 7.21347C17.1962 7.46457 16.7032 7.65622 16.192 7.78388C16.1742 7.78932 16.1552 7.78981 16.1372 7.78529C16.1191 7.78077 16.1026 7.77141 16.0894 7.75821C16.0496 7.71079 16.0068 7.66601 15.9612 7.62416C15.7527 7.4372 15.5162 7.28418 15.2602 7.17069C14.9147 7.02883 14.5416 6.96739 14.1689 6.99102C13.8073 7.01388 13.4542 7.11096 13.1317 7.27622C12.8141 7.45045 12.5349 7.68716 12.311 7.97211C12.0755 8.26539 11.9055 8.60576 11.8124 8.97031C11.7356 9.31707 11.7269 9.67546 11.7867 10.0256C11.7867 10.0854 11.7867 10.094 11.7354 10.0854C9.70377 9.78598 8.03683 9.06443 6.67478 7.51579C6.61494 7.44734 6.5836 7.44734 6.53516 7.51579C5.94247 8.41702 6.23026 9.84302 6.97113 10.5475C7.07086 10.6416 7.17344 10.7328 7.28172 10.8184C6.94204 10.7943 6.61065 10.7021 6.3072 10.5475C6.25021 10.5104 6.21886 10.5304 6.21602 10.5988C6.20794 10.6937 6.20794 10.7891 6.21602 10.884C6.27547 11.3388 6.45454 11.7696 6.7349 12.1324C7.01527 12.4952 7.38688 12.7769 7.81172 12.9489C7.91529 12.9933 8.0232 13.0267 8.13371 13.0487C7.81925 13.1106 7.49673 13.1203 7.17914 13.0772C7.11075 13.0629 7.0851 13.1 7.11075 13.1656C7.52962 14.3064 8.4386 14.6544 9.10538 14.8483C9.19656 14.8625 9.28775 14.8625 9.39033 14.8854C9.39033 14.8854 9.39033 14.8854 9.37323 14.9025C9.17662 15.2618 8.38161 15.5043 8.01688 15.6297C7.35115 15.8691 6.64136 15.9606 5.93677 15.8978C5.82564 15.8807 5.79999 15.8836 5.7715 15.8978C5.743 15.9121 5.7715 15.9435 5.80284 15.972C5.94532 16.0661 6.08779 16.1488 6.23596 16.2287C6.67707 16.4695 7.14342 16.6608 7.6265 16.7991C10.1283 17.4892 12.9436 16.9816 14.8214 15.1135C16.2974 13.6476 16.816 11.6255 16.816 9.6006C16.816 9.5236 16.9101 9.47797 16.9642 9.43804C17.3376 9.14682 17.6669 8.80289 17.9416 8.41702C17.9892 8.3595 18.0136 8.28626 18.01 8.21168C18.01 8.1689 18.01 8.17745 17.9558 8.20027Z" fill="#4C4441"/>
</svg>
