<svg width="46" height="46" viewBox="0 0 46 46" fill="none" xmlns="http://www.w3.org/2000/svg">
<rect width="46" height="46" rx="23" fill="#E1DFDF"/>
<path d="M22.9867 35.3241C30.0409 35.3241 35.8633 29.5016 35.8633 22.4475C35.8633 15.4058 30.0284 9.58334 22.9743 9.58334C15.9326 9.58334 10.1226 15.4058 10.1226 22.4475C10.1226 29.5016 15.945 35.3241 22.9867 35.3241ZM22.9867 22.0121C21.1703 22.0121 19.7023 20.4818 19.7023 18.429C19.7023 16.5255 21.1703 14.933 22.9867 14.933C24.7907 14.933 26.2588 16.5255 26.2588 18.429C26.2588 20.4818 24.7907 22.0245 22.9867 22.0121ZM17.2887 28.9294C16.7039 28.9294 16.4302 28.5437 16.4302 28.0212C16.4302 26.6277 18.4955 23.0322 22.9867 23.0322C27.4656 23.0322 29.5308 26.6277 29.5308 28.0212C29.5308 28.5437 29.2571 28.9294 28.6848 28.9294H17.2887Z" fill="#4C4441"/>
</svg>
