<svg width="46" height="46" viewBox="0 0 46 46" fill="none" xmlns="http://www.w3.org/2000/svg">
<rect width="46" height="46" rx="23" fill="#E1DFDF"/>
<path d="M15.8684 11.1206H30.3167C30.2388 10.118 29.6483 9.58333 28.5678 9.58333H17.6062C16.5368 9.58333 15.9353 10.118 15.8684 11.1206ZM13.4957 14.3623H32.5113C32.3553 13.304 31.8095 12.6913 30.6175 12.6913H15.3783C14.1863 12.6913 13.6516 13.304 13.4957 14.3623ZM14.5874 35.3385H31.3862C33.7923 35.3385 35.0623 34.0909 35.0623 31.7069V19.8319C35.0623 17.448 33.7923 16.2004 31.3862 16.2004H14.5874C12.17 16.2004 10.9224 17.4369 10.9224 19.8319V31.7069C10.9224 34.0909 12.17 35.3385 14.5874 35.3385ZM22.9868 27.5629C21.0484 27.5518 19.5446 25.9365 19.5334 23.7977C19.5334 21.7703 21.0596 20.0881 22.9868 20.0881C24.9251 20.0881 26.4401 21.7703 26.4401 23.7977C26.4401 25.9365 24.9362 27.5852 22.9868 27.5629ZM16.4588 33.1774C17.3389 30.8492 19.9122 29.2228 22.9868 29.2228C26.0725 29.2228 28.6346 30.8492 29.5258 33.1774H16.4588Z" fill="#4C4441"/>
</svg>
