<svg width="50" height="32" viewBox="0 0 50 32" fill="none" xmlns="http://www.w3.org/2000/svg">
<g clip-path="url(#clip0_168_1946)">
<path d="M-824.889 -947.511H1143.11V2227.56H-824.889V-947.511Z" fill="#F1F5F7"/>
<path d="M49.7778 28.4551C49.7778 30.4107 48.1902 32 46.2329 32H3.54489C1.58933 32 0 30.4124 0 28.4551V3.54489C0 1.58933 1.58756 0 3.54489 0H46.2293C48.192 0 49.7778 1.58756 49.7778 3.54489V28.4551Z" fill="white"/>
<path opacity="0.25" d="M46.2329 0H3.54489C1.58933 0 0 1.58756 0 3.54489V28.4516C0 30.4142 1.58756 32 3.54489 32H46.2293C46.6952 32.0005 47.1565 31.9091 47.587 31.7312C48.0175 31.5532 48.4087 31.2922 48.7382 30.963C49.0678 30.6338 49.3292 30.2428 49.5076 29.8125C49.686 29.3822 49.7778 28.9209 49.7778 28.4551V3.54489C49.7778 1.58933 48.1902 0 46.2329 0ZM48 26.8729C48 28.7218 46.5013 30.2222 44.6507 30.2222H5.12711C4.23881 30.2222 3.3869 29.8693 2.75877 29.2412C2.13065 28.6131 1.77778 27.7612 1.77778 26.8729V5.12711C1.77778 3.27822 3.27644 1.77778 5.12711 1.77778H44.6524C46.5013 1.77778 48 3.27644 48 5.12711V26.8729Z" fill="white"/>
<path d="M40.8891 21.2497L40.2438 21.2728L38.8464 21.2763C38.7149 21.2763 38.7167 21.2283 38.6918 21.1039L38.4713 19.8772C38.4411 19.7208 38.3878 19.6763 38.2313 19.6763C37.2002 19.6834 36.1691 19.6852 35.138 19.6763C34.9602 19.6728 34.8962 19.7403 34.8447 19.895C34.7078 20.3039 34.5602 20.7092 34.4038 21.111L34.226 21.271C33.3371 21.2781 32.4447 21.2746 31.5522 21.271L31.4935 21.2479L31.7424 20.631L35.5469 11.5519C35.8207 10.9012 36.1833 10.6843 36.8873 10.6843H38.882C39.042 10.6843 39.1095 10.6968 39.1451 10.8674C39.7407 13.7474 40.3433 16.6274 40.9442 19.5074L41.0598 21.1074L40.8873 21.2141V21.255L40.8891 21.2497ZM37.1824 13.7297L37.1344 13.7954C36.6633 15.0932 36.1922 15.9999 35.7175 17.7777H37.9984C37.7247 15.9999 37.4527 15.0274 37.1824 13.7297ZM7.11133 10.6666H7.53088L11.9629 10.6737C12.6509 10.6737 13.1647 11.0346 13.2962 11.7137C13.6696 13.6514 14.0429 15.5928 14.4091 17.5323L14.4802 17.8381L14.5815 17.6461C15.4793 15.3759 16.3771 12.9492 17.2695 10.6772C17.3264 10.535 17.394 10.6772 17.5469 10.6772H20.2135L20.1335 10.8817L16.0624 20.6132C15.97 20.8337 15.9167 21.1288 15.746 21.2408C15.586 21.3474 15.2944 21.271 15.0616 21.2728L13.106 21.2781C12.9282 21.2834 12.8642 21.2248 12.8215 21.0594C12.1193 18.311 11.3993 15.5661 10.706 12.8177C10.5762 12.311 10.2082 11.9643 9.72466 11.751C8.89209 11.3744 8.01336 11.1096 7.11133 10.9634V10.6666ZM23.778 20.8817L24.2758 18.5563L24.578 18.695C25.4544 19.1039 26.3771 19.2994 27.3424 19.2034C27.6571 19.1714 27.986 19.0737 28.2669 18.9243C28.8571 18.6043 28.9175 17.9501 28.3967 17.527C28.098 17.2834 27.7389 17.1128 27.41 16.9083C26.9175 16.6061 26.3895 16.343 25.9398 15.9874C24.3362 14.7199 24.8553 12.7874 25.7655 11.8452C26.4855 11.0986 26.9282 10.6808 27.9398 10.6808C29.5398 10.6808 31.1433 10.5972 31.9824 10.8799L32.1104 10.9368L31.6304 13.1679C31.0011 12.8923 30.3647 12.695 29.6927 12.6843C29.3046 12.6793 28.9172 12.7163 28.5371 12.7946C28.3272 12.8535 28.1357 12.9649 27.9807 13.1181C27.6784 13.3901 27.6731 13.7794 27.9629 14.0568C28.1584 14.2452 28.3896 14.4034 28.6278 14.5439L30.1247 15.3901C30.8287 15.8292 31.4082 16.3946 31.5469 17.2568C31.7513 18.5012 31.3744 19.5537 30.3984 20.3679C29.6962 20.9492 29.3584 21.1501 28.4695 21.2746C26.6687 21.271 25.266 21.2746 24.0535 20.9848L23.778 20.8781V20.8817ZM24.1549 10.6666C23.8491 12.4443 23.5504 13.4897 23.2535 14.8852C22.818 16.9243 22.3789 18.9652 21.9522 21.0061C21.9078 21.2194 21.8313 21.3154 21.6109 21.3083C20.8749 21.2941 20.1353 21.3332 19.4011 21.3332H19.1469C19.2571 21.3332 19.3602 20.2879 19.4669 19.7919C20.098 16.8408 20.7291 13.8719 21.3567 10.9208C21.3975 10.7252 21.4633 10.6683 21.6695 10.6719C22.4038 10.6897 23.1415 10.6666 23.8775 10.6666H24.1549Z" fill="#142688"/>
</g>
<defs>
<clipPath id="clip0_168_1946">
<rect width="49.7778" height="32" rx="4" fill="white"/>
</clipPath>
</defs>
</svg>
