<svg width="32" height="32" viewBox="0 0 32 32" fill="none" xmlns="http://www.w3.org/2000/svg">
<path fill-rule="evenodd" clip-rule="evenodd" d="M3.54274 4.87868C2.66406 5.75736 2.66406 7.17157 2.66406 10V22C2.66406 24.8284 2.66406 26.2426 3.54274 27.1213C4.42142 28 5.83563 28 8.66406 28H23.9974C26.1835 28 27.2766 28 28.0515 27.4575C28.3381 27.2567 28.5875 27.0074 28.7882 26.7207C29.3307 25.9459 29.3307 24.8528 29.3307 22.6667V22.6667H21.3307C19.1216 22.6667 17.3307 20.8758 17.3307 18.6667C17.3307 16.4575 19.1216 14.6667 21.3307 14.6667H29.3307V10V9.99998C29.3307 7.17157 29.3307 5.75736 28.452 4.87868C27.5734 4 26.1592 4 23.3307 4H8.66406C5.83564 4 4.42142 4 3.54274 4.87868ZM9.33008 9.66666C8.77779 9.66666 8.33008 10.1144 8.33008 10.6667C8.33008 11.2189 8.77779 11.6667 9.33008 11.6667H13.3301C13.8824 11.6667 14.3301 11.2189 14.3301 10.6667C14.3301 10.1144 13.8824 9.66666 13.3301 9.66666H9.33008Z" fill="#8270DB"/>
<path d="M22.6693 18.6665H21.3359" stroke="#8270DB" stroke-width="2" stroke-linecap="round"/>
</svg>
