<svg width="25" height="24" viewBox="0 0 25 24" fill="none" xmlns="http://www.w3.org/2000/svg">
<path fill-rule="evenodd" clip-rule="evenodd" d="M3.37868 3.87868C2.5 4.75736 2.5 6.17157 2.5 9V15C2.5 17.8284 2.5 19.2426 3.37868 20.1213C4.25736 21 5.67157 21 8.5 21H18.5C19.43 21 19.895 21 20.2765 20.8978C21.3117 20.6204 22.1204 19.8117 22.3978 18.7765C22.5 18.395 22.5 17.93 22.5 17H16.5C14.8431 17 13.5 15.6569 13.5 14C13.5 12.3431 14.8431 11 16.5 11H22.5V9C22.5 6.17157 22.5 4.75736 21.6213 3.87868C20.7426 3 19.3284 3 16.5 3H8.5C5.67157 3 4.25736 3 3.37868 3.87868ZM7.5 7C6.94772 7 6.5 7.44772 6.5 8C6.5 8.55228 6.94772 9 7.5 9H10.5C11.0523 9 11.5 8.55228 11.5 8C11.5 7.44772 11.0523 7 10.5 7H7.5Z" fill="#2C3E5D"/>
<path d="M17.5 14H16.5" stroke="#2C3E5D" stroke-width="2" stroke-linecap="round"/>
</svg>
